<?xml version="1.0" encoding="utf-8" ?>
<svg baseProfile="full" height="200mm" version="1.1" viewBox="0,0,200,200" width="200mm" xmlns="http://www.w3.org/2000/svg" xmlns:ev="http://www.w3.org/2001/xml-events" xmlns:xlink="http://www.w3.org/1999/xlink"><defs /><rect fill="#1a1a1a" height="200" width="200" x="0" y="0" /><text alignment-baseline="middle" fill="#e1ed5e" style="dominant-baseline: central; font-size:9.0px; font-family:Arial;" text-anchor="middle" x="100.0" y="100.0">2025</text><line stroke="#e1ed5e" stroke-width="0.3" x1="100.0" x2="100.0" y1="15.0" y2="10.0" /><path d="M 100.0 14.0 a86.0,86.0 0 0,1 42.46469731375804,11.215312516191453" fill="none" id="id49" stroke="none" /><text fill="#e1ed5e" style="font-size:6.75px; font-family:Arial;" text-anchor="middle"><textPath startOffset="22.20632615414155" xlink:href="#id49">January</textPath></text><path d="M 101.08401301168833 79.027996857942 l 2.0024593837081333 -38.74084908036591 a59.79256669841645,59.79256669841645 0 0,0 1.027401298194164,0.0619756520183158 l -2.6690227307419088 38.700640158967296" fill="#45ff2d" stroke="none" /><path d="M 101.44485096284872 79.0497635885617 l 1.8047819166670682 -26.169209695313583 a47.23137003368339,47.23137003368339 0 0,0 0.8106023395236678,0.06291834253199555 l -2.2549744455530774 26.134266090593123" fill="#d8ff1c" stroke="none" /><path d="M 103.59715602781102 79.31037775812273 l 6.873235906164147 -39.53252329851779 a61.125575013570035,61.125575013570035 0 0,0 1.0350739381055296,0.1891531461626749 l -7.552704965372577 39.408354671004375" fill="#37ff2e" stroke="none" /><path d="M 105.36241919743992 79.69619591428918 l 6.650460529696056 -25.1807333039472 a47.04415395019698,47.04415395019698 0 0,0 0.7811617039103994,0.21352100223303128 l -7.082920122830166 25.062525760887876" fill="#daff1c" stroke="none" /><line stroke="#e1ed5e" stroke-width="0.3" x1="143.23703022742887" x2="145.7803849466894" y1="26.81831364943548" y2="22.513508569990506" /><path d="M 143.74570117128098 25.957352633546492 a86.0,86.0 0 0,1 28.547481713284135,27.462654790039103" fill="none" id="id50" stroke="none" /><text fill="#e1ed5e" style="font-size:6.75px; font-family:Arial;" text-anchor="middle"><textPath startOffset="19.985693538727396" xlink:href="#id50">February</textPath></text><path d="M 113.06298171725822 83.55741782278167 l 24.580251385082384 -30.93955209337391 a60.51511915574142,60.51511915574142 0 0,0 0.8100283014354177,0.6549865527349922 l -25.109183085082293 30.511859443374792" fill="#3dff2e" stroke="none" /><path d="M 113.6212207817346 84.01681056812373 l 17.13596870191472 -20.10740727649577 a47.418729165799704,47.418729165799704 0 0,0 0.6166832854985452,0.534781668286328 l -17.47954578606003 19.809460614789767" fill="#d5ff1c" stroke="none" /><path d="M 116.15771136456269 86.58626213691792 l 12.710736880523916 -10.552143723516245 a37.52000512129624,37.52000512129624 0 0,0 0.4082560832150978,0.5004736852790574 l -12.890491455815422 10.331785868629087" fill="#ffa50f" stroke="none" /><path d="M 116.38621287248628 86.86637796730983 l 37.33532750564612 -29.924429991336773 a68.8476560581631,68.8476560581631 0 0,0 0.7332141589561155,0.9311075228106427 l -37.8448957451962 29.27733007457309" fill="#39ff87" stroke="none" /><path d="M 116.60985879189232 87.15038557335679 l 25.059070695554247 -19.386040565561085 a52.682417725520345,52.682417725520345 0 0,0 0.5487101087492884,0.7220381840380785 l -25.389056744527647 18.951817605641974" fill="#95ff23" stroke="none" /><line stroke="#e1ed5e" stroke-width="0.3" x1="172.23445277983987" x2="176.4835382374775" y1="55.19839476539836" y2="52.563006222186495" /><path d="M 173.08426987136738 54.67131705675599 a86.0,86.0 0 0,1 12.851231095245387,41.99856678651699" fill="none" id="id51" stroke="none" /><text fill="#e1ed5e" style="font-size:6.75px; font-family:Arial;" text-anchor="middle"><textPath startOffset="22.20632615414155" xlink:href="#id51">March</textPath></text><path d="M 118.03404312379186 89.2402003453031 l 22.640092859491265 -13.507945038152908 a47.3635806339,47.3635806339 0 0,0 0.41170302034109557,0.7037339172577687 l -22.869255554302686 13.116231708541244" fill="#d6ff1c" stroke="none" /><path d="M 118.73160827565052 90.50648371742162 l 14.40909551484203 -7.302789001049056 a37.15403233714987,37.15403233714987 0 0,0 0.28421063206516245,0.5729512914755208 l -14.5326661598606 7.053678121074585" fill="#ff9f0e" stroke="none" /><path d="M 118.89224826269711 90.83032412892265 l 25.454038941703377 -12.35455322520089 a49.29387007533741,49.29387007533741 0 0,0 0.36393384042905325,0.7665374826443447 l -25.662930975974188 11.914573326916004" fill="#beff1f" stroke="none" /><path d="M 119.04729006885535 91.15688171328212 l 36.180602312611335 -16.797630779943695 a60.88980300180296,60.88980300180296 0 0,0 0.43318073757274295,0.9544563349588587 l -36.46438536714742 16.172352436142774" fill="#39ff2e" stroke="none" /><path d="M 119.61058180528143 92.48833698450437 l 19.497515331903312 -7.468353885006798 a41.878922718126546,41.878922718126546 0 0,0 0.2520620795269638,0.675401055750766 l -19.623181999931898 7.131629692226699" fill="#ffe115" stroke="none" /><path d="M 120.6074358757038 95.95851677861258 l 25.884811147223164 -5.0764699971054466 a47.37790734229917,47.37790734229917 0 0,0 0.15006224807327578,0.8016385296507763 l -25.968359119206298 4.630153389992107" fill="#d6ff1c" stroke="none" /><path d="M 120.67395015179393 96.31383870115 l 25.96811913576022 -4.630110600990257 a47.37766357406278,47.37766357406278 0 0,0 0.13624042422660898,0.804098695913668 l -26.043971421507052 4.182426116760751" fill="#d6ff1c" stroke="none" /><line stroke="#e1ed5e" stroke-width="0.3" x1="184.98032266829074" x2="189.97916517819016" y1="98.17113171792111" y2="98.06355123074" /><path d="M 185.9800911702706 98.14961562048488 a86.0,86.0 0 0,1 -9.607161424134198,41.387399972396054" fill="none" id="id52" stroke="none" /><text fill="#e1ed5e" style="font-size:6.75px; font-family:Arial;" text-anchor="middle"><textPath startOffset="21.466115282336823" xlink:href="#id52">April</textPath></text><path d="M 120.99980553446 99.90962569577887 l 15.874525281501148 -0.06831726011948981 a36.8746722851544,36.8746722851544 0 0,0 -0.002731715601081087,0.6347545012108853 l -15.873349268610564 -0.20494671929508018" fill="#ff9b0e" stroke="none" /><path d="M 120.9764740272857 100.99374915477107 l 13.189044786238039 0.6248238903980241 a34.20383683886638,34.20383683886638 0 0,0 -0.032923064579097334,0.5878634345235839 l -13.176335370771412 -0.8517590412570313" fill="#ff750a" stroke="none" /><path d="M 120.89721153311464 102.0752229133903 l 27.92602858648733 2.773228108010323 a49.063390150734925,49.063390150734925 0 0,0 -0.09069180410511853,0.8396934705226491 l -27.87415448088116 -3.2535179004177635" fill="#c1ff1e" stroke="none" /><path d="M 120.49622156327973 104.57218783832717 l 27.57499726970405 6.15128338504705 a49.25276555856686,49.25276555856686 0 0,0 -0.19170919919582924,0.8258782126397384 l -27.465027504577666 -6.625030255035353" fill="#bfff1e" stroke="none" /><path d="M 120.13307415673323 105.97154293290107 l 9.713116918809954 2.8809457632461655 a31.131361644381183,31.131361644381183 0 0,0 -0.15680307606690408,0.5124415251519053 l -9.662087070236916 -3.047714260950128" fill="#ff4706" stroke="none" /><path d="M 120.02730092923936 106.31721596034902 l 60.08190278771807 18.951647881047055 a84.0,84.0 0 0,0 -0.4468309959350121,1.375204400088819 l -59.746779540766816 -19.98305118111367" fill="#4dd2ff" stroke="none" /><path d="M 119.41010516605496 108.01547362559984 l 20.618545649864753 8.514503524882612 a43.30742466065492,43.30742466065492 0 0,0 -0.2904670605019642,0.686578328444068 l -20.468927608170482 -8.868156378992843" fill="#fff417" stroke="none" /><path d="M 119.26925614724726 108.34839909993367 l 26.310532498395375 11.399029840586659 a49.6737162163488,49.6737162163488 0 0,0 -0.3466726650492695,0.7816553407753627 l -26.110418748614833 -11.85023351785471" fill="#b9ff1f" stroke="none" /><line stroke="#e1ed5e" stroke-width="0.3" x1="174.80103733775053" x2="179.2010983576182" y1="140.37084112569926" y2="142.7455964860345" /><path d="M 175.68104954172406 140.8457921977663 a86.0,86.0 0 0,1 -30.038265399797805,32.042727171017184" fill="none" id="id53" stroke="none" /><text fill="#e1ed5e" style="font-size:6.75px; font-family:Arial;" text-anchor="middle"><textPath startOffset="22.206326154141568" xlink:href="#id53">May</textPath></text><path d="M 116.71984013943494 112.70617746262583 l 21.613138698171895 16.42482066414057 a48.14594809977346,48.14594809977346 0 0,0 -0.5071216903925039,0.6555231455241171 l -21.32721019056132 -16.794421803777936" fill="#ccff1d" stroke="none" /><path d="M 116.498646956653 112.99209946851258 l 15.759071275486026 12.409709843505194 a41.058644666722586,41.058644666722586 0 0,0 -0.442029719735737,0.5515000405468219 l -15.543123643695434 -12.679137717630265" fill="#ffd513" stroke="none" /><path d="M 116.0416608686014 113.55231037782055 l 4.68875851550465 3.961155344777478 a27.138013366079985,27.138013366079985 0 0,0 -0.30453695833738437,0.35424528318586057 l -4.619879047596487 -4.041277727124867" fill="#ff0a01" stroke="none" /><path d="M 113.20401910651253 116.32954008644616 l 17.071624716913757 21.112645922945656 a48.15113604147743,48.15113604147743 0 0,0 -0.6489913463660806,0.5155979760882734 l -16.705675877830327 -21.403377813039057" fill="#ccff1d" stroke="none" /><path d="M 112.04921762599082 117.19931262002967 l 7.8269483917603 11.172354623286513 a34.64121068511702,34.64121068511702 0 0,0 -0.4913164814709674,0.3379319560185932 l -7.633475025666449 -11.305427368670202" fill="#ff7b0b" stroke="none" /><path d="M 111.45004920935366 117.60387380957326 l 7.20858004840804 11.082828658475766 a34.22091968765555,34.22091968765555 0 0,0 -0.4965589037866247,0.3169273862680159 l -7.016739342574485 -11.205270473567587" fill="#ff750a" stroke="none" /><line stroke="#e1ed5e" stroke-width="0.3" x1="143.8653032363475" x2="146.44561519142675" y1="172.8068346515853" y2="177.08958963109032" /><path d="M 144.38136562736335 173.6633856474863 a86.0,86.0 0 0,1 -40.68145358897372,12.25698825130547" fill="none" id="id54" stroke="none" /><text fill="#e1ed5e" style="font-size:6.75px; font-family:Arial;" text-anchor="middle"><textPath startOffset="21.466115282336833" xlink:href="#id54">June</textPath></text><path d="M 109.89434966115114 118.52300852407294 l 6.409635974744248 11.99934769462951 a34.60396186503572,34.60396186503572 0 0,0 -0.5278077997141503,0.27612409507328084 l -6.202137272503602 -12.107901208647506" fill="#ff7b0b" stroke="none" /><path d="M 107.59598834532513 119.57807347666477 l 7.053911224019595 18.180911550070956 a40.501364268887784,40.501364268887784 0 0,0 -0.6521293980546058,0.2465795378498132 l -6.739911605204715 -18.2996393380274" fill="#ffce13" stroke="none" /><path d="M 106.91757812671514 119.82793768551818 l 4.731603495051203 13.562252212250105 a35.363939456258635,35.363939456258635 0 0,0 -0.5764831827834646,0.19557439523645204 l -4.497450579330512 -13.64168959438468" fill="#ff860c" stroke="none" /><path d="M 106.57524785965236 119.94407469862006 l 8.323001648584263 25.245370233826996 a47.58196897683342,47.58196897683342 0 0,0 -0.7800693465366102,0.24975357098297632 l -7.8872109569567135 -25.384896651469678" fill="#d3ff1c" stroke="none" /><path d="M 106.2309692047433 120.05430185196036 l 5.695382109628764 18.33052102099987 a40.194931056818035,40.194931056818035 0 0,0 -0.6624986447339857,0.19960540709909888 l -5.379008490454533 -18.425841797204694" fill="#ffca12" stroke="none" /><path d="M 104.13013068566511 120.58985236759428 l 3.73253513119516 18.607727734840754 a39.97839165892537,39.97839165892537 0 0,0 -0.67588684553595,0.129535322571215 l -3.4116806710875056 -18.66922025576044" fill="#ffc712" stroke="none" /><path d="M 103.7750983002368 120.6578951692458 l 4.936762005537487 27.014690446474393 a48.46206691088916,48.46206691088916 0 0,0 -0.8218959511858814,0.14289714623487468 l -4.4710170828795555 -27.095666171230274" fill="#c8ff1d" stroke="none" /><line stroke="#e1ed5e" stroke-width="0.3" x1="102.19456741930631" x2="102.32365962044197" y1="184.97166512339345" y2="189.96999836594603" /><path d="M 102.22038585953345 185.97133177190398 a86.0,86.0 0 0,1 -42.740103519485714,-10.115201625700543" fill="none" id="id55" stroke="none" /><text fill="#e1ed5e" style="font-size:6.75px; font-family:Arial;" text-anchor="middle"><textPath startOffset="22.20632615414155" xlink:href="#id55">July</textPath></text><path d="M 100.54218724476979 120.99299961872073 l 0.1419248945366895 5.49520352172934 a26.497035966856664,26.497035966856664 0 0,0 -0.4560522331802764,0.007851352778032823 l -0.047312971463745176 -5.496832351786532" fill="#ff0000" stroke="none" /><path d="M 99.09653310690486 120.98055641714683 l -0.8804534942957938 20.44613294734396 a41.46508125701146,41.46508125701146 0 0,0 -0.7128280513326355,-0.03684506804175401 l 1.2322696140419183 -20.427948072540005" fill="#ffdb14" stroke="none" /><path d="M 98.73552117531835 120.96189622390904 l -1.719863999363713 28.511043419786677 a49.56286976235526,49.56286976235526 0 0,0 -0.8511531675699643,-0.05870050578635846 l 2.2103799277126073 -28.477214569484033" fill="#bbff1f" stroke="none" /><path d="M 98.01472825383883 120.90594882070398 l -1.4697713952252052 15.477460768848427 a36.54709039677407,36.54709039677407 0 0,0 -0.6257686855042242,-0.06486348286629387 l 1.7359726773350228 -15.449867917526372" fill="#ff970d" stroke="none" /><path d="M 94.81253420990036 120.34920634021253 l -3.9143005000969464 15.354878813097656 a36.8459474872907,36.8459474872907 0 0,0 -0.6132386090701949,-0.16196189029442337 l 4.17802955197863 -15.285225573499652" fill="#ff9b0e" stroke="none" /><path d="M 94.46302465271185 120.25689768951611 l -3.989362828050369 14.594992678404177 a36.130394147427275,36.130394147427275 0 0,0 -0.5985065718088295,-0.16914393551373338 l 4.240000567963812 -14.52415994955192" fill="#ff910d" stroke="none" /><path d="M 94.11515582081647 120.15858648285463 l -4.866037519038873 16.668655136756716 a38.36439993794257,38.36439993794257 0 0,0 -0.6323275671002383,-0.19051510890517456 l 5.152240060579357 -16.582424658745815" fill="#ffb010" stroke="none" /><line stroke="#e1ed5e" stroke-width="0.3" x1="58.666819895761336" x2="56.23545636021788" y1="174.27360380694188" y2="178.64263932499728" /><path d="M 58.180547188652646 175.14741091055294 a86.0,86.0 0 0,1 -31.652253787137756,-30.449443065178592" fill="none" id="id56" stroke="none" /><text fill="#e1ed5e" style="font-size:6.75px; font-family:Arial;" text-anchor="middle"><textPath startOffset="22.20632615414155" xlink:href="#id56">August</textPath></text><line stroke="#e1ed5e" stroke-width="0.3" x1="26.63291911575756" x2="22.317208475507996" y1="142.92168965132927" y2="145.44649492493687" /><path d="M 25.769776987707644 143.4266507060508 a86.0,86.0 0 0,1 -11.730757126820373,-40.83630448921669" fill="none" id="id57" stroke="none" /><text fill="#e1ed5e" style="font-size:6.75px; font-family:Arial;" text-anchor="middle"><textPath startOffset="21.46611528233685" xlink:href="#id57">September</textPath></text><line stroke="#e1ed5e" stroke-width="0.3" x1="15.007084014347285" x2="10.007500721073583" y1="101.09737516637583" y2="101.16192664675087" /><path d="M 14.007167355692545 101.11028546245083 a86.0,86.0 0 0,1 10.666146001902534,-42.60595125391555" fill="none" id="id58" stroke="none" /><text fill="#e1ed5e" style="font-size:6.75px; font-family:Arial;" text-anchor="middle"><textPath startOffset="22.20632615414155" xlink:href="#id58">October</textPath></text><line stroke="#e1ed5e" stroke-width="0.3" x1="26.266209847984257" x2="21.92892807433627" y1="57.711370442889674" y2="55.22380399835377" /><path d="M 25.39875349325466 57.213857153982495 a86.0,86.0 0 0,1 29.58750427330802,-30.492523968695096" fill="none" id="id59" stroke="none" /><text fill="#e1ed5e" style="font-size:6.75px; font-family:Arial;" text-anchor="middle"><textPath startOffset="21.46611528233685" xlink:href="#id59">November</textPath></text><line stroke="#e1ed5e" stroke-width="0.3" x1="56.762969772571076" x2="54.21961505331055" y1="26.818313649435495" y2="22.513508569990535" /><path d="M 56.25429882871897 25.957352633546506 a86.0,86.0 0 0,1 42.265352541879196,-11.944610805530505" fill="none" id="id60" stroke="none" /><text fill="#e1ed5e" style="font-size:6.75px; font-family:Arial;" text-anchor="middle"><textPath startOffset="22.20632615414155" xlink:href="#id60">December</textPath></text></svg>