<?xml version="1.0" encoding="utf-8" ?>
<svg baseProfile="full" height="200mm" version="1.1" viewBox="0,0,200,200" width="200mm" xmlns="http://www.w3.org/2000/svg" xmlns:ev="http://www.w3.org/2001/xml-events" xmlns:xlink="http://www.w3.org/1999/xlink"><defs /><rect fill="#1a1a1a" height="200" width="200" x="0" y="0" /><text alignment-baseline="middle" fill="#e1ed5e" style="dominant-baseline: central; font-size:9.0px; font-family:Arial;" text-anchor="middle" x="100.0" y="100.0">2025</text><line stroke="#e1ed5e" stroke-width="0.3" x1="100.0" x2="100.0" y1="15.0" y2="10.0" /><path d="M 100.0 14.0 a86.0,86.0 0 0,1 42.46469731375804,11.215312516191453" fill="none" id="id49" stroke="none" /><text fill="#e1ed5e" style="font-size:6.75px; font-family:Arial;" text-anchor="middle"><textPath startOffset="22.20632615414155" xlink:href="#id49">January</textPath></text><path d="M 101.08401301168833 79.027996857942 l 2.0024593837081333 -38.74084908036591 a59.79256669841645,59.79256669841645 0 0,0 1.027401298194164,0.0619756520183158 l -2.6690227307419088 38.700640158967296" fill="#3aff2e" stroke="none" /><path d="M 101.44485096284872 79.0497635885617 l 1.8047819166670682 -26.169209695313583 a47.23137003368339,47.23137003368339 0 0,0 0.8106023395236678,0.06291834253199555 l -2.2549744455530774 26.134266090593123" fill="#c3ff1e" stroke="none" /><path d="M 103.59715602781102 79.31037775812273 l 6.873235906164147 -39.53252329851779 a61.125575013570035,61.125575013570035 0 0,0 1.0350739381055296,0.1891531461626749 l -7.552704965372577 39.408354671004375" fill="#30ff33" stroke="none" /><path d="M 105.36241919743992 79.69619591428918 l 6.650460529696056 -25.1807333039472 a47.04415395019698,47.04415395019698 0 0,0 0.7811617039103994,0.21352100223303128 l -7.082920122830166 25.062525760887876" fill="#c6ff1e" stroke="none" /><line stroke="#e1ed5e" stroke-width="0.3" x1="143.23703022742887" x2="145.7803849466894" y1="26.81831364943548" y2="22.513508569990506" /><path d="M 143.74570117128098 25.957352633546492 a86.0,86.0 0 0,1 28.547481713284135,27.462654790039103" fill="none" id="id50" stroke="none" /><text fill="#e1ed5e" style="font-size:6.75px; font-family:Arial;" text-anchor="middle"><textPath startOffset="19.985693538727396" xlink:href="#id50">February</textPath></text><path d="M 113.06298171725822 83.55741782278167 l 24.580251385082384 -30.939552093373905 a60.51511915574142,60.51511915574142 0 0,0 0.8100283014354177,0.6549865527349854 l -25.109183085082293 30.511859443374792" fill="#33ff2f" stroke="none" /><path d="M 113.6212207817346 84.01681056812373 l 17.13596870191472 -20.10740727649577 a47.418729165799704,47.418729165799704 0 0,0 0.6166832854985452,0.5347816682863333 l -17.47954578606003 19.809460614789767" fill="#c1ff1e" stroke="none" /><path d="M 116.15771136456269 86.58626213691792 l 12.710736880523916 -10.552143723516245 a37.52000512129624,37.52000512129624 0 0,0 0.4082560832150978,0.5004736852790574 l -12.890491455815422 10.331785868629087" fill="#ffc112" stroke="none" /><path d="M 116.38621287248628 86.86637796730983 l 37.33532750564612 -29.924429991336773 a68.8476560581631,68.8476560581631 0 0,0 0.7332141589561155,0.9311075228106427 l -37.8448957451962 29.27733007457309" fill="#3aff8f" stroke="none" /><path d="M 116.60985879189232 87.15038557335679 l 25.059070695554247 -19.386040565561085 a52.682417725520345,52.682417725520345 0 0,0 0.5487101087492826,0.7220381840380785 l -25.389056744527643 18.951817605641974" fill="#85ff25" stroke="none" /><line stroke="#e1ed5e" stroke-width="0.3" x1="172.23445277983987" x2="176.4835382374775" y1="55.19839476539836" y2="52.563006222186495" /><path d="M 173.08426987136738 54.67131705675599 a86.0,86.0 0 0,1 12.851231095245387,41.99856678651699" fill="none" id="id51" stroke="none" /><text fill="#e1ed5e" style="font-size:6.75px; font-family:Arial;" text-anchor="middle"><textPath startOffset="22.20632615414155" xlink:href="#id51">March</textPath></text><path d="M 118.03404312379186 89.2402003453031 l 22.640092859491265 -13.507945038152908 a47.3635806339,47.3635806339 0 0,0 0.41170302034109557,0.7037339172577687 l -22.869255554302686 13.116231708541244" fill="#c2ff1e" stroke="none" /><path d="M 118.73160827565052 90.50648371742162 l 14.40909551484203 -7.302789001049056 a37.15403233714987,37.15403233714987 0 0,0 0.28421063206516245,0.5729512914755208 l -14.5326661598606 7.053678121074585" fill="#ffbc11" stroke="none" /><path d="M 118.89224826269711 90.83032412892265 l 25.454038941703377 -12.35455322520089 a49.29387007533741,49.29387007533741 0 0,0 0.36393384042905325,0.7665374826443447 l -25.662930975974188 11.914573326916004" fill="#abff21" stroke="none" /><path d="M 119.04729006885535 91.15688171328212 l 36.180602312611335 -16.797630779943695 a60.88980300180296,60.88980300180296 0 0,0 0.43318073757274295,0.9544563349588587 l -36.46438536714742 16.172352436142774" fill="#2fff30" stroke="none" /><path d="M 119.61058180528143 92.48833698450437 l 19.497515331903312 -7.468353885006798 a41.878922718126546,41.878922718126546 0 0,0 0.2520620795269638,0.675401055750766 l -19.623181999931898 7.131629692226699" fill="#fff917" stroke="none" /><path d="M 120.6074358757038 95.95851677861258 l 25.884811147223164 -5.0764699971054466 a47.37790734229917,47.37790734229917 0 0,0 0.15006224807327578,0.8016385296507763 l -25.968359119206298 4.630153389992107" fill="#c2ff1e" stroke="none" /><path d="M 120.67395015179393 96.31383870115 l 25.96811913576022 -4.630110600990257 a47.37766357406278,47.37766357406278 0 0,0 0.13624042422660898,0.804098695913668 l -26.043971421507052 4.182426116760751" fill="#c2ff1e" stroke="none" /><line stroke="#e1ed5e" stroke-width="0.3" x1="184.98032266829074" x2="189.97916517819016" y1="98.17113171792111" y2="98.06355123074" /><path d="M 185.9800911702706 98.14961562048488 a86.0,86.0 0 0,1 -9.607161424134198,41.387399972396054" fill="none" id="id52" stroke="none" /><text fill="#e1ed5e" style="font-size:6.75px; font-family:Arial;" text-anchor="middle"><textPath startOffset="21.466115282336823" xlink:href="#id52">April</textPath></text><path d="M 120.99980553446 99.90962569577887 l 15.874525281501148 -0.06831726011948981 a36.8746722851544,36.8746722851544 0 0,0 -0.002731715601081087,0.6347545012108853 l -15.873349268610564 -0.20494671929508018" fill="#ffb911" stroke="none" /><path d="M 120.9764740272857 100.99374915477107 l 13.189044786238039 0.6248238903980241 a34.20383683886638,34.20383683886638 0 0,0 -0.032923064579097334,0.5878634345235839 l -13.176335370771412 -0.8517590412570313" fill="#ff950d" stroke="none" /><path d="M 120.89721153311464 102.0752229133903 l 27.92602858648733 2.773228108010323 a49.063390150734925,49.063390150734925 0 0,0 -0.09069180410511853,0.8396934705226491 l -27.87415448088116 -3.2535179004177635" fill="#aeff20" stroke="none" /><path d="M 120.49622156327973 104.57218783832717 l 27.57499726970405 6.15128338504705 a49.25276555856686,49.25276555856686 0 0,0 -0.19170919919582924,0.8258782126397384 l -27.465027504577666 -6.625030255035353" fill="#acff21" stroke="none" /><path d="M 120.13307415673323 105.97154293290107 l 9.713116918809954 2.8809457632461655 a31.131361644381183,31.131361644381183 0 0,0 -0.15680307606690408,0.5124415251519053 l -9.662087070236916 -3.047714260950128" fill="#ff6a09" stroke="none" /><path d="M 120.02730092923936 106.31721596034902 l 60.08190278771807 18.951647881047055 a84.0,84.0 0 0,0 -0.4468309959350121,1.375204400088819 l -59.746779540766816 -19.98305118111367" fill="#4dd2ff" stroke="none" /><path d="M 119.41010516605496 108.01547362559984 l 20.618545649864753 8.514503524882612 a43.30742466065492,43.30742466065492 0 0,0 -0.2904670605019642,0.686578328444068 l -20.468927608170482 -8.868156378992843" fill="#f3ff19" stroke="none" /><path d="M 119.26925614724726 108.34839909993367 l 26.310532498395375 11.399029840586659 a49.6737162163488,49.6737162163488 0 0,0 -0.3466726650492695,0.7816553407753627 l -26.110418748614833 -11.85023351785471" fill="#a7ff21" stroke="none" /><line stroke="#e1ed5e" stroke-width="0.3" x1="174.80103733775053" x2="179.2010983576182" y1="140.37084112569926" y2="142.7455964860345" /><path d="M 175.68104954172406 140.8457921977663 a86.0,86.0 0 0,1 -30.038265399797805,32.042727171017184" fill="none" id="id53" stroke="none" /><text fill="#e1ed5e" style="font-size:6.75px; font-family:Arial;" text-anchor="middle"><textPath startOffset="22.206326154141568" xlink:href="#id53">May</textPath></text><path d="M 116.71984013943494 112.70617746262583 l 21.613138698171895 16.42482066414057 a48.14594809977346,48.14594809977346 0 0,0 -0.5071216903925039,0.6555231455241171 l -21.32721019056132 -16.794421803777936" fill="#b9ff1f" stroke="none" /><path d="M 116.498646956653 112.99209946851258 l 15.759071275486026 12.409709843505194 a41.058644666722586,41.058644666722586 0 0,0 -0.442029719735737,0.5515000405468219 l -15.543123643695434 -12.679137717630265" fill="#ffef16" stroke="none" /><path d="M 116.0416608686014 113.55231037782055 l 4.68875851550465 3.961155344777478 a27.138013366079985,27.138013366079985 0 0,0 -0.30453695833738437,0.35424528318586057 l -4.619879047596487 -4.041277727124867" fill="#ff3104" stroke="none" /><path d="M 113.20401910651253 116.32954008644616 l 17.071624716913757 21.112645922945656 a48.15113604147743,48.15113604147743 0 0,0 -0.6489913463660806,0.5155979760882734 l -16.705675877830327 -21.403377813039057" fill="#b9ff1f" stroke="none" /><path d="M 112.04921762599082 117.19931262002967 l 7.8269483917603 11.172354623286513 a34.64121068511702,34.64121068511702 0 0,0 -0.4913164814709674,0.3379319560185971 l -7.633475025666449 -11.305427368670204" fill="#ff9b0e" stroke="none" /><path d="M 111.45004920935366 117.60387380957326 l 7.20858004840804 11.082828658475766 a34.22091968765555,34.22091968765555 0 0,0 -0.4965589037866247,0.31692738626801215 l -7.016739342574485 -11.205270473567587" fill="#ff950d" stroke="none" /><line stroke="#e1ed5e" stroke-width="0.3" x1="143.8653032363475" x2="146.44561519142675" y1="172.8068346515853" y2="177.08958963109032" /><path d="M 144.38136562736335 173.6633856474863 a86.0,86.0 0 0,1 -40.68145358897372,12.25698825130547" fill="none" id="id54" stroke="none" /><text fill="#e1ed5e" style="font-size:6.75px; font-family:Arial;" text-anchor="middle"><textPath startOffset="21.466115282336833" xlink:href="#id54">June</textPath></text><path d="M 109.89434966115114 118.52300852407294 l 6.409635974744248 11.99934769462951 a34.60396186503572,34.60396186503572 0 0,0 -0.5278077997141503,0.27612409507328084 l -6.202137272503602 -12.107901208647506" fill="#ff9a0e" stroke="none" /><path d="M 107.59598834532513 119.57807347666477 l 7.053911224019595 18.180911550070956 a40.501364268887784,40.501364268887784 0 0,0 -0.6521293980546058,0.2465795378498132 l -6.739911605204715 -18.2996393380274" fill="#ffe815" stroke="none" /><path d="M 106.91757812671514 119.82793768551818 l 4.731603495051203 13.562252212250105 a35.363939456258635,35.363939456258635 0 0,0 -0.5764831827834646,0.19557439523645204 l -4.497450579330512 -13.64168959438468" fill="#ffa40f" stroke="none" /><path d="M 106.57524785965236 119.94407469862006 l 8.323001648584263 25.245370233826996 a47.58196897683342,47.58196897683342 0 0,0 -0.7800693465366102,0.24975357098297632 l -7.8872109569567135 -25.384896651469678" fill="#bfff1e" stroke="none" /><path d="M 106.2309692047433 120.05430185196036 l 5.695382109628764 18.33052102099987 a40.194931056818035,40.194931056818035 0 0,0 -0.6624986447339857,0.19960540709909888 l -5.379008490454533 -18.425841797204694" fill="#ffe415" stroke="none" /><path d="M 104.13013068566511 120.58985236759428 l 3.73253513119516 18.607727734840754 a39.97839165892537,39.97839165892537 0 0,0 -0.67588684553595,0.129535322571215 l -3.4116806710875056 -18.66922025576044" fill="#ffe115" stroke="none" /><path d="M 103.7750983002368 120.6578951692458 l 4.936762005537487 27.014690446474393 a48.46206691088916,48.46206691088916 0 0,0 -0.8218959511858814,0.14289714623487468 l -4.4710170828795555 -27.095666171230274" fill="#b5ff20" stroke="none" /><line stroke="#e1ed5e" stroke-width="0.3" x1="102.19456741930631" x2="102.32365962044197" y1="184.97166512339345" y2="189.96999836594603" /><path d="M 102.22038585953345 185.97133177190398 a86.0,86.0 0 0,1 -42.740103519485714,-10.115201625700543" fill="none" id="id55" stroke="none" /><text fill="#e1ed5e" style="font-size:6.75px; font-family:Arial;" text-anchor="middle"><textPath startOffset="22.20632615414155" xlink:href="#id55">July</textPath></text><path d="M 100.54218724476979 120.99299961872073 l 0.1419248945366895 5.49520352172934 a26.497035966856664,26.497035966856664 0 0,0 -0.4560522331802764,0.007851352778032823 l -0.047312971463745176 -5.496832351786532" fill="#ff2703" stroke="none" /><path d="M 99.09653310690486 120.98055641714683 l -0.8804534942957938 20.44613294734396 a41.46508125701146,41.46508125701146 0 0,0 -0.7128280513326355,-0.03684506804175401 l 1.2322696140419183 -20.427948072540005" fill="#fff417" stroke="none" /><path d="M 98.73552117531835 120.96189622390904 l -1.719863999363713 28.511043419786677 a49.56286976235526,49.56286976235526 0 0,0 -0.8511531675699643,-0.05870050578635846 l 2.2103799277126073 -28.477214569484033" fill="#a8ff21" stroke="none" /><path d="M 98.01472825383883 120.90594882070398 l -1.4697713952252052 15.477460768848427 a36.54709039677407,36.54709039677407 0 0,0 -0.6257686855042242,-0.06486348286629387 l 1.7359726773350228 -15.449867917526372" fill="#ffb410" stroke="none" /><path d="M 94.81253420990036 120.34920634021253 l -7.8736138191473195 30.88633231177417 a52.87411674456898,52.87411674456898 0 0,0 -0.8800004347679964,-0.23241611302171727 l 8.404104696726804 -30.74622484944887" fill="#83ff25" stroke="none" /><path d="M 94.46302465271185 120.25689768951611 l -8.01406025563384 29.319256181175056 a51.39480127913821,51.39480127913821 0 0,0 -0.851364261260443,-0.24060404427995155 l 8.517555684998896 -29.176963343556583" fill="#93ff23" stroke="none" /><path d="M 94.11515582081647 120.15858648285463 l -9.805603148568574 33.58918147504725 a55.9911841078703,55.9911841078703 0 0,0 -0.9228547633551195,-0.278048569905839 l 10.38233288636394 -33.41541753603568" fill="#61ff29" stroke="none" /><path d="M 93.76903079525671 120.05430185196036 l -5.520069785659714 17.76628034708234 a39.604082557591425,39.604082557591425 0 0,0 -0.6492781081826156,-0.20787834671320335 l 5.82506923893327 -17.668629153709432" fill="#ffdc14" stroke="none" /><path d="M 93.08242187328487 119.8279376855182 l -2.1346822100294176 6.118665385994938 a27.480349855030102,27.480349855030102 0 0,0 -0.4452869296532605,-0.1596640504235458 l 2.2396887003124046 -6.081013794531435" fill="#ff3605" stroke="none" /><path d="M 91.7346041902142 119.30500536409082 l -11.056390953564659 25.82377076405038 a49.09111812285673,49.09111812285673 0 0,0 -0.773954965162497,-0.33927911228741064 l 11.499266593384899 -25.629627098468518" fill="#aeff20" stroke="none" /><path d="M 91.40352486487194 119.15986991738527 l -6.858515101706798 15.286295267480842 a37.75440397044751,37.75440397044751 0 0,0 -0.5906442859532199,-0.2711358224082878 l 7.120627383427437 -15.16597237473848" fill="#ffc412" stroke="none" /><path d="M 90.42595943632237 118.69057910512821 l -4.564728994790224 8.911329318394541 a31.012419338838974,31.012419338838974 0 0,0 -0.4730266689949222,-0.24746519659711186 l 4.717446566311642 -8.831434702852713" fill="#ff6809" stroke="none" /><line stroke="#e1ed5e" stroke-width="0.3" x1="58.666819895761336" x2="56.23545636021788" y1="174.27360380694188" y2="178.64263932499728" /><path d="M 58.180547188652646 175.14741091055294 a86.0,86.0 0 0,1 -31.652253787137756,-30.449443065178592" fill="none" id="id56" stroke="none" /><text fill="#e1ed5e" style="font-size:6.75px; font-family:Arial;" text-anchor="middle"><textPath startOffset="22.20632615414155" xlink:href="#id56">August</textPath></text><path d="M 88.54995079064634 117.60387380957326 l -7.317278465519983 11.249946998593973 a34.42027837316112,34.42027837316112 0 0,0 -0.493890511916531,-0.3273237002718081 l 7.509843676176476 -11.122325277230846" fill="#ff980e" stroke="none" /><path d="M 87.65650970185807 116.9893568818739 l -8.149676316775112 11.217067140101372 a34.86505749334445,34.86505749334445 0 0,0 -0.4824909387993693,-0.3569352617945288 l 8.341552225993047 -11.075121929567077" fill="#ff9e0e" stroke="none" /><path d="M 87.07902340077011 116.55440617244103 l -16.296526697929416 20.879174270281723 a47.486160548956896,47.486160548956896 0 0,0 -0.640028663952516,-0.5084774791222816 l 16.653512854599292 -20.59556287715431" fill="#c0ff1e" stroke="none" /><path d="M 86.24171649860922 115.8653595955263 l -8.685551387685205 10.015740411012647 a34.25721912351577,34.25721912351577 0 0,0 -0.4421752957896967,-0.3901682876943222 l 8.85666903638149 -9.864748981546036" fill="#ff950d" stroke="none" /><path d="M 85.44109423537348 115.13401014063109 l -18.342203827694885 19.06675564892482 a47.457090018225955,47.457090018225955 0 0,0 -0.5838353079197569,-0.5714057298429894 l 18.66768908799044 -18.74819981615926" fill="#c1ff1e" stroke="none" /><path d="M 85.18274418774928 114.88116024355367 l -9.978191315514346 10.021225643161078 a35.14175609039256,35.14175609039256 0 0,0 -0.42497992434128584,-0.43050241964125524 l 10.149211864911166 -9.847982729539158" fill="#ffa10e" stroke="none" /><path d="M 84.9287848128048 114.62390073753433 l -10.150918857992664 9.849639058977324 a35.14413458836145,35.14413458836145 0 0,0 -0.41753482558344573,-0.4377835953420077 l 10.318960234955068 -9.673448347052817" fill="#ffa10e" stroke="none" /><path d="M 83.50135304334701 112.99209946851258 l -12.237482203089998 9.636583317675372 a36.57625464318826,36.57625464318826 0 0,0 -0.38525800851281966,-0.4979979093049925 l 12.401547028820886 -9.424507414257128" fill="#ffb510" stroke="none" /><path d="M 82.05923443525364 110.91462005526583 l -9.204298726743946 5.599617425188593 a31.77380296643743,31.77380296643743 0 0,0 -0.28024361719906965,-0.469704422008386 l 9.299323219641249 -5.440350909294096" fill="#ff730a" stroke="none" /><line stroke="#e1ed5e" stroke-width="0.3" x1="26.63291911575756" x2="22.317208475507996" y1="142.92168965132927" y2="145.44649492493687" /><path d="M 25.769776987707644 143.4266507060508 a86.0,86.0 0 0,1 -11.730757126820373,-40.83630448921669" fill="none" id="id57" stroke="none" /><text fill="#e1ed5e" style="font-size:6.75px; font-family:Arial;" text-anchor="middle"><textPath startOffset="21.46611528233685" xlink:href="#id57">September</textPath></text><path d="M 81.18737489456691 109.33194174019688 l -23.779901828160707 11.795943267051479 a47.54483016552297,47.54483016552297 0 0,0 -0.3573712669730511,-0.7362906598372831 l 23.97942635174848 -11.384863651248912" fill="#c0ff1e" stroke="none" /><path d="M 80.73074385275274 108.34839909993369 l -12.23129380231844 5.299204151421647 a34.32989545034311,34.32989545034311 0 0,0 -0.2302539090453107,-0.544252225077936 l 12.320698692556057 -5.087877400677552" fill="#ff960d" stroke="none" /><path d="M 79.4281124754447 104.21870165774334 l -19.638352893953705 4.027260590948724 a41.0470379920543,41.0470379920543 0 0,0 -0.13598310401226588,-0.6933749177238763 l 19.704765930941637 -3.688621946156893" fill="#ffef16" stroke="none" /><line stroke="#e1ed5e" stroke-width="0.3" x1="15.007084014347285" x2="10.007500721073583" y1="101.09737516637583" y2="101.16192664675087" /><path d="M 14.007167355692545 101.11028546245083 a86.0,86.0 0 0,1 10.666146001902534,-42.60595125391555" fill="none" id="id58" stroke="none" /><text fill="#e1ed5e" style="font-size:6.75px; font-family:Arial;" text-anchor="middle"><textPath startOffset="22.20632615414155" xlink:href="#id58">October</textPath></text><path d="M 79.81627453868168 94.20196356495316 l -28.8219503605435 -8.279478366855859 a50.987573836722234,50.987573836722234 0 0,0 0.2495819957617364,-0.8414664158523303 l 28.67516246767006 8.77437416945473" fill="#98ff23" stroke="none" /><line stroke="#e1ed5e" stroke-width="0.3" x1="26.266209847984243" x2="21.928928074336255" y1="57.711370442889674" y2="55.22380399835377" /><path d="M 25.398753493254645 57.213857153982495 a86.0,86.0 0 0,1 29.58750427330803,-30.492523968695096" fill="none" id="id59" stroke="none" /><text fill="#e1ed5e" style="font-size:6.75px; font-family:Arial;" text-anchor="middle"><textPath startOffset="21.46611528233685" xlink:href="#id59">November</textPath></text><path d="M 81.96595687620814 89.24020034530311 l -16.332830274904257 -9.744791023610842 a40.018998314387524,40.018998314387524 0 0,0 0.3580446453182824,-0.5885312554026015 l 16.16266983129976 10.024490052220518" fill="#ffe215" stroke="none" /><path d="M 84.31358615837235 86.03803664274999 l -10.426890765798454 -9.280634074296545 a34.95887602433975,34.95887602433975 0 0,0 0.40395207543911027,-0.446053970995761 l 10.265595049743299 9.458740832561862" fill="#ff9f0e" stroke="none" /><path d="M 85.05521093208273 85.24692304244772 l -3.7855709848087247 -3.7370095899883635 a26.31937856865731,26.31937856865731 0 0,0 0.32105155005398406,-0.31967285266820566 l 3.7206836345874272 3.801618293306679" fill="#ff2503" stroke="none" /><path d="M 86.10567301691215 84.25364557470407 l -3.616179921602937 -4.098194232833877 a26.465524054968295,26.465524054968295 0 0,0 0.34418565435594434,-0.29847440779571516 l 3.545100468600219 4.159833634049273" fill="#ff2703" stroke="none" /><path d="M 86.37877921826538 84.01681056812374 l -6.903869318353746 -8.101025076704921 a31.64377841080451,31.64377841080451 0 0,0 0.4176111756519281,-0.34973734975401877 l 6.763400605742708 8.218663583852752" fill="#ff710a" stroke="none" /><path d="M 87.51073957382395 83.11751280151077 l -3.1937535921233073 -4.317189512770812 a26.370119858660402,26.370119858660402 0 0,0 0.36724119337987554,-0.26681634502592116 l 3.1189670823896503 4.3715250926134015" fill="#ff2603" stroke="none" /><path d="M 87.80319425747018 82.90503203632743 l -3.0996270305992426 -4.344418194893457 a26.336820887095875,26.336820887095875 0 0,0 0.37131012128722524,-0.26012646882832724 l 3.024385769728357 4.397129506485728" fill="#ff2503" stroke="none" /><path d="M 89.00827224532344 82.1063720568725 l -6.953421407039497 -11.319597643455653 a34.28470398893411,34.28470398893411 0 0,0 0.5055164239749086,-0.30456798918301237 l 6.757542916846939 11.437612242097286" fill="#ff960d" stroke="none" /><line stroke="#e1ed5e" stroke-width="0.3" x1="56.762969772571076" x2="54.21961505331055" y1="26.818313649435495" y2="22.513508569990535" /><path d="M 56.25429882871897 25.957352633546506 a86.0,86.0 0 0,1 42.265352541879196,-11.944610805530505" fill="none" id="id60" stroke="none" /><text fill="#e1ed5e" style="font-size:6.75px; font-family:Arial;" text-anchor="middle"><textPath startOffset="22.20632615414155" xlink:href="#id60">December</textPath></text><path d="M 91.23893434514133 80.91482961587045 l -7.087957016657554 -15.440458120899466 a37.98961099181601,37.98961099181601 0 0,0 0.5966501436948618,-0.26769952754164633 l 6.821124754495918 15.560177978957642" fill="#ffc712" stroke="none" /><path d="M 92.23578459929587 80.48803036053334 l -3.631779167028132 -9.12689321291548 a30.822932333983687,30.822932333983687 0 0,0 0.49465938574420576,-0.19192015667410478 l 3.47413661628425 9.188056073480135" fill="#ff6609" stroke="none" /><path d="M 92.57280143429618 80.3572730644239 l -1.006377060118177 -2.661567428318239 a23.845476403454555,23.845476403454555 0 0,0 0.3851812879249966,-0.14186551902138383 l 0.9604134464206108 2.678496215145945" fill="#ff0000" stroke="none" /><path d="M 93.59665428221793 80.00007090966166 l -5.391461469657372 -16.83945422265712 a38.681489623212315,38.681489623212315 0 0,0 0.6358769534890978,-0.1975700647394644 l 5.100799143457546 16.92976442227911" fill="#ffd013" stroke="none" /><path d="M 93.94186890950719 79.89281104454417 l -3.124596847701427 -10.370666842279155 a31.831151195243006,31.831151195243006 0 0,0 0.5259867069463873,-0.1535499432628416 l 2.9456199230316185 10.422915114460695" fill="#ff740a" stroke="none" /><path d="M 95.33964822691252 79.52364482259891 l -2.9424140193636705 -12.928190289708382 a34.258804788828364,34.258804788828364 0 0,0 0.5761307701418541,-0.1259198714793419 l 2.7194405250682956 12.976923659283592" fill="#ff950d" stroke="none" /><path d="M 96.40284397218896 79.31037775812273 l -2.2731794623444523 -13.074557789621421 a34.27069727867284,34.27069727867284 0 0,0 0.5820646097408654,-0.09604564792926915 l 2.047785646464701 13.111749700490316" fill="#ff960d" stroke="none" /><path d="M 96.75951476605007 79.25152402106235 l -1.7779012412410948 -11.383709084780968 a32.52170843887882,32.52170843887882 0 0,0 0.5538462736761166,-0.08162254377322273 l 1.5816859871363294 11.41262611271516" fill="#ff7e0b" stroke="none" /><path d="M 97.11714578562143 79.19881850522333 l -1.69186742950468 -12.207638281082605 a33.324319364604776,33.324319364604776 0 0,0 0.5688703654624379,-0.07385570012583509 l 1.4814823355343842 12.234952304372577" fill="#ff890c" stroke="none" /></svg>