<?xml version="1.0" encoding="utf-8" ?>
<svg baseProfile="full" height="200mm" version="1.1" viewBox="0,0,200,200" width="200mm" xmlns="http://www.w3.org/2000/svg" xmlns:ev="http://www.w3.org/2001/xml-events" xmlns:xlink="http://www.w3.org/1999/xlink"><defs /><rect fill="#1a1a1a" height="200" width="200" x="0" y="0" /><text alignment-baseline="middle" fill="#e1ed5e" style="dominant-baseline: central; font-size:9.0px; font-family:Arial;" text-anchor="middle" x="100.0" y="100.0">2023</text><line stroke="#e1ed5e" stroke-width="0.3" x1="100.0" x2="100.0" y1="15.0" y2="10.0" /><path d="M 100.0 14.0 a86.0,86.0 0 0,1 42.46469731375804,11.215312516191453" fill="none" id="id25" stroke="none" /><text fill="#e1ed5e" style="font-size:6.75px; font-family:Arial;" text-anchor="middle"><textPath startOffset="22.20632615414155" xlink:href="#id25">January</textPath></text><path d="M 100.0 79.0 l 0.0 -8.7709214904893 a29.7709214904893,29.7709214904893 0 0,0 0.5124574747031851,0.004410883273369093 l -0.15097699543065674 8.76962198382449" fill="#ff2a04" stroke="none" /><path d="M 100.36148047927253 79.00311137660856 l 0.15393723161110623 -8.941569718056002 a29.942894704408197,29.942894704408197 0 0,0 0.5152649814922745,0.01330777429217526 l -0.3078288482982485 8.937595151621466" fill="#ff2d04" stroke="none" /><path d="M 100.72285384407766 79.0124445844662 l 0.3163023825344547 -9.183618287286903 a30.189063719649972,30.189063719649972 0 0,0 0.5191931963778198,0.022357551187928874 l -0.474336411301606 9.17681300957478" fill="#ff3104" stroke="none" /><path d="M 101.08401301168833 79.027996857942 l 0.44605703648454476 -8.629702291230963 a29.641222628486915,29.641222628486915 0 0,0 0.5093180020548643,0.030723452771081412 l -0.594537087379021 8.620745569079578" fill="#ff2803" stroke="none" /><path d="M 101.44485096284872 79.0497635885617 l 0.599661724813498 -8.69505244815278 a29.715706010435067,29.715706010435067 0 0,0 0.5099919988659639,0.039585194501266185 l -0.749243913041803 8.683441991463049" fill="#ff2a04" stroke="none" /><path d="M 101.80526077348638 79.07773832637324 l 0.7435084529888221 -8.616970267372265 a29.64898730536954,29.64898730536954 0 0,0 0.5080916923058489,0.04824942842082846 l -0.8917252723849152 8.602895294436259" fill="#ff2903" stroke="none" /><path d="M 103.2404852339499 79.25152402106235 l 1.3628383114886473 -8.726106100669021 a29.831888583049174,29.831888583049174 0 0,0 0.5066744468234655,0.08360562508005662 l -1.512841964450988 8.70135421264934" fill="#ff2b04" stroke="none" /><path d="M 103.59715602781102 79.31037775812273 l 1.4811181448063515 -8.518889554613256 a29.64668666036728,29.64668666036728 0 0,0 0.5020241152171501,0.09174169819854518 l -1.6275373811264022 8.492132375063973" fill="#ff2903" stroke="none" /><path d="M 103.95276090670814 79.375362276772 l 1.6497849569950616 -8.608215336654801 a29.76488229735837,29.76488229735837 0 0,0 0.5023654335448156,0.10076977996046262 l -1.7977168000070023 8.57854160061713" fill="#ff2a04" stroke="none" /><path d="M 104.307194497241 79.44645832069477 l 1.7869816973886776 -8.527314664095297 a29.71254262355696,29.71254262355696 0 0,0 0.49967621959083636,0.10920986798998604 l -1.933500641133042 8.49529129800944" fill="#ff2a04" stroke="none" /><path d="M 104.66035177308747 79.52364482259891 l 1.3464174487055647 -5.915802763206534 a27.067088451583746,27.067088451583746 0 0,0 0.45340764667416134,0.10730694095423966 l -1.4480487823422494 5.891749910111426" fill="#ff0000" stroke="none" /><path d="M 105.36241919743992 79.69619591428918 l 2.2125863141594424 -8.377547034529766 a29.664804239760073,29.664804239760073 0 0,0 0.4925799930557023,0.13464071941916017 l -2.3564641964388553 8.338219774284312" fill="#ff2904" stroke="none" /><path d="M 105.71112130821622 79.79150937346287 l 2.48597978586145 -8.796503609206813 a30.141037755227806,30.141037755227806 0 0,0 0.4980588070967411,0.145397023463287 l -2.637028810681618 8.752408256824822" fill="#ff3004" stroke="none" /><path d="M 106.0581310904928 79.89281104454417 l 2.564851906846815 -8.512850112250552 a29.890842611232074,29.890842611232074 0 0,0 0.4913693376856696,0.15267084508231232 l -2.711006617243203 8.467439132285719" fill="#ff2c04" stroke="none" /><path d="M 108.43124777332544 80.76684994638697 l 3.579034256022648 -8.164402795857425 a29.91442422250524,29.91442422250524 0 0,0 0.469824382112034,0.21079650520164747 l -3.719040756601462 8.101585960139246" fill="#ff2d04" stroke="none" /><path d="M 109.08828744355905 81.06846463323043 l 3.8274530456400266 -7.9728511172406575 a29.84396696931104,29.84396696931104 0 0,0 0.4612011803777636,0.22630941623663334 l -3.964125493028222 7.905786540869192" fill="#ff2c04" stroke="none" /><path d="M 109.73455568895987 81.39251694778311 l 4.087092325264925 -7.812426535446613 a29.81693439053449,29.81693439053449 0 0,0 0.4527274870362988,0.24183134462902278 l -4.220964858829536 7.740916464315836" fill="#ff2b04" stroke="none" /><path d="M 110.05341064243156 81.56283822128135 l 4.194531340029336 -7.6924394767706215 a29.76171891048026,29.76171891048026 0 0,0 0.4476671462680948,0.2491262822192594 l -4.326322575369466 7.6190977969911815" fill="#ff2a04" stroke="none" /><path d="M 110.36928655335952 81.73862282372117 l 4.350036622373986 -7.6608606660658385 a29.809744874902428,29.809744874902428 0 0,0 0.44402788577354346,0.2572096114569333 l -4.481261240612858 7.584846897218855" fill="#ff2b04" stroke="none" /><line stroke="#e1ed5e" stroke-width="0.3" x1="143.23703022742887" x2="145.7803849466894" y1="26.81831364943548" y2="22.513508569990506" /><path d="M 143.74570117128098 25.957352633546492 a86.0,86.0 0 0,1 28.547481713284135,27.462654790039103" fill="none" id="id26" stroke="none" /><text fill="#e1ed5e" style="font-size:6.75px; font-family:Arial;" text-anchor="middle"><textPath startOffset="19.985693538727396" xlink:href="#id26">February</textPath></text><path d="M 110.68208982089419 81.91981866633111 l 4.521489315339257 -7.652935716724476 a29.8888295468551,29.8888295468551 0 0,0 0.4407007344791161,0.2655172614894933 l -4.652552116036011 7.573971845776367" fill="#ff2c04" stroke="none" /><path d="M 110.99172775467656 82.1063720568725 l 4.644574334090626 -7.560984673502074 a29.87358777371513,29.87358777371513 0 0,0 0.4358426258948779,0.27292461235109317 l -4.774036112357766 7.479915719828036" fill="#ff2c04" stroke="none" /><path d="M 112.19680574252982 82.90503203632743 l 6.013970770380956 -8.429144468181182 a31.35462799391972,31.35462799391972 0 0,0 0.43665751480030635,0.3172502546755509 l -6.158173601535051 8.324374978688956" fill="#ff4306" stroke="none" /><path d="M 112.48926042617603 83.11751280151076 l 6.994177394355789 -9.454451768552643 a32.76032209030032,32.76032209030032 0 0,0 0.45046042893754423,0.3392774560516877 l -7.155883977051716 9.332657722995107" fill="#ff5808" stroke="none" /><path d="M 112.77801427241765 83.33499621200491 l 6.966023994778002 -9.085043558827994 a32.44829711186886,32.44829711186886 0 0,0 0.44031944368556697,0.34367631002787036 l -7.1213759936229994 8.9637888595769" fill="#ff5307" stroke="none" /><path d="M 113.34407831869373 83.78471172551755 l 5.5627280185606685 -6.759645459150133 a29.754241814222915,29.754241814222915 0 0,0 0.3926744696337028,0.3288535756050268 l -5.678260025153488 6.6628907261512875" fill="#ff2a04" stroke="none" /><path d="M 113.6212207817346 84.01681056812373 l 5.727131748375138 -6.720236981867317 a29.829587938046917,29.829587938046917 0 0,0 0.38793549760439505,0.3364138407426589 l -5.841961044626297 6.620658147704987" fill="#ff2b04" stroke="none" /><path d="M 113.89432698308785 84.25364557470407 l 5.894286201362521 -6.679957922665705 a29.90867260999959,29.90867260999959 0 0,0 0.38310020512755494,0.34395114674806976 l -6.0083973940860655 6.5775077671483375" fill="#ff2d04" stroke="none" /><path d="M 114.68862486808459 84.99185889309783 l 6.186187491517379 -6.320753346228856 a29.844254549936323,29.844254549936323 0 0,0 0.36404902792319915,0.3624856857028968 l -6.294072319607901 6.21333180987584" fill="#ff2c04" stroke="none" /><path d="M 114.94478906791727 85.2469230424477 l 8.371153023636658 -8.263767673127116 a32.762910315927854,32.762910315927854 0 0,0 0.3927426357909096,0.4047558092348667 l -8.512159923130678 8.118447668342135" fill="#ff5808" stroke="none" /><path d="M 115.4437574822437 85.77008943001954 l 8.644722718687413 -7.965265663530005 a32.75485805841995,32.75485805841995 0 0,0 0.3784845051711758,0.4179320438159608 l -8.780550864474625 7.815280832444495" fill="#ff5808" stroke="none" /><path d="M 115.68641384162765 86.03803664274999 l 6.615648317387768 -5.88837195833133 a29.856620516823465,29.856620516823465 0 0,0 0.3383866004320255,0.3868343803323605 l -6.716026781397641 5.7736220217960215" fill="#ff2c04" stroke="none" /><path d="M 115.9244219780498 86.31012108654704 l 9.032191357337647 -7.764778286805456 a32.911014337948316,32.911014337948316 0 0,0 0.36560906401984056,0.4327658127644087 l -9.164511034844605 7.60815352441194" fill="#ff5a08" stroke="none" /><path d="M 116.15771136456269 86.58626213691792 l 6.87637040489318 -5.708594984744551 a29.93714309190255,29.93714309190255 0 0,0 0.325746778067812,0.39932703317854235 l -6.973615675037401 5.589383781957908" fill="#ff2d04" stroke="none" /><path d="M 116.60985879189232 87.15038557335679 l 6.961205626543317 -5.385284087383274 a29.801117456143956,29.801117456143956 0 0,0 0.3103914950412307,0.40843882379217694 l -7.052873061808662 5.2646604877100645" fill="#ff2b04" stroke="none" /><path d="M 117.2510076193507 88.02491185347247 l 9.748710412063675 -6.767237547821987 a32.86730208290538,32.86730208290538 0 0,0 0.31861802778831505,0.46753264037972303 l -9.863752905520723 6.598426884171857" fill="#ff5a08" stroke="none" /><path d="M 117.45458315368197 88.32363383020206 l 9.664881136573085 -6.46539021554318 a32.62803500267039,32.62803500267039 0 0,0 0.3082624726756763,0.46950489455767414 l -9.774740244606685 6.2980672570078315" fill="#ff5608" stroke="none" /><path d="M 117.65298651832404 88.62581576622439 l 12.1634281893304 -7.837148291941165 a35.46961916108623,35.46961916108623 0 0,0 0.32627388540893026,0.5160869318738648 l -12.296529670985286 7.626613712353094" fill="#ff800b" stroke="none" /><line stroke="#e1ed5e" stroke-width="0.3" x1="172.23445277983987" x2="176.4835382374775" y1="55.19839476539836" y2="52.563006222186495" /><path d="M 173.08426987136738 54.67131705675599 a86.0,86.0 0 0,1 12.851231095245387,41.99856678651699" fill="none" id="id27" stroke="none" /><text fill="#e1ed5e" style="font-size:6.75px; font-family:Arial;" text-anchor="middle"><textPath startOffset="22.20632615414155" xlink:href="#id27">March</textPath></text><path d="M 117.84615892207809 88.93136811851018 l 12.392330915763711 -7.686032028466431 a35.58235076619695,35.58235076619695 0 0,0 0.3183505508955468,0.523284601031015 l -12.522797264945481 7.471579654228335" fill="#ff820c" stroke="none" /><path d="M 118.03404312379186 89.2402003453031 l 7.485969012069879 -4.466415336718189 a29.71714391356148,29.71714391356148 0 0,0 0.25831319637112593,0.4415409860511103 l -7.561741882911332 4.336894938313184" fill="#ff2a04" stroke="none" /><path d="M 119.85752413597 93.16781622104841 l 14.031040533032657 -4.827522649611284 a35.838297522698326,35.838297522698326 0 0,0 0.19568172288405042,0.5850634445835042 l -14.112059549688476 4.585286102105465" fill="#ff860c" stroke="none" /><path d="M 119.97218684219823 93.5106431181261 l 13.909939038666138 -4.519613167061648 a35.6257754406146,35.6257754406146 0 0,0 0.18448131979391222,0.5848561978134118 l -13.985675842228257 4.279506802821817" fill="#ff830c" stroke="none" /><path d="M 120.08093135843002 93.85539295169968 l 14.600288794121374 -4.467573531838033 a36.26851813812087,36.26851813812087 0 0,0 0.17753284690933754,0.5985525034725311 l -14.675027538142414 4.215591641618972" fill="#ff8c0c" stroke="none" /><path d="M 120.18372546131832 94.20196356495316 l 13.966884834721604 -4.012168482524028 a35.53173657614724,35.53173657614724 0 0,0 0.16380676977724243,0.5893001056841655 l -14.033878375065209 3.7711570734209108" fill="#ff810b" stroke="none" /><path d="M 120.28053869075195 94.5502522615342 l 14.180241081199256 -3.8104873811071402 a35.68329156567109,35.68329156567109 0 0,0 0.15429398881449644,0.5945576793814701 l -14.243731401884055 3.5658332761768197" fill="#ff830c" stroke="none" /><path d="M 120.37134235888165 94.90015583598534 l 14.18849502722047 -3.5520051789406755 a35.62635060186516,35.62635060186516 0 0,0 0.14380695130697047,0.596172654455963 l -14.247534778788262 3.307247292825306" fill="#ff830c" stroke="none" /><path d="M 120.45610955862082 95.25157060432595 l 14.076654003816556 -3.267581133788274 a35.45092642044287,35.45092642044287 0 0,0 0.13286604263174367,0.5956124167052476 l -14.130814433450338 3.0247905475330623" fill="#ff800b" stroke="none" /><path d="M 120.6074358757038 95.95851677861258 l 17.04290795236437 -3.3424161525276914 a38.36756912205743,38.36756912205743 0 0,0 0.12152338502343266,0.6491827820732123 l -17.097917061297665 3.0485552929919164" fill="#ffaa0f" stroke="none" /><path d="M 120.67395015179393 96.31383870115 l 14.272989646447549 -2.5448712832973652 a35.49808964298919,35.49808964298919 0 0,0 0.10207921681563659,0.602477316019034 l -14.314680724783408 2.298808178962493" fill="#ff810b" stroke="none" /><path d="M 120.73433829027371 96.67025291283417 l 14.320927461323766 -2.299811348318966 a35.504416416745414,35.504416416745414 0 0,0 0.09170977845168612,0.6042528543498067 l -14.358393133214753 2.0529593815770775" fill="#ff810b" stroke="none" /><path d="M 120.83666639777658 97.38593545837742 l 20.335602538519957 -2.551203561724609 a41.49500842200402,41.49500842200402 0 0,0 0.08281148357520446,0.7094782191515959 l -20.37650437509875 2.2007816042481605" fill="#ffd614" stroke="none" /><path d="M 120.87857604477298 97.74499172005257 l 14.367369818411216 -1.5517599395718924 a35.45092642044287,35.45092642044287 0 0,0 0.06030518995076378,0.6072650329823779 l -14.39195213404421 1.3042193758850795" fill="#ff800b" stroke="none" /><path d="M 120.91429891909075 98.10471618934814 l 14.394529797113 -1.3044529674150893 a35.45351464607042,35.45351464607042 0 0,0 0.04984682477801581,0.6082575196690337 l -14.41485110571051 1.0564815305382866" fill="#ff800b" stroke="none" /><path d="M 120.94382443527127 98.46500227214037 l 14.542482151732935 -1.0658357612450164 a35.581488024321104,35.581488024321104 0 0,0 0.039511393900506446,0.6112237754839531 l -14.558674136637858 0.8153529215080282" fill="#ff820c" stroke="none" /><path d="M 120.98425023603335 99.18683210126433 l 14.522849491648573 -0.5627799359969217 a35.53374964052422,35.53374964052422 0 0,0 0.018423920153459054,0.6114002151927432 l -14.530385106257677 0.3127095733791793" fill="#ff810b" stroke="none" /><line stroke="#e1ed5e" stroke-width="0.3" x1="184.98032266829074" x2="189.97916517819016" y1="98.17113171792111" y2="98.06355123074" /><path d="M 185.9800911702706 98.14961562048488 a86.0,86.0 0 0,1 -9.607161424134198,41.387399972396054" fill="none" id="id28" stroke="none" /><text fill="#e1ed5e" style="font-size:6.75px; font-family:Arial;" text-anchor="middle"><textPath startOffset="21.466115282336823" xlink:href="#id28">April</textPath></text><path d="M 120.9904718944345 100.63252640178507 l 11.937804496882695 0.35973352869827285 a32.943223367979954,32.943223367979954 0 0,0 -0.02195880305514866,0.5666591351054401 l -11.929843560976344 -0.5651699108177192" fill="#ff5b08" stroke="none" /><path d="M 120.9764740272857 100.99374915477107 l 14.411756596537034 0.6827492036052242 a35.42791997042028,35.42791997042028 0 0,0 -0.03410131157460804,0.6089018261299891 l -14.397868934074896 -0.9307227460706365" fill="#ff800b" stroke="none" /><path d="M 120.95626037817324 101.35467743843564 l 14.359700375808359 0.9282554125002278 a35.38967174725771,35.38967174725771 0 0,0 -0.044529376919143354,0.6075679693070326 l -14.341594440224878 -1.1752965183040307" fill="#ff7f0b" stroke="none" /><path d="M 120.92983693683757 101.71520430193887 l 14.413249387764827 1.1811686555140157 a35.46156690357832,35.46156690357832 0 0,0 -0.055092758898892674,0.6079440036437255 l -14.390782032588858 -1.4290940477063119" fill="#ff800b" stroke="none" /><path d="M 120.89721153311464 102.0752229133903 l 14.480354183963975 1.437989118737236 a35.55157963929173,35.55157963929173 0 0,0 -0.06571573807616043,0.6084461183412957 l -14.453456144386761 -1.6870315589633231" fill="#ff820b" stroke="none" /><path d="M 120.8583938346157 102.4346265915055 l 14.392328879270185 1.6798966824096047 a35.49003738548129,35.49003738548129 0 0,0 -0.07604752948188544,0.6061736338023209 l -14.361279840541451 -1.9273880704993205" fill="#ff810b" stroke="none" /><path d="M 120.76222939487914 103.15116336523771 l 14.2995330643312 2.170295100555988 a35.46329238733002,35.46329238733002 0 0,0 -0.09679493829592535,0.6027421731667111 l -14.260056371673986 -2.416116503415904" fill="#ff800b" stroke="none" /><path d="M 120.70491114924044 103.5080841355445 l 14.261474069601297 2.416356707470485 a35.46473029045643,35.46473029045643 0 0,0 -0.10716015754336179,0.6010110724131955 l -14.217767469718746 -2.661486530616899" fill="#ff800b" stroke="none" /><path d="M 120.64145759157962 103.86396538481128 l 14.216071445924191 2.661169044450774 a35.46300480670473,35.46300480670473 0 0,0 -0.11748398196603779,0.5990482929572376 l -14.168157530982489 -2.9054810644759566" fill="#ff800b" stroke="none" /><path d="M 120.41448212921028 104.9243191809786 l 14.025643542753379 3.383223002474514 a35.42791997042028,35.42791997042028 0 0,0 -0.14810335864109345,0.5915992972230202 l -13.965328869817224 -3.62415013909493" fill="#ff800b" stroke="none" /><path d="M 120.32669344350535 105.2749913415812 l 14.02684646360295 3.6401146035306495 a35.4914752886077,35.4914752886077 0 0,0 -0.15854874144250314,0.5900188484870916 l -13.96210964581867 -3.8810243851932897" fill="#ff810b" stroke="none" /><path d="M 120.23288151984713 105.62410040840565 l 13.961278419430275 3.8807933305772746 a35.49061254673185,35.49061254673185 0 0,0 -0.1686773549326868,0.5871880009107272 l -13.89240842761149 -4.120538806992584" fill="#ff810b" stroke="none" /><path d="M 119.9155931802556 106.66101706037122 l 27.37531552343996 9.156013686574935 a49.86590526272544,49.86590526272544 0 0,0 -0.27927084201012925,0.8116917906648795 l -27.2136538504866 -9.625878180329115" fill="#bbff1f" stroke="none" /><path d="M 119.79798401119884 107.00284435728193 l 13.85205481971668 4.899679880342469 a35.693069306930695,35.693069306930695 0 0,0 -0.2098680052221394,0.5774666156496452 l -13.765662553489312 -5.137394292998245" fill="#ff840c" stroke="none" /><path d="M 119.67450827220406 107.3425965602758 l 13.748688531316171 5.13105952746824 a35.674951727537895,35.674951727537895 0 0,0 -0.21966549207600752,0.5734772836943817 l -13.658328759646658 -5.366960377995766" fill="#ff830c" stroke="none" /><path d="M 119.54520255179757 107.68017299344265 l 13.488901138002962 5.300384785307858 a35.49291319173411,35.49291319173411 0 0,0 -0.22833332307583748,0.5667045823946948 l -13.39566520066973 -5.5317887355453665" fill="#ff810b" stroke="none" /><path d="M 119.41010516605496 108.01547362559984 l 30.604347650795916 12.638176832377308 a54.1111704531449,54.1111704531449 0 0,0 -0.36292882213624683,0.8578565280891594 l -30.38226784746736 -13.163107886132632" fill="#88ff25" stroke="none" /><path d="M 119.12269723197855 108.67885076344098 l 9.02123710261738 4.094295358308732 a30.90686496035496,30.90686496035496 0 0,0 -0.22403854099379164,0.4825590858963548 l -8.949423944783758 -4.248974511483917" fill="#ff3c05" stroke="none" /><line stroke="#e1ed5e" stroke-width="0.3" x1="174.80103733775053" x2="179.2010983576182" y1="140.37084112569926" y2="142.7455964860345" /><path d="M 175.68104954172406 140.8457921977663 a86.0,86.0 0 0,1 -30.038265399797805,32.042727171017184" fill="none" id="id29" stroke="none" /><text fill="#e1ed5e" style="font-size:6.75px; font-family:Arial;" text-anchor="middle"><textPath startOffset="22.206326154141568" xlink:href="#id29">May</textPath></text><path d="M 115.32070863581623 114.36230785411682 l 6.468547826723775 6.063901968561626 a29.866398258083066,29.866398258083066 0 0,0 -0.3548319380618301,0.372039868458435 l -6.3632093372829805 -6.174348953602568" fill="#ff2c04" stroke="none" /><path d="M 115.07121518719521 114.62390073753431 l 10.649929130198151 10.333838680381637 a35.83944784519946,35.83944784519946 0 0,0 -0.43341732252959936,0.4390494594600831 l -10.470471182613016 -10.515628633822384" fill="#ff860c" stroke="none" /><path d="M 114.81725581225074 114.88116024355365 l 10.437599410136063 10.482615090699591 a35.7928597839037,35.7928597839037 0 0,0 -0.44033747760847813,0.4309629005936601 l -10.255611980151789 -10.660728094215823" fill="#ff850c" stroke="none" /><path d="M 114.29624159901734 115.38237550388516 l 10.214286087198987 10.990300003618042 a36.003943962861015,36.003943962861015 0 0,0 -0.45759375545987563,0.41800104616937345 l -10.023592782272246 -11.164493816373998" fill="#ff880c" stroke="none" /><path d="M 114.0293411484842 115.62618273729858 l 9.822056569506952 10.940018436131796 a35.70227188693973,35.70227188693973 0 0,0 -0.4608273244553887,0.40662653435760865 l -9.632286892144975 -11.107468112261692" fill="#ff840c" stroke="none" /><path d="M 113.48314897796784 116.09983520530334 l 9.35361955720656 11.168884486124321 a35.56825931555811,35.56825931555811 0 0,0 -0.4727696976495632,0.3890572751684444 l -9.159979731012305 -11.328236880149944" fill="#ff820b" stroke="none" /><path d="M 113.20401910651253 116.32954008644616 l 9.201025871778619 11.378999045489953 a35.633540117497226,35.633540117497226 0 0,0 -0.48027650181967957,0.3815606998268059 l -9.003791877241587 -11.535693659321884" fill="#ff830c" stroke="none" /><path d="M 112.92097659922987 116.55440617244103 l 8.913727416879675 11.420302717539537 a35.48716157922846,35.48716157922846 0 0,0 -0.48477367449476694,0.3717037817926433 l -8.715825013891413 -11.572045841159552" fill="#ff810b" stroke="none" /><path d="M 112.63410532772338 116.77436683061366 l 8.707693288949914 11.561249307998231 a35.473645289840185,35.473645289840185 0 0,0 -0.49091307025086967,0.3631657532976187 l -8.50739524828048 -11.70942501003562" fill="#ff800b" stroke="none" /><path d="M 112.34349029814194 116.9893568818739 l 8.476292688609442 11.666616009224027 a35.42073045478821,35.42073045478821 0 0,0 -0.49635014287975815,0.3541326480310477 l -8.2742152178808 -11.810792919099294" fill="#ff800b" stroke="none" /><path d="M 112.04921762599082 117.19931262002967 l 8.387409188156328 11.972368428970713 a35.618010763731974,35.618010763731974 0 0,0 -0.505170442352648,0.3474608366401768 l -8.180081861180795 -12.114970054975982" fill="#ff820c" stroke="none" /><path d="M 111.7513745106137 117.40417183066458 l 8.109434895017266 12.010339576446453 a35.49176286923298,35.49176286923298 0 0,0 -0.5092650542295897,0.33751310856873773 l -7.901495142047711 -12.14815070610651" fill="#ff810b" stroke="none" /><path d="M 111.45004920935366 117.60387380957326 l 7.878759057042218 12.113195120847235 a35.45006367856703,35.45006367856703 0 0,0 -0.5143942629264051,0.3283107563218312 l -7.669082992068882 -12.247020305992876" fill="#ff800b" stroke="none" /><path d="M 111.1453310114006 117.79835938074945 l 7.671525034934589 12.250920087569806 a35.45466496857155,35.45466496857155 0 0,0 -0.5200368699881598,0.31944911984712454 l -7.459508965014121 -12.381157674245308" fill="#ff800b" stroke="none" /><line stroke="#e1ed5e" stroke-width="0.3" x1="143.8653032363475" x2="146.44561519142675" y1="172.8068346515853" y2="177.08958963109032" /><path d="M 144.38136562736335 173.6633856474863 a86.0,86.0 0 0,1 -40.68145358897372,12.25698825130547" fill="none" id="id30" stroke="none" /><text fill="#e1ed5e" style="font-size:6.75px; font-family:Arial;" text-anchor="middle"><textPath startOffset="21.466115282336833" xlink:href="#id30">June</textPath></text><path d="M 110.8373102113329 117.98757091392108 l 7.469452404535356 12.397661614801468 a35.47393287046547,35.47393287046547 0 0,0 -0.5257441738224392,0.3106189248846133 l -7.254940359684534 -12.52439911197983" fill="#ff800b" stroke="none" /><path d="M 110.5260780823613 118.17145234162733 l 9.506523280770814 16.411367403836078 a39.96594223737726,39.96594223737726 0 0,0 -0.5982544392131274,0.33970448406698023 l -9.222620074636486 -16.572575053697687" fill="#ffc111" stroke="none" /><path d="M 109.57404056367764 118.69057910512821 l 13.218634453124947 25.805607492956078 a49.99416622160142,49.99416622160142 0 0,0 -0.7693056882461442,0.38574584261072936 l -12.772474857196041 -26.02932117647611" fill="#baff1f" stroke="none" /><path d="M 109.2508944713604 118.85261126421891 l 6.984759139975835 14.234401791938287 a36.85575777494762,36.85575777494762 0 0,0 -0.5719440271479694,0.27456789001231646 l -6.738702444827633 -14.352523958450163" fill="#ff940d" stroke="none" /><path d="M 108.92500713936063 119.00905698771935 l 12.288919488848084 26.173734903896438 a49.91508154964874,49.91508154964874 0 0,0 -0.780890561092324,0.35846855633410085 l -11.836560931988341 -26.381390530564612" fill="#bbff1f" stroke="none" /><path d="M 108.59647513512805 119.15986991738527 l 6.2297751075118954 13.884956194049973 a36.21847910932172,36.21847910932172 0 0,0 -0.5710090299255464,0.25031357831080353 l -5.989845402928595 -13.990134325655232" fill="#ff8b0c" stroke="none" /><path d="M 108.2653958097858 119.30500536409082 l 7.305666805620349 17.06342202073152 a39.561603878230144,39.561603878230144 0 0,0 -0.6283297143545563,0.2626418715592532 l -7.010865631768331 -17.186648935310746" fill="#ffbb11" stroke="none" /><path d="M 107.59598834532513 119.57807347666477 l 10.44909994489756 26.931748336886372 a49.88776139024691,49.88776139024691 0 0,0 -0.8032637021737273,0.3037255996193297 l -9.983966021963557 -27.107622186612332" fill="#bbff1f" stroke="none" /><path d="M 107.2578585660854 119.70592522655815 l 6.083847290424301 16.518348863273914 a38.60309765416376,38.60309765416376 0 0,0 -0.6255180490862904,0.22428851753614606 l -5.798609680708276 -16.62062492185002" fill="#ffad10" stroke="none" /><path d="M 106.91757812671514 119.82793768551818 l 9.62576217128373 27.590438302496313 a50.221354915574544,50.221354915574544 0 0,0 -0.8186804685953782,0.277740864467814 l -9.149411969751126 -27.752042153862252" fill="#b7ff1f" stroke="none" /><path d="M 106.57524785965236 119.94407469862006 l 2.9717062447736606 9.013794246724428 a30.49102337619654,30.49102337619654 0 0,0 -0.49987659594083994,0.16004470043764227 l -2.8161083037418804 -9.063611793821778" fill="#ff3605" stroke="none" /><path d="M 105.88484417918355 120.15858648285463 l 4.183289874385315 14.3298969603892 a35.928022677786444,35.928022677786444 0 0,0 -0.5951542514872764,0.1681965363054399 l -3.9360044547934327 -14.399782290033158" fill="#ff870c" stroke="none" /><path d="M 105.18746579009965 120.34920634021253 l 8.09160269169318 31.74145130952669 a53.75658354217164,53.75658354217164 0 0,0 -0.8986224798050719,0.220859542159776 l -7.544026927144896 -31.876032110000494" fill="#8cff24" stroke="none" /><path d="M 104.83641907484287 120.43548508189849 l 3.450724706166388 14.580463802527884 a35.98323815784068,35.98323815784068 0 0,0 -0.6039698290588927,0.1374615667368612 l -3.199234727714633 -14.63770210284243" fill="#ff880c" stroke="none" /><path d="M 104.13013068566511 120.58985236759428 l 1.333951388212091 6.650119388270968 a27.78258904728647,27.78258904728647 0 0,0 -0.46970089823010264,0.09001929504335882 l -1.219282875410284 -6.672095881662795" fill="#ff0b01" stroke="none" /><path d="M 100.90346689309514 120.98055641714683 l 0.7039502049550732 16.347325068353847 a37.362474836695284,37.362474836695284 0 0,0 -0.6427762747412346,0.022138514556809433 l -0.4224535785391863 -16.35702038133675" fill="#ff9c0e" stroke="none" /><line stroke="#e1ed5e" stroke-width="0.3" x1="102.19456741930631" x2="102.32365962044197" y1="184.97166512339345" y2="189.96999836594603" /><path d="M 102.22038585953345 185.97133177190398 a86.0,86.0 0 0,1 -42.740103519485714,-10.115201625700543" fill="none" id="id31" stroke="none" /><text fill="#e1ed5e" style="font-size:6.75px; font-family:Arial;" text-anchor="middle"><textPath startOffset="22.20632615414155" xlink:href="#id31">July</textPath></text><path d="M 100.54218724476979 120.99299961872073 l 0.7582661952003515 29.35938109995282 a50.369171356969716,50.369171356969716 0 0,0 -0.86692613881488,0.01492491967612593 l -0.25278036649280355 -29.368083496908106" fill="#b5ff20" stroke="none" /><path d="M 100.18074693466247 120.99922214144158 l 0.1268468586698331 14.737098408480293 a35.73764430384947,35.73764430384947 0 0,0 -0.615187586664567,0.0 l 0.12684685866982295 -14.737098408480293" fill="#ff840c" stroke="none" /><path d="M 99.45781275523022 120.99299961872073 l -0.37486750221076454 14.514530555441057 a35.51937060926009,35.51937060926009 0 0,0 -0.6110678915453098,-0.021046413727109685 l 0.6246557454307174 -14.505927343287853" fill="#ff810b" stroke="none" /><path d="M 99.09653310690486 120.98055641714683 l -0.38626510007025433 8.969954279382168 a29.97826712131794,29.97826712131794 0 0,0 -0.5153577199563517,-0.026638107496101064 l 0.5406108884400951 -8.961976365123865" fill="#ff2e04" stroke="none" /><path d="M 98.73552117531835 120.96189622390904 l -1.788708614452162 29.65231494516976 a50.70621584980075,50.70621584980075 0 0,0 -0.8707880807342763,-0.06005464435710119 l 2.2988594559653683 -29.617131956296372" fill="#b1ff20" stroke="none" /><path d="M 98.37488393609728 120.93702456842531 l -1.1424083221494354 14.718106379784134 a35.76237623762376,35.76237623762376 0 0,0 -0.613334429192622,-0.05292107532742468 l 1.3955870690835992 -14.696261052178045" fill="#ff850c" stroke="none" /><path d="M 96.93821686468263 120.77559828337769 l -4.320534371302772 29.31680086428072 a50.633457951604285,50.633457951604285 0 0,0 -0.8611645372285336,-0.13449618997188734 l 4.824534772139822 -29.238086366961724" fill="#b2ff20" stroke="none" /><path d="M 96.58105272829116 120.7198165907248 l -2.3978467821548937 14.531650122254355 a35.72815414321515,35.72815414321515 0 0,0 -0.6059342307386293,-0.10534943292230879 l 2.647629984365573 -14.48822211081104" fill="#ff840c" stroke="none" /><path d="M 96.22490169976321 120.6578951692458 l -5.298413509345944 28.993700861383854 a50.47385070457253,50.47385070457253 0 0,0 -0.8533262674950721,-0.16354201009906003 l 5.796707391412712 -28.898201652936326" fill="#b4ff20" stroke="none" /><path d="M 95.86986931433489 120.58985236759428 l -2.897420467048078 14.444448421553751 a35.732180271969106,35.732180271969106 0 0,0 -0.6020166896174803,-0.12615845060798012 l 3.145628618094945 -14.39243399021923" fill="#ff840c" stroke="none" /><path d="M 94.81253420990036 120.34920634021253 l -7.28403369148976 28.57354835188957 a50.487366993960805,50.487366993960805 0 0,0 -0.8402770134130035,-0.22192479640130522 l 7.7748011477142525 -28.443932206184684" fill="#b3ff20" stroke="none" /><path d="M 94.46302465271185 120.25689768951611 l -3.916744882628343 14.329321585691563 a35.85497719896471,35.85497719896471 0 0,0 -0.5939442398018836,-0.1678545749166678 l 4.162820290534841 -14.259778217436374" fill="#ff860c" stroke="none" /><path d="M 94.11515582081647 120.15858648285463 l -4.797296800986508 16.433183190931228 a38.119099461813406,38.119099461813406 0 0,0 -0.6282844893111893,-0.18929696273320695 l 5.079456264737942 -16.348170859092296" fill="#ffa70f" stroke="none" /><path d="M 93.76903079525671 120.05430185196036 l -8.706530035824079 28.021865569269618 a50.3432891006943,50.3432891006943 0 0,0 -0.825339040727855,-0.26424749749318827 l 9.187590421642874 -27.867845225116724" fill="#b5ff1f" stroke="none" /><path d="M 93.08242187328487 119.8279376855182 l -9.98536293500214 28.621166312222396 a51.31301096914671,51.31301096914671 0 0,0 -0.8314673294282333,-0.2981346021423433 l 10.4765498250601 -28.445044169040095" fill="#a9ff21" stroke="none" /><path d="M 91.7346041902142 119.30500536409082 l -24.796187429357385 57.91501609227247 a84.0,84.0 0 0,0 -1.3243173013690268,-0.5805417868221912 l 25.789425405384158 -57.479609752155824" fill="#4dd2ff" stroke="none" /><line stroke="#e1ed5e" stroke-width="0.3" x1="58.666819895761336" x2="56.23545636021788" y1="174.27360380694188" y2="178.64263932499728" /><path d="M 58.180547188652646 175.14741091055294 a86.0,86.0 0 0,1 -31.652253787137756,-30.449443065178592" fill="none" id="id32" stroke="none" /><text fill="#e1ed5e" style="font-size:6.75px; font-family:Arial;" text-anchor="middle"><textPath startOffset="22.20632615414155" xlink:href="#id32">August</textPath></text><path d="M 88.8546689885994 117.79835938074946 l -7.738528586062377 12.357920344586757 a35.58091286307054,35.58091286307054 0 0,0 -0.5162929356742998,-0.3295225791021298 l 7.9501033237836 -12.222883336660823" fill="#ff820c" stroke="none" /><path d="M 87.65650970185807 116.9893568818739 l -8.712266456548397 11.991406037120672 a35.822193007682515,35.822193007682515 0 0,0 -0.49573655621902635,-0.36673405290360167 l 8.917387983185987 -11.839662035477303" fill="#ff850c" stroke="none" /><path d="M 87.07902340077011 116.55440617244103 l -8.883293060922409 11.381310100670056 a35.43769771167988,35.43769771167988 0 0,0 -0.47763689583991503,-0.37946363719499016 l 9.07788744947968 -11.226712549469935" fill="#ff800b" stroke="none" /><path d="M 86.79598089348748 116.32954008644616 l -9.607147599360706 11.881253773920148 a36.2794462018816,36.2794462018816 0 0,0 -0.4822227216571947,-0.39683647036812 l 9.81024044956259 -11.714122184694848" fill="#ff8c0c" stroke="none" /><path d="M 84.9287848128048 114.62390073753433 l -10.578518198645488 10.264547228987055 a35.73994494885173,35.73994494885173 0 0,0 -0.4246134342292965,-0.4452054882072778 l 10.753638184253742 -10.080934624197276" fill="#ff840c" stroke="none" /><path d="M 84.67929136418377 114.36230785411682 l -14.639886161757047 13.724074845522145 a41.06680087095846,41.06680087095846 0 0,0 -0.47902192311740005,-0.5198836895651131 l 14.873954492870178 -13.470039901155687" fill="#ffd013" stroke="none" /><line stroke="#e1ed5e" stroke-width="0.3" x1="26.63291911575756" x2="22.317208475507996" y1="142.92168965132927" y2="145.44649492493687" /><path d="M 25.769776987707644 143.4266507060508 a86.0,86.0 0 0,1 -11.730757126820373,-40.83630448921669" fill="none" id="id33" stroke="none" /><text fill="#e1ed5e" style="font-size:6.75px; font-family:Arial;" text-anchor="middle"><textPath startOffset="21.46611528233685" xlink:href="#id33">September</textPath></text><path d="M 81.87401531095188 110.60418214915194 l -14.907774104800582 8.72144353852577 a38.2715171932131,38.2715171932131 0 0,0 -0.32776457006758813,-0.5714851552706771 l 15.055690671020548 -8.463538537396786" fill="#ffa90f" stroke="none" /><path d="M 81.35079622478065 109.6543875284942 l -12.794687426354901 6.623600246361153 a35.40750174602522,35.40750174602522 0 0,0 -0.275540049280025,-0.5436666577207457 l 12.906806145421193 -6.402379376937723" fill="#ff7f0b" stroke="none" /><path d="M 81.18737489456691 109.33194174019688 l -7.777214393859661 3.857862005848342 a29.68148391602646,29.68148391602646 0 0,0 -0.22310121785654166,-0.4596545891824082 l 7.842468868330922 -3.723418460700649" fill="#ff2904" stroke="none" /><path d="M 81.02952815118164 109.00673069616217 l -7.822984796344542 3.7141678848243886 a29.659915369130275,29.659915369130275 0 0,0 -0.21499961816972235,-0.4630900502736246 l 7.885759031354092 -3.5789577672719366" fill="#ff2904" stroke="none" /><path d="M 80.87730276802145 108.67885076344099 l -13.73048575472247 6.231591460618411 a36.07842734480917,36.07842734480917 0 0,0 -0.2517911988693601,-0.5677226825152191 l 13.83571803832311 -5.994320441610496" fill="#ff890c" stroke="none" /><path d="M 80.73074385275274 108.34839909993369 l -16.64946272558736 7.213374432854252 a39.14489955219588,39.14489955219588 0 0,0 -0.2625486044405956,-0.6205873452935895 l 16.771162311220262 -6.925712561894503" fill="#ffb510" stroke="none" /><path d="M 80.0844068197444 106.66101706037122 l -13.83043213458694 4.625759502464775 a35.583501088698085,35.583501088698085 0 0,0 -0.18928346702758594,-0.5825546103302587 l 13.908007852630776 -4.3870059921567135" fill="#ff820c" stroke="none" /><path d="M 79.97269907076064 106.31721596034903 l -7.354286655129934 2.3197642657348942 a28.71147446694877,28.71147446694877 0 0,0 -0.14461453907033342,-0.47260868102308384 l 7.393127966706398 -2.1928286121597624" fill="#ff1a02" stroke="none" /><path d="M 79.76711848015287 105.62410040840567 l -29.092923593716325 8.086911560502793 a51.195965654656746,51.195965654656746 0 0,0 -0.22870438198113205,-0.8510940854702084 l 29.227816052039234 -7.584926541857046" fill="#abff21" stroke="none" /><path d="M 79.35854240842038 103.8639653848113 l -14.408852817238122 2.697256638666871 a35.65913479314736,35.65913479314736 0 0,0 -0.10774756979674371,-0.6043055922837147 l 14.453146829374054 -2.4488322956499426" fill="#ff830c" stroke="none" /><path d="M 79.23777060512086 103.15116336523772 l -10.312166001436148 1.5651170739877436 a31.43026169836901,31.43026169836901 0 0,0 -0.07657900793303289,-0.5355934031239207 l 10.33757906038578 -1.3873781988834222" fill="#ff4406" stroke="none" /><path d="M 79.18660465613746 102.79330883721812 l -29.09109726759145 3.9042365620512407 a50.35191651945277,50.35191651945277 0 0,0 -0.10789334523352719,-0.860016118720488 l 29.153992122071827 -3.4029026890433443" fill="#b5ff1f" stroke="none" /><path d="M 79.07016306316243 101.71520430193888 l -14.461974752091987 1.1851617088168123 a35.51045560987634,35.51045560987634 0 0,0 -0.044681354314775774,-0.6096415801237965 l 14.480232665071098 -0.9360469921962551" fill="#ff810b" stroke="none" /><path d="M 79.0095281055655 100.63252640178507 l -14.738143803615921 0.4441188895597878 a35.74483381948153,35.74483381948153 0 0,0 -0.013239098894416802,-0.6151689035833358 l 14.743604965195345 -0.19036017018632312" fill="#ff840c" stroke="none" /><line stroke="#e1ed5e" stroke-width="0.3" x1="15.007084014347285" x2="10.007500721073583" y1="101.09737516637583" y2="101.16192664675087" /><path d="M 14.007167355692545 101.11028546245083 a86.0,86.0 0 0,1 10.666146001902534,-42.60595125391555" fill="none" id="id34" stroke="none" /><text fill="#e1ed5e" style="font-size:6.75px; font-family:Arial;" text-anchor="middle"><textPath startOffset="22.20632615414155" xlink:href="#id34">October</textPath></text><path d="M 79.05617556472873 98.46500227214037 l -28.949589351280284 -2.1217497317179506 a50.02723799350889,50.02723799350889 0 0,0 0.0703371440401532,-0.8582913147426438 l 28.908777723420634 2.6197549636683726" fill="#b9ff1f" stroke="none" /><path d="M 79.26566170972629 96.67025291283419 l -14.554328253876863 -2.337293403365311 a35.74080769072758,35.74080769072758 0 0,0 0.10277718305746357,-0.6065967522879173 l 14.511939209299175 2.5874759439690567" fill="#ff840c" stroke="none" /><path d="M 79.46518482838121 95.60439243477599 l -14.431146967080688 -3.0890786332000273 a35.75806252824452,35.75806252824452 0 0,0 0.1340171538526169,-0.6007726225982022 l 14.375835426226034 3.3370294253481885" fill="#ff850c" stroke="none" /><path d="M 80.2630227832202 92.82701384747504 l -13.665308616506717 -4.966366855449779 a35.539788833655145,35.539788833655145 0 0,0 0.21390791591405253,-0.5731668663248555 l 13.577796112091036 5.200856858803976" fill="#ff810b" stroke="none" /><path d="M 80.803312248108 91.48605970444005 l -13.503376512382193 -5.988894693750353 a35.771866398258084,35.771866398258084 0 0,0 0.254487331323633,-0.5607291009975438 l 13.398286864095208 6.220445803589968" fill="#ff850c" stroke="none" /><path d="M 80.95270993114464 91.15688171328213 l -14.687617004055936 -6.819045336493937 a37.19337742902921,37.19337742902921 0 0,0 0.2745965911296248,-0.5783704517806539 l 14.56806221908456 7.070858203915122" fill="#ff990e" stroke="none" /><line stroke="#e1ed5e" stroke-width="0.3" x1="26.266209847984243" x2="21.928928074336255" y1="57.711370442889674" y2="55.22380399835377" /><path d="M 25.398753493254645 57.213857153982495 a86.0,86.0 0 0,1 29.58750427330803,-30.492523968695096" fill="none" id="id35" stroke="none" /><text fill="#e1ed5e" style="font-size:6.75px; font-family:Arial;" text-anchor="middle"><textPath startOffset="21.46611528233685" xlink:href="#id35">November</textPath></text><path d="M 82.7489923806493 88.02491185347247 l -11.929448690883042 -8.281035100382072 a35.521958834887634,35.521958834887634 0 0,0 0.3529992632708182,-0.4992924240173338 l 11.785136807808344 8.485154024731193" fill="#ff810b" stroke="none" /><path d="M 83.84228863543731 86.58626213691792 l -11.147743262506781 -9.254584545690236 a35.48859948235487,35.48859948235487 0 0,0 0.3942435048304633,-0.46665995891662326 l 10.986789144189194 9.445103454235975" fill="#ff810b" stroke="none" /><path d="M 85.31137513191541 84.99185889309783 l -10.223683600307677 -10.446075618632626 a35.616572860605565,35.616572860605565 0 0,0 0.4418435254898383,-0.42505312144905344 l 10.04235683120541 10.620511826843995" fill="#ff820c" stroke="none" /><path d="M 85.83668400450813 84.49514656593479 l -19.792333658709833 -21.66704693972016 a50.34616490694712,50.34616490694712 0 0,0 0.6448840560309557,-0.5789832728425277 l 19.416438615082907 22.004529221331964" fill="#b5ff1f" stroke="none" /><path d="M 89.00827224532344 82.1063720568725 l -7.5442722849566435 -12.281454233728416 a35.41354093915616,35.41354093915616 0 0,0 0.5221607449674764,-0.3145960063464559 l 7.331749473771518 12.409496849533491" fill="#ff800b" stroke="none" /><line stroke="#e1ed5e" stroke-width="0.3" x1="56.762969772571076" x2="54.21961505331055" y1="26.818313649435495" y2="22.513508569990535" /><path d="M 56.25429882871897 25.957352633546506 a86.0,86.0 0 0,1 42.265352541879196,-11.944610805530505" fill="none" id="id36" stroke="none" /><text fill="#e1ed5e" style="font-size:6.75px; font-family:Arial;" text-anchor="middle"><textPath startOffset="22.20632615414155" xlink:href="#id36">December</textPath></text><path d="M 89.63071344664047 81.73862282372117 l -7.2532323769093425 -12.773686164457033 a35.689330758802015,35.689330758802015 0 0,0 0.536828564945031,-0.2987445151799566 l 7.032279722892266 12.896646077197174" fill="#ff840c" stroke="none" /></svg>