<?xml version="1.0" encoding="utf-8" ?>
<svg baseProfile="full" height="200mm" version="1.1" viewBox="0,0,200,200" width="200mm" xmlns="http://www.w3.org/2000/svg" xmlns:ev="http://www.w3.org/2001/xml-events" xmlns:xlink="http://www.w3.org/1999/xlink"><defs /><rect fill="#1a1a1a" height="200" width="200" x="0" y="0" /><text alignment-baseline="middle" fill="#e1ed5e" style="dominant-baseline: central; font-size:9.0px; font-family:Arial;" text-anchor="middle" x="100.0" y="100.0">2023</text><line stroke="#e1ed5e" stroke-width="0.3" x1="100.0" x2="100.0" y1="15.0" y2="10.0" /><path d="M 100.0 14.0 a86.0,86.0 0 0,1 42.46469731375804,11.215312516191453" fill="none" id="id25" stroke="none" /><text fill="#e1ed5e" style="font-size:6.75px; font-family:Arial;" text-anchor="middle"><textPath startOffset="22.20632615414155" xlink:href="#id25">January</textPath></text><path d="M 100.0 79.0 l 0.0 -3.0661017419609777 a24.066101741960978,24.066101741960978 0 0,0 0.4142583805669278,0.0035656526675778683 l -0.052777901294399444 3.0656474659019586" fill="#ff0000" stroke="none" /><path d="M 109.08828744355905 81.06846463323043 l 2.527133180964069 -5.264194325836881 a26.839361610185037,26.839361610185037 0 0,0 0.4147687627429622,0.2035252305570121 l -2.617373210717463 5.219913935145037" fill="#ff2904" stroke="none" /><path d="M 109.73455568895987 81.39251694778311 l 4.021309174965923 -7.686682855568305 a29.675022812808784,29.675022812808784 0 0,0 0.45057276277378333,0.24068036555081385 l -4.153026984268017 7.616323763515737" fill="#ff5307" stroke="none" /><path d="M 110.05341064243156 81.56283822128135 l 4.172279921067556 -7.651632130309226 a29.715239181876996,29.715239181876996 0 0,0 0.44696801166751193,0.248737214570972 l -4.303372021807103 7.578679518178074" fill="#ff5307" stroke="none" /><path d="M 110.36928655335952 81.73862282372117 l 4.233211183227915 -7.455119085191153 a29.573148633739372,29.573148633739372 0 0,0 0.44050369161534225,0.25516817072951004 l -4.360911607308585 7.381146757071593" fill="#ff5107" stroke="none" /><line stroke="#e1ed5e" stroke-width="0.3" x1="143.23703022742887" x2="145.7803849466894" y1="26.81831364943548" y2="22.513508569990506" /><path d="M 143.74570117128098 25.957352633546492 a86.0,86.0 0 0,1 28.547481713284135,27.462654790039103" fill="none" id="id26" stroke="none" /><text fill="#e1ed5e" style="font-size:6.75px; font-family:Arial;" text-anchor="middle"><textPath startOffset="19.985693538727396" xlink:href="#id26">February</textPath></text><path d="M 110.68208982089419 81.91981866633111 l 4.014867257972021 -6.795442583974421 a28.89285746806749,28.89285746806749 0 0,0 0.4260154613086057,0.25666954871890374 l -4.131244785498264 6.725326425796903" fill="#ff4706" stroke="none" /><path d="M 110.99172775467656 82.1063720568725 l 2.2924549122015936 -3.7319278816633497 a25.379798538564703,25.379798538564703 0 0,0 0.3702801994698404,0.23186942693844328 l -2.356354264043697 3.691914113401962" fill="#ff1402" stroke="none" /><path d="M 112.19680574252982 82.90503203632743 l 4.76677888690919 -6.681087989905254 a29.207260059577706,29.207260059577706 0 0,0 0.40675238099506766,0.2955229031603544 l -4.881076584258047 6.598045851928225" fill="#ff4c07" stroke="none" /><path d="M 112.48926042617603 83.11751280151076 l 7.051730442087387 -9.532249697205511 a32.857094353918946,32.857094353918946 0 0,0 0.4517910652865626,0.3402796637627838 l -7.214767661132333 9.409453443936881" fill="#ff800b" stroke="none" /><path d="M 112.77801427241765 83.33499621200491 l 4.321507319006717 -5.636081969054602 a28.102171884017665,28.102171884017665 0 0,0 0.38134305315519107,0.2976443017509032 l -4.4178829273213385 5.560859278080472" fill="#ff3c05" stroke="none" /><path d="M 113.34407831869373 83.78471172551755 l 3.651680040944945 -4.437402354506911 a26.74676489663699,26.74676489663699 0 0,0 0.3529840143728283,0.2956139607604317 l -3.7275215922768905 4.373887236352659" fill="#ff2803" stroke="none" /><path d="M 113.6212207817346 84.01681056812373 l 5.508864913661295 -6.464121893372061 a29.493083332296962,29.493083332296962 0 0,0 0.383559235956098,0.3326187897656508 l -5.6193179482641575 6.368338110186737" fill="#ff5007" stroke="none" /><path d="M 114.68862486808459 84.99185889309783 l 3.411461097875981 -3.4856693528116933 a25.87728999132222,25.87728999132222 0 0,0 0.3156588230697719,0.3143032837674695 l -3.470955721113076 3.4264302183941076" fill="#ff1b02" stroke="none" /><path d="M 114.94478906791727 85.2469230424477 l 6.2910286958836075 -6.2103272298292245 a29.83997773492611,29.83997773492611 0 0,0 0.35770422696116455,0.36864564897272206 l -6.396997186547881 6.101117385306385" fill="#ff5507" stroke="none" /><path d="M 115.4437574822437 85.77008943001954 l 8.627526242546013 -7.949420794307455 a32.73147475941486,32.73147475941486 0 0,0 0.37821430963751096,0.41763368715915805 l -8.76308419279956 7.799734319878748" fill="#ff7e0b" stroke="none" /><path d="M 115.68641384162765 86.03803664274999 l 6.658578113734917 -5.926582364456309 a29.914092271195884,29.914092271195884 0 0,0 0.3390379692489379,0.3875790074905729 l -6.7596079465617 5.811087800762789" fill="#ff5608" stroke="none" /><path d="M 115.92442197804982 86.31012108654704 l 8.94864194264126 -7.692952673790427 a32.80083528648619,32.80083528648619 0 0,0 0.36438508290925736,0.43131700519299815 l -9.079737639037637 7.537776718968322" fill="#ff7f0b" stroke="none" /><path d="M 116.60985879189232 87.15038557335679 l 6.90808089127255 -5.34418606401657 a29.73395135589808,29.73395135589808 0 0,0 0.30969193113051535,0.407518279687631 l -6.999048762627177 5.224483008447906" fill="#ff5307" stroke="none" /><path d="M 117.2510076193507 88.02491185347247 l 7.137848244395655 -4.954861987730776 a29.689046833656814,29.689046833656814 0 0,0 0.28780778918798505,0.42232241701749734 l -7.222080499252374 4.831261547442872" fill="#ff5307" stroke="none" /><path d="M 117.45458315368197 88.32363383020206 l 7.120584114860425 -4.763364827215499 a29.56693425992965,29.56693425992965 0 0,0 0.27934186853909926,0.4254568303290657 l -7.2015226187574495 4.64008993290876" fill="#ff5107" stroke="none" /><path d="M 117.65298651832404 88.62581576622439 l 9.72333901134483 -6.2649483795670795 a32.566888074507354,32.566888074507354 0 0,0 0.2995725739115003,0.47385186941875657 l -9.829739181502285 6.096648862434117" fill="#ff7c0b" stroke="none" /><line stroke="#e1ed5e" stroke-width="0.3" x1="172.23445277983987" x2="176.4835382374775" y1="55.19839476539836" y2="52.563006222186495" /><path d="M 173.08426987136738 54.67131705675599 a86.0,86.0 0 0,1 12.851231095245387,41.99856678651699" fill="none" id="id27" stroke="none" /><text fill="#e1ed5e" style="font-size:6.75px; font-family:Arial;" text-anchor="middle"><textPath startOffset="22.20632615414155" xlink:href="#id27">March</textPath></text><path d="M 117.84615892207809 88.93136811851018 l 12.398432152232761 -7.689816167159396 a35.589530236379275,35.589530236379275 0 0,0 0.31841478465859124,0.5233901844483294 l -12.528962735177576 7.475258209503985" fill="#ffa50f" stroke="none" /><path d="M 118.03404312379186 89.2402003453031 l 7.467507276096622 -4.455400359156775 a29.695645880492737,29.695645880492737 0 0,0 0.25812632694471566,0.44122156562676057 l -7.543093277511665 4.326199381176118" fill="#ff5307" stroke="none" /><path d="M 119.85752413597 93.16781622104841 l 13.982761303410522 -4.810911688082241 a35.78724061272694,35.78724061272694 0 0,0 0.1954029455760042,0.5842299359158916 l -14.063501542758296 4.569508649244035" fill="#ffa80f" stroke="none" /><path d="M 119.97218684219823 93.5106431181261 l 13.69470934997972 -4.449680801993353 a35.39946955342627,35.39946955342627 0 0,0 0.18330943768806926,0.5811410112922262 l -13.769274271435995 4.213289624274708" fill="#ffa20f" stroke="none" /><path d="M 120.08093135843002 93.85539295169968 l 11.184915549284007 -3.4224961826744456 a32.6968293124691,32.6968293124691 0 0,0 0.16004958268890748,0.5396076279174501 l -11.242171029084616 3.229459168010466" fill="#ff7d0b" stroke="none" /><path d="M 120.18372546131832 94.20196356495316 l 11.267636484885768 -3.236774449862328 a32.72332464767612,32.72332464767612 0 0,0 0.15085955890223113,0.5427220994922668 l -11.321682814354363 3.042341046951109" fill="#ff7e0b" stroke="none" /><path d="M 120.28053869075195 94.5502522615342 l 14.423526752945378 -3.8758626435504477 a35.93520790697608,35.93520790697608 0 0,0 0.15538327109317368,0.5987551283474355 l -14.488106355908856 3.627011089654162" fill="#ffaa0f" stroke="none" /><path d="M 120.37134235888165 94.90015583598534 l 14.377777808035871 -3.599390995156612 a35.82147463086124,35.82147463086124 0 0,0 0.14459457595172798,0.5994378670963125 l -14.437605184248415 3.3513678964008933" fill="#ffa80f" stroke="none" /><path d="M 120.45610955862082 95.25157060432595 l 10.989909346790064 -2.5510622363722484 a32.28211088336346,32.28211088336346 0 0,0 0.1209896821877769,0.5423730215552061 l -11.032193415979878 2.3615110452670782" fill="#ff780b" stroke="none" /><path d="M 120.6074358757038 95.95851677861258 l 17.319130350222338 -3.396588257832193 a38.649053455673936,38.649053455673936 0 0,0 0.12241494343682396,0.6539455227677259 l -17.37503101756902 3.097964657601904" fill="#ffce13" stroke="none" /><path d="M 120.67395015179393 96.31383870115 l 11.463057947657452 -2.043861006865355 a32.64384237813005,32.64384237813005 0 0,0 0.09387147019250142,0.5540347308353937 l -11.496541279370176 1.8462404877141236" fill="#ff7d0b" stroke="none" /><path d="M 120.73433829027371 96.67025291283417 l 8.066670641616327 -1.295434303039603 a29.170026026507287,29.170026026507287 0 0,0 0.07534771429334557,0.4964472949247509 l -8.087774249348971 1.1563878957227698" fill="#ff4b07" stroke="none" /><path d="M 120.83666639777658 97.38593545837742 l 20.551462749337986 -2.578284310260603 a41.71256070895057,41.71256070895057 0 0,0 0.08324565212516596,0.713197910145401 l -20.59279875446674 2.2241426617903493" fill="#fff517" stroke="none" /><path d="M 120.87857604477298 97.74499172005257 l 11.486486827753435 -1.240607733427096 a32.55328902055135,32.55328902055135 0 0,0 0.05537605011005909,0.5576292674639513 l -11.506140003545722 1.0427029352587096" fill="#ff7b0b" stroke="none" /><path d="M 120.91429891909075 98.10471618934814 l 13.94066758848161 -1.2633233221129185 a34.997792634152574,34.997792634152574 0 0,0 0.049206090128649495,0.6004389340254112 l -13.960348162429753 1.0231704708797387" fill="#ff9d0e" stroke="none" /><path d="M 120.94382443527127 98.46500227214037 l 14.795243114569173 -1.08436091193296 a35.83492694308046,35.83492694308046 0 0,0 0.03979282465298017,0.6155773846605221 l -14.811716530226567 0.8295244630194027" fill="#ffa80f" stroke="none" /><path d="M 120.98425023603335 99.18683210126433 l 14.306543940847233 -0.5543978051963676 a35.31728174123144,35.31728174123144 0 0,0 0.018311683552123603,0.6076756288051871 l -14.313967318855001 0.3080520289661815" fill="#ffa10e" stroke="none" /><line stroke="#e1ed5e" stroke-width="0.3" x1="184.98032266829074" x2="189.97916517819016" y1="98.17113171792111" y2="98.06355123074" /><path d="M 185.9800911702706 98.14961562048488 a86.0,86.0 0 0,1 -9.607161424134198,41.387399972396054" fill="none" id="id28" stroke="none" /><text fill="#e1ed5e" style="font-size:6.75px; font-family:Arial;" text-anchor="middle"><textPath startOffset="21.466115282336823" xlink:href="#id28">April</textPath></text><path d="M 120.9904718944345 100.63252640178507 l 8.726664510516233 0.2629691095170595 a29.730625764036834,29.730625764036834 0 0,0 -0.019817397604551576,0.5113989755467476 l -8.720844980060479 -0.41314533207781334" fill="#ff5307" stroke="none" /><path d="M 120.9764740272857 100.99374915477107 l 11.375582557504053 0.5389120944179425 a32.388340738145324,32.388340738145324 0 0,0 -0.03117555023885761,0.5566603920648705 l -11.364620656377665 -0.7346442028182363" fill="#ff790b" stroke="none" /><path d="M 120.95626037817324 101.35467743843564 l 11.517235489752718 0.7445096973202577 a32.54127410712628,32.54127410712628 0 0,0 -0.04094535463606469,0.5586668327733857 l -11.502713576452317 -0.9426496665904137" fill="#ff7b0b" stroke="none" /><path d="M 120.92983693683757 101.71520430193887 l 14.37582297707972 1.1781015537106454 a35.424015028388894,35.424015028388894 0 0,0 -0.05503441865657801,0.6073002239311971 l -14.353413962146067 -1.425383166190413" fill="#ffa30f" stroke="none" /><path d="M 120.89721153311464 102.0752229133903 l 13.96699778293498 1.387009639275932 a35.035698158907344,35.035698158907344 0 0,0 -0.06476215084917224,0.5996170849355019 l -13.941053330584756 -1.6272230460962254" fill="#ff9e0e" stroke="none" /><path d="M 120.8583938346157 102.4346265915055 l 14.066429571518814 1.64185717049436 a35.161925570303026,35.161925570303026 0 0,0 -0.0753444563161093,0.6005694489112268 l -14.036083605955856 -1.8837443736929818" fill="#ff9f0e" stroke="none" /><path d="M 120.76222939487914 103.15116336523771 l 14.425334460894979 2.1893884620928414 a35.59053447090371,35.59053447090371 0 0,0 -0.09714223796268051,0.6049048085231189 l -14.38551046857101 -2.437372500309165" fill="#ffa50f" stroke="none" /><path d="M 120.70491114924044 103.5080841355445 l 13.932126990059594 2.360554619912599 a35.13068931725334,35.13068931725334 0 0,0 -0.10615082001220867,0.5953501715155858 l -13.889429727708198 -2.6000235421614035" fill="#ff9f0e" stroke="none" /><path d="M 120.64145759157962 103.86396538481128 l 14.116325511051581 2.64249716346013 a35.36152628354175,35.36152628354175 0 0,0 -0.11714779779184831,0.5973340970958335 l -14.068747780284069 -2.885094987623908" fill="#ffa20f" stroke="none" /><path d="M 120.41448212921028 104.9243191809786 l 13.97197359122527 3.370276900286896 a35.37271068443611,35.37271068443611 0 0,0 -0.14787256099084306,0.5906773753372394 l -13.911889715939367 -3.6102821150215316" fill="#ffa20f" stroke="none" /><path d="M 120.32669344350535 105.2749913415812 l 10.85407466728185 2.8167468580130266 a32.21360779343811,32.21360779343811 0 0,0 -0.14390573881304505,0.5355267883721936 l -10.803980852127028 -3.003164579560768" fill="#ff770a" stroke="none" /><path d="M 120.23288151984713 105.62410040840565 l 4.278547791815464 1.1893008101554037 a25.440766558138954,25.440766558138954 0 0,0 -0.12091313456019778,0.4209144837170669 l -4.257442020369168 -1.2627727693770525" fill="#ff1502" stroke="none" /><path d="M 119.9155931802556 106.66101706037122 l 3.075633193027666 1.028683654299187 a24.243101848335307,24.243101848335307 0 0,0 -0.13577195541625434,0.3946168558832021 l -3.057470406668181 -1.0814732132716895" fill="#ff0300" stroke="none" /><path d="M 119.79798401119884 107.00284435728193 l 14.13014363003786 4.998044070104384 a35.98804201796236,35.98804201796236 0 0,0 -0.21160238491156444,0.5822388836685062 l -14.04201698412107 -5.240530750779021" fill="#ffaa0f" stroke="none" /><path d="M 119.67450827220406 107.3425965602758 l 13.956945353946951 5.208781715405363 a35.8972390251282,35.8972390251282 0 0,0 -0.22103420727372786,0.5770505671733739 l -13.865216867079717 -5.448255849411881" fill="#ffa90f" stroke="none" /><path d="M 119.41010516605496 108.01547362559984 l 31.21892177776571 12.891967456568123 a54.776084762261384,54.776084762261384 0 0,0 -0.3673884663281635,0.8683978096012527 l -30.99238233024524 -13.427439791835539" fill="#6fff27" stroke="none" /><path d="M 119.12269723197855 108.67885076344098 l 7.682629686015564 3.486767358540238 a29.43684452298543,29.43684452298543 0 0,0 -0.21338261602560807,0.4596071715104756 l -7.621472453150124 -3.618494597329544" fill="#ff4f07" stroke="none" /><line stroke="#e1ed5e" stroke-width="0.3" x1="174.80103733775053" x2="179.2010983576182" y1="140.37084112569926" y2="142.7455964860345" /><path d="M 175.68104954172406 140.8457921977663 a86.0,86.0 0 0,1 -30.038265399797805,32.042727171017184" fill="none" id="id29" stroke="none" /><text fill="#e1ed5e" style="font-size:6.75px; font-family:Arial;" text-anchor="middle"><textPath startOffset="22.206326154141568" xlink:href="#id29">May</textPath></text><path d="M 115.32070863581623 114.36230785411682 l 6.519334147079382 6.111511304726393 a29.936010751396495,29.936010751396495 0 0,0 -0.35565897906296706,0.3729070176416608 l -6.41316861663745 -6.222825438950561" fill="#ff5608" stroke="none" /><path d="M 114.81725581225074 114.88116024355365 l 8.467770853703929 8.504290981834668 a33.00108779796866,33.00108779796866 0 0,0 -0.40599202877408563,0.3973486501504543 l -8.320128872554049 -8.648789734907695" fill="#ff820b" stroke="none" /><path d="M 114.29624159901734 115.38237550388516 l 4.923544223688355 5.297602557581621 a28.23228045506466,28.23228045506466 0 0,0 -0.35881944633498136,0.3277730567000477 l -4.8316252278865095 -5.381568380868251" fill="#ff3e05" stroke="none" /><path d="M 114.0293411484842 115.62618273729858 l 9.992015147691028 11.129321965953135 a35.95667657380923,35.95667657380923 0 0,0 -0.4641110547331213,0.40952404453493496 l -9.79896174005132 -11.299669152260359" fill="#ffaa0f" stroke="none" /><path d="M 113.20401910651253 116.32954008644616 l 8.922419311917263 11.034443577120559 a35.190437323575736,35.190437323575736 0 0,0 -0.47430426725894215,0.3768159954952574 l -8.73115755194097 -11.186393486620943" fill="#ffa00e" stroke="none" /><path d="M 112.92097659922987 116.55440617244103 l 4.77262893672688 6.114711014462422 a28.75678269375073,28.75678269375073 0 0,0 -0.39283308646631265,0.30120765944022215 l -4.666667121767074 -6.195958015730016" fill="#ff4506" stroke="none" /><path d="M 112.63410532772338 116.77436683061366 l 7.101203215122641 9.42830414812325 a32.80338960688777,32.80338960688777 0 0,0 -0.45395990671319286,0.33582868633781565 l -6.9378583379908845 -9.549142783200834" fill="#ff7f0b" stroke="none" /><path d="M 112.34349029814194 116.9893568818739 l 8.228741108430016 11.325890489880996 a34.999570551211306,34.999570551211306 0 0,0 -0.49044843572602087,0.34992193667689975 l -8.032565344855112 -11.465856688402114" fill="#ff9d0e" stroke="none" /><path d="M 112.04921762599082 117.19931262002967 l 8.139514098394937 11.61851764146567 a35.18596637325138,35.18596637325138 0 0,0 -0.49904275438874574,0.3432461569833589 l -7.9383144593833075 -11.756904587814127" fill="#ffa00e" stroke="none" /><path d="M 111.7513745106137 117.40417183066458 l 7.860220324361814 11.641244607472796 a35.04641020184606,35.04641020184606 0 0,0 -0.5028747672454313,0.3332779748073364 l -7.658670858376418 -11.77482060337145" fill="#ff9e0e" stroke="none" /><path d="M 111.45004920935366 117.60387380957326 l 7.9869974971835465 12.279606269546617 a35.64857874181331,35.64857874181331 0 0,0 -0.5172747939901645,0.33014924753433667 l -7.774440901146451 -12.41526994590476" fill="#ffa60f" stroke="none" /><path d="M 111.1453310114006 117.79835938074945 l 7.016783824357515 11.205341508044668 a34.221003500100664,34.221003500100664 0 0,0 -0.5019419465342986,0.3083337399488326 l -6.822862677890908 -11.324463714821878" fill="#ff920d" stroke="none" /><line stroke="#e1ed5e" stroke-width="0.3" x1="143.8653032363475" x2="146.44561519142675" y1="172.8068346515853" y2="177.08958963109032" /><path d="M 144.38136562736335 173.6633856474863 a86.0,86.0 0 0,1 -40.68145358897372,12.25698825130547" fill="none" id="id30" stroke="none" /><text fill="#e1ed5e" style="font-size:6.75px; font-family:Arial;" text-anchor="middle"><textPath startOffset="21.466115282336833" xlink:href="#id30">June</textPath></text><path d="M 110.5260780823613 118.17145234162733 l 3.0944101129101003 5.341963592918892 a27.17348758603686,27.17348758603686 0 0,0 -0.4067628252248655,0.23097054802031158 l -3.001998520764036 -5.394437306733831" fill="#ff2e04" stroke="none" /><path d="M 109.57404056367764 118.69057910512821 l 12.4003655535282 24.208171228146224 a48.199349625907885,48.199349625907885 0 0,0 -0.7416872135164063,0.3718973660311084 l -11.981824432329033 -24.418036435086634" fill="#baff1f" stroke="none" /><path d="M 109.2508944713604 118.85261126421891 l 7.103371430299364 14.476124514811302 a37.125013694416324,37.125013694416324 0 0,0 -0.5761224601584838,0.2765737917803192 l -6.853136302140648 -14.596252583091182" fill="#ffba11" stroke="none" /><path d="M 108.92500713936063 119.00905698771935 l 9.724307504679578 20.71145856089515 a43.88070523749748,43.88070523749748 0 0,0 -0.6864864780387686,0.31513227203209154 l -9.36635303087339 -20.875777903261316" fill="#eeff19" stroke="none" /><path d="M 108.59647513512805 119.15986991738527 l 6.181474848513697 13.777304317573313 a36.10048825574298,36.10048825574298 0 0,0 -0.5691488236303366,0.2494981185374074 l -5.943405350225607 -13.881666989405174" fill="#ffac0f" stroke="none" /><path d="M 108.2653958097858 119.30500536409082 l 7.421975988317936 17.33507862950657 a39.85711215065402,39.85711215065402 0 0,0 -0.6330230687739831,0.2646036940872159 l -7.122481460046491 -17.46026736661376" fill="#ffdd14" stroke="none" /><path d="M 107.59598834532513 119.57807347666477 l 10.028839127569404 25.848558528403107 a48.725901107862086,48.725901107862086 0 0,0 -0.7845561040408614,0.29665198675102 l -9.582412802768268 -26.01735876526076" fill="#b3ff20" stroke="none" /><path d="M 107.2578585660854 119.70592522655815 l 6.194775391350223 16.819531483803996 a38.92405873355564,38.92405873355564 0 0,0 -0.6307188479965867,0.22615333898981616 l -5.904336982723902 -16.923672363833774" fill="#ffd113" stroke="none" /><path d="M 106.91757812671514 119.82793768551818 l 9.802342126170151 28.096571558654002 a50.757406548774625,50.757406548774625 0 0,0 -0.827418882821703,0.2807054090177302 l -9.31725351041122 -28.261139954569856" fill="#9cff22" stroke="none" /><path d="M 106.57524785965236 119.94407469862006 l 3.0184996127783017 9.155728124626016 a30.640471845527614,30.640471845527614 0 0,0 -0.5023266872741504,0.16082914231123407 l -2.8604515804132107 -9.206330113596957" fill="#ff6008" stroke="none" /><path d="M 105.88484417918355 120.15858648285463 l 4.146763834138931 14.204776682134847 a35.79767991563017,35.79767991563017 0 0,0 -0.5929950998483563,0.1675863384850983 l -3.901637566185969 -14.274051813958465" fill="#ffa80f" stroke="none" /><path d="M 105.18746579009965 120.34920634021253 l 8.046912782371693 31.56614332236967 a53.57566898124243,53.57566898124243 0 0,0 -0.895598219692866,0.22011625260407874 l -7.502361277935617 -31.69998083328778" fill="#7cff26" stroke="none" /><path d="M 104.83641907484287 120.43548508189849 l 3.4285660106574736 14.486835916999484 a35.887023872336,35.887023872336 0 0,0 -0.6023548958693232,0.13709401320068623 l -3.178690965395288 -14.543706663777854" fill="#ffa90f" stroke="none" /><path d="M 104.13013068566511 120.58985236759428 l 1.3533952733346313 6.747052573827323 a27.881453131415952,27.881453131415952 0 0,0 -0.47137232449780136,0.09033962786559133 l -1.2370553342651256 -6.769349400041381" fill="#ff3905" stroke="none" /><path d="M 100.90346689309514 120.98055641714683 l 0.7161486932742925 16.630601715612613 a37.64601400859124,37.64601400859124 0 0,0 -0.6476542238988074,0.022306520988714187 l -0.4297741177008328 -16.64046503502742" fill="#ffc111" stroke="none" /><line stroke="#e1ed5e" stroke-width="0.3" x1="102.19456741930631" x2="102.32365962044197" y1="184.97166512339345" y2="189.96999836594603" /><path d="M 102.22038585953345 185.97133177190398 a86.0,86.0 0 0,1 -42.740103519485714,-10.115201625700543" fill="none" id="id31" stroke="none" /><text fill="#e1ed5e" style="font-size:6.75px; font-family:Arial;" text-anchor="middle"><textPath startOffset="22.20632615414155" xlink:href="#id31">July</textPath></text><path d="M 100.54218724476979 120.99299961872073 l 0.7548770220765754 29.228155382672398 a50.237901880813894,50.237901880813894 0 0,0 -0.8646668016639568,0.014886023138129147 l -0.2516505305199506 -29.236818883089686" fill="#a2ff22" stroke="none" /><path d="M 100.18074693466247 120.99922214144158 l 0.126352457175742 14.679658724532857 a35.68020249220657,35.68020249220657 0 0,0 -0.6141987836763848,0.0 l 0.1263524571757319 -14.679658724532857" fill="#ffa60f" stroke="none" /><path d="M 99.45781275523022 120.99299961872073 l -0.3822489834442654 14.800334831021674 a35.80527018989176,35.80527018989176 0 0,0 -0.615986448685642,-0.021215818780047545 l 0.6369557838045503 -14.791562213815531" fill="#ffa80f" stroke="none" /><path d="M 99.09653310690486 120.98055641714683 l -0.38494054480888173 8.93919509318371 a29.94747942926037,29.94747942926037 0 0,0 -0.5148284473764092,-0.026610750149284868 l 0.5387570605987798 -8.931244536272223" fill="#ff5708" stroke="none" /><path d="M 98.73552117531835 120.96189622390904 l -1.7978203166684503 29.803364177907273 a50.85753965436523,50.85753965436523 0 0,0 -0.873386794977446,-0.060233866906320856 l 2.3105698724248263 -29.76800196648467" fill="#9bff22" stroke="none" /><path d="M 98.37488393609728 120.93702456842531 l -1.1414828901354557 14.706183666543227 a35.750417662648566,35.750417662648566 0 0,0 -0.6131293363960015,-0.05290337905794679 l 1.394456544272999 -14.684356035206617" fill="#ffa70f" stroke="none" /><path d="M 96.93821686468263 120.77559828337769 l -4.2774053768989395 29.024150920604292 a50.33764703278603,50.33764703278603 0 0,0 -0.8561334395449672,-0.133710435983464 l 4.776374680052425 -28.946222177273725" fill="#a1ff22" stroke="none" /><path d="M 96.58105272829116 120.7198165907248 l -2.3860989804592716 14.460455021209162 a35.65599630748323,35.65599630748323 0 0,0 -0.6047104646713781,-0.10513666550519601 l 2.6346584166026994 -14.41723977718296" fill="#ffa60f" stroke="none" /><path d="M 96.22490169976321 120.6578951692458 l -5.259963791662164 28.783298330369284 a50.25996380490988,50.25996380490988 0 0,0 -0.8497102305332105,-0.16284898800907877 l 5.75464163676707 -28.688492144011736" fill="#a2ff22" stroke="none" /><path d="M 95.86986931433489 120.58985236759428 l -2.8761236143391113 14.338277676232309 a35.62389461688304,35.62389461688304 0 0,0 -0.6001922901234726,-0.12577612995570678 l 3.1225073658919706 -14.28664556555006" fill="#ffa50f" stroke="none" /><path d="M 94.81253420990036 120.34920634021253 l -7.263706197314746 28.49380838056556 a50.40507683631003,50.40507683631003 0 0,0 -0.8389074326243608,-0.22156307766709862 l 7.753104072750595 -28.36455395359488" fill="#a0ff22" stroke="none" /><path d="M 94.46302465271185 120.25689768951611 l -3.886124093706278 14.217296129650776 a35.73884221063064,35.73884221063064 0 0,0 -0.592020442528838,-0.16731089059101353 l 4.13027570433973 -14.148296445721241" fill="#ffa70f" stroke="none" /><path d="M 94.11515582081647 120.15858648285463 l -4.801986742920038 16.449248629061447 a38.13583546664299,38.13583546664299 0 0,0 -0.6285603345540183,-0.18938007264207826 l 5.084422051914302 -16.364153187313644" fill="#ffc712" stroke="none" /><path d="M 93.76903079525671 120.05430185196036 l -8.694797211835725 27.984103611842635 a50.303746407469646,50.303746407469646 0 0,0 -0.8246907690500043,-0.2640399413736853 l 9.17520932597667 -27.830290823809243" fill="#a1ff22" stroke="none" /><path d="M 93.08242187328487 119.8279376855182 l -10.015209028104204 28.706714529147977 a51.403616083199964,51.403616083199964 0 0,0 -0.8329354793339111,-0.29866102846424764 l 10.50786406806784 -28.53006595964377" fill="#95ff23" stroke="none" /><path d="M 91.7346041902142 119.30500536409082 l -24.796187429357385 57.91501609227247 a84.0,84.0 0 0,0 -1.3243173013690268,-0.5805417868221912 l 25.789425405384158 -57.479609752155824" fill="#4dd2ff" stroke="none" /><line stroke="#e1ed5e" stroke-width="0.3" x1="58.666819895761336" x2="56.23545636021788" y1="174.27360380694188" y2="178.64263932499728" /><path d="M 58.180547188652646 175.14741091055294 a86.0,86.0 0 0,1 -31.652253787137756,-30.449443065178592" fill="none" id="id32" stroke="none" /><text fill="#e1ed5e" style="font-size:6.75px; font-family:Arial;" text-anchor="middle"><textPath startOffset="22.20632615414155" xlink:href="#id32">August</textPath></text><path d="M 88.8546689885994 117.79835938074946 l -7.848953157363792 12.534261110282939 a35.78897451641737,35.78897451641737 0 0,0 -0.5193119914872038,-0.331449483363607 l 8.06354695089792 -12.397297198095528" fill="#ffa80f" stroke="none" /><path d="M 87.65650970185807 116.9893568818739 l -8.443433470499045 11.621389175496065 a35.36482701389337,35.36482701389337 0 0,0 -0.48940715470404655,-0.36205171297743505 l 8.642225595621657 -11.47432751377886" fill="#ffa20f" stroke="none" /><path d="M 87.07902340077011 116.55440617244103 l -8.796259222954182 11.269802004249673 a35.2962447353281,35.2962447353281 0 0,0 -0.4757303622642388,-0.3779489716166783 l 8.988947077935778 -11.116719118627865" fill="#ffa10e" stroke="none" /><path d="M 86.79598089348748 116.32954008644616 l -9.779600755040141 12.094528284959937 a36.55371998473927,36.55371998473927 0 0,0 -0.4858683409787482,-0.39983656687725866 l 9.98633922456358 -11.924396599225497" fill="#ffb210" stroke="none" /><path d="M 84.9287848128048 114.62390073753433 l -10.734822052360647 10.416211976204426 a35.95773634040502,35.95773634040502 0 0,0 -0.42720093543684917,-0.4479184728787033 l 10.912529539176454 -10.229886386743223" fill="#ffaa0f" stroke="none" /><path d="M 84.67929136418377 114.36230785411682 l -14.9180258316581 13.984815236878626 a41.448045185876595,41.448045185876595 0 0,0 -0.48346893094456217,-0.5247100382667894 l 15.156541170598393 -13.725953943810495" fill="#fff216" stroke="none" /><line stroke="#e1ed5e" stroke-width="0.3" x1="26.63291911575756" x2="22.317208475507996" y1="142.92168965132927" y2="145.44649492493687" /><path d="M 25.769776987707644 143.4266507060508 a86.0,86.0 0 0,1 -11.730757126820373,-40.83630448921669" fill="none" id="id33" stroke="none" /><text fill="#e1ed5e" style="font-size:6.75px; font-family:Arial;" text-anchor="middle"><textPath startOffset="21.46611528233685" xlink:href="#id33">September</textPath></text><path d="M 81.87401531095188 110.60418214915194 l -15.101786350998767 8.834945852090822 a38.496291584235486,38.496291584235486 0 0,0 -0.32968958080766103,-0.574841573755625 l 15.251627927958804 -8.57368443247689" fill="#ffcc13" stroke="none" /><path d="M 81.35079622478065 109.6543875284942 l -12.886315768453628 6.671034739215481 a35.510680155530835,35.510680155530835 0 0,0 -0.27634298037196525,-0.5452509169392342 l 12.99923741861186 -6.448229610573561" fill="#ffa40f" stroke="none" /><path d="M 81.18737489456691 109.33194174019688 l -6.7580577069251655 3.352312632844673 a28.54382820313802,28.54382820313802 0 0,0 -0.21455001550544164,-0.44203657955667136 l 6.814760979045326 -3.235487097322718" fill="#ff4206" stroke="none" /><path d="M 81.02952815118164 109.00673069616217 l -6.15721275813857 2.923298776829436 a27.81593314870362,27.81593314870362 0 0,0 -0.20163290864377023,-0.4342993471130279 l 6.2066202836221676 -2.8168793624375805" fill="#ff3805" stroke="none" /><path d="M 80.87730276802145 108.67885076344099 l -13.906189605358524 6.311334787604845 a36.271380295880675,36.271380295880675 0 0,0 -0.25313781673635716,-0.570758950308563 l 14.012768506826161 -6.071027500803586" fill="#ffae10" stroke="none" /><path d="M 80.73074385275274 108.34839909993369 l -15.871248862004789 6.876213523857941 a38.29678735677164,38.29678735677164 0 0,0 -0.2568602344137221,-0.6071417188674023 l 15.987260077610818 -6.6019972793243795" fill="#ffc912" stroke="none" /><path d="M 80.0844068197444 106.66101706037122 l -12.29767016524885 4.113108258043333 a33.9672800168592,33.9672800168592 0 0,0 -0.18068611379924182,-0.5560946778361033 l 12.36664853006434 -3.900814680229426" fill="#ff8f0d" stroke="none" /><path d="M 79.97269907076064 106.31721596034903 l -7.447472325392693 2.3491578423101713 a28.80918603988773,28.80918603988773 0 0,0 -0.1451066947100123,-0.47421707412948916 l 7.486805792608836 -2.2206137956286343" fill="#ff4606" stroke="none" /><path d="M 79.76711848015287 105.62410040840567 l -28.829316125046017 8.013637031081307 a50.922363655028256,50.922363655028256 0 0,0 -0.22748213770009554,-0.8465456598144175 l 28.962986339087884 -7.516200438091351" fill="#9aff23" stroke="none" /><path d="M 79.35854240842038 103.8639653848113 l -14.652392957962833 2.7428459905523805 a35.906905229538694,35.906905229538694 0 0,0 -0.10849623244780095,-0.6085044900186826 l 14.697435632749823 -2.4902227498004845" fill="#ffa90f" stroke="none" /><path d="M 79.23777060512086 103.15116336523772 l -10.275401230228251 1.5595371433377987 a31.39307589424933,31.39307589424933 0 0,0 -0.07648840569700936,-0.5349597312961932 l 10.30072368694186 -1.3824319400612048" fill="#ff6b09" stroke="none" /><path d="M 79.18660465613746 102.79330883721812 l -29.563073060122502 3.967579141695209 a50.828123859937214,50.828123859937214 0 0,0 -0.10891375531006871,-0.8681497910209538 l 29.62698832467942 -3.4581115963868467" fill="#9bff22" stroke="none" /><path d="M 79.07016306316243 101.71520430193888 l -14.684987786914899 1.2034376713993713 a35.734216250984744,35.734216250984744 0 0,0 -0.04496290318018333,-0.6134830907006673 l 14.703527248759418 -0.9504814442019432" fill="#ffa70f" stroke="none" /><path d="M 79.0095281055655 100.63252640178507 l -14.666674722631228 0.4419652419018654 a35.673332296875145,35.673332296875145 0 0,0 -0.013212616305809232,-0.6139383617520758 l 14.672109401622045 -0.1894370643596607" fill="#ffa60f" stroke="none" /><line stroke="#e1ed5e" stroke-width="0.3" x1="15.007084014347285" x2="10.007500721073583" y1="101.09737516637583" y2="101.16192664675087" /><path d="M 14.007167355692545 101.11028546245083 a86.0,86.0 0 0,1 10.666146001902534,-42.60595125391555" fill="none" id="id34" stroke="none" /><text fill="#e1ed5e" style="font-size:6.75px; font-family:Arial;" text-anchor="middle"><textPath startOffset="22.20632615414155" xlink:href="#id34">October</textPath></text><path d="M 79.05617556472873 98.46500227214037 l -29.4176135230925 -2.15605177824892 a50.496517500622424,50.496517500622424 0 0,0 0.07099694021541315,-0.8663424992832437 l 29.37614209905759 2.6621081947399423" fill="#9fff22" stroke="none" /><path d="M 79.26566170972629 96.67025291283419 l -14.80455756135468 -2.3774779656133687 a35.994243097417126,35.994243097417126 0 0,0 0.1035059684115039,-0.610898084701637 l 14.761439731422954 2.6319618386308337" fill="#ffaa0f" stroke="none" /><path d="M 79.46518482838121 95.60439243477599 l -14.679454584492014 -3.1422304552385563 a36.011995174925694,36.011995174925694 0 0,0 0.1349688645486758,-0.60503895503692 l 14.623191332941301 3.3944475798254357" fill="#ffab0f" stroke="none" /><path d="M 80.2630227832202 92.82701384747504 l -13.912787741227817 -5.056307899367805 a35.80310481978927,35.80310481978927 0 0,0 0.2154927698388869,-0.577413486903614 l 13.823690382887303 5.29504452330076" fill="#ffa80f" stroke="none" /><path d="M 80.803312248108 91.48605970444005 l -13.745258385838968 -6.096171941565472 a36.036470344951525,36.036470344951525 0 0,0 0.25636977020736407,-0.5648768055511155 l 13.638286298668252 6.331870755958658" fill="#ffab0f" stroke="none" /><path d="M 80.95270993114464 91.15688171328213 l -14.941330428594608 -6.9368373066909115 a37.47310131080198,37.47310131080198 0 0,0 0.27666177664656033,-0.5827202591672905 l 14.819710458106295 7.192999981498734" fill="#ffbe11" stroke="none" /><line stroke="#e1ed5e" stroke-width="0.3" x1="26.266209847984257" x2="21.92892807433627" y1="57.711370442889674" y2="55.22380399835377" /><path d="M 25.39875349325466 57.213857153982495 a86.0,86.0 0 0,1 29.58750427330802,-30.492523968695096" fill="none" id="id35" stroke="none" /><text fill="#e1ed5e" style="font-size:6.75px; font-family:Arial;" text-anchor="middle"><textPath startOffset="21.46611528233685" xlink:href="#id35">November</textPath></text><path d="M 82.7489923806493 88.02491185347247 l -12.153494832223062 -8.436560641303322 a35.7946947278834,35.7946947278834 0 0,0 0.35570957465152,-0.5031259672564146 l 12.006472637767663 8.644513108891521" fill="#ffa80f" stroke="none" /><path d="M 83.84228863543731 86.58626213691792 l -11.352233742312892 -9.424347554183566 a35.75437351303515,35.75437351303515 0 0,0 0.39719599342896117,-0.47015477415440204 l 11.188327135396808 9.618361277967084" fill="#ffa70f" stroke="none" /><path d="M 85.31137513191541 84.99185889309783 l -10.414766620546525 -10.641315197329256 a35.88976000106653,35.88976000106653 0 0,0 0.4452325649050614,-0.4283133746813696 l 10.230050812029036 10.819011658772936" fill="#ffa90f" stroke="none" /><path d="M 85.83668400450813 84.49514656593479 l -19.93804669909274 -21.826561797348706 a50.562214160456335,50.562214160456335 0 0,0 0.6476514310467686,-0.5814678494557245 l 19.55938428045 22.16652865557371" fill="#9eff22" stroke="none" /><path d="M 89.00827224532344 82.1063720568725 l -7.615281824256755 -12.397051918187847 a35.54920662871692,35.54920662871692 0 0,0 0.5241610899103694,-0.31580119179253663 l 7.400758668128736 12.526299719439004" fill="#ffa40f" stroke="none" /><line stroke="#e1ed5e" stroke-width="0.3" x1="56.762969772571076" x2="54.21961505331055" y1="26.818313649435495" y2="22.513508569990535" /><path d="M 56.25429882871897 25.957352633546506 a86.0,86.0 0 0,1 42.265352541879196,-11.944610805530505" fill="none" id="id36" stroke="none" /><text fill="#e1ed5e" style="font-size:6.75px; font-family:Arial;" text-anchor="middle"><textPath startOffset="22.20632615414155" xlink:href="#id36">December</textPath></text><path d="M 89.63071344664047 81.73862282372117 l -7.394283922568907 -13.022092403722537 a35.97498999327376,35.97498999327376 0 0,0 0.5411253683214017,-0.3011356816068555 l 7.169034465175461 13.147443482889576" fill="#ffaa0f" stroke="none" /></svg>