<?xml version="1.0" encoding="utf-8" ?>
<svg baseProfile="full" height="200mm" version="1.1" viewBox="0,0,200,200" width="200mm" xmlns="http://www.w3.org/2000/svg" xmlns:ev="http://www.w3.org/2001/xml-events" xmlns:xlink="http://www.w3.org/1999/xlink"><defs /><rect fill="#1a1a1a" height="200" width="200" x="0" y="0" /><text alignment-baseline="middle" fill="#e1ed5e" style="dominant-baseline: central; font-size:9.0px; font-family:Arial;" text-anchor="middle" x="100.0" y="100.0">2026</text><line stroke="#e1ed5e" stroke-width="0.3" x1="100.0" x2="100.0" y1="15.0" y2="10.0" /><path d="M 100.0 14.0 a86.0,86.0 0 0,1 42.46469731375804,11.215312516191453" fill="none" id="id61" stroke="none" /><text fill="#e1ed5e" style="font-size:6.75px; font-family:Arial;" text-anchor="middle"><textPath startOffset="22.20632615414155" xlink:href="#id61">January</textPath></text><path d="M 100.36148047927253 79.00311137660856 l 0.10894807228635774 -6.328337685436124 a27.329275435890427,27.329275435890427 0 0,0 0.4702891534263795,0.01214618134485096 l -0.21786386090760504 6.325524711948914" fill="red" stroke="none" /><path d="M 101.08401301168833 79.027996857942 l 1.5942401173909386 -30.843180285303248 a51.88435480406896,51.88435480406896 0 0,0 0.8915163945132801,0.05377870354270928 l -2.1249185607438306 30.811168312380236" fill="red" stroke="none" /><path d="M 101.44485096284872 79.0497635885617 l 2.20794170508387 -32.01499801265286 a53.09104398930043,53.09104398930043 0 0,0 0.9111682433685421,0.07072419217816077 l -2.758700137814753 31.972248558286235" fill="red" stroke="none" /><path d="M 101.80526077348638 79.07773832637324 l 2.6510020240363663 -30.72406981795067 a51.83822754163657,51.83822754163657 0 0,0 0.8883464546863554,0.08435919997779627 l -3.1794736058129662 30.673885073457697" fill="red" stroke="none" /><path d="M 102.16513564639614 79.11191278185805 l 3.1974188209152783 -30.847011047726024 a52.012281078548135,52.012281078548135 0 0,0 0.8897401518964566,0.09997267302641454 l -3.72792567632146 30.787402421229007" fill="red" stroke="none" /><path d="M 102.88285421437855 79.19881850522331 l 4.541943372195599 -32.77230876012393 a54.085547767342874,54.085547767342874 0 0,0 0.9210795043861654,0.13574317592925525 l -5.10539185701042 32.6892711000337" fill="red" stroke="none" /><path d="M 103.2404852339499 79.25152402106235 l 6.916266139445886 -44.28410299630183 a65.82093836031007,65.82093836031007 0 0,0 1.1179241113169502,0.18446705711070766 l -7.677519456901712 44.1584896762515" fill="red" stroke="none" /><path d="M 103.59715602781102 79.31037775812273 l 5.555866727024336 -31.95546229288757 a53.43484585196322,53.43484585196322 0 0,0 0.9048424708605971,0.16535417794225313 l -6.105104318987833 31.85509263359458" fill="red" stroke="none" /><path d="M 103.95276090670814 79.375362276772 l 6.750147481575773 -35.22078609652173 a56.86179393560732,56.86179393560732 0 0,0 0.9597014185113208,0.19250707615117463 l -7.355415309554219 35.09937506429334" fill="red" stroke="none" /><path d="M 104.307194497241 79.44645832069477 l 5.9486412003747 -28.386376544047767 a50.00297752699299,50.00297752699299 0 0,0 0.840900729887867,0.18378832952854224 l -6.436384654416095 28.279774716423354" fill="red" stroke="none" /><path d="M 104.66035177308747 79.52364482259891 l 6.413045133753094 -28.17722702516844 a49.897807368647136,49.897807368647136 0 0,0 0.8358507954665197,0.1978188780308267 l -6.897119616182138 28.062662234996743" fill="red" stroke="none" /><path d="M 106.40334571778207 80.00007090966166 l 9.439612043986193 -29.483270127951094 a51.957543393795035,51.957543393795035 0 0,0 0.8494246267226113,0.28004194444679925 l -9.945719492951222 29.31641445924506" fill="red" stroke="none" /><path d="M 106.74666289553966 80.11325718540242 l 10.046293074393796 -29.612869310933846 a52.270593748169546,52.270593748169546 0 0,0 0.849566395454667,0.296397033700675 l -10.554541473911737 29.435551424060964" fill="red" stroke="none" /><path d="M 107.08798089147638 80.2323363322302 l 10.832915325625132 -30.21190801401585 a53.09534920046079,53.09534920046079 0 0,0 0.8576609937177715,0.31588378208512574 l -11.351358645115479 30.0209609641244" fill="red" stroke="none" /><path d="M 107.76421540070413 80.48803036053334 l 11.828691282071238 -29.726257356212276 a52.993254192943745,52.993254192943745 0 0,0 0.8446522372086234,0.3445548555120409 l -12.338627388868249 29.518241614516654" fill="red" stroke="none" /><path d="M 108.09893153111575 80.62456947434976 l 24.296794593347244 -58.12629157695072 a84.0,84.0 0 0,0 1.329264968838739,0.5691218881488367 l -25.2937433199763 57.69945016083909" fill="red" stroke="none" /><path d="M 108.43124777332544 80.76684994638697 l 12.616499611367992 -28.780441128120664 a52.42435128961087,52.42435128961087 0 0,0 0.8233565944329893,0.3694161036534226 l -13.110038324267762 28.559004693950712" fill="red" stroke="none" /><path d="M 108.76106565485865 80.91482961587045 l 13.16494786748993 -28.67862005004939 a52.555967745084644,52.555967745084644 0 0,0 0.8189265605917729,0.3844970008041679 l -13.656652639381301 28.447758066605218" fill="red" stroke="none" /><path d="M 109.08828744355905 81.06846463323043 l 13.552846322055375 -28.231522281815792 a52.31610598043619,52.31610598043619 0 0,0 0.8084799804180443,0.3967176152011295 l -14.03679756948385 27.99404950647983" fill="red" stroke="none" /><path d="M 109.41281617654863 81.2277094730956 l 13.969532975294086 -27.85990150224593 a52.16603861998945,52.16603861998945 0 0,0 0.7992321823819787,0.40939776616243 l -14.447025645264821 27.615311210771" fill="red" stroke="none" /><line stroke="#e1ed5e" stroke-width="0.3" x1="143.23703022742887" x2="145.7803849466894" y1="26.81831364943548" y2="22.513508569990506" /><path d="M 143.74570117128098 25.957352633546492 a86.0,86.0 0 0,1 28.547481713284135,27.462654790039103" fill="none" id="id62" stroke="none" /><text fill="#e1ed5e" style="font-size:6.75px; font-family:Arial;" text-anchor="middle"><textPath startOffset="19.985693538727396" xlink:href="#id62">February</textPath></text><path d="M 110.99172775467656 82.1063720568725 l 17.414388912382112 -28.349191592969866 a54.270671847238226,54.270671847238226 0 0,0 0.7917854496135047,0.4958159759094399 l -17.89979351436788 28.045231275737482" fill="red" stroke="none" /><path d="M 111.2981086023043 82.29822771554956 l 16.746643921097174 -26.238487135765116 a52.12729171954625,52.12729171954625 0 0,0 0.7522042022659317,0.48925453707489014 l -17.195815149147386 25.9463336745307" fill="red" stroke="none" /><path d="M 111.60114157652 82.49532879139004 l 19.0679168952461 -28.771100988882598 a55.5161079329129,55.5161079329129 0 0,0 0.7920173962628785,0.5347736814461705 l -19.560338985915518 28.43861539513776" fill="red" stroke="none" /><path d="M 112.19680574252982 82.90503203632743 l 18.107673527353853 -25.37960392099762 a52.17710916297323,52.17710916297323 0 0,0 0.7266399978014842,0.5279348609524971 l -18.54185884150913 25.064149825228448" fill="red" stroke="none" /><path d="M 116.82858285166822 87.43820079747576 l 25.081215789831795 -18.722027831108505 a52.29827010562899,52.29827010562899 0 0,0 0.5322902677349454,0.7260433269906309 l -25.399768670080366 18.287522060446378" fill="red" stroke="none" /><line stroke="#e1ed5e" stroke-width="0.3" x1="172.23445277983987" x2="176.4835382374775" y1="55.19839476539836" y2="52.563006222186495" /><path d="M 173.08426987136738 54.67131705675599 a86.0,86.0 0 0,1 12.851231095245387,41.99856678651699" fill="none" id="id63" stroke="none" /><text fill="#e1ed5e" style="font-size:6.75px; font-family:Arial;" text-anchor="middle"><textPath startOffset="22.20632615414155" xlink:href="#id63">March</textPath></text><line stroke="#e1ed5e" stroke-width="0.3" x1="184.98032266829074" x2="189.97916517819016" y1="98.17113171792111" y2="98.06355123074" /><path d="M 185.9800911702706 98.14961562048488 a86.0,86.0 0 0,1 -9.607161424134198,41.387399972396054" fill="none" id="id64" stroke="none" /><text fill="#e1ed5e" style="font-size:6.75px; font-family:Arial;" text-anchor="middle"><textPath startOffset="21.466115282336823" xlink:href="#id64">April</textPath></text><line stroke="#e1ed5e" stroke-width="0.3" x1="174.80103733775053" x2="179.2010983576182" y1="140.37084112569926" y2="142.7455964860345" /><path d="M 175.68104954172406 140.8457921977663 a86.0,86.0 0 0,1 -30.038265399797805,32.042727171017184" fill="none" id="id65" stroke="none" /><text fill="#e1ed5e" style="font-size:6.75px; font-family:Arial;" text-anchor="middle"><textPath startOffset="22.206326154141568" xlink:href="#id65">May</textPath></text><line stroke="#e1ed5e" stroke-width="0.3" x1="143.8653032363475" x2="146.44561519142675" y1="172.8068346515853" y2="177.08958963109032" /><path d="M 144.38136562736335 173.6633856474863 a86.0,86.0 0 0,1 -40.68145358897372,12.25698825130547" fill="none" id="id66" stroke="none" /><text fill="#e1ed5e" style="font-size:6.75px; font-family:Arial;" text-anchor="middle"><textPath startOffset="21.466115282336833" xlink:href="#id66">June</textPath></text><line stroke="#e1ed5e" stroke-width="0.3" x1="102.19456741930631" x2="102.32365962044197" y1="184.97166512339345" y2="189.96999836594603" /><path d="M 102.22038585953345 185.97133177190398 a86.0,86.0 0 0,1 -42.740103519485714,-10.115201625700543" fill="none" id="id67" stroke="none" /><text fill="#e1ed5e" style="font-size:6.75px; font-family:Arial;" text-anchor="middle"><textPath startOffset="22.20632615414155" xlink:href="#id67">July</textPath></text><line stroke="#e1ed5e" stroke-width="0.3" x1="58.666819895761336" x2="56.23545636021788" y1="174.27360380694188" y2="178.64263932499728" /><path d="M 58.180547188652646 175.14741091055294 a86.0,86.0 0 0,1 -31.652253787137756,-30.449443065178592" fill="none" id="id68" stroke="none" /><text fill="#e1ed5e" style="font-size:6.75px; font-family:Arial;" text-anchor="middle"><textPath startOffset="22.20632615414155" xlink:href="#id68">August</textPath></text><line stroke="#e1ed5e" stroke-width="0.3" x1="26.63291911575756" x2="22.317208475507996" y1="142.92168965132927" y2="145.44649492493687" /><path d="M 25.769776987707644 143.4266507060508 a86.0,86.0 0 0,1 -11.730757126820373,-40.83630448921669" fill="none" id="id69" stroke="none" /><text fill="#e1ed5e" style="font-size:6.75px; font-family:Arial;" text-anchor="middle"><textPath startOffset="21.46611528233685" xlink:href="#id69">September</textPath></text><line stroke="#e1ed5e" stroke-width="0.3" x1="15.007084014347285" x2="10.007500721073583" y1="101.09737516637583" y2="101.16192664675087" /><path d="M 14.007167355692545 101.11028546245083 a86.0,86.0 0 0,1 10.666146001902534,-42.60595125391555" fill="none" id="id70" stroke="none" /><text fill="#e1ed5e" style="font-size:6.75px; font-family:Arial;" text-anchor="middle"><textPath startOffset="22.20632615414155" xlink:href="#id70">October</textPath></text><line stroke="#e1ed5e" stroke-width="0.3" x1="26.266209847984243" x2="21.928928074336255" y1="57.711370442889674" y2="55.22380399835377" /><path d="M 25.398753493254645 57.213857153982495 a86.0,86.0 0 0,1 29.58750427330803,-30.492523968695096" fill="none" id="id71" stroke="none" /><text fill="#e1ed5e" style="font-size:6.75px; font-family:Arial;" text-anchor="middle"><textPath startOffset="21.46611528233685" xlink:href="#id71">November</textPath></text><line stroke="#e1ed5e" stroke-width="0.3" x1="56.762969772571076" x2="54.21961505331055" y1="26.818313649435495" y2="22.513508569990535" /><path d="M 56.25429882871897 25.957352633546506 a86.0,86.0 0 0,1 42.265352541879196,-11.944610805530505" fill="none" id="id72" stroke="none" /><text fill="#e1ed5e" style="font-size:6.75px; font-family:Arial;" text-anchor="middle"><textPath startOffset="22.20632615414155" xlink:href="#id72">December</textPath></text></svg>