<?xml version="1.0" encoding="utf-8" ?>
<svg baseProfile="full" height="200mm" version="1.1" viewBox="0,0,200,200" width="200mm" xmlns="http://www.w3.org/2000/svg" xmlns:ev="http://www.w3.org/2001/xml-events" xmlns:xlink="http://www.w3.org/1999/xlink"><defs /><rect fill="#1a1a1a" height="200" width="200" x="0" y="0" /><text alignment-baseline="middle" fill="#e1ed5e" style="dominant-baseline: central; font-size:9.0px; font-family:Arial;" text-anchor="middle" x="100.0" y="100.0">2024</text><line stroke="#e1ed5e" stroke-width="0.3" x1="100.0" x2="100.0" y1="15.0" y2="10.0" /><path d="M 100.0 14.0 a86.0,86.0 0 0,1 42.35913384403234,11.155469271406648" fill="none" id="id37" stroke="none" /><text fill="#e1ed5e" style="font-size:6.75px; font-family:Arial;" text-anchor="middle"><textPath startOffset="22.145653131862478" xlink:href="#id37">January</textPath></text><path d="M 101.80034050326958 79.07731436759882 l 1.6864208076747946 -19.59876608832611 a40.6711882540298,40.6711882540298 0 0,0 0.695090820096268,0.06582582334631741 l -2.022611191156076 19.566928509474607" fill="#ffd814" stroke="none" /><path d="M 102.15924093988457 79.11130261209362 l 1.5341085945573738 -14.841109021213937 a35.92018787279344,35.92018787279344 0 0,0 0.6128054153607781,0.06866612498095338 l -1.7886499115189485 14.812587135726012" fill="#ff970d" stroke="none" /><path d="M 103.23170211078529 79.25015418208739 l 2.3406543524659655 -15.02868001496985 a36.20986146518344,36.20986146518344 0 0,0 0.6133648730713084,0.10092895645117558 l -2.598296728590344 14.986285060023006" fill="#ff9b0e" stroke="none" /><path d="M 103.94208987418118 79.37332000966035 l 1.6054729655846298 -8.400512964239383 a29.552552923284196,29.552552923284196 0 0,0 0.4974729199958741,0.0995085165408672 l -1.7494423711114608 8.371715051035657" fill="#ff3b05" stroke="none" /><path d="M 104.29559338865022 79.4440306129975 l 4.681507882365865 -22.402709942051217 a43.88663209824316,43.88663209824316 0 0,0 0.7361200587147767,0.1604339406478125 l -5.065390357699776 22.319044543269687" fill="#fcff18" stroke="none" /><path d="M 106.38641147887787 79.99465700312896 l 4.587810494146581 -14.371251029407999 a36.08578341619891,36.08578341619891 0 0,0 0.5885028721055381,0.19345258321342304 l -4.833836103899862 14.290377524792554" fill="#ff990e" stroke="none" /><path d="M 106.72888874123014 80.10723608172694 l 7.579521630877807 -22.407508908957222 a44.65471630897191,44.65471630897191 0 0,0 0.7240320549605772,0.25185593299236003 l -7.963059457883402 22.27409454339627" fill="#f2ff19" stroke="none" /><path d="M 109.3889696526874 81.21577127319529 l 9.087275525443607 -18.180638375433308 a41.325210656069586,41.325210656069586 0 0,0 0.6318285808864704,0.32261617535750853 l -9.398031328043656 18.021964248402966" fill="#ffe115" stroke="none" /><line stroke="#e1ed5e" stroke-width="0.3" x1="143.13028292997686" x2="145.6673583964461" y1="26.7553504044142" y2="22.446841604673864" /><path d="M 143.63769802327073 25.89364864446614 a86.0,86.0 0 0,1 29.32050498858742,28.57503671076993" fill="none" id="id38" stroke="none" /><text fill="#e1ed5e" style="font-size:6.75px; font-family:Arial;" text-anchor="middle"><textPath startOffset="20.669276256404974" xlink:href="#id38">February</textPath></text><path d="M 113.03279911837588 83.53348406188908 l 12.208946694214244 -15.425605313318027 a40.672510736162536,40.672510736162536 0 0,0 0.5437512408045271,0.4380075094613847 l -12.47194870537403 15.213749510063234" fill="#ffd814" stroke="none" /><path d="M 117.01052211995028 87.68569379921539 l 12.545540599304417 -9.082003909393286 a36.48784632991399,36.48784632991399 0 0,0 0.3629409612132391,0.5105219142882274 l -12.699596659047616 8.865304768395555" fill="#ff9f0e" stroke="none" /><path d="M 117.42321728460499 88.27688183743584 l 12.080264997787218 -8.128141415608713 a35.56020210329845,35.56020210329845 0 0,0 0.33642586214120274,0.509391634428662 l -12.218015298849144 7.919569902840992" fill="#ff920d" stroke="none" /><line stroke="#e1ed5e" stroke-width="0.3" x1="172.87174338648825" x2="177.1583165268699" y1="56.24261187166439" y2="53.66864786411523" /><path d="M 173.72905801456457 55.72781907015455 a86.0,86.0 0 0,1 12.242430191666344,42.057860355516425" fill="none" id="id39" stroke="none" /><text fill="#e1ed5e" style="font-size:6.75px; font-family:Arial;" text-anchor="middle"><textPath startOffset="22.145653131862474" xlink:href="#id39">March</textPath></text><path d="M 118.18653347947321 89.5 l 12.81358687911581 -7.3979278339421715 a35.79585566788434,35.79585566788434 0 0,0 0.30267379224412994,0.5347955892527535 l -12.938694036381316 7.176875474590299" fill="#ff950d" stroke="none" /><path d="M 118.36410011445183 89.81374322990088 l 29.04576294315197 -16.111195080533218 a54.2148604072451,54.2148604072451 0 0,0 0.44444477805058835,0.8177283327544754 l -29.3180530708179 15.610211914304141" fill="#7fff26" stroke="none" /><path d="M 119.58574465831526 92.42381321644754 l 13.466950551964723 -5.2093057765476765 a35.439377543462044,35.439377543462044 0 0,0 0.21460959086875891,0.5692774369325998 l -13.554390826647923 4.97736005942092" fill="#ff900d" stroke="none" /><path d="M 119.94978838288452 93.4421083053983 l 14.289528854186932 -4.6972519604789085 a36.04176887386799,36.04176887386799 0 0,0 0.18816426544652012,0.5894218815154367 l -14.368057835410708 4.451261045272084" fill="#ff990e" stroke="none" /><path d="M 120.26092885502905 94.47779374421319 l 38.306102216023085 -10.440498498647356 a60.70341894452751,60.70341894452751 0 0,0 0.26539106715357347,1.007733109299423 l -38.47968276398139 9.781384884975134" fill="#38ff2e" stroke="none" /><path d="M 120.9064616781168 98.02013634271609 l 14.611962972838846 -1.383768085528463 a35.677338860779244,35.677338860779244 0 0,0 0.05250749028437132,0.6102166287827753 l -14.633564085820959 1.132730409370026" fill="#ff940d" stroke="none" /><path d="M 120.99303781780057 99.45929381324524 l 62.97911345340172 -1.6221185602642854 a84.0,84.0 0 0,0 0.024754273605335886,1.4418123361237345 l -62.99767915860572 0.5407593081714844" fill="#4dd2ff" stroke="none" /><line stroke="#e1ed5e" stroke-width="0.3" x1="184.99686870605535" x2="189.99668451229388" y1="99.2704041080226" y2="99.22748670261217" /><path d="M 185.99683186730306 99.26182062694052 a86.0,86.0 0 0,1 -10.086455211305974,41.156179273409016" fill="none" id="id40" stroke="none" /><text fill="#e1ed5e" style="font-size:6.75px; font-family:Arial;" text-anchor="middle"><textPath startOffset="21.40746469413373" xlink:href="#id40">April</textPath></text><path d="M 120.9064616781168 101.97986365728391 l 14.99944837282914 1.4204633557745934 a36.066557922573594,36.066557922573594 0 0,0 -0.06366195302910549,0.6158716460883621 l -14.972854027318368 -1.6777395241458868" fill="#ff990e" stroke="none" /><path d="M 120.77682067341334 103.0534771498775 l 14.500597029619644 2.1310884078709633 a35.65635875712573,35.65635875712573 0 0,0 -0.09419817045847396,0.604819827551438 l -14.461877367022904 -2.379696417353852" fill="#ff930d" stroke="none" /><path d="M 120.65975698304385 103.76489593502545 l 17.282874604951665 3.149515475866476 a38.56750415805289,38.56750415805289 0 0,0 -0.1242860001808895,0.6503168712111193 l -17.22626231248862 -3.44573491211091" fill="#ffbc11" stroke="none" /><path d="M 120.35273937422433 105.17358676015961 l 14.610796763440948 3.7140074021903895 a36.07545133805623,36.07545133805623 0 0,0 -0.1577193294071729,0.5988859833331736 l -14.544887953229045 -3.9642738898963663" fill="#ff990e" stroke="none" /><path d="M 119.83427380445688 106.89939002012753 l 58.890977061299665 20.485338834083723 a83.3521955217436,83.3521955217436 0 0,0 -0.48169563214203803,1.3473884137397454 l -58.530641259113686 -21.49326220420439" fill="#4cd8ff" stroke="none" /><path d="M 119.16976305983485 108.57439118712176 l 13.362534439988615 5.97689169043055 a35.638325072870174,35.638325072870174 0 0,0 -0.2545858289274329,0.5563159816333973 l -13.257964146206124 -6.205396654278636" fill="#ff930d" stroke="none" /><line stroke="#e1ed5e" stroke-width="0.3" x1="174.33088141563837" x2="178.70328620479359" y1="141.23008692659167" y2="143.65538615756765" /><path d="M 175.20536237346943 141.71514677278685 a86.0,86.0 0 0,1 -30.301960400862466,31.631185727798858" fill="none" id="id41" stroke="none" /><text fill="#e1ed5e" style="font-size:6.75px; font-family:Arial;" text-anchor="middle"><textPath startOffset="22.145653131862474" xlink:href="#id41">May</textPath></text><path d="M 117.01052211995028 112.31430620078461 l 11.893203354443578 8.60976205092786 a35.68251642613573,35.68251642613573 0 0,0 -0.3634484857008244,0.493087673155916 l -11.743652849158925 -8.812656033352653" fill="#ff940d" stroke="none" /><path d="M 116.35404254752997 113.17365903436017 l 11.55369160931102 9.306836117544497 a35.83593570766248,35.83593570766248 0 0,0 -0.3900198615022049,0.47576081469027637 l -11.392224928570187 -9.503799213933268" fill="#ff960d" stroke="none" /><path d="M 116.1254893667686 113.45245675266167 l 11.823859522667332 9.863884143945418 a36.398047422220415,36.398047422220415 0 0,0 -0.40437439720618473,0.4763520231239265 l -11.652790561954033 -10.0654029495189" fill="#ff9e0e" stroke="none" /><path d="M 115.16444852881244 114.52719865689866 l 8.746703526611215 8.379144120055114 a33.11259174442395,33.11259174442395 0 0,0 -0.3967411967143755,0.4070914188207353 l -8.601575528746032 -8.528058230943588" fill="#ff6f0a" stroke="none" /><path d="M 114.91283532996324 114.78537596483092 l 16.606575640295148 16.46463994924107 a44.385096175876406,44.385096175876406 0 0,0 -0.5410925355634743,0.5364678408267054 l -16.32149118460171 -16.747287800296437" fill="#f5ff19" stroke="none" /><path d="M 114.65682725009322 115.03919595460226 l 10.306520802598063 10.575398298391697 a35.76697058384057,35.76697058384057 0 0,0 -0.44338697810570105,0.42475469520604664 l -10.12346133862705 -10.750765123903323" fill="#ff950d" stroke="none" /><path d="M 113.59037401385874 116.0094264158162 l 9.68639658889509 11.410550825620632 a35.9675298236359,35.9675298236359 0 0,0 -0.4741302567609519,0.39553632321691196 l -9.489091997972244 -11.575149332749415" fill="#ff980e" stroke="none" /><path d="M 113.03279911837588 116.46651593811092 l 15.232147274989677 19.245320486956693 a45.54385200518962,45.54385200518962 0 0,0 -0.6172060649372274,0.4799431692326997 l -14.899531265417219 -19.503964707810187" fill="#e7ff1a" stroke="none" /><path d="M 112.45986205192187 116.90419585922612 l 22.675353388925824 30.763471799789734 a59.21731084847713,59.21731084847713 0 0,0 -0.8234561563020458,0.5961187540347039 l -22.14391622224981 -31.148191325197512" fill="#48ff2c" stroke="none" /><path d="M 112.16784306229584 117.11559508785304 l 2.7318211364963765 3.842648543815815 a25.71474225733477,25.71474225733477 0 0,0 -0.36197162097474983,0.25268430357314897 l -2.665454424347868 -3.8889776631940864" fill="#ff0000" stroke="none" /><path d="M 111.5731344415666 117.5232005979908 l 8.175476459749037 12.378713365135804 a35.834788839754424,35.834788839754424 0 0,0 -0.516216118526756,0.3346050512828378 l -7.961774708965271 -12.517232258122535" fill="#ff960d" stroke="none" /><path d="M 110.96478420261333 117.91015095944535 l 13.549340695172239 22.13182975307926 a46.95000041412591,46.95000041412591 0 0,0 -0.6909860575057669,0.414917273890208 l -13.167421881109036 -22.36116102750539" fill="#d5ff1c" stroke="none" /><line stroke="#e1ed5e" stroke-width="0.3" x1="143.1302829299769" x2="145.66735839644613" y1="173.24464959558577" y2="177.55315839532614" /><path d="M 143.63769802327073 174.10635135553383 a86.0,86.0 0 0,1 -40.68552437913181,11.842963189579606" fill="none" id="id42" stroke="none" /><text fill="#e1ed5e" style="font-size:6.75px; font-family:Arial;" text-anchor="middle"><textPath startOffset="21.407464694133747" xlink:href="#id42">June</textPath></text><path d="M 110.65571695917076 118.09573695890943 l 22.259052721657895 37.80073781510841 a64.86754161600707,64.86754161600707 0 0,0 -0.9643873849474506,0.556789316302492 l -21.606872868850044 -38.17727402868707" fill="#34ff59" stroke="none" /><path d="M 109.06512990194946 118.94263497670748 l 6.408419304779348 13.391131619858559 a35.845546269714845,35.845546269714845 0 0,0 -0.5573321625953822,0.2608595934452679 l -6.17759842831246 -13.49916744487436" fill="#ff960d" stroke="none" /><path d="M 107.06938296918513 119.77432235084164 l 3.5655880620872007 9.973584401546763 a31.59178002241718,31.59178002241718 0 0,0 -0.5122294642122115,0.17817999732397052 l -3.393852825829968 -10.033322831439325" fill="#ff5908" stroke="none" /><path d="M 106.72888874123015 119.89276391827305 l 4.738169600484682 14.007556506269207 a35.78722051094397,35.78722051094397 0 0,0 -0.5836337765611879,0.19185201479546812 l -4.49701308627576 -14.086829442466694" fill="#ff950d" stroke="none" /><path d="M 106.38641147887787 120.00534299687104 l 8.85894167675521 27.750508625839938 a50.13025191489025,50.13025191489025 0 0,0 -0.8220391344475071,0.2546698251615711 l -8.381261909436079 -27.898495038808154" fill="#aeff20" stroke="none" /><path d="M 105.69591212413111 120.21278271476187 l 3.8317185935871887 13.597417528295427 a35.12698944641913,35.12698944641913 0 0,0 -0.5818009646969168,0.15857244008211765 l -3.5977362279555765 -13.661190462521686" fill="#ff8c0c" stroke="none" /><path d="M 104.64783097203109 120.47920084513623 l 4.519438471376784 19.913479797247177 a41.4198923046115,41.4198923046115 0 0,0 -0.6947448937748575,0.1514164160230204 l -4.17693116098279 -19.988127671403916" fill="#ffe215" stroke="none" /><path d="M 103.94208987418118 120.62667999033965 l 5.41013078097715 28.308090349736478 a49.82043535958678,49.82043535958678 0 0,0 -0.8414084753052467,0.15333265299164545 l -4.923387572120847 -28.396791176659487" fill="#b2ff20" stroke="none" /><path d="M 103.58742460773223 120.69131181640829 l 3.2849873634771547 18.946934161115095 a40.229598437924665,40.229598437924665 0 0,0 -0.6814558670243231,0.11213330359447839 l -2.9592539933997593 -19.000533463205244" fill="#ffd213" stroke="none" /><path d="M 102.51750503828377 120.84855314841334 l 2.0305637066521323 16.815980391537302 a37.938134061795,37.938134061795 0 0,0 -0.6472319711712853,0.072523692366445 l -1.7415958338800475 -16.84835984441072" fill="#ffb310" stroke="none" /><line stroke="#e1ed5e" stroke-width="0.3" x1="101.45913802915013" x2="101.54496967792366" y1="184.9874750549273" y2="189.98673829345242" /><path d="M 101.47630435890484 185.9873277026323 a86.0,86.0 0 0,1 -42.54439059252881,-10.42667462771756" fill="none" id="id43" stroke="none" /><text fill="#e1ed5e" style="font-size:6.75px; font-family:Arial;" text-anchor="middle"><textPath startOffset="22.145653131862474" xlink:href="#id43">July</textPath></text><path d="M 97.12497278360702 120.80226474461374 l -2.5641274060612593 18.552748591620716 a39.729101143899,39.729101143899 0 0,0 -0.6747796645143705,-0.09916937336968232 l 2.8822321761833147 -18.50599814495215" fill="#ffcb13" stroke="none" /><path d="M 95.70440661134978 120.55596938700252 l -2.8950998480508034 13.854100810865631 a35.15336399616047,35.15336399616047 0 0,0 -0.5896350467483534,-0.12850821407999374 l 3.1324973114182932 -13.80236113865192" fill="#ff8c0c" stroke="none" /><path d="M 95.35216902796893 120.47920084513623 l -3.6759434582222323 16.196885134013524 a37.608782265791646,37.608782265791646 0 0,0 -0.6283672587649435,-0.14829296211318663 l 3.9534428707270637 -16.13139602825411" fill="#ffaf10" stroke="none" /><path d="M 95.00130118170881 120.39639698878247 l -5.332484728588578 21.758357407517 a43.402265743756374,43.402265743756374 0 0,0 -0.722120091090188,-0.18356010332647754 l 5.705210112904145 -21.66361207235526" fill="#fffc17" stroke="none" /><line stroke="#e1ed5e" stroke-width="0.3" x1="58.13341422392154" x2="55.670673884152215" y1="173.97424548756322" y2="178.32567169271397" /><path d="M 57.64086615596767 174.84453072859336 a86.0,86.0 0 0,1 -31.369924170532244,-30.572349798747897" fill="none" id="id44" stroke="none" /><text fill="#e1ed5e" style="font-size:6.75px; font-family:Arial;" text-anchor="middle"><textPath startOffset="22.145653131862474" xlink:href="#id44">August</textPath></text><path d="M 89.03521579738668 117.91015095944536 l -15.329519508837759 25.039618059570227 a50.35943870275781,50.35943870275781 0 0,0 -0.7334153718723334,-0.4577054352147044 l 15.757099009499804 -24.772776827513976" fill="#abff21" stroke="none" /><path d="M 88.72937992617639 117.7192867562869 l -11.81239194879755 18.57104212966253 a43.00945727031264,43.00945727031264 0 0,0 -0.6195704177665565,-0.401598059358862 l 12.129447998821119 -18.365530228599773" fill="#fff717" stroke="none" /><path d="M 84.83555147118756 114.52719865689866 l -21.22042609708669 20.328688175550596 a50.386426231862366,50.386426231862366 0 0,0 -0.5929862524801627,-0.6297308508299638 l 21.566268183303105 -19.961415864776143" fill="#abff21" stroke="none" /><path d="M 84.3458050057657 113.99807769240083 l -22.030831298446245 19.700105195917843 a50.55421581485166,50.55421581485166 0 0,0 -0.5729211444849639,-0.6518790927399822 l 22.365763506889802 -19.31901382536656" fill="#a9ff21" stroke="none" /><line stroke="#e1ed5e" stroke-width="0.3" x1="26.387840678322732" x2="22.057713659400548" y1="142.50000000000003" y2="145.00000000000006" /><path d="M 25.521815274538298 143.00000000000003 a86.0,86.0 0 0,1 -11.493303480769221,-40.785679425670985" fill="none" id="id45" stroke="none" /><text fill="#e1ed5e" style="font-size:6.75px; font-family:Arial;" text-anchor="middle"><textPath startOffset="21.40746469413373" xlink:href="#id45">September</textPath></text><path d="M 80.83023694016515 108.57439118712176 l -28.45892223866345 12.729313934477075 a52.17604349863474,52.17604349863474 0 0,0 -0.35868823102912917,-0.8207488674582977 l 28.67324435170955 -12.238902997242928" fill="#96ff23" stroke="none" /><path d="M 80.68587082218212 108.24405325689762 l -25.937764830091215 11.071289451131074 a49.201792398566496,49.201792398566496 0 0,0 -0.32490557181725593,-0.7796550946410482 l 26.123996246444957 -10.624401847048745" fill="#b9ff1f" stroke="none" /><path d="M 79.34024301695615 103.76489593502545 l -36.301243567934414 6.615295836125041 a57.899084318963155,57.899084318963155 0 0,0 -0.16979646070551713,-0.979340863695894 l 36.409454846132164 -5.9911619395085545" fill="#56ff2b" stroke="none" /><path d="M 79.2786578344484 103.40968896794605 l -42.932728810169564 7.064564187894037 a64.51008239767467,64.51008239767467 0 0,0 -0.17042491016478112,-1.0942501778394123 l 43.04767521247261 -6.326525828123175" fill="#33ff55" stroke="none" /><line stroke="#e1ed5e" stroke-width="0.3" x1="15.003131293944662" x2="10.003315487706104" y1="100.72959589197737" y2="100.7725132973878" /><path d="M 14.003168132696942 100.73817937305945 a86.0,86.0 0 0,1 10.791469493833615,-42.45332614584628" fill="none" id="id46" stroke="none" /><text fill="#e1ed5e" style="font-size:6.75px; font-family:Arial;" text-anchor="middle"><textPath startOffset="22.145653131862435" xlink:href="#id46">October</textPath></text><path d="M 79.407916724674 95.88100663000787 l -42.66683601910277 -8.534562158254651 a64.51204025455618,64.51204025455618 0 0,0 0.22653645370293196,-1.0840589380879202 l 42.514041854575474 9.26573754762798" fill="#33ff55" stroke="none" /><path d="M 79.94057633289273 93.78553927170692 l -19.328086810763082 -5.987890700742546 a41.23437112460955,41.23437112460955 0 0,0 0.215273428475844,-0.6743409485929731 l 19.222448666509983 6.31880068302691" fill="#ffe015" stroke="none" /><path d="M 80.9802524753101 91.09779779509293 l -55.93774452503599 -26.18168890001723 a82.76173650574827,82.76173650574827 0 0,0 0.6133068022643509,-1.2815753342406102 l 55.48005846481173 27.13807673632293" fill="#4bdeff" stroke="none" /><line stroke="#e1ed5e" stroke-width="0.3" x1="26.387840678322718" x2="22.05771365940052" y1="57.49999999999999" y2="54.99999999999999" /><path d="M 25.521815274538284 56.99999999999999 a86.0,86.0 0 0,1 29.574782752854787,-30.34633250058573" fill="none" id="id47" stroke="none" /><text fill="#e1ed5e" style="font-size:6.75px; font-family:Arial;" text-anchor="middle"><textPath startOffset="21.40746469413373" xlink:href="#id47">November</textPath></text><path d="M 81.99639281039701 89.18935116829357 l -29.51639765819174 -17.72374871875604 a55.42889773667047,55.42889773667047 0 0,0 0.4968330594746292,-0.8115394641978391 l 29.207796634261715 18.227825299078415" fill="#71ff27" stroke="none" /><path d="M 82.576782715395 88.27688183743585 l -26.52604604911438 -17.847907601666336 a52.971533037334254,52.971533037334254 0 0,0 0.5141020042683533,-0.7500901883520623 l 26.215754308030714 18.300632525088435" fill="#8dff24" stroke="none" /><path d="M 82.98947788004972 87.6856937992154 l -13.516519721713447 -9.784917914242696 a37.68654919316562,37.68654919316562 0 0,0 0.3838607981558662,-0.5207808952992986 l 13.346556903973761 10.015505118810857" fill="#ffb010" stroke="none" /><path d="M 83.64595745247003 86.82634096563983 l -47.934872898517355 -38.61294047543214 a82.55250776334202,82.55250776334202 0 0,0 0.898458963292358,-1.0959738478327243 l 47.264967115986366 39.43011660496336" fill="#4be0ff" stroke="none" /><path d="M 86.13680546590413 84.22622945171909 l -19.59386072701124 -22.29421671193512 a50.680826757154875,50.680826757154875 0 0,0 0.6584175962826636,-0.5687254379458588 l 19.208263650965726 22.627286282345693" fill="#a8ff21" stroke="none" /><path d="M 88.12776184653039 82.6780497279521 l -14.093735799609776 -20.5631817280279 a45.92945710538243,45.92945710538243 0 0,0 0.6541748145671425,-0.44015801013515343 l 13.738664696945644 20.802089412220163" fill="#e2ff1b" stroke="none" /><line stroke="#e1ed5e" stroke-width="0.3" x1="56.869717070023135" x2="54.33264160355391" y1="26.7553504044142" y2="22.446841604673864" /><path d="M 56.362301976729285 25.89364864446614 a86.0,86.0 0 0,1 42.16139366436587,-11.88097634709845" fill="none" id="id48" stroke="none" /><text fill="#e1ed5e" style="font-size:6.75px; font-family:Arial;" text-anchor="middle"><textPath startOffset="22.145653131862474" xlink:href="#id48">December</textPath></text><path d="M 89.34428304082924 81.90426304109057 l -25.07654847738404 -42.58546157173794 a70.42018636970687,70.42018636970687 0 0,0 1.0469386952046142,-0.6044503375014164 l 24.341817314319027 43.00965880651553" fill="#3bff9c" stroke="none" /><path d="M 90.61103034731259 81.2157712731953 l -10.010712933010236 -20.028131776762383 a43.39063277119469,43.39063277119469 0 0,0 0.6691243667135942,-0.3273022580092321 l 9.66542831703459 20.19702778486883" fill="#fffc17" stroke="none" /><path d="M 91.26138138417902 80.90454125486306 l -21.88233513674386 -47.81685140651906 a73.58600450186246,73.58600450186246 0 0,0 1.153150848522335,-0.5157897070573986 l 21.058270885365904 48.18544486448631" fill="#3fffc0" stroke="none" /><path d="M 93.61358852112211 79.99465700312896 l -13.053440204828965 -40.88971552340887 a63.92273449777343,63.92273449777343 0 0,0 1.0482091617509033,-0.3247378777596451 l 12.349590410206446 41.10776998897516" fill="#32ff4e" stroke="none" /><path d="M 95.35216902796891 79.52079915486377 l -5.581415057218199 -24.59274458229467 a46.21815378117371,46.21815378117371 0 0,0 0.7752271807717421,-0.16895715588249877 l 5.158425459827338 24.684933196310883" fill="#deff1b" stroke="none" /><path d="M 96.05791012581881 79.37332000966035 l -8.115873125943057 -42.46567763648372 a64.234259259552,64.234259259552 0 0,0 1.0848409845447944,-0.19769416533862907 l 7.385697407847224 42.59873997575371" fill="#33ff51" stroke="none" /><path d="M 96.41257539226777 79.30868818359171 l -4.990155577284546 -28.78189128753685 a50.211280676702515,50.211280676702515 0 0,0 0.8505372446295053,-0.13995557993640587 l 4.495340829601968 28.863312865968926" fill="#adff20" stroke="none" /><path d="M 97.48249496171623 79.15144685158666 l -3.7090703526455644 -30.716423285115436 a51.9395517470964,51.9395517470964 0 0,0 0.8860988894253399,-0.09928922878552468 l 3.1812355616194257 30.775568274407934" fill="#99ff23" stroke="none" /></svg>