<?xml version="1.0" encoding="utf-8" ?>
<svg baseProfile="full" height="200mm" version="1.1" viewBox="0,0,200,200" width="200mm" xmlns="http://www.w3.org/2000/svg" xmlns:ev="http://www.w3.org/2001/xml-events" xmlns:xlink="http://www.w3.org/1999/xlink"><defs /><rect fill="#1a1a1a" height="200" width="200" x="0" y="0" /><text alignment-baseline="middle" fill="#e1ed5e" style="dominant-baseline: central; font-size:9.0px; font-family:Arial;" text-anchor="middle" x="100.0" y="100.0">2026</text><line stroke="#e1ed5e" stroke-width="0.3" x1="100.0" x2="100.0" y1="15.0" y2="10.0" /><path d="M 100.0 14.0 a86.0,86.0 0 0,1 42.46469731375804,11.215312516191453" fill="none" id="id61" stroke="none" /><text fill="#e1ed5e" style="font-size:6.75px; font-family:Arial;" text-anchor="middle"><textPath startOffset="22.20632615414155" xlink:href="#id61">January</textPath></text><path d="M 100.36148047927253 79.00311137660856 l 0.07432905188107851 -4.3174636344682344 a25.318103408084294,25.318103408084294 0 0,0 0.435680391383986,0.011252339127089688 l -0.14863607845993235 4.315544503198785" fill="red" stroke="none" /><path d="M 101.08401301168833 79.027996857942 l 1.0876590462747076 -21.04254163926892 a42.07063266352744,42.07063266352744 0 0,0 0.7228895663965973,0.043606672770818186 l -1.4497106615109168 21.020701697117797" fill="red" stroke="none" /><path d="M 101.44485096284872 79.0497635885617 l 1.506352614631126 -21.84200599713662 a42.893887826938325,42.893887826938325 0 0,0 0.7361608566295152,0.05714025074647681 l -1.8821036606229824 21.81284048420168" fill="red" stroke="none" /><path d="M 101.80526077348638 79.07773832637324 l 1.808627384094771 -20.96127936521822 a42.03916266492611,42.03916266492611 0 0,0 0.7204208724415635,0.06841264252912854 l -2.1691733836265787 20.927041178173916" fill="red" stroke="none" /><path d="M 102.16513564639614 79.11191278185805 l 2.181416379728896 -21.045155149842266 a42.157909459648465,42.157909459648465 0 0,0 0.7211678470632407,0.0810316104291166 l -2.5433509303018615 21.00448758594255" fill="red" stroke="none" /><path d="M 102.88285421437855 79.19881850522331 l 3.0987087469111714 -22.35867589920632 a43.57238099678307,43.57238099678307 0 0,0 0.7420397638585996,0.10935737222715454 l -3.483117491198427 22.302024042818196" fill="red" stroke="none" /><path d="M 103.2404852339499 79.25152402106235 l 4.718573664626389 -30.21251611012955 a51.57876824094364,51.57876824094364 0 0,0 0.8760304864226829,0.14455253637859689 l -5.237933357187947 30.12681731081133" fill="red" stroke="none" /><path d="M 103.59715602781102 79.31037775812273 l 3.7904507856910454 -21.80138817333905 a43.128444216513586,43.128444216513586 0 0,0 0.7303183420301719,0.13346100892865048 l -4.1651642488241185 21.73291168305966" fill="red" stroke="none" /><path d="M 103.95276090670814 79.375362276772 l 4.605240385017834 -24.02913224733158 a45.46645531260198,45.46645531260198 0 0,0 0.7673732859641911,0.15392786209135215 l -5.0181800804491505 23.94630042916302" fill="red" stroke="none" /><path d="M 104.307194497241 79.44645832069477 l 4.058418392593607 -19.36640466031043 a40.787076320574386,40.787076320574386 0 0,0 0.6859167982436284,0.1499148449562804 l -4.391177914990764 19.293676317258278" fill="red" stroke="none" /><path d="M 104.66035177308747 79.52364482259891 l 4.375254692065993 -19.223713880075014 a40.715324723763345,40.715324723763345 0 0,0 0.6820327054975752,0.16141510579834556 l -4.7055110845260915 19.1455528621358" fill="red" stroke="none" /><path d="M 106.40334571778207 80.00007090966166 l 6.440108563926933 -20.114752551144853 a42.12056506130822,42.12056506130822 0 0,0 0.6886054058287131,0.22702237578028633 l -6.785396791998064 20.000916451105333" fill="red" stroke="none" /><path d="M 106.74666289553966 80.11325718540242 l 6.854012406721955 -20.203170677262335 a42.33414145181594,42.33414145181594 0 0,0 0.6880668723826528,0.24005302122711086 l -7.200761283167881 20.082196802863017" fill="red" stroke="none" /><path d="M 107.08798089147638 80.2323363322302 l 7.390679874953108 -20.61186059628287 a42.896825026807775,42.896825026807775 0 0,0 0.6929219627302128,0.2552090066825348 l -7.744384163455897 20.48158832179401" fill="red" stroke="none" /><path d="M 107.76421540070413 80.48803036053334 l 8.070040979517428 -20.280528869319568 a42.82717142990349,42.82717142990349 0 0,0 0.6826164332139076,0.2784563825858549 l -8.417941282319722 20.138611600550135" fill="red" stroke="none" /><path d="M 108.09893153111575 80.62456947434976 l 16.576316294298977 -39.656251382970694 a63.9813044897198,63.9813044897198 0 0,0 1.0124774609379674,0.4334900097311306 l -17.25647751302726 39.36504184527678" fill="red" stroke="none" /><path d="M 108.43124777332544 80.76684994638697 l 8.607517641121257 -19.635252436130305 a42.43904144715371,42.43904144715371 0 0,0 0.6665311783047975,0.29905311078785896 l -8.944230937892835 19.484178994825914" fill="red" stroke="none" /><path d="M 108.76106565485865 80.91482961587045 l 8.981692585458285 -19.56578572565327 a42.52883584316285,42.52883584316285 0 0,0 0.6626838921878818,0.31113897300308524 l -9.317154688945765 19.40828177001018" fill="red" stroke="none" /><path d="M 109.08828744355905 81.06846463323043 l 9.246333563026049 -19.260756434968787 a42.36519185043592,42.36519185043592 0 0,0 0.6547010492419976,0.321258961527609 l -9.576505879278479 19.098742313306346" fill="red" stroke="none" /><path d="M 109.41281617654863 81.2277094730956 l 9.530615085560262 -19.007220786057687 a42.26280945498624,42.26280945498624 0 0,0 0.6475055098655526,0.33167747140358367 l -9.85638108301457 18.840350789341603" fill="red" stroke="none" /><line stroke="#e1ed5e" stroke-width="0.3" x1="143.23703022742887" x2="145.7803849466894" y1="26.81831364943548" y2="22.513508569990506" /><path d="M 143.74570117128098 25.957352633546492 a86.0,86.0 0 0,1 28.547481713284135,27.462654790039103" fill="none" id="id62" stroke="none" /><text fill="#e1ed5e" style="font-size:6.75px; font-family:Arial;" text-anchor="middle"><textPath startOffset="19.985693538727396" xlink:href="#id62">February</textPath></text><path d="M 110.99172775467656 82.1063720568725 l 11.880843688023745 -19.341035490394326 a43.698680591169754,43.698680591169754 0 0,0 0.6375447047493485,0.3992304356255784 l -12.212007545145356 19.133660713445803" fill="red" stroke="none" /><path d="M 111.2981086023043 82.29822771554956 l 11.425279389739568 -17.90102230050661 a42.23637465616113,42.23637465616113 0 0,0 0.6094768681974266,0.3964207087776478 l -11.731723283721276 17.701702667569435" fill="red" stroke="none" /><path d="M 111.60114157652 82.49532879139004 l 13.008951461257864 -19.62888019218479 a44.54837055340576,44.54837055340576 0 0,0 0.6355467947446767,0.429124032831366 l -13.344902950409082 19.402044247054754" fill="red" stroke="none" /><path d="M 112.19680574252982 82.90503203632743 l 12.353832213962454 -17.315055300902937 a42.270362254650564,42.270362254650564 0 0,0 0.5886745438473611,0.42769709125926175 l -12.650052074163602 17.099838974827" fill="red" stroke="none" /><path d="M 116.82858285166822 87.43820079747576 l 17.111482108494105 -12.77297109323624 a42.353023450976735,42.353023450976735 0 0,0 0.43106783736004206,0.587976045715318 l -17.328812558367773 12.476532603849428" fill="red" stroke="none" /><path d="M 117.04232023915458 87.72973835380427 l 17.40270578333124 -12.529734819947905 a42.44407664692993,42.44407664692993 0 0,0 0.4217877695376667,0.596588887812377 l -17.61580617267279 12.228319431803735" fill="red" stroke="none" /><path d="M 117.45458315368197 88.32363383020206 l 17.56351227069042 -11.74923506878824 a42.131055060842,42.131055060842 0 0,0 0.39804490857102753,0.6062497040451644 l -17.763153814619372 11.445167300765402" fill="red" stroke="none" /><path d="M 117.65298651832404 88.62581576622439 l 35.76122145847894 -23.041694439146166 a63.54156370926384,63.54156370926384 0 0,0 0.584498885714726,0.924536869489676 l -36.152547940439625 22.422709921942282" fill="red" stroke="none" /><line stroke="#e1ed5e" stroke-width="0.3" x1="172.23445277983987" x2="176.4835382374775" y1="55.19839476539836" y2="52.563006222186495" /><path d="M 173.08426987136738 54.67131705675599 a86.0,86.0 0 0,1 12.851231095245387,41.99856678651699" fill="none" id="id63" stroke="none" /><text fill="#e1ed5e" style="font-size:6.75px; font-family:Arial;" text-anchor="middle"><textPath startOffset="22.20632615414155" xlink:href="#id63">March</textPath></text><path d="M 118.03404312379186 89.2402003453031 l 18.081367427893774 -10.788035143956806 a42.05510746421744,42.05510746421744 0 0,0 0.36555966698588666,0.6248599687859624 l -18.264386769349986 10.475195762816949" fill="red" stroke="none" /><path d="M 118.21658344932153 89.55222093294921 l 18.29678140500379 -10.493775097257467 a42.092451862557695,42.092451862557695 0 0,0 0.35506458127229484,0.6316202709127537 l -18.47470362756852 10.17727131640992" fill="red" stroke="none" /><path d="M 118.3937258080291 89.86733742301442 l 19.281786645913 -10.621874002230644 a43.013893421604735,43.013893421604735 0 0,0 0.35167319626522325,0.651597022777301 l -19.46176794139669 10.288395996120883" fill="red" stroke="none" /><path d="M 118.73160827565052 90.50648371742162 l 18.774400424725386 -9.515204114078523 a42.047974264534474,42.047974264534474 0 0,0 0.3216469543423927,0.6484206327910672 l -18.935407392021187 9.190623892788505" fill="red" stroke="none" /><path d="M 119.04729006885535 91.15688171328212 l 57.14187020656606 -26.529354860153646 a84.0,84.0 0 0,0 0.5975907321466121,1.3167119646317489 l -57.59006325567602 25.541820886679833" fill="red" stroke="none" /><line stroke="#e1ed5e" stroke-width="0.3" x1="184.98032266829074" x2="189.97916517819016" y1="98.17113171792111" y2="98.06355123074" /><path d="M 185.9800911702706 98.14961562048488 a86.0,86.0 0 0,1 -9.607161424134198,41.387399972396054" fill="none" id="id64" stroke="none" /><text fill="#e1ed5e" style="font-size:6.75px; font-family:Arial;" text-anchor="middle"><textPath startOffset="21.466115282336823" xlink:href="#id64">April</textPath></text><line stroke="#e1ed5e" stroke-width="0.3" x1="174.80103733775053" x2="179.2010983576182" y1="140.37084112569926" y2="142.7455964860345" /><path d="M 175.68104954172406 140.8457921977663 a86.0,86.0 0 0,1 -30.038265399797805,32.042727171017184" fill="none" id="id65" stroke="none" /><text fill="#e1ed5e" style="font-size:6.75px; font-family:Arial;" text-anchor="middle"><textPath startOffset="22.206326154141568" xlink:href="#id65">May</textPath></text><line stroke="#e1ed5e" stroke-width="0.3" x1="143.8653032363475" x2="146.44561519142675" y1="172.8068346515853" y2="177.08958963109032" /><path d="M 144.38136562736335 173.6633856474863 a86.0,86.0 0 0,1 -40.68145358897372,12.25698825130547" fill="none" id="id66" stroke="none" /><text fill="#e1ed5e" style="font-size:6.75px; font-family:Arial;" text-anchor="middle"><textPath startOffset="21.466115282336833" xlink:href="#id66">June</textPath></text><line stroke="#e1ed5e" stroke-width="0.3" x1="102.19456741930631" x2="102.32365962044197" y1="184.97166512339345" y2="189.96999836594603" /><path d="M 102.22038585953345 185.97133177190398 a86.0,86.0 0 0,1 -42.740103519485714,-10.115201625700543" fill="none" id="id67" stroke="none" /><text fill="#e1ed5e" style="font-size:6.75px; font-family:Arial;" text-anchor="middle"><textPath startOffset="22.20632615414155" xlink:href="#id67">July</textPath></text><line stroke="#e1ed5e" stroke-width="0.3" x1="58.666819895761336" x2="56.23545636021788" y1="174.27360380694188" y2="178.64263932499728" /><path d="M 58.180547188652646 175.14741091055294 a86.0,86.0 0 0,1 -31.652253787137756,-30.449443065178592" fill="none" id="id68" stroke="none" /><text fill="#e1ed5e" style="font-size:6.75px; font-family:Arial;" text-anchor="middle"><textPath startOffset="22.20632615414155" xlink:href="#id68">August</textPath></text><line stroke="#e1ed5e" stroke-width="0.3" x1="26.63291911575756" x2="22.317208475507996" y1="142.92168965132927" y2="145.44649492493687" /><path d="M 25.769776987707644 143.4266507060508 a86.0,86.0 0 0,1 -11.730757126820373,-40.83630448921669" fill="none" id="id69" stroke="none" /><text fill="#e1ed5e" style="font-size:6.75px; font-family:Arial;" text-anchor="middle"><textPath startOffset="21.46611528233685" xlink:href="#id69">September</textPath></text><line stroke="#e1ed5e" stroke-width="0.3" x1="15.007084014347285" x2="10.007500721073583" y1="101.09737516637583" y2="101.16192664675087" /><path d="M 14.007167355692545 101.11028546245083 a86.0,86.0 0 0,1 10.666146001902534,-42.60595125391555" fill="none" id="id70" stroke="none" /><text fill="#e1ed5e" style="font-size:6.75px; font-family:Arial;" text-anchor="middle"><textPath startOffset="22.20632615414155" xlink:href="#id70">October</textPath></text><line stroke="#e1ed5e" stroke-width="0.3" x1="26.266209847984243" x2="21.928928074336255" y1="57.711370442889674" y2="55.22380399835377" /><path d="M 25.398753493254645 57.213857153982495 a86.0,86.0 0 0,1 29.58750427330803,-30.492523968695096" fill="none" id="id71" stroke="none" /><text fill="#e1ed5e" style="font-size:6.75px; font-family:Arial;" text-anchor="middle"><textPath startOffset="21.46611528233685" xlink:href="#id71">November</textPath></text><line stroke="#e1ed5e" stroke-width="0.3" x1="56.762969772571076" x2="54.21961505331055" y1="26.818313649435495" y2="22.513508569990535" /><path d="M 56.25429882871897 25.957352633546506 a86.0,86.0 0 0,1 42.265352541879196,-11.944610805530505" fill="none" id="id72" stroke="none" /><text fill="#e1ed5e" style="font-size:6.75px; font-family:Arial;" text-anchor="middle"><textPath startOffset="22.20632615414155" xlink:href="#id72">December</textPath></text></svg>