<?xml version="1.0" encoding="utf-8" ?>
<svg baseProfile="full" height="200mm" version="1.1" viewBox="0,0,200,200" width="200mm" xmlns="http://www.w3.org/2000/svg" xmlns:ev="http://www.w3.org/2001/xml-events" xmlns:xlink="http://www.w3.org/1999/xlink"><defs /><rect fill="#1a1a1a" height="200" width="200" x="0" y="0" /><text alignment-baseline="middle" fill="#e1ed5e" style="dominant-baseline: central; font-size:9.0px; font-family:Arial;" text-anchor="middle" x="100.0" y="100.0">2022</text><line stroke="#e1ed5e" stroke-width="0.3" x1="100.0" x2="100.0" y1="15.0" y2="10.0" /><path d="M 100.0 14.0 a86.0,86.0 0 0,1 42.46469731375804,11.215312516191453" fill="none" id="id13" stroke="none" /><text fill="#e1ed5e" style="font-size:6.75px; font-family:Arial;" text-anchor="middle"><textPath startOffset="22.20632615414155" xlink:href="#id13">January</textPath></text><line stroke="#e1ed5e" stroke-width="0.3" x1="143.23703022742887" x2="145.7803849466894" y1="26.81831364943548" y2="22.513508569990506" /><path d="M 143.74570117128098 25.957352633546492 a86.0,86.0 0 0,1 28.547481713284135,27.462654790039103" fill="none" id="id14" stroke="none" /><text fill="#e1ed5e" style="font-size:6.75px; font-family:Arial;" text-anchor="middle"><textPath startOffset="19.985693538727396" xlink:href="#id14">February</textPath></text><path d="M 113.89432698308785 84.25364557470407 l 17.082200454114147 -19.35915161935066 a46.81817816530719,46.81817816530719 0 0,0 0.5996940717733792,0.5384112587874915 l -17.412905513483516 19.06224135179387" fill="red" stroke="none" /><path d="M 114.16331599549186 84.49514656593476 l 10.303645923509464 -11.279598642815571 a36.27725318439346,36.27725318439346 0 0,0 0.4574252686097941,0.42512693516611305 l -10.496279075914105 11.100567121574818" fill="red" stroke="none" /><path d="M 114.42810811169701 84.74124197986012 l 10.490481628205782 -11.094435905269057 a36.26881504399887,36.26881504399887 0 0,0 0.4499349549182721,0.4328370701483802 l -10.679899826736472 10.912215748358374" fill="red" stroke="none" /><path d="M 114.68862486808459 84.99185889309783 l 31.267701194861466 -31.947855965779596 a65.7027363683851,65.7027363683851 0 0,0 0.8014613756487965,0.7980196457981741 l -31.812998370677587 31.404900469331302" fill="red" stroke="none" /><path d="M 114.94478906791727 85.2469230424477 l 23.551238898004872 -23.249123044089025 a54.0935428135171,54.0935428135171 0 0,0 0.6484418013841962,0.6682762759699591 l -23.94794496309218 22.840282572568952" fill="red" stroke="none" /><path d="M 115.4437574822437 85.77008943001954 l 31.071199306302155 -28.629068278174227 a63.24976895567967,63.24976895567967 0 0,0 0.730855174602958,0.807028537977113 l -31.55939812152115 28.089986952927564" fill="red" stroke="none" /><path d="M 115.68641384162765 86.03803664274999 l 24.788656067968525 -22.063571138101366 a54.18551854381806,54.18551854381806 0 0,0 0.6141235376039088,0.7020493654690284 l -25.16477146915028 21.633606216429392" fill="red" stroke="none" /><path d="M 115.9244219780498 86.31012108654704 l 34.144694241680156 -29.35345033871809 a66.02760477357657,66.02760477357657 0 0,0 0.7335018766925128,0.8682348636023643 l -34.64490673185979 28.761356525486622" fill="red" stroke="none" /><path d="M 116.15771136456269 86.58626213691792 l 35.95767614477197 -29.851185671593093 a67.73379676136135,67.73379676136135 0 0,0 0.7370130808267201,0.9034908916859458 l -36.466187717675105 29.227810610299045" fill="red" stroke="none" /><path d="M 116.38621287248628 86.86637796730983 l 36.44972710282348 -29.214617354751272 a67.71270141037488,67.71270141037488 0 0,0 0.7211271124947465,0.9157582012634901 l -36.94720829591219 28.582866759534745" fill="red" stroke="none" /><path d="M 116.60985879189232 87.15038557335679 l 35.51494418342774 -27.474847610598513 a65.90187648169727,65.90187648169727 0 0,0 0.6863964748059925,0.9032173023542925 l -35.982616598457845 26.859445532363186" fill="red" stroke="none" /><path d="M 116.82858285166822 87.43820079747576 l 33.01274735409224 -24.642568363661194 a62.195845220396194,62.195845220396194 0 0,0 0.6330274985673495,0.8634487966352531 l -33.43203746517322 24.070657123354447" fill="red" stroke="none" /><path d="M 117.04232023915458 87.72973835380427 l 39.25684463173604 -28.264446875535942 a69.37332744002893,69.37332744002893 0 0,0 0.6893970456641448,0.9751032306715135 l -39.73755429720406 27.584517144532636" fill="red" stroke="none" /><path d="M 117.2510076193507 88.02491185347247 l 37.29758375756029 -25.890768991851438 a66.40310202113552,66.40310202113552 0 0,0 0.6437165226288702,0.9445745665109749 l -37.73772474585789 25.244916402070057" fill="red" stroke="none" /><path d="M 117.45458315368197 88.32363383020206 l 42.556022904165246 -28.46815084521354 a72.2001044722144,72.2001044722144 0 0,0 0.6821306502284129,1.038931778591807 l -43.03975018975159 27.73140100264406" fill="red" stroke="none" /><path d="M 117.65298651832404 88.62581576622439 l 37.26442105276463 -24.01023702018731 a65.3297705629445,65.3297705629445 0 0,0 0.6009480388735331,0.9505554795142334 l -37.67219668788412 23.365233892958873" fill="red" stroke="none" /><line stroke="#e1ed5e" stroke-width="0.3" x1="172.23445277983987" x2="176.4835382374775" y1="55.19839476539836" y2="52.563006222186495" /><path d="M 173.08426987136738 54.67131705675599 a86.0,86.0 0 0,1 12.851231095245387,41.99856678651699" fill="none" id="id15" stroke="none" /><text fill="#e1ed5e" style="font-size:6.75px; font-family:Arial;" text-anchor="middle"><textPath startOffset="22.20632615414155" xlink:href="#id15">March</textPath></text><path d="M 117.84615892207809 88.93136811851018 l 40.23291648178218 -24.95345603499288 a68.3430304978503,68.3430304978503 0 0,0 0.6114559870375644,1.005072871163212 l -40.65648826710597 24.257215390622587" fill="red" stroke="none" /><path d="M 118.03404312379186 89.2402003453031 l 39.678952840015704 -23.67398037900261 a67.20472535862096,67.20472535862096 0 0,0 0.5841701163854723,0.9985360904281898 l -40.080582630871504 22.98746487622053" fill="red" stroke="none" /><path d="M 118.21658344932153 89.55222093294921 l 38.497327517724784 -22.079418662453065 a65.37955559127255,65.37955559127255 0 0,0 0.5514994613662152,0.9810560038068965 l -38.871684620383434 21.413479148711374" fill="red" stroke="none" /><path d="M 118.3937258080291 89.86733742301442 l 40.32473500566832 -22.213929770576346 a67.03849399284766,67.03849399284766 0 0,0 0.5480936409125496,1.0155342756132177 l -40.70113674579934 21.51651451163067" fill="red" stroke="none" /><path d="M 118.56541770881063 90.18545643968196 l 40.130455484609165 -21.214825845915914 a66.39297625266204,66.39297625266204 0 0,0 0.5254231598865161,1.0149503060678888 l -40.48968807765579 20.520902817587682" fill="red" stroke="none" /><path d="M 118.73160827565052 90.50648371742162 l 38.61329078464351 -19.569910890377976 a64.28934785229237,64.28934785229237 0 0,0 0.4917828574393374,0.9914042316009768 l -38.944433655036256 18.90234707027805" fill="red" stroke="none" /><path d="M 118.89224826269711 90.83032412892265 l 37.69036550178453 -18.29366363961064 a62.895367059107166,62.895367059107166 0 0,0 0.46435291942046125,0.9780456730582651 l -37.999676615046745 17.642175550911833" fill="red" stroke="none" /><path d="M 119.04729006885535 91.15688171328212 l 39.44772068666141 -18.31446147522855 a64.49186322176236,64.49186322176236 0 0,0 0.458806425716573,1.010919141970104 l -39.75712942934133 17.632720324416386" fill="red" stroke="none" /><path d="M 119.196687751892 91.48605970444005 l 39.295088365196065 -17.42780007540926 a63.98641861212681,63.98641861212681 0 0,0 0.4378782284979917,1.0106833232610564 l -39.58925730353674 16.748817607561598" fill="red" stroke="none" /><path d="M 119.34039704204932 91.81776055985345 l 43.700267081832266 -18.488040761753556 a68.45019488086149,68.45019488086149 0 0,0 0.44974487723677686,1.0890928936725217 l -44.01203364595524 17.73307329762773" fill="red" stroke="none" /><path d="M 119.47837535516314 92.15188598940014 l 42.53356492550267 -17.137377256882637 a66.85623016032466,66.85623016032466 0 0,0 0.4208964217994532,1.0711354841122716 l -42.82225489718382 16.40269276787458" fill="red" stroke="none" /><path d="M 119.61058180528143 92.48833698450437 l 41.31089973575297 -15.823781301497734 a65.23779483264354,65.23779483264354 0 0,0 0.3926551391961203,1.0521205571925565 l -41.57715946345071 15.110337607275843" fill="red" stroke="none" /><path d="M 119.7369772167798 92.82701384747503 l 40.22181353732556 -14.61776584954429 a63.79571663920922,63.79571663920922 0 0,0 0.3662084332565258,1.0353205549741724 l -40.467475051391894 13.923247668143503" fill="red" stroke="none" /><path d="M 119.85752413597 93.16781622104841 l 46.71828246414511 -16.073901733491148 a70.40615582432596,70.40615582432596 0 0,0 0.38442668390207946,1.14938685411532 l -46.98804644181896 15.267341776453513" fill="red" stroke="none" /><path d="M 119.97218684219823 93.5106431181261 l 41.19148174695023 -13.383923736602377 a64.31128701731828,64.31128701731828 0 0,0 0.333023799759158,1.055776452196346 l -41.4157610304776 12.672897117979613" fill="red" stroke="none" /><path d="M 120.08093135843002 93.85539295169968 l 49.08681075220356 -15.020177995875343 a72.33342709044882,72.33342709044882 0 0,0 0.3540690355523227,1.1937447707362865 l -49.338085684867586 14.173003838392527" fill="red" stroke="none" /><path d="M 120.18372546131832 94.20196356495316 l 42.20115539758502 -12.122828219458455 a64.90786354321533,64.90786354321533 0 0,0 0.299235232631262,1.0765083424441428 l -42.403577400782645 11.39460857359536" fill="red" stroke="none" /><path d="M 120.28053869075195 94.5502522615342 l 41.57074457473096 -11.170811322471803 a64.0454855948889,64.0454855948889 0 0,0 0.2769316675792191,1.0671306827195828 l -41.756872574180484 10.453584214203369" fill="red" stroke="none" /><path d="M 120.37134235888165 94.90015583598534 l 42.189068851975705 -10.561781976834453 a64.49101940772292,64.49101940772292 0 0,0 0.26032014873894377,1.0791950783435091 l -42.36462180097546 9.834001666831536" fill="red" stroke="none" /><path d="M 120.45610955862082 95.25157060432595 l 42.59559245979221 -9.88761635161413 a64.7281311528107,64.7281311528107 0 0,0 0.24259367812354637,1.087499891187842 l -42.75948052491779 9.152938290876323" fill="red" stroke="none" /><path d="M 120.53481517161879 95.60439243477599 l 42.39725189710646 -9.075400953264985 a64.35769678948849,64.35769678948849 0 0,0 0.22255720257818082,1.0852679593529384 l -42.54718839559963 8.344257337748635" fill="red" stroke="none" /><path d="M 120.6074358757038 95.95851677861258 l 44.67111144864662 -8.760796272246917 a66.52207980069916,66.52207980069916 0 0,0 0.2106984753311465,1.12555968028444 l -44.81529564788762 7.990558514499916" fill="red" stroke="none" /><path d="M 120.67395015179393 96.31383870115 l 42.426165554402694 -7.56457708260806 a64.09527062321693,64.09527062321693 0 0,0 0.18431400372826692,1.087831683421757 l -42.55009141965118 6.833159610870465" fill="red" stroke="none" /><path d="M 120.73433829027371 96.67025291283417 l 46.944901339737726 -7.538926311750433 a68.54638968135974,68.54638968135974 0 0,0 0.17705893648699772,1.1665971673541045 l -47.067716169664024 6.729730032004246" fill="red" stroke="none" /><path d="M 120.78858239683441 97.02765380044208 l 43.39481880160516 -6.204580104754833 a64.83613934986137,64.83613934986137 0 0,0 0.14845623740880942,1.106171404780704 l -43.49519103807181 5.456690357909465" fill="red" stroke="none" /><path d="M 120.83666639777658 97.38593545837742 l 45.35053932181325 -5.689453126593343 a66.70603126130109,66.70603126130109 0 0,0 0.1331250582234615,1.1405342007556323 l -45.4417547330403 4.907975187512858" fill="red" stroke="none" /><path d="M 120.87857604477298 97.74499172005257 l 46.595290396702566 -5.0325637833632095 a67.86627556555632,67.86627556555632 0 0,0 0.11544659202112398,1.1625314267088724 l -46.67501411440592 4.229756825949902" fill="red" stroke="none" /><path d="M 120.91429891909075 98.10471618934814 l 45.05814140494593 -4.083233498441798 a66.24277735363844,66.24277735363844 0 0,0 0.09313581879030756,1.1364928936200154 l -45.12175170755573 3.3070266876140133" fill="red" stroke="none" /><path d="M 120.94382443527127 98.46500227214037 l 46.87723922200004 -3.4356884491889397 a68.00297343994856,68.00297343994856 0 0,0 0.07551376907438237,1.1681645843953825 l -46.92943358207884 2.6282648005405216" fill="red" stroke="none" /><path d="M 120.96714384426684 98.82574320788733 l 46.85613661922872 -2.6241598324481927 a67.92956161851569,67.92956161851569 0 0,0 0.05533474731300813,1.1680290586864086 l -46.89436497477522 1.8172196671387844" fill="red" stroke="none" /><path d="M 120.98425023603335 99.18683210126433 l 48.7535794952258 -1.8892667285247347 a69.79017157552136,69.79017157552136 0 0,0 0.03618555771939198,1.2008224955508167 l -48.77887674740084 1.049774085548919" fill="red" stroke="none" /><line stroke="#e1ed5e" stroke-width="0.3" x1="184.98032266829074" x2="189.97916517819016" y1="98.17113171792111" y2="98.06355123074" /><path d="M 185.9800911702706 98.14961562048488 a86.0,86.0 0 0,1 -9.607161424134198,41.387399972396054" fill="none" id="id16" stroke="none" /><text fill="#e1ed5e" style="font-size:6.75px; font-family:Arial;" text-anchor="middle"><textPath startOffset="21.466115282336823" xlink:href="#id16">April</textPath></text><path d="M 120.99513854157772 99.54816195383933 l 44.00652577180292 -0.9470679406889156 a65.01671555430545,65.01671555430545 0 0,0 0.014449168986736005,1.1191040615656078 l -44.01630794790737 0.18942762106284516" fill="red" stroke="none" /><path d="M 120.99980553446 99.90962569577887 l 44.639880748565 -0.19211121534176254 a65.64029412946519,65.64029412946519 0 0,0 -0.004862703975953736,1.1299211512249516 l -44.63657374729954 -0.5763194140868737" fill="red" stroke="none" /><path d="M 120.99824983174949 100.27111621757518 l 29.15725155445683 0.37646012499480347 a50.159681761562254,50.159681761562254 0 0,0 -0.01857804097530505,0.8632485631121634 l -29.14645145079652 -0.8782985038970816" fill="red" stroke="none" /><path d="M 120.9904718944345 100.63252640178507 l 46.694037249153496 1.4070770545113942 a67.71523285249327,67.71523285249327 0 0,0 -0.04513661111519247,1.164775372860249 l -46.6628985051871 -2.2106296743856495" fill="red" stroke="none" /><path d="M 120.9764740272857 100.99374915477107 l 62.92942208185712 2.9812474643131925 a84.0,84.0 0 0,0 -0.0808545964498828,1.4437131346583068 l -62.86878113451971 -4.064032315306923" fill="red" stroke="none" /><path d="M 120.95626037817324 101.35467743843564 l 41.43760088439365 2.678654588556993 a62.524088881745485,62.524088881745485 0 0,0 -0.07867150450631137,1.073410174187279 l -41.385352821223 -3.391537899241042" fill="red" stroke="none" /><path d="M 120.92983693683757 101.71520430193887 l 46.85518283035193 3.8397915569663774 a68.0122553943826,68.0122553943826 0 0,0 -0.10566320430230444,1.1659846547031247 l -46.78214502977255 -4.645757600218072" fill="red" stroke="none" /><path d="M 120.89721153311464 102.0752229133903 l 44.51667805037192 4.420782656660109 a65.73564511592397,65.73564511592397 0 0,0 -0.12150983108303753,1.1250301256161488 l -44.43398591778784 -5.186409104161049" fill="red" stroke="none" /><path d="M 120.8583938346157 102.4346265915055 l 50.007511011217915 5.836960268765527 a71.34700847832201,71.34700847832201 0 0,0 -0.15288131910842007,1.218614534565753 l -49.89962818286265 -6.696892557618675" fill="red" stroke="none" /><path d="M 120.81339534386255 102.79330883721812 l 47.813856173878314 6.416966803609675 a69.24253626391288,69.24253626391288 0 0,0 -0.1687076227600237,1.1799407206477113 l -47.696314500101685 -7.239052996237795" fill="red" stroke="none" /><path d="M 120.76222939487914 103.15116336523771 l 43.52918564457786 6.606591831398226 a65.0276851368184,65.0276851368184 0 0,0 -0.17748918238042624,1.105225308109569 l -43.40901470783614 -7.3548963692010005" fill="red" stroke="none" /><path d="M 120.70491114924044 103.5080841355445 l 42.83995619431181 7.258479382472493 a64.45051633382892,64.45051633382892 0 0,0 -0.19474355021227013,1.0922252508939119 l -42.70866620176035 -7.9948233840996235" fill="red" stroke="none" /><path d="M 120.64145759157962 103.86396538481128 l 42.26410392952638 7.911603813791475 a63.998232008679224,63.998232008679224 0 0,0 -0.2120172042991815,1.0810711569999911 l -42.12165679225153 -8.637938697859411" fill="red" stroke="none" /><path d="M 120.5718875245553 104.21870165774334 l 40.214663401358735 8.246869275091946 a62.05155301964881,62.05155301964881 0 0,0 -0.22358049561299587,1.044493641724321 l -40.066748867021296 -8.937876736232436" fill="red" stroke="none" /><path d="M 120.49622156327973 104.57218783832717 l 33.749956188500164 7.528760301147077 a55.579499337003256,55.579499337003256 0 0,0 -0.21633508674618382,0.9319658916873097 l -33.61536053582343 -8.108594850182952" fill="red" stroke="none" /><path d="M 120.41448212921028 104.9243191809786 l 44.15604825874512 10.651187427656135 a66.42250974404308,66.42250974404308 0 0,0 -0.2776735634120503,1.1091678573614814 l -43.966163381038015 -11.409683124415011" fill="red" stroke="none" /><path d="M 120.32669344350535 105.2749913415812 l 41.59592733920683 10.794581871822544 a63.97376140153494,63.97376140153494 0 0,0 -0.28578579146334065,1.0635152449590473 l -41.403953471401714 -11.50898804995714" fill="red" stroke="none" /><path d="M 120.23288151984713 105.62410040840565 l 40.20967119741707 11.17701539355227 a62.73419857757061,62.73419857757061 0 0,0 -0.29815880652814936,1.0379299202851426 l -40.01131975400283 -11.867502789341996" fill="red" stroke="none" /><path d="M 120.13307415673323 105.97154293290107 l 35.72534607769101 10.596267427164562 a58.26367179652028,58.26367179652028 0 0,0 -0.2934636481695886,0.9590561819112614 l -35.537655657015286 -11.209650581627882" fill="red" stroke="none" /><path d="M 120.02730092923936 106.31721596034902 l 35.752518410585694 11.277424787494926 a58.48897014505565,58.48897014505565 0 0,0 -0.31112719977533815,0.9575510607160013 l -35.55309895979411 -11.891174748188723" fill="red" stroke="none" /><path d="M 119.9155931802556 106.66101706037122 l 35.428261392545345 11.849421276037882 a58.35733515490014,58.35733515490014 0 0,0 -0.32682655694929486,0.9499109586148219 l -35.219044004652815 -12.457504937742003" fill="red" stroke="none" /><path d="M 119.79798401119884 107.00284435728193 l 38.54191052993821 13.63285274504568 a61.88194639771768,61.88194639771768 0 0,0 -0.36385328866157796,1.00116798162729 l -38.3015329802714 -14.2942685236791" fill="red" stroke="none" /><path d="M 119.67450827220406 107.3425965602758 l 37.03822827424087 13.822798707979313 a60.53353156266324,60.53353156266324 0 0,0 -0.3727300908313984,0.9730806510436746 l -36.79480390381597 -14.458302925856133" fill="red" stroke="none" /><path d="M 119.54520255179757 107.68017299344265 l 40.39645532433847 15.873550780074316 a64.40326274761924,64.40326274761924 0 0,0 -0.41431963954750584,1.0283073672505767 l -40.11723307053357 -16.566557515167705" fill="red" stroke="none" /><path d="M 119.41010516605496 108.01547362559984 l 38.30077729315012 15.816445485834238 a62.43801984972074,62.43801984972074 0 0,0 -0.4187778015299193,0.9898670178539893 l -38.02284851042789 -16.47338702935439" fill="red" stroke="none" /><path d="M 119.26925614724726 108.34839909993367 l 43.42028430431468 18.811824371164874 a68.3202475187849,68.3202475187849 0 0,0 -0.4768067317735266,1.075073306848276 l -43.090036487809876 -19.556446014505838" fill="red" stroke="none" /><path d="M 119.12269723197855 108.67885076344098 l 36.439699181474275 16.538185341962677 a61.01703700727287,61.01703700727287 0 0,0 -0.44230199227287154,0.9526791423233205 l -36.14962257236157 -17.16298455156483" fill="red" stroke="none" /><path d="M 118.97047184881838 109.00673069616215 l 38.07433995164659 18.076794774082988 a63.147667456905204,63.147667456905204 0 0,0 -0.47465017430711776,0.9779199458103687 l -37.75753652072476 -18.72950367585863" fill="red" stroke="none" /><path d="M 118.81262510543309 109.33194174019688 l 39.60500932812134 19.645936577093867 a65.20994896934143,65.20994896934143 0 0,0 -0.5074617430352043,1.0012701619164939 l -39.26096891529987 -20.324760950713053" fill="red" stroke="none" /><path d="M 118.64920377521936 109.65438752849418 l 38.347504881788694 19.851875572916033 a64.18133965524169,64.18133965524169 0 0,0 -0.516346493024728,0.9767329745462906 l -38.000105880539074 -20.509023562548457" fill="red" stroke="none" /><line stroke="#e1ed5e" stroke-width="0.3" x1="174.80103733775053" x2="179.2010983576182" y1="140.37084112569926" y2="142.7455964860345" /><path d="M 175.68104954172406 140.8457921977663 a86.0,86.0 0 0,1 -30.038265399797805,32.042727171017184" fill="none" id="id17" stroke="none" /><text fill="#e1ed5e" style="font-size:6.75px; font-family:Arial;" text-anchor="middle"><textPath startOffset="22.206326154141568" xlink:href="#id17">May</textPath></text><path d="M 118.48025628344425 109.97397251340804 l 35.95136448599483 19.40329807677304 a61.853256720376095,61.853256720376095 0 0,0 -0.5137460535374069,0.9325983147990554 l -35.61204202300591 -20.0192669099699" fill="red" stroke="none" /><path d="M 118.30583269289576 110.29060199501025 l 42.700614758226564 24.004099610814265 a69.98509261863623,69.98509261863623 0 0,0 -0.5993656765025029,1.0450445776653354 l -42.28109708557168 -24.735564034337916" fill="red" stroke="none" /><path d="M 118.12598468904814 110.60418214915192 l 36.13689300967624 21.141041568381972 a62.866677381765584,62.866677381765584 0 0,0 -0.5544814729720328,0.9293428424158632 l -35.76763066100598 -21.75994650468394" fill="red" stroke="none" /><path d="M 117.94076556474637 110.91462005526583 l 34.453449939161935 20.96043863468154 a61.328404387833004,61.328404387833004 0 0,0 -0.5564395061249832,0.8971576580693502 l -34.08754579336899 -21.550392624116167" fill="red" stroke="none" /><path d="M 117.75023020441432 111.22182372390056 l 33.70382642783779 21.30780247008159 a60.87443243460441,60.87443243460441 0 0,0 -0.5675675150179947,0.8808773873293905 l -33.332054049442746 -21.884801457332433" fill="red" stroke="none" /><path d="M 117.55443506779139 111.5257021239791 l 37.64395430135776 24.71586253676685 a66.03266765781332,66.03266765781332 0 0,0 -0.6320171971745902,0.9447799565566193 l -37.21293399877244 -25.360179407529277" fill="red" stroke="none" /><path d="M 117.35343817320211 111.8261652097733 l 34.239692532523634 23.333950112938783 a62.43464459356289,62.43464459356289 0 0,0 -0.6128676665795949,0.8828815835384028 l -33.8329639587819 -23.919872958664207" fill="red" stroke="none" /><path d="M 117.14729908036423 112.12312394758627 l 19.368655299880217 13.693620656993517 a44.72045646321372,44.72045646321372 0 0,0 -0.4498030523437056,0.6247370988186984 l -19.13007245516091 -14.024991361263345" fill="red" stroke="none" /><path d="M 116.93607887273984 112.41649034213515 l 35.04401163782742 25.69211181173268 a64.45304777594728,64.45304777594728 0 0,0 -0.6636783527957884,0.88910561033632 l -34.59657201833653 -26.291530301578316" fill="red" stroke="none" /><path d="M 116.71984013943494 112.70617746262583 l 27.43150209881736 20.846463293144012 a55.45377104512396,55.45377104512396 0 0,0 -0.5840950530824518,0.7550215929145843 l -27.06860022851684 -21.31556288017185" fill="red" stroke="none" /><path d="M 116.0416608686014 113.55231037782055 l 27.475219774345426 23.21160565172986 a56.96757343191224,56.96757343191224 0 0,0 -0.6392778757527056,0.7436245944230692 l -27.07159938902194 -23.68110734531446" fill="red" stroke="none" /><path d="M 115.80600337817218 113.82643327865902 l 29.669202708695835 25.953382513463104 a60.4187728532969,60.4187728532969 0 0,0 -0.6914817795427203,0.7768871096642616 l -29.218062079504776 -26.460243792868233" fill="red" stroke="none" /><path d="M 115.56566222782051 114.09645910891815 l 28.09724933742038 25.445221704099747 a58.906658094587534,58.906658094587534 0 0,0 -0.6871141663446236,0.74572672087109 l -27.655088763080034 -25.92509967977217" fill="red" stroke="none" /><path d="M 115.07121518719521 114.62390073753431 l 25.064592975562427 24.320674554016463 a55.924619279141716,55.924619279141716 0 0,0 -0.676313397911332,0.6851019014319712 l -24.64223895259556 -24.7485169494291" fill="red" stroke="none" /><path d="M 114.55890576462653 115.13401014063108 l 25.73065902484563 26.74706883214197 a58.114316711536134,58.114316711536134 0 0,0 -0.7268832623325706,0.6873134943011067 l -25.266439928122253 -27.186016963188997" fill="red" stroke="none" /><path d="M 114.29624159901734 115.38237550388516 l 24.489214272821485 26.349742841890475 a56.972636316149,56.972636316149 0 0,0 -0.7240963000400322,0.6614448019290028 l -24.03201842331459 -26.767380410406062" fill="red" stroke="none" /><path d="M 114.0293411484842 115.62618273729858 l 21.168876072161318 23.57835071125632 a52.68690480974002,52.68690480974002 0 0,0 -0.6800565928744151,0.6000708743874335 l -20.759877126380314 -23.939244727416042" fill="red" stroke="none" /><path d="M 113.75828350139079 115.86535959552629 l 25.500948340585623 29.40640926678332 a59.92345401213485,59.92345401213485 0 0,0 -0.7850957600707594,0.6690756390210725 l -24.990987103937815 -29.841009296027337" fill="red" stroke="none" /><path d="M 113.48314897796784 116.09983520530334 l 24.482260584457286 29.233553786814497 a59.13111262908345,59.13111262908345 0 0,0 -0.7859647555793073,0.6467954856336386 l -23.975425700333286 -29.650644391305313" fill="red" stroke="none" /><path d="M 113.20401910651253 116.32954008644616 l 13.353636713618108 16.514573650330032 a42.23795555912726,42.23795555912726 0 0,0 -0.5692922306642132,0.4522801784288751 l -13.067386990236544 -16.74198774276403" fill="red" stroke="none" /><path d="M 112.92097659922987 116.55440617244103 l 23.323382961674927 29.882010225602468 a58.906658094587534,58.906658094587534 0 0,0 -0.8046965670377788,0.6170070135826415 l -22.805557666143653 -30.27905658101248" fill="red" stroke="none" /><path d="M 112.63410532772338 116.77436683061366 l 29.9305493595819 39.73894481453451 a70.7495881383855,70.7495881383855 0 0,0 -0.979090173795776,0.7243075038338919 l -29.24207421536756 -40.248262267108174" fill="red" stroke="none" /><path d="M 112.34349029814194 116.9893568818739 l 22.684703490421416 31.22281575546535 a59.59352272270663,59.59352272270663 0 0,0 -0.8350831035480522,0.5958096215499601 l -22.143893059024478 -31.60866963885953" fill="red" stroke="none" /><line stroke="#e1ed5e" stroke-width="0.3" x1="143.8653032363475" x2="146.44561519142675" y1="172.8068346515853" y2="177.08958963109032" /><path d="M 144.38136562736335 173.6633856474863 a86.0,86.0 0 0,1 -40.68145358897372,12.25698825130547" fill="none" id="id18" stroke="none" /><text fill="#e1ed5e" style="font-size:6.75px; font-family:Arial;" text-anchor="middle"><textPath startOffset="21.466115282336833" xlink:href="#id18">June</textPath></text><path d="M 110.8373102113329 117.98757091392108 l 19.370597907772 32.15096704962234 a58.53537991722586,58.53537991722586 0 0,0 -0.8675281386571757,0.5125509157384416 l -18.814301898086445 -32.47963653765453" fill="red" stroke="none" /><path d="M 110.5260780823613 118.17145234162733 l 21.367680504717015 36.88760285687356 a63.629485273435925,63.629485273435925 0 0,0 -0.9524765312320946,0.5408410325440772 l -20.729555206563724 -37.24994705521227" fill="red" stroke="none" /><path d="M 110.21172684928248 118.3499491758327 l 18.95039148178818 34.05288113218376 a59.97070759834451,59.97070759834451 0 0,0 -0.9063492641814307,0.49421388430832763 l -18.3614194057381 -34.37403566825186" fill="red" stroke="none" /><path d="M 109.89434966115114 118.52300852407294 l 19.769218342939702 37.00954710730607 a62.958653112066536,62.958653112066536 0 0,0 -0.9602966360225462,0.5023818135450955 l -19.12923080439066 -37.34435833979588" fill="red" stroke="none" /><path d="M 109.57404056367764 118.69057910512821 l 19.148465827823934 37.381909228020916 a63.000843814039456,63.000843814039456 0 0,0 -0.9694512614855039,0.48610298798688817 l -18.50216065865567 -37.705980056917106" fill="red" stroke="none" /><path d="M 109.2508944713604 118.85261126421891 l 18.766450688355405 38.244582805695984 a63.60079559609435,63.60079559609435 0 0,0 -0.9869854090416065,0.4738129753445036 l -18.105352611313567 -38.561950057540045" fill="red" stroke="none" /><path d="M 108.92500713936063 119.00905698771935 l 18.27749081306119 38.928581124125216 a64.00582633503436,64.00582633503436 0 0,0 -1.0013315432576821,0.4596621992988089 l -17.604691274036085 -39.2374303937581" fill="red" stroke="none" /><path d="M 108.59647513512805 119.15986991738527 l 17.092778381752574 38.09647619206384 a62.75529392855707,62.75529392855707 0 0,0 -0.9893800178819541,0.4337151246409017 l -16.434477689212866 -38.38505586999919" fill="red" stroke="none" /><path d="M 108.2653958097858 119.30500536409082 l 16.86656190782223 39.39424990619006 a63.85309599389239,63.85309599389239 0 0,0 -1.0141347577814972,0.42390841100143 l -16.185955690543274 -39.67874336021147" fill="red" stroke="none" /><path d="M 107.93186726928326 119.44442032107085 l 16.06994332722029 39.394347129373294 a63.545947683529555,63.545947683529555 0 0,0 -1.0163687871354175,0.4044341158624086 l -15.389453464043008 -39.66512808964177" fill="red" stroke="none" /><path d="M 107.59598834532513 119.57807347666477 l 15.378770794694097 39.63759433419985 a63.51641419214852,63.51641419214852 0 0,0 -1.0227043385185774,0.3866992714961054 l -14.694196235415244 -39.896441855802586" fill="red" stroke="none" /><path d="M 107.2578585660854 119.70592522655815 l 14.774103546344941 40.11339944458696 a63.7476192389601,63.7476192389601 0 0,0 -1.0329556134972244,0.370381132199708 l -14.081428372217982 -40.36176811782663" fill="red" stroke="none" /><path d="M 106.91757812671514 119.82793768551818 l 13.970244571410891 40.043080647492424 a63.410093623176756,63.410093623176756 0 0,0 -1.0336759183094066,0.3506789939955297 l -13.278898920164258 -40.27762262838608" fill="red" stroke="none" /><path d="M 106.57524785965236 119.94407469862006 l 13.565560387103734 41.14712562384565 a64.32563185598906,64.32563185598906 0 0,0 -1.0545686672169177,0.33763958506197 l -12.855270374795875 -41.374538055567335" fill="red" stroke="none" /><path d="M 106.2309692047433 120.05430185196036 l 13.360267557500395 42.99986560952741 a66.02760477357657,66.02760477357657 0 0,0 -1.0882764947573111,0.327888780602165 l -12.618116088302838 -43.2234697592353" fill="red" stroke="none" /><path d="M 105.88484417918355 120.15858648285463 l 12.071887533076653 41.352358947349806 a64.07839434242777,64.07839434242777 0 0,0 -1.0614702947444186,0.29998210803496617 l -11.358286070227628 -41.55402984872329" fill="red" stroke="none" /><path d="M 105.53697534728816 120.25689768951611 l 11.231247338226925 41.08926155279716 a63.596576525897056,63.596576525897056 0 0,0 -1.0584576809652857,0.27954829371509154 l -10.522299214450141 -41.27650119581583" fill="red" stroke="none" /><path d="M 102.70371172650421 120.8252237178851 l 5.4636987242074015 42.08390530075448 a63.43709567243942,63.43709567243942 0 0,0 -1.0840873332430698,0.13126787864977066 l -4.738483967912951 -42.1717187081296" fill="red" stroke="none" /><path d="M 101.98527174616119 120.90594882070398 l 4.012822353794854 42.25711614403877 a63.44722144091292,63.44722144091292 0 0,0 -1.0881370154978798,0.09388904033893274 l -3.284841020555432 -42.319929436656366" fill="red" stroke="none" /><path d="M 101.62511606390274 120.93702456842531 l 3.2271812992380338 41.57707603150832 a62.7021336440712,62.7021336440712 0 0,0 -1.0767963986032565,0.07426218409948496 l -2.511022139855847 -41.62646656012409" fill="red" stroke="none" /><path d="M 101.26447882468166 120.96189622390904 l 2.53784919090386 42.07119196721308 a63.147667456905204,63.147667456905204 0 0,0 -1.0855743525619335,0.05611179415533648 l -1.813286769928447 -42.108643568130624" fill="red" stroke="none" /><path d="M 100.90346689309514 120.98055641714683 l 1.813686100334846 42.11791692854324 a63.15694941133925,63.15694941133925 0 0,0 -1.086539070125258,0.037422602491347226 l -1.0884266785349355 -42.142896329460676" fill="red" stroke="none" /><line stroke="#e1ed5e" stroke-width="0.3" x1="102.19456741930631" x2="102.32365962044197" y1="184.97166512339345" y2="189.96999836594603" /><path d="M 102.22038585953345 185.97133177190398 a86.0,86.0 0 0,1 -42.740103519485714,-10.115201625700543" fill="none" id="id19" stroke="none" /><text fill="#e1ed5e" style="font-size:6.75px; font-family:Arial;" text-anchor="middle"><textPath startOffset="22.20632615414155" xlink:href="#id19">July</textPath></text><path d="M 100.54218724476979 120.99299961872073 l 1.0496258796063782 40.6405644967391 a61.65411660706392,61.65411660706392 0 0,0 -1.0611563345643236,0.018268768639085473 l -0.34990985514938666 -40.65261074265735" fill="red" stroke="none" /><path d="M 99.45781275523022 120.99299961872073 l -1.0864877278865959 42.06782191446225 a63.081849961827466,63.081849961827466 0 0,0 -1.0852470747581886,-0.037378103558567966 l 1.8104551543194274 -42.042887012477586" fill="red" stroke="none" /><path d="M 99.09653310690486 120.98055641714683 l -1.8112175123680063 42.06059070053801 a63.09957005665608,63.09957005665608 0 0,0 -1.0847475080205613,-0.056069055737103884 l 2.5349530888020566 -42.0231818380387" fill="red" stroke="none" /><path d="M 98.73552117531835 120.96189622390904 l -2.6307785022046204 43.61172751563314 a64.69100333507454,64.69100333507454 0 0,0 -1.1109516592953481,-0.07661773084980103 l 3.381092922278899 -43.55998144026705" fill="red" stroke="none" /><path d="M 98.37488393609728 120.93702456842531 l -3.211835846792265 41.379374389141624 a62.50383734479849,62.50383734479849 0 0,0 -1.071957722985124,-0.09249302290201973 l 3.923637887518931 -41.317957113960944" fill="red" stroke="none" /><path d="M 98.01472825383883 120.90594882070398 l -4.068981445260148 42.8485007211182 a64.04126652469161,64.04126652469161 0 0,0 -1.0965310435415476,-0.11365992610800976 l 4.805945085407289 -42.77211142655443" fill="red" stroke="none" /><path d="M 97.65516085044442 120.86867818915974 l -4.74291228149148 42.21112996199268 a63.47675493229396,63.47675493229396 0 0,0 -1.0847650770898936,-0.1313499439911169 l 5.468804781632763 -42.12323448927622" fill="red" stroke="none" /><path d="M 97.2962882734958 120.8252237178851 l -5.4075320925280765 41.65128422701532 a63.000843814039456,63.000843814039456 0 0,0 -1.0742286143291204,-0.14887829755258297 l 6.123689298044028 -41.55203136397013" fill="red" stroke="none" /><path d="M 96.58105272829116 120.7198165907248 l -6.758214814338607 40.95675080821777 a62.510587857114146,62.510587857114146 0 0,0 -1.0601528647237137,-0.18432116464762086 l 7.462216650534371 -40.83435106504914" fill="red" stroke="none" /><path d="M 96.22490169976321 120.6578951692458 l -4.549928617977365 24.897881046390804 a46.31020211355326,46.31020211355326 0 0,0 -0.7829343583829401,-0.1500512331835646 l 4.977830590932 -24.815872614858772" fill="red" stroke="none" /><path d="M 95.86986931433489 120.58985236759428 l -4.8845636867111715 24.350911107622547 a45.83597862337767,45.83597862337767 0 0,0 -0.7722457433662439,-0.16183160392712193 l 5.3030008915068025 -24.263223522968886" fill="red" stroke="none" /><path d="M 95.51606077576429 120.51570834832081 l -8.650955995165258 39.58137727908643 a61.51573110459276,61.51573110459276 0 0,0 -1.032526462368366,-0.23499966121748225 l 9.331002606926488 -39.42660088429126" fill="red" stroke="none" /><path d="M 95.16358092515715 120.4354850818985 l -9.866590302119437 41.68963768606377 a63.84128259733998,63.84128259733998 0 0,0 -1.067203454932221,-0.2622926442912815 l 10.58274704179487 -41.513623783458456" fill="red" stroke="none" /><path d="M 94.81253420990036 120.34920634021253 l -8.779734260649615 34.44082935894612 a56.542291156025236,56.542291156025236 0 0,0 -0.9410510068745822,-0.24854012399508182 l 9.371275710335686 -34.28459788564746" fill="red" stroke="none" /><path d="M 94.46302465271185 120.25689768951611 l -7.938029630565917 29.041099878018464 a51.106441113834535,51.106441113834535 0 0,0 -0.8465875225047597,-0.23925409019404167 l 8.43674832117529 -28.9001569944859" fill="red" stroke="none" /><path d="M 94.11515582081647 120.15858648285463 l -11.90163447690223 40.76915557741148 a63.47084823401776,63.47084823401776 0 0,0 -1.0461356651094607,-0.31519209431576434 l 12.601645116451936 -40.55824811398999" fill="red" stroke="none" /><path d="M 93.76903079525671 120.05430185196036 l -12.638950312397883 40.678314452879455 a63.596576525897056,63.596576525897056 0 0,0 -1.0426163725312816,-0.33381283774465526 l 13.337288030020105 -40.45472876847509" fill="red" stroke="none" /><path d="M 93.42475214034765 119.94407469862007 l -13.323813620053365 40.41385812076225 a63.55354200988468,63.55354200988468 0 0,0 -1.0360143337632886,-0.3514723114796507 l 14.01749768675388 -40.17852282238447" fill="red" stroke="none" /><path d="M 92.7421414339146 119.70592522655815 l -15.30312494060213 41.54975370026167 a65.27829790653755,65.27829790653755 0 0,0 -1.0510731647753344,-0.39742593416244415 l 16.016068326137745 -41.28017951599259" fill="red" stroke="none" /><path d="M 92.06813273071674 119.44442032107085 l -16.054326278311418 39.356063021375846 a63.50460079559609,63.50460079559609 0 0,0 -1.0085998485024505,-0.4215948184738955 l 16.72939758631133 -39.07388315988198" fill="red" stroke="none" /><path d="M 91.7346041902142 119.30500536409082 l -16.675262515109694 38.94744301545529 a63.36705910716437,63.36705910716437 0 0,0 -0.9990249132439468,-0.4379431633302453 l 17.34320810301138 -38.65463529883059" fill="red" stroke="none" /><line stroke="#e1ed5e" stroke-width="0.3" x1="58.666819895761336" x2="56.23545636021788" y1="174.27360380694188" y2="178.64263932499728" /><path d="M 58.180547188652646 175.14741091055294 a86.0,86.0 0 0,1 -31.652253787137756,-30.449443065178592" fill="none" id="id20" stroke="none" /><text fill="#e1ed5e" style="font-size:6.75px; font-family:Arial;" text-anchor="middle"><textPath startOffset="22.20632615414155" xlink:href="#id20">August</textPath></text><path d="M 85.70375840098266 115.38237550388516 l -28.626949967671067 30.801836334657168 a63.050628842367495,63.050628842367495 0 0,0 -0.7886257531435594,-0.7456948731348617 l 29.152911555205442 -30.304506824776375" fill="red" stroke="none" /><path d="M 85.18274418774928 114.88116024355367 l -12.808439116363962 12.863679845685295 a39.152971430867524,39.152971430867524 0 0,0 -0.4734887691334133,-0.4796416233092442 l 13.027968510552908 -12.641297728395386" fill="red" stroke="none" /><path d="M 84.67929136418377 114.36230785411682 l -22.83300853065553 21.404669036412304 a52.297062723510265,52.297062723510265 0 0,0 -0.6100168269236431,-0.6620527858390765 l 23.198071765574902 -21.008464995771885" fill="red" stroke="none" /><path d="M 83.95833913139862 113.55231037782056 l -19.737037642004843 16.674237303365842 a46.83758588821473,46.83758588821473 0 0,0 -0.5149993303294682,-0.6203498694654422 l 20.02113297222785 -16.332026176786638" fill="red" stroke="none" /><path d="M 83.50135304334701 112.99209946851258 l -27.427914997291932 21.598510519981165 a55.91111825451039,55.91111825451039 0 0,0 -0.5889122952196242,-0.7612485277476546 l 27.795634109729626 -21.123183998120258" fill="red" stroke="none" /><path d="M 83.28015986056508 112.70617746262583 l -26.97868849115153 20.502349353745558 a54.88504038252903,54.88504038252903 0 0,0 -0.5651557909384372,-0.7571185384014373 l 27.32760554878505 -20.034917935834812" fill="red" stroke="none" /><path d="M 83.06392112726016 112.41649034213515 l -20.81231567344407 15.258308519850493 a46.806364768754776,46.806364768754776 0 0,0 -0.4707833373618779,-0.6538768797213552 l 21.071878803181555 -14.897798034677999" fill="red" stroke="none" /><path d="M 82.85270091963577 112.12312394758628 l -20.982307987878485 14.834471554459961 a46.696668943625184,46.696668943625184 0 0,0 -0.45838137974233584,-0.6603325652176125 l 21.234550274782954 -14.471097727055337" fill="red" stroke="none" /><path d="M 82.44556493220864 111.52570212397912 l -26.293210173463695 17.263313070014288 a52.45401213484952,52.45401213484952 0 0,0 -0.48905907011261746,-0.7590305373923337 l 26.586474106953357 -16.808160932700506" fill="red" stroke="none" /><path d="M 82.24976979558568 111.22182372390057 l -22.137326519251488 13.99537769688696 a47.190300156708325,47.190300156708325 0 0,0 -0.42816289735884466,-0.6903349205769117 l 22.374954056278288 -13.612246444944784" fill="red" stroke="none" /><path d="M 82.05923443525364 110.91462005526583 l -7.660887839296004 4.66065284394704 a29.967211797323905,29.967211797323905 0 0,0 -0.264309558422188,-0.4429980229729839 l 7.7399782734164235 -4.528092727087945" fill="red" stroke="none" /><line stroke="#e1ed5e" stroke-width="0.3" x1="26.63291911575756" x2="22.317208475507996" y1="142.92168965132927" y2="145.44649492493687" /><path d="M 25.769776987707644 143.4266507060508 a86.0,86.0 0 0,1 -11.730757126820373,-40.83630448921669" fill="none" id="id21" stroke="none" /><text fill="#e1ed5e" style="font-size:6.75px; font-family:Arial;" text-anchor="middle"><textPath startOffset="21.46611528233685" xlink:href="#id21">September</textPath></text><path d="M 81.69416730710424 110.29060199501025 l -22.49042232563107 12.64296406153547 a46.800458070478555,46.800458070478555 0 0,0 -0.38871923504602945,-0.7056383227428603 l 22.704717970128616 -12.253955220394786" fill="red" stroke="none" /><path d="M 81.51974371655577 109.97397251340807 l -22.598530938805744 12.196645055673558 a46.67979266283602,46.67979266283602 0 0,0 -0.3755444708080244,-0.7103886111397718 l 22.805127917838657 -11.805841429447659" fill="red" stroke="none" /><path d="M 81.35079622478065 109.6543875284942 l -22.71145851325383 11.757350311954117 a46.574315907903724,46.574315907903724 0 0,0 -0.3624398409268698,-0.7151281908253426 l 22.91047702396697 -11.364667909426089" fill="red" stroke="none" /><path d="M 81.18737489456691 109.33194174019688 l -23.085850874750932 11.451661539985242 a46.77008076505806,46.77008076505806 0 0,0 -0.35154785412528516,-0.7242927045329755 l 23.279551985490937 -11.052579879486983" fill="red" stroke="none" /><path d="M 80.87730276802145 108.67885076344099 l -23.499395244328355 10.665218503568768 a46.806364768754776,46.806364768754776 0 0,0 -0.3266614308657494,-0.7365352905030804 l 23.679497759925386 -10.259134876572992" fill="red" stroke="none" /><path d="M 80.73074385275274 108.34839909993369 l -24.16806209588042 10.470805219806733 a47.33881142765299,47.33881142765299 0 0,0 -0.3175059591003499,-0.7504902975691254 l 24.344719036173075 -10.053240396571448" fill="red" stroke="none" /><path d="M 80.32549172779594 107.34259656027581 l -25.75939958779672 9.613499671315427 a48.494836661710934,48.494836661710934 0 0,0 -0.28513979972550924,-0.7845822661735622 l 25.921063648527454 -9.168669608135747" fill="red" stroke="none" /><path d="M 80.0844068197444 106.66101706037122 l -24.215287082996525 8.099102995412595 a46.53381283400972,46.53381283400972 0 0,0 -0.2475327373008759,-0.7618274305028359 l 24.35111207131365 -7.681076664931956" fill="red" stroke="none" /><line stroke="#e1ed5e" stroke-width="0.3" x1="15.007084014347285" x2="10.007500721073583" y1="101.09737516637583" y2="101.16192664675087" /><path d="M 14.007167355692545 101.11028546245083 a86.0,86.0 0 0,1 10.666146001902534,-42.60595125391555" fill="none" id="id22" stroke="none" /><text fill="#e1ed5e" style="font-size:6.75px; font-family:Arial;" text-anchor="middle"><textPath startOffset="22.20632615414155" xlink:href="#id22">October</textPath></text><path d="M 79.05617556472873 98.46500227214037 l -25.441945607229506 -1.8646703623840726 a46.510186040904884,46.510186040904884 0 0,0 0.06539225002423515,-0.7979510827911946 l 25.406078873385773 2.3023353623830456" fill="red" stroke="none" /><path d="M 79.21141760316559 97.0276538004421 l -24.60014270851342 -3.517322119057349 a45.85032346204846,45.85032346204846 0 0,0 0.11843380151037229,-0.7803307763069431 l 24.535953013563745 3.940252007756384" fill="red" stroke="none" /><path d="M 79.3925641242962 95.95851677861259 l -26.03358315313728 -5.105646822856117 a47.52951340057058,47.52951340057058 0 0,0 0.16436317752224458,-0.8014932259928488 l 25.94184067970004 5.553015705012368" fill="red" stroke="none" /><path d="M 79.62865764111835 94.90015583598534 l -23.123319415600417 -5.788785220767866 a44.836902800658976,44.836902800658976 0 0,0 0.19387405913687258,-0.7470758360604159 l 23.020249024593237 6.1859574823771455" fill="red" stroke="none" /><path d="M 80.38941819471856 92.48833698450439 l -25.92076539899276 -9.92872402839749 a48.75726282798248,48.75726282798248 0 0,0 0.30695355409394964,-0.7811633141444528 l 25.74601829501712 10.373436347437705" fill="red" stroke="none" /><path d="M 80.803312248108 91.48605970444005 l -38.539932769539604 -17.092880336213963 a63.16032466749708,63.16032466749708 0 0,0 0.44933362691269196,-0.9900470854728229 l 38.23999682566356 17.75374943052886" fill="red" stroke="none" /><path d="M 81.43458229118936 90.18545643968196 l -23.13086779833212 -12.228052886036146 a47.16414192148511,47.16414192148511 0 0,0 0.38560481786807316,-0.7144671642871688 l 22.916954881245573 12.624401033655786" fill="red" stroke="none" /><line stroke="#e1ed5e" stroke-width="0.3" x1="26.266209847984243" x2="21.928928074336255" y1="57.711370442889674" y2="55.22380399835377" /><path d="M 25.398753493254645 57.213857153982495 a86.0,86.0 0 0,1 29.58750427330803,-30.492523968695096" fill="none" id="id23" stroke="none" /><text fill="#e1ed5e" style="font-size:6.75px; font-family:Arial;" text-anchor="middle"><textPath startOffset="21.46611528233685" xlink:href="#id23">November</textPath></text><path d="M 84.07557802195018 86.31012108654704 l -22.406935702469095 -19.262754843544656 a50.54868003375256,50.54868003375256 0 0,0 0.5729046254015865,-0.6549290234123314 l 22.072039213489663 19.64559942315993" fill="red" stroke="none" /><path d="M 84.31358615837235 86.03803664274999 l -19.366767858635082 -17.237725965960703 a46.92703017639731,46.92703017639731 0 0,0 0.5422448713955033,-0.5987603303563378 l 19.067179346623533 17.568539083586597" fill="red" stroke="none" /><path d="M 84.5562425177563 85.77008943001954 l -24.621148465684936 -22.685977891049333 a54.47916582954956,54.47916582954956 0 0,0 0.6413823840407221,-0.6841820082011671 l 24.22699875967376 23.10642931612855" fill="red" stroke="none" /><path d="M 85.83668400450813 84.49514656593479 l -18.963147518213713 -20.75932098189766 a49.116727608791734,49.116727608791734 0 0,0 0.6291361929526941,-0.5648446858825017 l 18.603000337665048 21.08266467654944" fill="red" stroke="none" /><path d="M 88.09926311788651 82.69761687909137 l -14.493487931851071 -21.071962470832943 a46.57515972194318,46.57515972194318 0 0,0 0.6644618671409428,-0.44864761878743364 l 14.12862137030359 21.318322001919043" fill="red" stroke="none" /><path d="M 88.39885842347998 82.49532879139004 l -16.24495450637467 -24.511603927707178 a50.4060754610841,50.4060754610841 0 0,0 0.7273668078816178,-0.4730996048702542 l 15.820620672708763 24.787602456736966" fill="red" stroke="none" /><line stroke="#e1ed5e" stroke-width="0.3" x1="56.762969772571076" x2="54.21961505331055" y1="26.818313649435495" y2="22.513508569990535" /><path d="M 56.25429882871897 25.957352633546506 a86.0,86.0 0 0,1 42.265352541879196,-11.944610805530505" fill="none" id="id24" stroke="none" /><text fill="#e1ed5e" style="font-size:6.75px; font-family:Arial;" text-anchor="middle"><textPath startOffset="22.20632615414155" xlink:href="#id24">December</textPath></text><path d="M 90.26544431104013 81.39251694778311 l -11.81821294596511 -22.590368181768845 a46.49499738819464,46.49499738819464 0 0,0 0.7123465613923546,-0.36489157643571546 l 11.42760589698399 22.790452283517066" fill="red" stroke="none" /><path d="M 90.58718382345135 81.22770947309562 l -11.6431925575149 -23.2204038887863 a46.9759713906859,46.9759713906859 0 0,0 0.7259548798273225,-0.3562229067438381 l 11.241766410677151 23.41738195566497" fill="red" stroke="none" /><path d="M 91.56875222667455 80.76684994638697 l -10.515090946617724 -23.98676061253028 a47.190300156708325,47.190300156708325 0 0,0 0.746766819848797,-0.3197265800892508 l 10.100640368978619 24.164206720582317" fill="red" stroke="none" /><path d="M 91.90106846888425 80.62456947434976 l -10.188180553889216 -24.37363295963884 a47.41728613332261,47.41728613332261 0 0,0 0.7557776442460138,-0.3083006775344587 l 9.767119040054823 24.545394523356876" fill="red" stroke="none" /><path d="M 92.57280143429618 80.3572730644239 l -9.408819431066181 -24.88352361063639 a47.60292522200345,47.60292522200345 0 0,0 0.7689406466776335,-0.28320732952843364 l 8.97909645861598 25.041794207971147" fill="red" stroke="none" /><path d="M 92.91201910852362 80.23233633223022 l -8.823592076137333 -24.60810817258712 a47.14220275645919,47.14220275645919 0 0,0 0.7662134366131866,-0.2673168230391362 l 8.39869663546086 24.756345848798468" fill="red" stroke="none" /><path d="M 93.59665428221793 80.00007090966166 l -8.015824827893391 -25.036275600932242 a47.28818258528549,47.28818258528549 0 0,0 0.7773605869698257,-0.24152971836896384 l 7.5836788682128375 25.17054545418373" fill="red" stroke="none" /><path d="M 93.94186890950719 79.89281104454417 l -7.616784739885077 -25.280425218636736 a47.402941294651825,47.402941294651825 0 0,0 0.7832992541869795,-0.22866653177700227 l 7.180495267974676 25.40779007933244" fill="red" stroke="none" /><path d="M 94.28887869178378 79.79150937346287 l -6.907870519545339 -24.443122306425852 a46.4004902157753,46.4004902157753 0 0,0 0.7704737561568981,-0.21059958237243584 l 6.4860988741647185 24.558408429624585" fill="red" stroke="none" /><path d="M 94.63758080256005 79.69619591428918 l -6.770304721451388 -25.634501071929915 a47.51348093382087,47.51348093382087 0 0,0 0.7925500018453432,-0.20203864233228802 l 6.328045830921045 25.747242710431067" fill="red" stroke="none" /><path d="M 95.33964822691252 79.52364482259891 l -5.778484148910418 -25.389133606470963 a47.03841362960582,47.03841362960582 0 0,0 0.7910456198843563,-0.1728919334851861 l 5.340595804872541 25.484839038052016" fill="red" stroke="none" /><path d="M 96.04723909329186 79.375362276772 l -4.791056887164023 -24.998681919121342 a46.453650500261176,46.453650500261176 0 0,0 0.7866259409749474,-0.1437508627266955 l 4.360035825086182 25.07744826319877" fill="red" stroke="none" /><path d="M 96.40284397218896 79.31037775812273 l -1.4728581156183729 -8.471380666401313 a29.598465062080606,29.598465062080606 0 0,0 0.5027099062267975,-0.0829514419121109 l 1.3268190032526899 8.49547837125305" fill="red" stroke="none" /><path d="M 96.75951476605007 79.25152402106235 l -3.9413946249714344 -25.23632289478212 a46.54225097440431,46.54225097440431 0 0,0 0.7926167937677109,-0.11681111171026784 l 3.506408850775075 25.300428490653356" fill="red" stroke="none" /><path d="M 97.11714578562143 79.19881850522333 l -4.032312259513721 -29.095074851656534 a50.373166713545224,50.373166713545224 0 0,0 0.8599065878678191,-0.1116405545895661 l 3.530890943138044 29.160173729410236" fill="red" stroke="none" /><path d="M 97.47563105711357 79.15227682838746 l -2.8355661107562193 -23.41777238166225 a44.58882147305822,44.58882147305822 0 0,0 0.7627518725896846,-0.08570406022046186 l 2.432047534656817 23.46311239535331" fill="red" stroke="none" /><path d="M 97.83486435360386 79.11191278185805 l -2.645107252502446 -25.51860022422902 a46.65532205569173,46.65532205569173 0 0,0 0.7995275283502931,-0.07592477270105487 l 2.2054545970619164 25.560350541445256" fill="red" stroke="none" /><path d="M 98.19473922651362 79.07773832637324 l -2.1963873090526826 -25.455264243008184 a46.54984530075943,46.54984530075943 0 0,0 0.7989057585742545,-0.06201046273601859 l 1.757891361116094 25.489299967932663" fill="red" stroke="none" /><path d="M 98.55514903715128 79.0497635885617 l -1.8713336716158087 -27.134205418487195 a48.19865793386106,48.19865793386106 0 0,0 0.8281859513111559,-0.049958438260814794 l 1.4039856714650298 27.162397126128315" fill="red" stroke="none" /><path d="M 98.91598698831166 79.02799685794201 l -1.3265406144158927 -25.66409594130976 a46.698356571704096,46.698356571704096 0 0,0 0.8031209327725327,-0.03458407677494845 l 0.8845788492540357 25.683127744608903" fill="red" stroke="none" /><path d="M 99.27714615592234 79.0124445844662 l -0.8796120791597184 -25.538921051312958 a46.55406437095672,46.55406437095672 0 0,0 0.8011142327184204,-0.02069041711390992 l 0.4398712112464189 25.55027826056923" fill="red" stroke="none" /><path d="M 99.63851952072746 79.00311137660856 l -0.7315306327834712 -42.49155376817159 a63.49785028328042,63.49785028328042 0 0,0 1.0930111120559964,-0.009407891717389136 l 1.040897126401256e-14 42.49785028328042" fill="red" stroke="none" /></svg>