<?xml version="1.0" encoding="utf-8" ?>
<svg baseProfile="full" height="200mm" version="1.1" viewBox="0,0,200,200" width="200mm" xmlns="http://www.w3.org/2000/svg" xmlns:ev="http://www.w3.org/2001/xml-events" xmlns:xlink="http://www.w3.org/1999/xlink"><defs /><rect fill="#1a1a1a" height="200" width="200" x="0" y="0" /><text alignment-baseline="middle" fill="#e1ed5e" style="dominant-baseline: central; font-size:9.0px; font-family:Arial;" text-anchor="middle" x="100.0" y="100.0">2024</text><line stroke="#e1ed5e" stroke-width="0.3" x1="100.0" x2="100.0" y1="15.0" y2="10.0" /><path d="M 100.0 14.0 a86.0,86.0 0 0,1 42.35913384403234,11.155469271406648" fill="none" id="id37" stroke="none" /><text fill="#e1ed5e" style="font-size:6.75px; font-family:Arial;" text-anchor="middle"><textPath startOffset="22.145653131862478" xlink:href="#id37">January</textPath></text><path d="M 101.80034050326958 79.07731436759882 l 1.6580199990920612 -19.26870564220307 a40.33990815498506,40.33990815498506 0 0,0 0.6894290785634579,0.06528965053666981 l -1.988548641040532 19.237404236161215" fill="#ffcb12" stroke="none" /><path d="M 102.15924093988457 79.11130261209362 l 1.5076873507140451 -14.58550745444998 a35.66322436748886,35.66322436748886 0 0,0 0.6084215678108045,0.06817490571914789 l -1.7578448201256462 14.55747678822386" fill="#ff890c" stroke="none" /><path d="M 103.23170211078529 79.25015418208739 l 2.3051418562095205 -14.800664314057562 a35.979096872464176,35.979096872464176 0 0,0 0.6094559132080198,0.10028573859320532 l -2.558875272470611 14.758912576968688" fill="#ff8e0d" stroke="none" /><path d="M 103.94208987418118 79.37332000966035 l 1.5933020545556258 -8.336829614798166 a29.487716975914484,29.487716975914484 0 0,0 0.49638150403115394,0.09929020278103637 l -1.7361800441177366 8.308250015354272" fill="#ff2d04" stroke="none" /><path d="M 104.29559338865022 79.4440306129975 l 4.617272652743679 -22.095321114894176 a43.57260334830839,43.57260334830839 0 0,0 0.7308527859533892,0.15928596306511802 l -4.995887855316203 22.01280369369534" fill="#fff617" stroke="none" /><path d="M 106.38641147887787 79.99465700312896 l 4.514630588024694 -14.142016015771766 a35.845150936810086,35.845150936810086 0 0,0 0.5845785314972467,0.19216257450816873 l -4.756731857169684 14.062432519861577" fill="#ff8c0c" stroke="none" /><path d="M 106.72888874123014 80.10723608172694 l 7.463216104188545 -22.063672285438177 a44.291741655295596,44.291741655295596 0 0,0 0.7181467799857798,0.24980872885334593 l -7.840868656219343 21.932305124016242" fill="#feff18" stroke="none" /><path d="M 109.3889696526874 81.21577127319529 l 8.940694224710004 -17.887377583045463 a40.9973570758288,40.9973570758288 0 0,0 0.6268159685112772,0.3200566997624576 l -9.24643741493486 17.731262931610175" fill="#ffd413" stroke="none" /><line stroke="#e1ed5e" stroke-width="0.3" x1="143.13028292997686" x2="145.6673583964461" y1="26.7553504044142" y2="22.446841604673864" /><path d="M 143.63769802327073 25.89364864446614 a86.0,86.0 0 0,1 29.32050498858742,28.57503671076993" fill="none" id="id38" stroke="none" /><text fill="#e1ed5e" style="font-size:6.75px; font-family:Arial;" text-anchor="middle"><textPath startOffset="20.669276256404974" xlink:href="#id38">February</textPath></text><path d="M 113.03279911837588 83.53348406188908 l 12.037093242099232 -15.208474090580061 a40.39559996192013,40.39559996192013 0 0,0 0.5400492176355325,0.43502542164891284 l -12.296393230090024 14.99960037513774" fill="#ffcc13" stroke="none" /><path d="M 117.01052211995028 87.68569379921539 l 12.341186274168715 -8.934067137351214 a36.235564783375416,36.235564783375416 0 0,0 0.36043154188031434,0.506992101733276 l -12.49273291457899 8.720897808908434" fill="#ff910d" stroke="none" /><path d="M 117.42321728460499 88.27688183743584 l 11.905563685147852 -8.010594575793084 a35.34963665459293,35.34963665459293 0 0,0 0.3344337569666561,0.5063753332907007 l -12.041321881035232 7.805039364163325" fill="#ff850c" stroke="none" /><line stroke="#e1ed5e" stroke-width="0.3" x1="172.87174338648825" x2="177.1583165268699" y1="56.24261187166439" y2="53.66864786411523" /><path d="M 173.72905801456457 55.72781907015455 a86.0,86.0 0 0,1 12.242430191666344,42.057860355516425" fill="none" id="id39" stroke="none" /><text fill="#e1ed5e" style="font-size:6.75px; font-family:Arial;" text-anchor="middle"><textPath startOffset="22.145653131862474" xlink:href="#id39">March</textPath></text><path d="M 118.18653347947321 89.5 l 12.655193668007827 -7.306479470871169 a35.612958941742335,35.612958941742335 0 0,0 0.30112729909128977,0.5320630840337969 l -12.778754332120494 7.088159616738254" fill="#ff890c" stroke="none" /><path d="M 118.36410011445183 89.81374322990088 l 28.614459628263095 -15.871958402238505 a53.721649764947486,53.721649764947486 0 0,0 0.44040151587483894,0.8102891857532062 l -28.882706493753275 15.378414383010696" fill="#89ff24" stroke="none" /><path d="M 119.58574465831526 92.42381321644754 l 13.364874108377595 -5.169820415316416 a35.32993032290821,35.32993032290821 0 0,0 0.21394681333560459,0.5675193407832001 l -13.45165160552764 4.939632794339057" fill="#ff840c" stroke="none" /><path d="M 119.94978838288452 93.4421083053983 l 14.101115898213294 -4.6353168794935415 a35.84343734275055,35.84343734275055 0 0,0 0.1871288305044062,0.5861783963068116 l -14.178609444494958 4.392569449495343" fill="#ff8c0c" stroke="none" /><path d="M 120.26092885502905 94.47779374421319 l 38.25290628679682 -10.42599971158495 a60.64828255262048,60.64828255262048 0 0,0 0.26515001473607164,1.0068177940071692 l -38.426245782337624 9.767801413204982" fill="#3cff2e" stroke="none" /><path d="M 120.9064616781168 98.02013634271609 l 14.386656466791612 -1.362431325155499 a35.451024303115744,35.451024303115744 0 0,0 0.052174415850650274,0.6063457989834793 l -14.407924505340004 1.1152644787963577" fill="#ff860c" stroke="none" /><path d="M 120.99303781780057 99.45929381324524 l 62.97911345340172 -1.6221185602642854 a84.0,84.0 0 0,0 0.024754273605335886,1.4418123361237345 l -62.99767915860572 0.5407593081714844" fill="#4dd2ff" stroke="none" /><line stroke="#e1ed5e" stroke-width="0.3" x1="184.99686870605535" x2="189.99668451229388" y1="99.2704041080226" y2="99.22748670261217" /><path d="M 185.99683186730306 99.26182062694052 a86.0,86.0 0 0,1 -10.086455211305974,41.156179273409016" fill="none" id="id40" stroke="none" /><text fill="#e1ed5e" style="font-size:6.75px; font-family:Arial;" text-anchor="middle"><textPath startOffset="21.40746469413373" xlink:href="#id40">April</textPath></text><path d="M 120.9064616781168 101.97986365728391 l 14.74803594799267 1.3966543377500673 a35.81402064472843,35.81402064472843 0 0,0 -0.0632161933767763,0.6115593258126356 l -14.721887362134227 -1.6496181858456342" fill="#ff8b0c" stroke="none" /><path d="M 120.77682067341334 103.0534771498775 l 14.28303403251791 2.0991141394902817 a35.43645875360966,35.43645875360966 0 0,0 -0.09361723121686151,0.6010897808825932 l -14.24489530916278 -2.3439921023043255" fill="#ff860c" stroke="none" /><path d="M 120.65975698304385 103.76489593502545 l 17.037844185722705 3.1048627710902372 a38.318438362747,38.318438362747 0 0,0 -0.1234833713316494,0.6461171779132263 l -16.982034522108894 -3.3968825140367778" fill="#ffaf10" stroke="none" /><path d="M 120.35273937422433 105.17358676015961 l 14.362959795753646 3.6510082141632005 a35.8197326249269,35.8197326249269 0 0,0 -0.15660134522525143,0.5946408152953838 l -14.298168969723664 -3.897029533831388" fill="#ff8c0c" stroke="none" /><path d="M 119.83427380445688 106.89939002012753 l 57.889205695022135 20.136870751254715 a82.29154672263803,82.29154672263803 0 0,0 -0.4755661008133453,1.3302430236991314 l -57.534999424164845 -21.12764873133477" fill="#4be3ff" stroke="none" /><path d="M 119.16976305983485 108.57439118712176 l 13.132898436133992 5.874178426758427 a35.386764525882974,35.386764525882974 0 0,0 -0.25278878178087866,0.5523891093028019 l -13.030125189498056 -6.098756518275918" fill="#ff850c" stroke="none" /><line stroke="#e1ed5e" stroke-width="0.3" x1="174.33088141563837" x2="178.70328620479359" y1="141.23008692659167" y2="143.65538615756765" /><path d="M 175.20536237346943 141.71514677278685 a86.0,86.0 0 0,1 -30.301960400862466,31.631185727798858" fill="none" id="id41" stroke="none" /><text fill="#e1ed5e" style="font-size:6.75px; font-family:Arial;" text-anchor="middle"><textPath startOffset="22.145653131862474" xlink:href="#id41">May</textPath></text><path d="M 117.01052211995028 112.31430620078461 l 11.69042038751861 8.462962821050668 a35.432174768460804,35.432174768460804 0 0,0 -0.3608986011774576,0.4896282650804668 l -11.543419766757324 -8.662397395400014" fill="#ff860c" stroke="none" /><path d="M 116.35404254752997 113.17365903436017 l 11.36358669523505 9.15370105558568 a35.591824615008,35.591824615008 0 0,0 -0.38736308213623755,0.4725199758500785 l -11.204776793860184 -9.34742331313425" fill="#ff880c" stroke="none" /><path d="M 116.1254893667686 113.45245675266167 l 11.68988143388247 9.752114857185234 a36.22356962495863,36.22356962495863 0 0,0 -0.40243598679435244,0.47406858053285167 l -11.520750883581002 -9.951350220167642" fill="#ff910d" stroke="none" /><path d="M 115.16444852881244 114.52719865689866 l 10.389952614586973 9.95333957453768 a35.38819252093259,35.38819252093259 0 0,0 -0.42400649150871106,0.4350680132210957 l -10.217559321927455 -10.130230279826513" fill="#ff850c" stroke="none" /><path d="M 114.91283532996324 114.78537596483092 l 16.351461625116762 16.211706382628737 a44.02584897705688,44.02584897705688 0 0,0 -0.5367130029173564,0.5321257398586219 l -16.070756702069442 -16.49001213271602" fill="#fffc17" stroke="none" /><path d="M 114.65682725009322 115.03919595460226 l 10.14800024437636 10.412742240757261 a35.53984559520194,35.53984559520194 0 0,0 -0.4405714122156933,0.4220574467740963 l -9.967756346295355 -10.585411817836938" fill="#ff870c" stroke="none" /><path d="M 113.59037401385872 116.0094264158162 l 9.53326640849026 11.230163858144108 a35.73091133284071,35.73091133284071 0 0,0 -0.47101111051028194,0.39293422047832577 l -9.339080963818082 -11.392160262534304" fill="#ff8a0c" stroke="none" /><path d="M 113.03279911837588 116.46651593811092 l 15.00294141650208 18.955726372322268 a45.17452819496892,45.17452819496892 0 0,0 -0.6122010228611209,0.4760512182415929 l -14.67533044900573 -19.21047864218465" fill="#f3ff19" stroke="none" /><path d="M 112.45986205192187 116.90419585922612 l 22.531220022826243 30.567927207061196 a58.97438675545924,58.97438675545924 0 0,0 -0.8200781349592409,0.5936733270880907 l -22.003160877493038 -30.950201305522363" fill="#4eff2b" stroke="none" /><path d="M 112.16784306229584 117.11559508785304 l 3.226735311439463 4.53880731067342 a26.568895094497005,26.568895094497005 0 0,0 -0.3739950386677507,0.261077582908539 l -3.1483451815979535 -4.593529709387081" fill="#ff0000" stroke="none" /><path d="M 111.5731344415666 117.5232005979908 l 8.031190467548845 12.160245982978456 a35.572975080353054,35.572975080353054 0 0,0 -0.5124445745319122,0.33216038203188186 l -7.821260260759923 -12.296320206714231" fill="#ff880c" stroke="none" /><path d="M 110.96478420261333 117.91015095944535 l 13.348674993056786 21.80405740928664 a46.56568097230596,46.56568097230596 0 0,0 -0.6853298408160204,0.4115208782843208 l -12.972412395683328 -22.029992288106882" fill="#e1ff1b" stroke="none" /><line stroke="#e1ed5e" stroke-width="0.3" x1="143.1302829299769" x2="145.66735839644613" y1="173.24464959558577" y2="177.55315839532614" /><path d="M 143.63769802327073 174.10635135553383 a86.0,86.0 0 0,1 -40.68552437913181,11.842963189579606" fill="none" id="id42" stroke="none" /><text fill="#e1ed5e" style="font-size:6.75px; font-family:Arial;" text-anchor="middle"><textPath startOffset="21.407464694133747" xlink:href="#id42">June</textPath></text><path d="M 110.65571695917076 118.09573695890943 l 21.93858746308271 37.25651774565034 a64.23597731527863,64.23597731527863 0 0,0 -0.9549979024846935,0.5513682960750679 l -21.295797092737615 -37.62763293900158" fill="#33ff4e" stroke="none" /><path d="M 109.06512990194946 118.94263497670748 l 6.30666153073215 13.178497008918914 a35.60981735263318,35.60981735263318 0 0,0 -0.5536670125051912,0.25914411813878135 l -6.079505804355452 -13.28481735862823" fill="#ff880c" stroke="none" /><path d="M 107.06938296918513 119.77432235084164 l 3.5716265261040867 9.990475060108386 a31.609717619645586,31.609717619645586 0 0,0 -0.5125203046083855,0.17828116671119368 l -3.3996004494506793 -10.05031465938817" fill="#ff4e07" stroke="none" /><path d="M 106.72888874123015 119.89276391827305 l 4.663572061279067 13.787022136721864 a35.554411144708034,35.554411144708034 0 0,0 -0.5798370187326902,0.19060394508404807 l -4.426212304898644 -13.865047003207932" fill="#ff880c" stroke="none" /><path d="M 106.38641147887787 120.00534299687104 l 8.747764461303284 27.40224758191741 a49.76467548245833,49.76467548245833 0 0,0 -0.8160443883089687,0.25281263748398486 l -8.27607944012269 -27.54837680720804" fill="#b9ff1f" stroke="none" /><path d="M 105.69591212413111 120.21278271476187 l 3.8182847446229853 13.549745537538058 a35.0774607981359,35.0774607981359 0 0,0 -0.5809806320750371,0.15834885477816724 l -3.585122711613253 -13.613294886460366" fill="#ff810b" stroke="none" /><path d="M 104.64783097203109 120.47920084513623 l 4.488119659282051 19.77548333244914 a41.27838650159346,41.27838650159346 0 0,0 -0.6923713860563125,0.15089912106286266 l -4.147985856606603 -19.849613911645722" fill="#ffd814" stroke="none" /><path d="M 103.94208987418118 120.62667999033965 l 5.384759415105237 28.175336642575886 a49.68527895769961,49.68527895769961 0 0,0 -0.8391258428629802,0.15291668132217714 l -4.900298838691199 -28.263621497829426" fill="#baff1f" stroke="none" /><path d="M 103.58742460773223 120.69131181640829 l 3.244699511814716 18.714564538806105 a39.993762154957864,39.993762154957864 0 0,0 -0.6774609969553882,0.11147594924486152 l -2.922961011806256 -18.767506486546637" fill="#ffc612" stroke="none" /><path d="M 102.51750503828377 120.84855314841334 l 2.003467872199605 16.591588012537645 a37.71211166467957,37.71211166467957 0 0,0 -0.6433759849655432,0.07209162106927403 l -1.7183559856332626 -16.62353539411389" fill="#ffa60f" stroke="none" /><line stroke="#e1ed5e" stroke-width="0.3" x1="101.45913802915013" x2="101.54496967792366" y1="184.9874750549273" y2="189.98673829345242" /><path d="M 101.47630435890484 185.9873277026323 a86.0,86.0 0 0,1 -42.54439059252881,-10.42667462771756" fill="none" id="id43" stroke="none" /><text fill="#e1ed5e" style="font-size:6.75px; font-family:Arial;" text-anchor="middle"><textPath startOffset="22.145653131862474" xlink:href="#id43">July</textPath></text><path d="M 97.12497278360702 120.80226474461374 l -2.536354017738593 18.35179418901582 a39.5262365757132,39.5262365757132 0 0,0 -0.6713341074461032,-0.0986629951349211 l 2.8510132307923812 -18.305550120582016" fill="#ffc011" stroke="none" /><path d="M 95.70440661134978 120.55596938700252 l -2.918715003336792 13.967107877691532 a35.268812134784596,35.268812134784596 0 0,0 -0.5915714835747715,-0.1289302514734866 l 3.1580489035307 -13.914946168084327" fill="#ff840c" stroke="none" /><path d="M 95.35216902796893 120.47920084513623 l -3.6292815565164576 15.991284185399211 a37.39795275376379,37.39795275376379 0 0,0 -0.6248447208214538,-0.1474616527498966 l 3.9032584310777994 -15.926626389003088" fill="#ffa20f" stroke="none" /><path d="M 95.00130118170881 120.39639698878247 l -5.283498362911652 21.558476318916863 a43.19646945223923,43.19646945223923 0 0,0 -0.7186960846649529,-0.18268973428265572 l 5.652799740801983 -21.464601352798944" fill="#fff116" stroke="none" /><line stroke="#e1ed5e" stroke-width="0.3" x1="58.13341422392154" x2="55.67067388415222" y1="173.97424548756322" y2="178.32567169271397" /><path d="M 57.64086615596768 174.84453072859336 a86.0,86.0 0 0,1 -31.369924170532247,-30.572349798747897" fill="none" id="id44" stroke="none" /><text fill="#e1ed5e" style="font-size:6.75px; font-family:Arial;" text-anchor="middle"><textPath startOffset="22.145653131862474" xlink:href="#id44">August</textPath></text><path d="M 89.03521579738668 117.91015095944536 l -15.098753746782533 24.662679529973314 a49.91747095276737,49.91747095276737 0 0,0 -0.7269787246406583,-0.45368849128976824 l 15.519896600212904 -24.399855241841998" fill="#b7ff1f" stroke="none" /><path d="M 88.72937992617639 117.7192867562869 l -11.948781451951534 18.785469082314926 a43.26358521957124,43.26358521957124 0 0,0 -0.6232312442377893,-0.40397096284866135 l 12.269498328446332 -18.57758427776237" fill="#fff216" stroke="none" /><path d="M 84.83555147118756 114.52719865689866 l -20.88817901632053 20.010402987909643 a49.926324522074985,49.926324522074985 0 0,0 -0.5875714213629281,-0.6239804878286381 l 21.22860627141971 -19.648881040136516" fill="#b7ff1f" stroke="none" /><path d="M 84.3458050057657 113.99807769240083 l -21.681786398272035 19.387987093864403 a50.08597436862219,50.08597436862219 0 0,0 -0.5676146547897905,-0.6458412815657527 l 22.01141211702042 -19.01293353448735" fill="#b5ff20" stroke="none" /><line stroke="#e1ed5e" stroke-width="0.3" x1="26.387840678322732" x2="22.057713659400548" y1="142.50000000000003" y2="145.00000000000006" /><path d="M 25.521815274538298 143.00000000000003 a86.0,86.0 0 0,1 -11.493303480769221,-40.785679425670985" fill="none" id="id45" stroke="none" /><text fill="#e1ed5e" style="font-size:6.75px; font-family:Arial;" text-anchor="middle"><textPath startOffset="21.40746469413373" xlink:href="#id45">September</textPath></text><path d="M 80.83023694016515 108.57439118712176 l -28.163228777976947 12.597054010580981 a51.852118645988696,51.852118645988696 0 0,0 -0.35646138467223704,-0.8156534072025236 l 28.375324044666154 -12.111738533602608" fill="#9fff22" stroke="none" /><path d="M 80.68587082218212 108.24405325689762 l -26.576026008027167 11.343725194636269 a49.895765428013185,49.895765428013185 0 0,0 -0.3294882443778739,-0.7906518405231628 l 26.766840096941525 -10.885840844671824" fill="#b7ff1f" stroke="none" /><path d="M 79.34024301695615 103.76489593502545 l -35.920548691098695 6.545920547951994 a57.51211982465127,57.51211982465127 0 0,0 -0.16866163789569702,-0.9727955072962778 l 36.02762514648663 -5.928332007735123" fill="#5eff29" stroke="none" /><path d="M 79.2786578344484 103.40968896794605 l -42.447804083998435 6.984770008738077 a64.01863646872691,64.01863646872691 0 0,0 -0.16912659174417424,-1.0859140422283233 l 42.56145216788087 -6.255067784578304" fill="#32ff4b" stroke="none" /><line stroke="#e1ed5e" stroke-width="0.3" x1="15.003131293944662" x2="10.003315487706104" y1="100.72959589197737" y2="100.7725132973878" /><path d="M 14.003168132696942 100.73817937305945 a86.0,86.0 0 0,1 10.791469493833604,-42.45332614584628" fill="none" id="id46" stroke="none" /><text fill="#e1ed5e" style="font-size:6.75px; font-family:Arial;" text-anchor="middle"><textPath startOffset="22.145653131862435" xlink:href="#id46">October</textPath></text><path d="M 79.407916724674 95.88100663000787 l -42.069315554530895 -8.415041330803685 a63.90268327069799,63.90268327069799 0 0,0 0.22439667375460517,-1.0738193164261156 l 41.918661169951925 9.135977098515209" fill="#32ff4a" stroke="none" /><path d="M 79.94057633289273 93.78553927170692 l -19.25855261625607 -5.96634882953984 a41.16157650653477,41.16157650653477 0 0,0 0.21489338758810064,-0.6731504759249974 l 19.15329451289071 6.296068339156229" fill="#ffd614" stroke="none" /><path d="M 80.9802524753101 91.09779779509293 l -54.97075980954818 -25.72909122724831 a81.6940735938782,81.6940735938782 0 0,0 0.6053948739503551,-1.2650424470525659 l 54.52098567763792 26.668946176365967" fill="#4ae9ff" stroke="none" /><line stroke="#e1ed5e" stroke-width="0.3" x1="26.387840678322718" x2="22.05771365940052" y1="57.49999999999999" y2="54.99999999999999" /><path d="M 25.521815274538284 56.99999999999999 a86.0,86.0 0 0,1 29.574782752854787,-30.34633250058573" fill="none" id="id47" stroke="none" /><text fill="#e1ed5e" style="font-size:6.75px; font-family:Arial;" text-anchor="middle"><textPath startOffset="21.40746469413373" xlink:href="#id47">November</textPath></text><path d="M 81.99639281039701 89.18935116829357 l -29.170725920443726 -17.51618277219408 a55.02569484425786,55.02569484425786 0 0,0 0.4932189784662402,-0.8056361344793517 l 28.865738977522092 18.01435602279798" fill="#7aff26" stroke="none" /><path d="M 82.576782715395 88.27688183743585 l -26.26100442906381 -17.669575771264626 a52.65208147278423,52.65208147278423 0 0,0 0.511001646770939,-0.7455666741080286 l 25.953813045477556 18.11777718044269" fill="#96ff23" stroke="none" /><path d="M 82.98947788004972 87.6856937992154 l -13.394025076210895 -9.69624123741654 a37.535325877536955,37.535325877536955 0 0,0 0.38232049521278005,-0.5186911785332566 l 13.225602561414295 9.924738725218662" fill="#ffa40f" stroke="none" /><path d="M 83.64595745247003 86.82634096563983 l -47.16070858172785 -37.989328502043115 a81.55841406416457,81.55841406416457 0 0,0 0.887639759629413,-1.0827761785418395 l 46.50162200285981 38.793306962283445" fill="#4aeaff" stroke="none" /><path d="M 86.13680546590413 84.22622945171909 l -19.450227405549672 -22.130788358517012 a50.463250660731035,50.463250660731035 0 0,0 0.6555909665770674,-0.5662838625288255 l 19.067456959209757 22.46141635351055" fill="#b0ff20" stroke="none" /><path d="M 88.12776184653039 82.6780497279521 l -13.951759515703257 -20.356034086795635 a45.678324848473856,45.678324848473856 0 0,0 0.6505979293185742,-0.4377513221085999 l 13.600265298287693 20.592535082961344" fill="#ecff1a" stroke="none" /><line stroke="#e1ed5e" stroke-width="0.3" x1="56.869717070023135" x2="54.33264160355391" y1="26.7553504044142" y2="22.446841604673864" /><path d="M 56.362301976729285 25.89364864446614 a86.0,86.0 0 0,1 42.16139366436587,-11.88097634709845" fill="none" id="id48" stroke="none" /><text fill="#e1ed5e" style="font-size:6.75px; font-family:Arial;" text-anchor="middle"><textPath startOffset="22.145653131862474" xlink:href="#id48">December</textPath></text><path d="M 89.34428304082924 81.90426304109057 l -24.835628173146873 -42.17632622493388 a69.94538712265796,69.94538712265796 0 0,0 1.0398798427673344,-0.6003749071465829 l 24.10795586251914 42.59644802935664" fill="#3aff94" stroke="none" /><path d="M 90.61103034731259 81.2157712731953 l -9.91241165926411 -19.83146337985741 a43.17076554134612,43.17076554134612 0 0,0 0.6657338072417084,-0.32564376546843093 l 9.570517602760349 19.998700895423056" fill="#fff116" stroke="none" /><path d="M 91.26138138417902 80.90454125486306 l -21.653879309373032 -47.31763419400133 a73.03699640507912,73.03699640507912 0 0,0 1.1445474577425663,-0.5119415197923208 l 20.83841844877485 47.682379464703494" fill="#3effb8" stroke="none" /><path d="M 93.61358852112211 79.99465700312896 l -12.894217149356155 -40.390951569930714 a63.399172216202984,63.399172216202984 0 0,0 1.0396237533730988,-0.3220780962980415 l 12.19895276311144 40.6063462540354" fill="#31ff43" stroke="none" /><path d="M 95.35216902796891 79.52079915486377 l -5.528181640801535 -24.358188327338347 a45.97763261087362,45.97763261087362 0 0,0 0.7711928666870542,-0.16807789590478872 l 5.109226357495363 24.44949768137685" fill="#e8ff1a" stroke="none" /><path d="M 96.05791012581881 79.37332000966035 l -8.066336257016609 -42.20647980597219 a63.97037023604985,63.97037023604985 0 0,0 1.0803842097432066,-0.19688199250679983 l 7.3406173137223645 42.33872997241035" fill="#32ff4a" stroke="none" /><path d="M 96.41257539226777 79.30868818359171 l -4.936451343589389 -28.472139538927923 a49.896907824052875,49.896907824052875 0 0,0 0.8452120305287025,-0.13907931798260037 l 4.446961810007614 28.55268485540619" fill="#b7ff1f" stroke="none" /><path d="M 97.48249496171623 79.15144685158666 l -3.6616802583225825 -30.323965321704748 a51.54424291329123,51.54424291329123 0 0,0 0.879354843571413,-0.09853354438085873 l 3.1405895131503705 30.382354626592576" fill="#a3ff21" stroke="none" /></svg>