<?xml version="1.0" encoding="utf-8" ?>
<svg baseProfile="full" height="200mm" version="1.1" viewBox="0,0,200,200" width="200mm" xmlns="http://www.w3.org/2000/svg" xmlns:ev="http://www.w3.org/2001/xml-events" xmlns:xlink="http://www.w3.org/1999/xlink"><defs /><rect fill="#1a1a1a" height="200" width="200" x="0" y="0" /><rect fill="#1a1a1a" height="200" width="180" x="10" y="0" /><text alignment-baseline="middle" fill="#e1ed5e" style="dominant-baseline: central; font-size:9.0px; font-family:Arial;" text-anchor="middle" x="100.0" y="100.0">2026</text><line stroke="#e1ed5e" stroke-width="0.3" x1="100.0" x2="100.0" y1="15.0" y2="10.0" /><path d="M 100.0 14.0 a86.0,86.0 0 0,1 42.46469731375804,11.215312516191453" fill="none" id="id61" stroke="none" /><text fill="#e1ed5e" style="font-size:6.75px; font-family:Arial;" text-anchor="middle"><textPath startOffset="22.20632615414155" xlink:href="#id61">January</textPath></text><path d="M 100.36148047927253 79.00311137660856 l 0.0414928013495615 -2.4101432264407743 a23.410500368081735,23.410500368081735 0 0,0 0.40285387094216585,0.01040452695174633 l -0.08297330748659514 2.409071907346668" fill="#ff0000" stroke="none" /><path d="M 101.08401301168833 79.027996857942 l 0.6071652954128218 -11.74660483393473 a32.762286122203136,32.762286122203136 0 0,0 0.5629464856983902,0.03395846935749512 l -0.809273829950824 11.734413095196931" fill="#ff860c" stroke="none" /><path d="M 101.44485096284872 79.0497635885617 l 0.8408931396203219 -12.192890841189765 a33.22185290115332,33.22185290115332 0 0,0 0.5701657958636583,0.04425583926300778 l -1.0506491248463214 12.176609739738293" fill="#ff8c0c" stroke="none" /><path d="M 101.80526077348638 79.07773832637324 l 1.0096323693686884 -11.701241691138373 a32.744718584781495,32.744718584781495 0 0,0 0.5611429256744742,0.05328728226850628 l -1.2109004221334068 11.68212886435469" fill="#ff860c" stroke="none" /><path d="M 102.16513564639614 79.11191278185805 l 1.2177348454489316 -11.748063777272503 a32.811006759319156,32.811006759319156 0 0,0 0.5612764818721384,0.06306595254807568 l -1.4197780308307952 11.725361871253826" fill="#ff870c" stroke="none" /><path d="M 102.88285421437855 79.19881850522331 l 1.729796132492634 -12.481312139017904 a33.600609007963946,33.600609007963946 0 0,0 0.5722200027493447,0.08433035382239681 l -1.9443851156706344 12.449687301034539" fill="#ff910d" stroke="none" /><path d="M 103.2404852339499 79.25152402106235 l 2.634055389713044 -16.865571368160484 a38.07002476186227,38.07002476186227 0 0,0 0.6465936168631474,0.10669348701031525 l -2.923978212715067 16.817731618210544" fill="#ffcd13" stroke="none" /><path d="M 103.59715602781102 79.31037775812273 l 2.1159481722920366 -12.1702167016517 a33.352789613402635,33.352789613402635 0 0,0 0.5647816529216414,0.10321023707795512 l -2.3251249463165786 12.131990983223007" fill="#ff8e0d" stroke="none" /><path d="M 103.95276090670814 79.375362276772 l 2.5707892086158366 -13.4138131149051 a34.65794052691458,34.65794052691458 0 0,0 0.5849494429251982,0.11733535533214384 l -2.80130506100816 13.367573803495748" fill="#ffa00e" stroke="none" /><path d="M 104.307194497241 79.44645832069477 l 2.2655360709660917 -10.810932752258642 a32.04576482923238,32.04576482923238 0 0,0 0.5389140480718282,0.11778573752432524 l -2.451292843191448 10.770333516638447" fill="#ff7c0b" stroke="none" /><path d="M 104.66035177308747 79.52364482259891 l 2.442404002167087 -10.731278296176047 a32.00571084391103,32.00571084391103 0 0,0 0.5361357598483144,0.12688601250442486 l -2.626763448977925 10.687646371530754" fill="#ff7c0b" stroke="none" /><path d="M 106.40334571778207 80.00007090966166 l 3.59507001031254 -11.228683948983653 a32.790159948245474,32.790159948245474 0 0,0 0.5360678653167311,0.17673314692789815 l -3.7878206978716884 11.165137077796517" fill="#ff860c" stroke="none" /><path d="M 106.74666289553966 80.11325718540242 l 3.8261240799163234 -11.278041712197997 a32.90938496888036,32.90938496888036 0 0,0 0.5348840630994509,0.18661054689150727 l -4.019690147079048 11.210510312134282" fill="#ff880c" stroke="none" /><path d="M 107.08798089147638 80.2323363322302 l 4.125708644585794 -11.506185206489015 a33.22349253797934,33.22349253797934 0 0,0 0.5366664699259768,0.19765878998838543 l -4.323157440284347 11.433463148694305" fill="#ff8c0c" stroke="none" /><path d="M 107.76421540070413 80.48803036053334 l 4.504949259700942 -11.321225474328148 a33.184609721819434,33.184609721819434 0 0,0 0.5289249597765228,0.21576177160766688 l -4.699158089065852 11.242002816536901" fill="#ff8c0c" stroke="none" /><path d="M 108.09893153111575 80.62456947434976 l 9.253418168272585 -22.137359743730965 a44.993508376647995,44.993508376647995 0 0,0 0.7120035060741731,0.30484274335426675 l -9.633105432137073 21.974797472413908" fill="#dbff1b" stroke="none" /><path d="M 108.43124777332544 80.76684994638697 l 4.804985541418001 -10.96101198874901 a32.9679434269525,32.9679434269525 0 0,0 0.5177817742659292,0.23231358913667272 l -4.992949434150711 10.876678069095806" fill="#ff890c" stroke="none" /><path d="M 108.76106565485865 80.91482961587045 l 5.0138616974087915 -10.922233498437544 a33.01806946706226,33.01806946706226 0 0,0 0.5144872262117258,0.2415586512269381 l -5.201127134920115 10.834309864570603" fill="#ff890c" stroke="none" /><path d="M 109.08828744355905 81.06846463323043 l 5.1615925675501355 -10.751956608797961 a32.926718272469714,32.926718272469714 0 0,0 0.50884124583186,0.2496861894564258 l -5.345905080392427 10.661515259206704" fill="#ff880c" stroke="none" /><path d="M 109.41281617654863 81.2277094730956 l 5.320287404136176 -10.610425080424218 a32.8695652173913,32.8695652173913 0 0,0 0.5035922802958608,0.2579595255978252 l -5.502140172020791 10.517273029513893" fill="#ff870c" stroke="none" /><line stroke="#e1ed5e" stroke-width="0.3" x1="143.23703022742887" x2="145.7803849466894" y1="26.81831364943548" y2="22.513508569990506" /><path d="M 143.74570117128098 25.957352633546492 a86.0,86.0 0 0,1 28.547481713284135,27.462654790039103" fill="none" id="id62" stroke="none" /><text fill="#e1ed5e" style="font-size:6.75px; font-family:Arial;" text-anchor="middle"><textPath startOffset="19.985693538727396" xlink:href="#id62">February</textPath></text><path d="M 110.99172775467656 82.1063720568725 l 6.632258511800734 -10.796770888208279 a33.67111339148281,33.67111339148281 0 0,0 0.49124686959295916,0.3076187446720366 l -6.8171245337659565 10.681007802213298" fill="#ff920d" stroke="none" /><path d="M 111.2981086023043 82.29822771554956 l 6.377948273041052 -9.992910490199222 a32.85480848595712,32.85480848595712 0 0,0 0.4740995396565456,0.308367528529277 l -6.549014838481877 9.881644037510418" fill="#ff870c" stroke="none" /><path d="M 111.60114157652 82.49532879139004 l 7.262003551608178 -10.957454802891114 a34.14543690186718,34.14543690186718 0 0,0 0.4871339334874781,0.3289150064097683 l -7.449542179502198 10.830827884182677" fill="#ff990e" stroke="none" /><path d="M 112.19680574252982 82.90503203632743 l 6.896295499367808 -9.665805385308964 a32.873781426372496,32.873781426372496 0 0,0 0.457813873681165,0.33262124914023855 l -7.061654689402761 9.545664901352051" fill="#ff870c" stroke="none" /><path d="M 116.82858285166822 87.43820079747576 l 9.552164462695956 -7.130271930056172 a32.919925491333345,32.919925491333345 0 0,0 0.33505804146493634,0.45701879201237267 l -9.673485116674518 6.964790694372306" fill="#ff880c" stroke="none" /><path d="M 117.04232023915458 87.72973835380427 l 9.714734625808484 -6.994489835260883 a32.97075423293997,32.97075423293997 0 0,0 0.3276466820934419,0.4634329958874874 l -9.83369392770581 6.826230339041603" fill="#ff890c" stroke="none" /><path d="M 117.45458315368197 88.32363383020206 l 9.80450183616374 -6.558790464575191 a32.79601579405269,32.79601579405269 0 0,0 0.3098495181140329,0.4719220736412202 l -9.915947989635697 6.389050326956297" fill="#ff860c" stroke="none" /><path d="M 117.65298651832404 88.62581576622439 l 19.963032225520344 -12.862594448943428 a44.748031320409574,44.748031320409574 0 0,0 0.411623084448799,0.6510888681004534 l -20.1814829062151 12.517057933128768" fill="#deff1b" stroke="none" /><line stroke="#e1ed5e" stroke-width="0.3" x1="172.23445277983987" x2="176.4835382374775" y1="55.19839476539836" y2="52.563006222186495" /><path d="M 173.08426987136738 54.67131705675599 a86.0,86.0 0 0,1 12.851231095245387,41.99856678651699" fill="none" id="id63" stroke="none" /><text fill="#e1ed5e" style="font-size:6.75px; font-family:Arial;" text-anchor="middle"><textPath startOffset="22.20632615414155" xlink:href="#id63">March</textPath></text><path d="M 118.03404312379186 89.2402003453031 l 10.093584780475508 -6.022218605673315 a32.75361947040845,32.75361947040845 0 0,0 0.2847074457334945,0.4866573140330353 l -10.19575190067933 5.847581879286384" fill="#ff860c" stroke="none" /><path d="M 118.21658344932153 89.55222093294921 l 10.21383559942105 -5.857953444826881 a32.77446628148214,32.77446628148214 0 0,0 0.2764641077373033,0.49179879897052853 l -10.313157348450785 5.681271135921559" fill="#ff860c" stroke="none" /><path d="M 118.3937258080291 89.86733742301442 l 10.763696330252284 -5.929462259787312 a33.28884377718785,33.28884377718785 0 0,0 0.27216308871071243,0.5042768689713524 l -10.86416751818146 5.7433044074835005" fill="#ff8d0d" stroke="none" /><path d="M 118.73160827565052 90.50648371742162 l 10.48045747343321 -5.311684517887625 a32.74963749525955,32.74963749525955 0 0,0 0.25051911157233686,0.505031242046432 l -10.570336597958955 5.130493687342242" fill="#ff860c" stroke="none" /><path d="M 119.04729006885535 91.15688171328212 l 31.898379021662716 -14.809515570110454 a56.16857028130367,56.16857028130367 0 0,0 0.39959305997657973,0.8804503395910931 l -32.14857439860264 14.258243221677299" fill="#5dff2a" stroke="none" /><path d="M 119.196687751892 91.48605970444005 l 10.75566086457982 -4.770252849025889 a32.76603386351975,32.76603386351975 0 0,0 0.22422778418081468,0.5175486410016116 l -10.836179358603315 4.584405063437675" fill="#ff860c" stroke="none" /><path d="M 119.34039704204932 91.81776055985345 l 10.95676831109295 -4.635421993491459 a32.89697057576907,32.89697057576907 0 0,0 0.21614611936185787,0.5234149725911376 l -11.034936117341005 4.446132450447019" fill="#ff880c" stroke="none" /><path d="M 119.47837535516314 92.15188598940014 l 10.89958211365721 -4.391596400425783 a32.75104289825328,32.75104289825328 0 0,0 0.20618567234524818,0.5247200463722939 l -10.97356133588416 4.203327349157705" fill="#ff860c" stroke="none" /><path d="M 119.7369772167798 92.82701384747503 l 11.216222948420748 -4.076298564313856 a32.93397952127066,32.93397952127066 0 0,0 0.18905189371247624,0.5344751615269671 l -11.284727922943034 3.8826257763602743" fill="#ff880c" stroke="none" /><path d="M 119.97218684219823 93.5106431181261 l 47.28886504005747 -15.36508366401438 a70.72245521672207,70.72245521672207 0 0,0 0.3662228180603402,1.1610264126609504 l -47.54634334188602 14.54880708492701" fill="#3cffa5" stroke="none" /><path d="M 120.18372546131832 94.20196356495316 l 11.323318976598113 -3.2527699664660936 a32.78125906261851,32.78125906261851 0 0,0 0.15112664546441784,0.5436829519621462 l -11.377632392628893 3.0573757110849953" fill="#ff860c" stroke="none" /><path d="M 120.28053869075195 94.5502522615342 l 12.428599251410805 -3.339789524109647 a33.869509447431234,33.869509447431234 0 0,0 0.14645122359905685,0.5643363057411033 l -12.484246806880165 3.125356792819693" fill="#ff950d" stroke="none" /><path d="M 120.45610955862082 95.25157060432595 l 11.477955153662087 -2.6643511806431754 a32.78313293327682,32.78313293327682 0 0,0 0.12286745588129722,0.5507907128288375 l -11.52211699654542 2.466382298264374" fill="#ff860c" stroke="none" /><path d="M 120.73433829027371 96.67025291283417 l 11.629675589094788 -1.8676206530129271 a32.77868249046334,32.77868249046334 0 0,0 0.0846690640920023,0.5578633436528435 l -11.66010054662609 1.6671581969680016" fill="#ff860c" stroke="none" /><path d="M 120.78858239683441 97.02765380044208 l 12.090693688158213 -1.7287242943265015 a33.21365471702322,33.21365471702322 0 0,0 0.07604978117647847,0.5666592037193743 l -12.118659468392528 1.5203467485424629" fill="#ff8c0c" stroke="none" /><path d="M 120.98425023603335 99.18683210126433 l 11.898814656894588 -0.46109505954029 a32.90774533205434,32.90774533205434 0 0,0 0.01706236123577274,0.566216703305089 l -11.904988712586006 0.2562082088102019" fill="#ff880c" stroke="none" /><line stroke="#e1ed5e" stroke-width="0.3" x1="184.98032266829074" x2="189.97916517819016" y1="98.17113171792111" y2="98.06355123074" /><path d="M 185.9800911702706 98.14961562048488 a86.0,86.0 0 0,1 -9.607161424134198,41.387399972396054" fill="none" id="id64" stroke="none" /><text fill="#e1ed5e" style="font-size:6.75px; font-family:Arial;" text-anchor="middle"><textPath startOffset="21.466115282336823" xlink:href="#id64">April</textPath></text><path d="M 120.99513854157772 99.54816195383933 l 14.187771527667314 -0.30533615930849745 a35.19105672920338,35.19105672920338 0 0,0 0.007820781489298117,0.6057281451497327 l -14.190925316274328 0.06107175609830197" fill="#ffa70f" stroke="none" /><path d="M 120.95626037817324 101.35467743843564 l 14.207313249221981 0.9184046376687788 a35.23696656033194,35.23696656033194 0 0,0 -0.04433723422636315,0.6049463349221269 l -14.18939945633128 -1.1628241090876759" fill="#ffa70f" stroke="none" /><path d="M 120.92983693683757 101.71520430193887 l 12.107247899907088 0.9921913746977681 a33.14783501015013,33.14783501015013 0 0,0 -0.05149816665462117,0.56827797776073 l -12.088375136975392 -1.2004507410070686" fill="#ff8b0c" stroke="none" /><path d="M 120.89721153311464 102.0752229133903 l 14.01857132125855 1.392131211993138 a35.08752537533183,35.08752537533183 0 0,0 -0.0648579514806582,0.6005040798026178 l -13.992531068276842 -1.6332316136805474" fill="#ffa50f" stroke="none" /><path d="M 120.81339534386255 102.79330883721812 l 11.691893609910872 1.569137048752045 a32.796718495549555,32.796718495549555 0 0,0 -0.07990834406505598,0.558878772276965 l -11.663151214829215 -1.7701612930094193" fill="#ff860c" stroke="none" /><path d="M 120.76222939487914 103.15116336523771 l 8.721831524192323 1.3237458971332279 a29.821714591652352,29.821714591652352 0 0,0 -0.08139658868247042,0.5068566354248547 l -8.697753181148563 -1.4736817622512874" fill="#ff5d08" stroke="none" /><path d="M 120.70491114924044 103.5080841355445 l 48.99004514020034 8.30050411311475 a70.68825707720791,70.68825707720791 0 0,0 -0.2135914950662316,1.1979345351013415 l -48.83990720279492 -9.142557398949311" fill="#3cffa5" stroke="none" /><path d="M 120.5718875245553 104.21870165774334 l 11.494043655386527 2.3570973234844983 a32.73324112699935,32.73324112699935 0 0,0 -0.11794248359709524,0.550988018291075 l -11.451767133064989 -2.5545991611917422" fill="#ff860c" stroke="none" /><path d="M 120.32669344350535 105.2749913415812 l 11.542507453196254 2.9954024271075372 a32.924844401811406,32.924844401811406 0 0,0 -0.14708299949912357,0.5473505573550788 l -11.489236377355354 -3.1936439176381644" fill="#ff880c" stroke="none" /><path d="M 120.23288151984713 105.62410040840565 l 12.30325475514205 3.4199152515788604 a33.7697258348763,33.7697258348763 0 0,0 -0.16049844231706517,0.5587161331232171 l -12.242563675938884 -3.6311888602066595" fill="#ff940d" stroke="none" /><path d="M 120.13307415673323 105.97154293290107 l 15.75968736749482 4.674380523881417 a37.43829611617998,37.43829611617998 0 0,0 -0.18856997200378445,0.6162575790939283 l -15.676890622984903 -4.944965075527402" fill="#ffc412" stroke="none" /><path d="M 119.79798401119884 107.00284435728193 l 11.615697648438108 4.108646753489934 a33.32093381221139,33.32093381221139 0 0,0 -0.19592032983136806,0.5390886032624626 l -11.543253057601513 -4.307983153758528" fill="#ff8e0d" stroke="none" /><path d="M 119.26925614724726 108.34839909993367 l 21.527301578382293 9.32669656512098 a44.460860642023775,44.460860642023775 0 0,0 -0.3102921670290022,0.699626921910645 l -21.36356832662202 -9.695871823524312" fill="#e1ff1b" stroke="none" /><path d="M 119.12269723197855 108.67885076344098 l 10.704819959829333 4.858390725629375 a32.755727574899055,32.755727574899055 0 0,0 -0.23744062765614812,0.5114259882614692 l -10.619604715333352 -5.041936781169675" fill="#ff860c" stroke="none" /><path d="M 118.97047184881838 109.00673069616215 l 11.12087680369361 5.279928895511568 a33.31062752359069,33.31062752359069 0 0,0 -0.2503797178437645,0.5158563787808933 l -11.028343829235132 -5.4705742302577365" fill="#ff8d0d" stroke="none" /><path d="M 118.81262510543309 109.33194174019688 l 10.529563965808913 5.223156094798663 a32.75385370424075,32.75385370424075 0 0,0 -0.25488944485585535,0.5029210560685016 l -10.43809585116679 -5.403631362569858" fill="#ff860c" stroke="none" /><line stroke="#e1ed5e" stroke-width="0.3" x1="174.80103733775053" x2="179.2010983576182" y1="140.37084112569926" y2="142.7455964860345" /><path d="M 175.68104954172406 140.8457921977663 a86.0,86.0 0 0,1 -30.038265399797805,32.042727171017184" fill="none" id="id65" stroke="none" /><text fill="#e1ed5e" style="font-size:6.75px; font-family:Arial;" text-anchor="middle"><textPath startOffset="22.206326154141568" xlink:href="#id65">May</textPath></text><path d="M 118.48025628344425 109.97397251340804 l 16.522446546230594 8.917323719909158 a39.77524706092311,39.77524706092311 0 0,0 -0.3303686384437857,0.5997150408333005 l -16.366501498335296 -9.200409279140263" fill="#ffe315" stroke="none" /><path d="M 117.94076556474637 110.91462005526583 l 10.03237268636083 6.1033926188535546 a32.74307894795547,32.74307894795547 0 0,0 -0.2970816355109064,0.4789901892956381 l -9.925826411181962 -6.275179139514466" fill="#ff860c" stroke="none" /><path d="M 117.35343817320211 111.8261652097733 l 9.729298969103478 6.630403487510365 a32.77376357998527,32.77376357998527 0 0,0 -0.3217120901552754,0.46345026029016445 l -9.613725971786065 -6.796895009987549" fill="#ff860c" stroke="none" /><path d="M 117.14729908036423 112.12312394758627 l 9.592113497205112 6.781615011258244 a32.747295156936666,32.747295156936666 0 0,0 -0.32937573724693237,0.45747409101991154 l -9.473957967582576 -6.945722707729287" fill="#ff860c" stroke="none" /><path d="M 116.93607887273984 112.41649034213515 l 10.155904615033784 7.445684004883987 a33.59287929149842,33.59287929149842 0 0,0 -0.3459086507646806,0.4634011652831114 l -10.02623469757401 -7.619398049676414" fill="#ff910d" stroke="none" /><path d="M 116.498646956653 112.99209946851258 l 9.478799690401795 7.46421865643636 a33.06491623351997,33.06491623351997 0 0,0 -0.35597072856216905,0.44412821688298376 l -9.348911049784771 -7.626274706897594" fill="#ff8a0c" stroke="none" /><path d="M 116.27256486870786 113.27417163493432 l 9.093897847467701 7.418250400708437 a32.73581769915452,32.73581769915452 0 0,0 -0.35994434540431053,0.43357615153312484 l -8.96485750216985 -7.573687809355332" fill="#ff860c" stroke="none" /><path d="M 116.0416608686014 113.55231037782055 l 8.977561429732152 7.584420337037592 a32.752448301247014,32.752448301247014 0 0,0 -0.367540941527842,0.42753314942380555 l -8.845677978633532 -7.737830585622925" fill="#ff860c" stroke="none" /><path d="M 114.55890576462653 115.13401014063108 l 8.143692029248617 8.465383301832686 a32.746592455439796,32.746592455439796 0 0,0 -0.40958839923106516,0.3872913966918368 l -7.996767795626744 -8.604309335270443" fill="#ff860c" stroke="none" /><path d="M 114.29624159901734 115.38237550388516 l 8.050186950775101 8.661786924600552 a32.82506078925647,32.82506078925647 0 0,0 -0.4171915958776252,0.3810946313169455 l -7.899895805430613 -8.799074322504081" fill="#ff870c" stroke="none" /><path d="M 113.75828350139079 115.86535959552629 l 7.690790549843852 8.868632314111977 a32.73886273897428,32.73886273897428 0 0,0 -0.428932923671293,0.3655459430537257 l -7.536992149595512 -8.99970264738865" fill="#ff860c" stroke="none" /><path d="M 113.20401910651253 116.32954008644616 l 9.026639425325726 11.1633336147666 a35.35619158096682,35.35619158096682 0 0,0 -0.476538338716311,0.3785908769760441 l -8.833143593892062 -11.31705840574777" fill="#ffa90f" stroke="none" /><path d="M 112.92097659922987 116.55440617244103 l 7.212364790548776 9.240510211408736 a32.7219979030495,32.7219979030495 0 0,0 -0.447000054508621,0.3427405807370542 l -7.052236007546661 -9.363290133973162" fill="#ff850c" stroke="none" /><line stroke="#e1ed5e" stroke-width="0.3" x1="143.8653032363475" x2="146.44561519142675" y1="172.8068346515853" y2="177.08958963109032" /><path d="M 144.38136562736335 173.6633856474863 a86.0,86.0 0 0,1 -40.68145358897372,12.25698825130547" fill="none" id="id66" stroke="none" /><text fill="#e1ed5e" style="font-size:6.75px; font-family:Arial;" text-anchor="middle"><textPath startOffset="21.466115282336833" xlink:href="#id66">June</textPath></text><path d="M 110.8373102113329 117.98757091392108 l 6.108029591302695 10.137996723854283 a32.83583554554175,32.83583554554175 0 0,0 -0.4866460477809945,0.2875190628591364 l -5.932615672493319 -10.241634359007168" fill="#ff870c" stroke="none" /><path d="M 110.5260780823613 118.17145234162733 l 5.945060898325188 10.26311888784261 a32.86066433176434,32.86066433176434 0 0,0 -0.4918947786894615,0.27931069300501454 l -5.767517352714528 -10.363932746642254" fill="#ff870c" stroke="none" /><path d="M 110.21172684928248 118.3499491758327 l 5.707491251820289 10.256068923325232 a32.737223102148256,32.737223102148256 0 0,0 -0.49476418168516795,0.26978488063108386 l -5.530104258266473 -10.352794455716086" fill="#ff860c" stroke="none" /><path d="M 109.57404056367764 118.69057910512821 l 5.404579750236744 10.550897991283586 a32.854574252124834,32.854574252124834 0 0,0 -0.505563204015273,0.25349988581321137 l -5.222162638538711 -10.642365718006099" fill="#ff870c" stroke="none" /><path d="M 108.2653958097858 119.30500536409082 l 4.699403105360847 10.976123133704746 a32.939835367077876,32.939835367077876 0 0,0 -0.5231607244940665,0.21868122526811085 l -4.50977092136932 -11.05538940199283" fill="#ff880c" stroke="none" /><path d="M 107.93186726928326 119.44442032107085 l 4.491103332708258 11.009627108199513 a32.890412028464986,32.890412028464986 0 0,0 -0.5260569619362132,0.20932892173280637 l -4.300925294730179 -11.085302874338389" fill="#ff880c" stroke="none" /><path d="M 107.2578585660854 119.70592522655815 l 4.069886246585513 11.050211756753566 a32.775871684475874,32.775871684475874 0 0,0 -0.5310946675017564,0.1904316523229355 l -3.8790720184540217 -11.118630950116462" fill="#ff860c" stroke="none" /><path d="M 106.57524785965236 119.94407469862006 l 19.725743578957097 59.83222409586019 a84.0,84.0 0 0,0 -1.3771146196362385,0.4409086133611737 l -18.692907614229917 -60.16290555588107" fill="#4dd2ff" stroke="none" /><path d="M 106.2309692047433 120.05430185196036 l 3.5414512101735554 11.398119494595802 a32.935619158096685,32.935619158096685 0 0,0 -0.5428496201391687,0.16355613748459552 l -3.344726615594141 -11.457391001186124" fill="#ff880c" stroke="none" /><path d="M 105.88484417918355 120.15858648285463 l 3.315451396374519 11.357108475349534 a32.831150868895975,32.831150868895975 0 0,0 -0.5438540048830619,0.15369857419077584 l -3.1194662233868513 -11.41249584287883" fill="#ff870c" stroke="none" /><path d="M 105.53697534728816 120.25689768951611 l 3.100506094094043 11.343130643437853 a32.75924108238338,32.75924108238338 0 0,0 -0.5452222783112008,0.14399815915016234 l -2.9047933729713447 -11.394820151891599" fill="#ff860c" stroke="none" /><path d="M 104.48393922423573 120.51570834832081 l 4.4179209788033855 20.213650046183886 a41.690811341379074,41.690811341379074 0 0,0 -0.7024078586912782,0.14719639617244504 l -4.069321658682729 -20.286702423082875" fill="#fffb17" stroke="none" /><path d="M 103.7750983002368 120.6578951692458 l 2.135898691408216 11.687952935284466 a32.88151114283802,32.88151114283802 0 0,0 -0.5576563815750005,0.09695571001628119 l -1.9343933383611656 -11.722987223821752" fill="#ff880c" stroke="none" /><path d="M 103.41894727170886 120.7198165907248 l 1.9131521931769921 11.59425969531177 a32.75104289825328,32.75104289825328 0 0,0 -0.5570237120321448,0.08699564804819614 l -1.71329261753633 -11.625473650707072" fill="#ff860c" stroke="none" /><path d="M 103.06178313531738 120.77559828337769 l 1.71329261753633 11.625473650707072 a32.75104289825328,32.75104289825328 0 0,0 -0.5584386700322906,0.07739451116172533 l -1.5129253563172091 -11.653242727361398" fill="#ff860c" stroke="none" /><path d="M 102.34483914955558 120.86867818915974 l 1.3121359369805503 11.677791465767891 a32.75127713208557,32.75127713208557 0 0,0 -0.5607757941063959,0.05812670393301461 l -1.1109275462685517 -11.698647538156665" fill="#ff860c" stroke="none" /><path d="M 101.98527174616119 120.90594882070398 l 1.1192978668348281 11.786791387334906 a32.83981752069065,32.83981752069065 0 0,0 -0.5632117564003626,0.04859628021370056 l -0.9162417926929238 -11.80431191982727" fill="#ff870c" stroke="none" /><path d="M 101.62511606390274 120.93702456842531 l 2.0651919980432116 26.60670001483295 a47.68672898030205,47.68672898030205 0 0,0 -0.8189338231875954,0.056478471159207275 l -1.606895414076686 -26.63830683050844" fill="#bbff1f" stroke="none" /><path d="M 101.26447882468166 120.96189622390904 l 0.709303595735444 11.758479521232838 a32.77985365962478,32.77985365962478 0 0,0 -0.5635199184183148,0.02912754302834961 l -0.5067956089036496 -11.76894687102339" fill="#ff860c" stroke="none" /><path d="M 100.90346689309514 120.98055641714683 l 0.6077254393014423 14.112767122786567 a35.12584603029424,35.12584603029424 0 0,0 -0.604297776235953,0.020813237267092603 l -0.36470731139083695 -14.121137158479753" fill="#ffa60f" stroke="none" /><line stroke="#e1ed5e" stroke-width="0.3" x1="102.19456741930631" x2="102.32365962044197" y1="184.97166512339345" y2="189.96999836594603" /><path d="M 102.22038585953345 185.97133177190398 a86.0,86.0 0 0,1 -42.740103519485714,-10.115201625700543" fill="none" id="id67" stroke="none" /><text fill="#e1ed5e" style="font-size:6.75px; font-family:Arial;" text-anchor="middle"><textPath startOffset="22.20632615414155" xlink:href="#id67">July</textPath></text><path d="M 100.54218724476979 120.99299961872073 l 0.30289769939478367 11.727924899092585 a32.73183572400562,32.73183572400562 0 0,0 -0.5633621359269925,0.009698790070830405 l -0.10097587357512329 -11.731401166442575" fill="#ff860c" stroke="none" /><path d="M 99.81925306533755 120.99922214144158 l -0.10170306276168517 11.81588618023357 a32.81632386731211,32.81632386731211 0 0,0 -0.5648162988182824,-0.009723824803752605 l 0.3050790514726355 -11.812384878150658" fill="#ff870c" stroke="none" /><path d="M 96.22490169976321 120.6578951692458 l -2.1110511050543384 11.551983274818985 a32.74328975840453,32.74328975840453 0 0,0 -0.5535680128426927,-0.10609262716427402 l 2.3095867324687265 -11.513933449306242" fill="#ff860c" stroke="none" /><path d="M 95.86986931433489 120.58985236759428 l -2.3216564029758344 11.574104120110777 a32.804659022464136,32.804659022464136 0 0,0 -0.5526937365259675,-0.11582234622956313 l 2.5205416009311885 -11.532425793154673" fill="#ff870c" stroke="none" /><path d="M 95.51606077576429 120.51570834832081 l -2.5090484245672866 11.479840188737205 a32.75083208780423,32.75083208780423 0 0,0 -0.5497146857889845,-0.12511327276820783 l 2.7062832597491338 -11.43495018239131" fill="#ff860c" stroke="none" /><path d="M 94.81253420990036 120.34920634021253 l -2.929563646520109 11.491988100162118 a32.85951658598612,32.85951658598612 0 0,0 -0.5468911948284063,-0.14443893517090278 l 3.1269452841600045 -11.439857815687633" fill="#ff870c" stroke="none" /><path d="M 94.46302465271185 120.25689768951611 l -6.387562567803251 23.368751584697915 a45.22600887857764,45.22600887857764 0 0,0 -0.7491770895181507,-0.21172492882551017 l 6.788870825426015 -23.25533786253388" fill="#d8ff1c" stroke="none" /><path d="M 94.11515582081647 120.15858648285463 l -6.769297125041956 23.18828797642521 a45.15616034978919,45.15616034978919 0 0,0 -0.7442703407262448,-0.22424254831811596 l 7.167442440208447 -23.068330059001372" fill="#d9ff1c" stroke="none" /><line stroke="#e1ed5e" stroke-width="0.3" x1="58.666819895761336" x2="56.23545636021788" y1="174.27360380694188" y2="178.64263932499728" /><path d="M 58.180547188652646 175.14741091055294 a86.0,86.0 0 0,1 -31.652253787137756,-30.449443065178592" fill="none" id="id68" stroke="none" /><text fill="#e1ed5e" style="font-size:6.75px; font-family:Arial;" text-anchor="middle"><textPath startOffset="22.20632615414155" xlink:href="#id68">August</textPath></text><line stroke="#e1ed5e" stroke-width="0.3" x1="26.63291911575756" x2="22.317208475507996" y1="142.92168965132927" y2="145.44649492493687" /><path d="M 25.769776987707644 143.4266507060508 a86.0,86.0 0 0,1 -11.730757126820373,-40.83630448921669" fill="none" id="id69" stroke="none" /><text fill="#e1ed5e" style="font-size:6.75px; font-family:Arial;" text-anchor="middle"><textPath startOffset="21.46611528233685" xlink:href="#id69">September</textPath></text><line stroke="#e1ed5e" stroke-width="0.3" x1="15.007084014347285" x2="10.007500721073583" y1="101.09737516637583" y2="101.16192664675087" /><path d="M 14.007167355692545 101.11028546245083 a86.0,86.0 0 0,1 10.666146001902534,-42.60595125391555" fill="none" id="id70" stroke="none" /><text fill="#e1ed5e" style="font-size:6.75px; font-family:Arial;" text-anchor="middle"><textPath startOffset="22.20632615414155" xlink:href="#id70">October</textPath></text><line stroke="#e1ed5e" stroke-width="0.3" x1="26.266209847984243" x2="21.928928074336255" y1="57.711370442889674" y2="55.22380399835377" /><path d="M 25.398753493254645 57.213857153982495 a86.0,86.0 0 0,1 29.58750427330803,-30.492523968695096" fill="none" id="id71" stroke="none" /><text fill="#e1ed5e" style="font-size:6.75px; font-family:Arial;" text-anchor="middle"><textPath startOffset="21.46611528233685" xlink:href="#id71">November</textPath></text><line stroke="#e1ed5e" stroke-width="0.3" x1="56.762969772571076" x2="54.21961505331055" y1="26.818313649435495" y2="22.513508569990535" /><path d="M 56.25429882871897 25.957352633546506 a86.0,86.0 0 0,1 42.265352541879196,-11.944610805530505" fill="none" id="id72" stroke="none" /><text fill="#e1ed5e" style="font-size:6.75px; font-family:Arial;" text-anchor="middle"><textPath startOffset="22.20632615414155" xlink:href="#id72">December</textPath></text></svg>