<?xml version="1.0" encoding="utf-8" ?>
<svg baseProfile="full" height="200mm" version="1.1" viewBox="0,0,200,200" width="200mm" xmlns="http://www.w3.org/2000/svg" xmlns:ev="http://www.w3.org/2001/xml-events" xmlns:xlink="http://www.w3.org/1999/xlink"><defs /><rect fill="#1a1a1a" height="200" width="200" x="0" y="0" /><text alignment-baseline="middle" fill="#e1ed5e" style="dominant-baseline: central; font-size:9.0px; font-family:Arial;" text-anchor="middle" x="100.0" y="100.0">2022</text><line stroke="#e1ed5e" stroke-width="0.3" x1="100.0" x2="100.0" y1="15.0" y2="10.0" /><path d="M 100.0 14.0 a86.0,86.0 0 0,1 42.46469731375804,11.215312516191453" fill="none" id="id13" stroke="none" /><text fill="#e1ed5e" style="font-size:6.75px; font-family:Arial;" text-anchor="middle"><textPath startOffset="22.20632615414155" xlink:href="#id13">January</textPath></text><line stroke="#e1ed5e" stroke-width="0.3" x1="143.23703022742887" x2="145.7803849466894" y1="26.81831364943548" y2="22.513508569990506" /><path d="M 143.74570117128098 25.957352633546492 a86.0,86.0 0 0,1 28.547481713284135,27.462654790039103" fill="none" id="id14" stroke="none" /><text fill="#e1ed5e" style="font-size:6.75px; font-family:Arial;" text-anchor="middle"><textPath startOffset="19.985693538727396" xlink:href="#id14">February</textPath></text><path d="M 113.89432698308785 84.25364557470405 l 17.540400986804787 -19.878427435616416 a47.51070621637548,47.51070621637548 0 0,0 0.6085646639885666,0.5463753640631187 l -17.879976638389344 19.573553062784" fill="red" stroke="none" /><path d="M 114.16331599549186 84.49514656593476 l 10.523754264783665 -11.520555461978399 a36.603608620382424,36.603608620382424 0 0,0 0.4615403327302976,0.4289514387902319 l -10.72050248130881 11.337699437113526" fill="red" stroke="none" /><path d="M 114.42810811169701 84.74124197986012 l 10.504634435445158 -11.109403512892973 a36.28941434570399,36.28941434570399 0 0,0 0.45019050078798956,0.4330829050725796 l -10.694308179845565 10.926937521058091" fill="red" stroke="none" /><path d="M 114.68862486808459 84.99185889309783 l 31.65801484114654 -32.34665996084409 a66.26075909996129,66.26075909996129 0 0,0 0.808268301673685,0.8047973407194852 l -32.21011894298755 31.796926769474492" fill="red" stroke="none" /><path d="M 115.4437574822437 85.77008943001954 l 14.825406484866841 -13.660160662702557 a41.15918318713281,41.15918318713281 0 0,0 0.47559702606701537,0.5251661149168703 l -15.058347151549892 13.40294176051614" fill="red" stroke="none" /><path d="M 115.68641384162765 86.03803664274999 l 24.806899473543314 -22.079808996079507 a54.2099416860951,54.2099416860951 0 0,0 0.614400342679102,0.7023658015205628 l -25.183291679800263 21.649527638355995" fill="red" stroke="none" /><path d="M 115.92442197804982 86.31012108654704 l 34.2489416980738 -29.44306960760154 a66.16507893667549,66.16507893667549 0 0,0 0.7350290797006349,0.870042590259364 l -34.75068139126155 28.84916806771307" fill="red" stroke="none" /><path d="M 116.15771136456269 86.58626213691792 l 36.085593361887 -29.95737942514158 a67.90004936352796,67.90004936352796 0 0,0 0.7388220794120196,0.9057085100531227 l -36.59591393337543 29.331786745480354" fill="red" stroke="none" /><path d="M 116.38621287248628 86.86637796730983 l 36.56825133616471 -29.30961505156698 a67.86459794190017,67.86459794190017 0 0,0 0.7227447810398685,0.9178124760389822 l -37.06735019779854 28.67581018157496" fill="red" stroke="none" /><path d="M 116.60985879189232 87.15038557335679 l 35.552578146111024 -27.50396175996521 a65.94945745311016,65.94945745311016 0 0,0 0.6868920511505477,0.9038694227329115 l -36.02074613748569 26.887907561351266" fill="red" stroke="none" /><path d="M 116.82858285166822 87.43820079747576 l 33.000430929144706 -24.63337469248593 a62.180475838067444,62.180475838067444 0 0,0 0.6328710694422842,0.863235427484472 l -33.41956461110062 24.061676821329964" fill="red" stroke="none" /><path d="M 117.04232023915458 87.72973835380427 l 39.36069540608081 -28.339218159931992 a69.50129512463033,69.50129512463033 0 0,0 0.6906687237998224,0.9769019292100007 l -39.84267674968451 27.6574897303902" fill="red" stroke="none" /><path d="M 117.2510076193507 88.02491185347247 l 37.259912415498235 -25.864618772006594 a66.3572439355814,66.3572439355814 0 0,0 0.6432719709969612,0.9439222418459384 l -37.69960885216393 25.21941850689025" fill="red" stroke="none" /><path d="M 117.45458315368197 88.32363383020206 l 42.465714369928556 -28.407738316038763 a72.09145225163299,72.09145225163299 0 0,0 0.6811041280313088,1.0373683148599777 l -42.94841513331779 27.672551937201114" fill="red" stroke="none" /><path d="M 117.65298651832404 88.62581576622439 l 37.38590390032843 -24.088510930836936 a65.4742866082149,65.4742866082149 0 0,0 0.6022773965804812,0.9526582041606814 l -37.795008893154865 23.44140507896205" fill="red" stroke="none" /><line stroke="#e1ed5e" stroke-width="0.3" x1="172.23445277983987" x2="176.4835382374775" y1="55.19839476539836" y2="52.563006222186495" /><path d="M 173.08426987136738 54.67131705675599 a86.0,86.0 0 0,1 12.851231095245387,41.99856678651699" fill="none" id="id15" stroke="none" /><text fill="#e1ed5e" style="font-size:6.75px; font-family:Arial;" text-anchor="middle"><textPath startOffset="22.20632615414155" xlink:href="#id15">March</textPath></text><path d="M 117.84615892207809 88.93136811851018 l 40.322053713426094 -25.008741164320117 a68.44792040008053,68.44792040008053 0 0,0 0.6123944230160581,1.0066154131667289 l -40.74656393472838 24.31095797794631" fill="red" stroke="none" /><path d="M 118.03404312379186 89.2402003453031 l 39.74042642004568 -23.710657867275163 a67.27630914999642,67.27630914999642 0 0,0 0.5847923510797736,0.9995996912210902 l -40.142678445595784 23.023078763700177" fill="red" stroke="none" /><path d="M 118.21658344932153 89.55222093294921 l 38.64995759787787 -22.16695677632947 a65.55550689916362,65.55550689916362 0 0,0 0.5529836723041917,0.9836962494528496 l -39.025798911474496 21.498377016941827" fill="red" stroke="none" /><path d="M 118.3937258080291 89.86733742301442 l 40.512079590888675 -22.3171334111805 a67.2523841166153,67.2523841166153 0 0,0 0.5498423648129337,1.018774395415493 l -40.890230054920075 21.616478032432546" fill="red" stroke="none" /><path d="M 118.56541770881063 90.18545643968196 l 40.25119145394925 -21.27865249657205 a66.52954497392159,66.52954497392159 0 0,0 0.5265039424197886,1.017038033916004 l -40.611504829529146 20.582641740395704" fill="red" stroke="none" /><path d="M 118.73160827565052 90.50648371742162 l 38.86518528229842 -19.69757555642202 a64.57174669241915,64.57174669241915 0 0,0 0.4939430739164774,0.9957590962006949 l -39.1984883691683 19.025656871722376" fill="red" stroke="none" /><path d="M 118.89224826269711 90.83032412892265 l 37.667210729441074 -18.282425074760884 a62.86962897794016,62.86962897794016 0 0,0 0.46416289663040505,0.9776454366005535 l -37.976331819913234 17.63133722251979" fill="red" stroke="none" /><path d="M 119.04729006885535 91.15688171328212 l 39.50310050831017 -18.340172760758776 a64.5529205296744,64.5529205296744 0 0,0 0.4592407981134546,1.0118762239683896 l -39.81294362338697 17.657474527948324" fill="red" stroke="none" /><path d="M 119.196687751892 91.48605970444005 l 39.28237216751822 -17.422160303110257 a63.972507871134084,63.972507871134084 0 0,0 0.4377830331306761,1.0104635992283553 l -39.57644591049157 16.743397559295296" fill="red" stroke="none" /><path d="M 119.34039704204932 91.81776055985345 l 43.83121853908486 -18.543441701865966 a68.5923833062762,68.5923833062762 0 0,0 0.45067911147882594,1.091355215992439 l -44.14391933744989 17.786211915420225" fill="red" stroke="none" /><path d="M 119.47837535516314 92.15188598940014 l 42.5835530374467 -17.157518176982904 a66.91012327675166,66.91012327675166 0 0,0 0.42123570835224494,1.0719989313813731 l -42.872582295680644 16.421970240705747" fill="red" stroke="none" /><path d="M 119.61058180528143 92.48833698450437 l 41.31934883939929 -15.827017657257311 a65.2468425589341,65.2468425589341 0 0,0 0.3927095959145784,1.0522664741238472 l -41.5856630238155 15.113428046104131" fill="red" stroke="none" /><path d="M 119.7369772167798 92.82701384747503 l 40.13171509043068 -14.585021478162458 a63.6998525479651,63.6998525479651 0 0,0 0.36565814178698075,1.0337648068867225 l -40.37682631302747 13.892059044849121" fill="red" stroke="none" /><path d="M 119.85752413597 93.16781622104841 l 46.73140062414251 -16.078415170278646 a70.42002871996286,70.42002871996286 0 0,0 0.38450243170002935,1.1496133303898284 l -47.001240349614314 15.271628736966504" fill="red" stroke="none" /><path d="M 119.97218684219823 93.5106431181261 l 41.25823096733504 -13.40561187301359 a64.38147130105025,64.38147130105025 0 0,0 0.3333872357582775,1.0569286436313974 l -41.48287368686152 12.693433062955775" fill="red" stroke="none" /><path d="M 120.08093135843002 93.85539295169968 l 49.070184889725475 -15.015090612728445 a72.31604029170887,72.31604029170887 0 0,0 0.35398392791524785,1.1934578300933427 l -49.32137471475242 14.168203395888572" fill="red" stroke="none" /><path d="M 120.18372546131832 94.20196356495316 l 42.12033935506667 -12.099612765009487 a64.82377912103381,64.82377912103381 0 0,0 0.298847590514288,1.0751137875010774 l -42.322373716147325 11.372787674089459" fill="red" stroke="none" /><path d="M 120.28053869075195 94.5502522615342 l 41.581363103934336 -11.173664713419367 a64.0564808212323,64.0564808212323 0 0,0 0.2769792107641595,1.067313886005271 l -41.7675386465688 10.456254401865245" fill="red" stroke="none" /><path d="M 120.37134235888165 94.90015583598534 l 42.27798092905466 -10.584040585492309 a64.5826753028409,64.5826753028409 0 0,0 0.2606901208136528,1.080728851445887 l -42.45390385012913 9.854726502387015" fill="red" stroke="none" /><path d="M 120.45610955862082 95.25157060432595 l 42.583458794446464 -9.884799791943294 a64.71567487555376,64.71567487555376 0 0,0 0.24254699341225208,1.0872906127810615 l -42.747300174860754 9.150331009612268" fill="red" stroke="none" /><path d="M 120.53481517161879 95.60439243477599 l 42.59436839775787 -9.117594991743177 a64.55927866295968,64.55927866295968 0 0,0 0.22325429865352617,1.0886672473849546 l -42.745001992326394 8.38305208819481" fill="red" stroke="none" /><path d="M 120.6074358757038 95.95851677861258 l 44.70449109551137 -8.76734261229395 a66.5560953176411,66.5560953176411 0 0,0 0.21080621425901436,1.126135225945198 l -44.84878303368025 7.996529308886188" fill="red" stroke="none" /><path d="M 120.67395015179393 96.31383870115 l 42.440900194995784 -7.567204266165529 a64.11023764452554,64.11023764452554 0 0,0 0.18435704327852473,1.0880857052837078 l -42.564869099794535 6.835532772565983" fill="red" stroke="none" /><path d="M 120.73433829027371 96.67025291283417 l 46.93626259433436 -7.537539007417835 a68.53764025078081,68.53764025078081 0 0,0 0.1770363362467754,1.1664482600086294 l -47.05905482402043 6.728491635017123" fill="red" stroke="none" /><path d="M 120.78858239683441 97.02765380044208 l 43.47439475569868 -6.215957854339243 a64.9165245826812,64.9165245826812 0 0,0 0.14864029662836395,1.107542859756333 l -43.57495105138488 5.466696652518246" fill="red" stroke="none" /><path d="M 120.83666639777658 97.38593545837742 l 45.363620237427185 -5.691094193212425 a66.71921471505749,66.71921471505749 0 0,0 0.13315136840884836,1.1407596103566675 l -45.45486195883962 4.909390844530905" fill="red" stroke="none" /><path d="M 120.87857604477298 97.74499172005257 l 46.60569330025999 -5.033687357768245 a67.8767389694895,67.8767389694895 0 0,0 0.11546439120510688,1.1627106620625336 l -46.685434817147325 4.2307011650012765" fill="red" stroke="none" /><path d="M 120.91429891909075 98.10471618934814 l 45.17727912956687 -4.094029930183808 a66.3624032720935,66.3624032720935 0 0,0 0.09330401007559101,1.1385452533133769 l -45.241057623461955 3.3157707596626627" fill="red" stroke="none" /><path d="M 120.94382443527127 98.46500227214037 l 46.85344513134191 -3.4339445520697858 a67.97911552873634,67.97911552873634 0 0,0 0.07548727610346151,1.1677547498613035 l -46.90561299844978 2.626930737955447" fill="red" stroke="none" /><path d="M 120.96714384426684 98.82574320788733 l 46.85543176186214 -2.62412035718364 a67.92885565661607,67.92885565661607 0 0,0 0.05533417224344493,1.1680169198768322 l -46.89365954233909 1.8171923306838078" fill="red" stroke="none" /><path d="M 120.98425023603335 99.18683210126433 l 48.83515357143999 -1.8924278336107048 a69.87180687729432,69.87180687729432 0 0,0 0.03622788486743529,1.2022271275296044 l -48.86049315076307 1.0515305586561015" fill="red" stroke="none" /><line stroke="#e1ed5e" stroke-width="0.3" x1="184.98032266829074" x2="189.97916517819016" y1="98.17113171792111" y2="98.06355123074" /><path d="M 185.9800911702706 98.14961562048488 a86.0,86.0 0 0,1 -9.607161424134198,41.387399972396054" fill="none" id="id16" stroke="none" /><text fill="#e1ed5e" style="font-size:6.75px; font-family:Arial;" text-anchor="middle"><textPath startOffset="21.466115282336823" xlink:href="#id16">April</textPath></text><path d="M 120.99513854157772 99.54816195383933 l 43.93397720357017 -0.945506617182661 a64.94415018733392,64.94415018733392 0 0,0 0.01443304222239522,1.117855025895096 l -43.94374325291028 0.18911533322710214" fill="red" stroke="none" /><path d="M 120.99980553446 99.90962569577887 l 44.73539212624512 -0.19252225601968107 a65.73580639161405,65.73580639161405 0 0,0 -0.004869779627625672,1.1315652834860057 l -44.73207804932799 -0.5775525056700094" fill="red" stroke="none" /><path d="M 120.99824983174949 100.27111621757518 l 29.162644551296797 0.3765297559838793 a50.16507520789929,50.16507520789929 0 0,0 -0.01858003858899654,0.8633413843709346 l -29.15184245002279 -0.8784609561449287" fill="red" stroke="none" /><path d="M 120.9904718944345 100.63252640178507 l 46.817817026051785 1.4108070314880432 a67.83906881615988,67.83906881615988 0 0,0 -0.04521915584698525,1.1669054856085503 l -46.7865957373536 -2.2164897641106" fill="red" stroke="none" /><path d="M 120.9764740272857 100.99374915477107 l 62.92942208185712 2.9812474643131925 a84.0,84.0 0 0,0 -0.0808545964498828,1.4437131346583068 l -62.86878113451971 -4.064032315306923" fill="red" stroke="none" /><path d="M 120.95626037817324 101.35467743843564 l 41.43679558410258 2.6786025314573103 a62.523281900642594,62.523281900642594 0 0,0 -0.07867048911498607,1.0733963199793775 l -41.38454853632326 -3.3914719879334583" fill="red" stroke="none" /><path d="M 120.92983693683757 101.71520430193887 l 46.85764831866877 3.8399936042245657 a68.01472914775249,68.01472914775249 0 0,0 -0.10566704750241888,1.166027064096139 l -46.784606674889275 -4.646002056869276" fill="red" stroke="none" /><path d="M 120.89721153311464 102.0752229133903 l 44.49575759543325 4.418705125532164 a65.71462175818957,65.71462175818957 0 0,0 -0.12147097020865802,1.1246703221830021 l -44.41310432372354 -5.183971769599958" fill="red" stroke="none" /><path d="M 120.8583938346157 102.4346265915055 l 50.106835880294916 5.8485536334977315 a71.44700765693352,71.44700765693352 0 0,0 -0.15309559587575688,1.2203225312302193 l -49.998738775172306 -6.710193919015346" fill="red" stroke="none" /><path d="M 120.81339534386255 102.79330883721812 l 47.72955978275198 6.405653615617586 a69.15748410474295,69.15748410474295 0 0,0 -0.16850039540588005,1.1784913730154825 l -47.6122253363295 -7.226290460613479" fill="red" stroke="none" /><path d="M 120.76222939487914 103.15116336523771 l 43.62859479437413 6.621679540191421 a65.1282327276391,65.1282327276391 0 0,0 -0.17776362102371393,1.1069342378032938 l -43.50814941898913 -7.371693007687919" fill="red" stroke="none" /><path d="M 120.70491114924044 103.5080841355445 l 42.90754677225133 7.2699314207098364 a64.51907022070623,64.51907022070623 0 0,0 -0.19495069249864358,1.093387014841721 l -42.77604963741349 -8.007437186284776" fill="red" stroke="none" /><path d="M 120.64145759157962 103.86396538481128 l 42.19031508010398 7.89779095398309 a63.92316144590548,63.92316144590548 0 0,0 -0.21176850600948036,1.0798030497787878 l -42.04811664111884 -8.622857730829823" fill="red" stroke="none" /><path d="M 120.5718875245553 104.21870165774334 l 40.209493250365554 8.245809026024395 a62.046275274924255,62.046275274924255 0 0,0 -0.22356147915452204,1.0444048031612363 l -40.06159773248659 -8.9367276486018" fill="red" stroke="none" /><path d="M 120.49622156327973 104.57218783832717 l 33.78868108688217 7.537398845030692 a55.619176058076526,55.619176058076526 0 0,0 -0.21648952259029147,0.9326311972617638 l -33.653930998361325 -8.117898699641021" fill="red" stroke="none" /><path d="M 120.41448212921028 104.9243191809786 l 44.20515895454974 10.663033760069133 a66.4730290080327,66.4730290080327 0 0,0 -0.2778847548305469,1.1100114620974477 l -44.01506288542413 -11.422373061563976" fill="red" stroke="none" /><path d="M 120.32669344350535 105.2749913415812 l 41.56775040634757 10.78726966055326 a63.94465112879486,63.94465112879486 0 0,0 -0.28565574904981866,1.0630313087613665 l -41.37590658095598 -11.501191902490175" fill="red" stroke="none" /><path d="M 120.23288151984713 105.62410040840565 l 40.13543544941848 11.156380206209942 a62.657148222363354,62.657148222363354 0 0,0 -0.2977926068719481,1.0366551312410246 l -39.93745020566043 -11.845592812955548" fill="red" stroke="none" /><path d="M 120.13307415673323 105.97154293290107 l 35.64354322216093 10.572004403046687 a58.178346527624015,58.178346527624015 0 0,0 -0.2930338801182581,0.9576516750533004 l -35.45628256953653 -11.183983050652046" fill="red" stroke="none" /><path d="M 120.02730092923936 106.31721596034902 l 35.75912579901756 11.279508957488948 a58.49589844545716,58.49589844545716 0 0,0 -0.3111640542916303,0.9576644872540642 l -35.55966949370968 -11.893372344720808" fill="red" stroke="none" /><path d="M 119.9155931802556 106.66101706037122 l 35.42104473490783 11.8470075754161 a58.34972554925013,58.34972554925013 0 0,0 -0.32678393983513543,0.9497870933324457 l -35.21186996412946 -12.454967371837846" fill="red" stroke="none" /><path d="M 119.79798401119884 107.00284435728193 l 38.561120831998565 13.639647717468577 a61.90232303520962,61.90232303520962 0 0,0 -0.36397309915550874,1.0014976486500278 l -38.32062347183783 -14.301393163124736" fill="red" stroke="none" /><path d="M 119.67450827220406 107.3425965602758 l 37.05894735741886 13.830531143614806 a60.555646511647886,60.555646511647886 0 0,0 -0.37286626175569426,0.9734361503578604 l -36.81538681606966 -14.46639086080581" fill="red" stroke="none" /><path d="M 119.54520255179757 107.68017299344265 l 40.40121477122651 15.87542097688381 a64.40837645183305,64.40837645183305 0 0,0 -0.4143525370746843,1.0283890162151268 l -40.12195961989444 -16.56850936094175" fill="red" stroke="none" /><path d="M 119.41010516605496 108.01547362559984 l 38.29723764705928 15.814983776088603 a62.434190268826065,62.434190268826065 0 0,0 -0.4187521161627069,0.9898063052332342 l -38.01933454970427 -16.471864606988" fill="red" stroke="none" /><path d="M 119.26925614724726 108.34839909993367 l 43.4044915070764 18.804982146782056 a68.30303622949228,68.30303622949228 0 0,0 -0.4766866142549979,1.0748024735540926 l -43.074363808090126 -19.549332956828838" fill="red" stroke="none" /><path d="M 119.12269723197855 108.67885076344098 l 36.51762519605853 16.57355212327821 a61.102613131101926,61.102613131101926 0 0,0 -0.4429223188556925,0.9540152705958733 l -36.22692826036301 -17.199687461152912" fill="red" stroke="none" /><path d="M 118.97047184881838 109.00673069616215 l 38.050275840208364 18.06536970395854 a63.12102888174323,63.12102888174323 0 0,0 -0.4744499451481777,0.9775074144370342 l -37.73367263844547 -18.71766607436085" fill="red" stroke="none" /><path d="M 118.81262510543309 109.33194174019688 l 39.668892139332186 19.677625438647134 a65.28125954018995,65.28125954018995 0 0,0 -0.5080166796231265,1.0023651044513122 l -39.32429678992279 -20.35754475480114" fill="red" stroke="none" /><path d="M 118.64920377521936 109.65438752849418 l 38.33275131738687 19.844237894124024 a64.16472635334566,64.16472635334566 0 0,0 -0.5162128370397072,0.9764801477922043 l -37.98548597212227 -20.501133057002363" fill="red" stroke="none" /><line stroke="#e1ed5e" stroke-width="0.3" x1="174.80103733775053" x2="179.2010983576182" y1="140.37084112569926" y2="142.7455964860345" /><path d="M 175.68104954172406 140.8457921977663 a86.0,86.0 0 0,1 -30.038265399797805,32.042727171017184" fill="none" id="id17" stroke="none" /><text fill="#e1ed5e" style="font-size:6.75px; font-family:Arial;" text-anchor="middle"><textPath startOffset="22.206326154141568" xlink:href="#id17">May</textPath></text><path d="M 118.48025628344425 109.97397251340804 l 35.97295372874592 19.41494999926167 a61.87778961054922,61.87778961054922 0 0,0 -0.5139498209083913,0.9329682117656135 l -35.63342749838603 -20.03128872942509" fill="red" stroke="none" /><path d="M 118.30583269289576 110.29060199501025 l 42.744508951855664 24.02877467936246 a70.03544695551209,70.03544695551209 0 0,0 -0.5997969206440282,1.045796488175775 l -42.32456003505925 -24.76099101339655" fill="red" stroke="none" /><path d="M 118.12598468904814 110.60418214915192 l 36.153947372149425 21.15101882309148 a62.88643584554456,62.88643584554456 0 0,0 -0.5546557417986371,0.9296349269931762 l -35.78451075465256 -21.77021584397076" fill="red" stroke="none" /><path d="M 117.94076556474637 110.91462005526583 l 34.53974947431862 21.01294066609051 a61.42941959990687,61.42941959990687 0 0,0 -0.5573560284979123,0.8986353839615955 l -34.17292880615275 -21.604372381417377" fill="red" stroke="none" /><path d="M 117.75023020441432 111.22182372390056 l 33.67737227409905 21.291077963041268 a60.843134968480534,60.843134968480534 0 0,0 -0.5672757106534455,0.8804245004754677 l -33.30589170006855 -21.86762406343819" fill="red" stroke="none" /><path d="M 117.55443506779137 111.5257021239791 l 37.66585589498765 24.73024244949226 a66.05886807180852,66.05886807180852 0 0,0 -0.6322679686912489,0.945154825948909 l -37.23458482088568 -25.374934189646975" fill="red" stroke="none" /><path d="M 117.35343817320211 111.8261652097733 l 34.22964940759724 23.327105840730795 a62.4224910582606,62.4224910582606 0 0,0 -0.6127483656871192,0.8827097217049107 l -33.82304013474799 -23.912856824622725" fill="red" stroke="none" /><path d="M 117.14729908036423 112.12312394758627 l 19.401954247311533 13.71716298078119 a44.76123710702126,44.76123710702126 0 0,0 -0.4502132283461858,0.6253067974111365 l -19.162961226589747 -14.049103383643457" fill="red" stroke="none" /><path d="M 116.93607887273984 112.41649034213515 l 34.98239889288245 25.64694114039193 a64.376650656309,64.376650656309 0 0,0 -0.6628916853491823,0.8880517407362343 l -34.535745940838176 -26.245305760637482" fill="red" stroke="none" /><path d="M 116.71984013943494 112.70617746262583 l 27.517039584641893 20.911467172698455 a55.56120551742364,55.56120551742364 0 0,0 -0.5852266613142834,0.7564843490965514 l -27.153006106109544 -21.382029515908258" fill="red" stroke="none" /><path d="M 116.0416608686014 113.55231037782055 l 27.521743038703924 23.250909419808504 a57.02847663635791,57.02847663635791 0 0,0 -0.6399613184345515,0.7444195926646409 l -27.117439210698592 -23.72120611163467" fill="red" stroke="none" /><path d="M 115.80600337817218 113.82643327865902 l 29.718719149325562 25.996697432875884 a60.4845608471588,60.4845608471588 0 0,0 -0.6922347110724392,0.777733036219673 l -29.266825588604785 -26.504404638836423" fill="red" stroke="none" /><path d="M 115.56566222782051 114.09645910891815 l 28.114266896605155 25.46063301931851 a58.92961688282602,58.92961688282602 0 0,0 -0.6873819681373419,0.7460173668255892 l -27.67183852047209 -25.940801640945438" fill="red" stroke="none" /><path d="M 115.07121518719521 114.62390073753431 l 25.054759171711538 24.311132617974703 a55.91091700773867,55.91091700773867 0 0,0 -0.6761476921836732,0.6849340424047098 l -24.632570854472327 -24.738807154360078" fill="red" stroke="none" /><path d="M 114.0293411484842 115.62618273729858 l 20.36543715042115 22.683463112723125 a51.48426691121216,51.48426691121216 0 0,0 -0.6645335357753519,0.586373581332411 l -19.971961261739214 -23.030659835827823" fill="red" stroke="none" /><path d="M 113.75828350139079 115.86535959552629 l 6.748946868794316 7.782545617242085 a31.30127662584898,31.30127662584898 0 0,0 -0.4100981822372843,0.34949456779267435 l -6.613983209979984 -7.8975645752577055" fill="red" stroke="none" /><path d="M 113.48314897796784 116.09983520530334 l 19.588419092453126 23.389960300538423 a51.508956150651,51.508956150651 0 0,0 -0.6846518242442075,0.5634218404940999 l -19.182897139664227 -23.7236772598897" fill="red" stroke="none" /><path d="M 112.63410532772338 116.77436683061366 l 30.044706653341922 39.89051204246626 a70.93933668858162,70.93933668858162 0 0,0 -0.9817160681066464,0.7262500776688069 l -29.35360561481671 -40.401772068874834" fill="red" stroke="none" /><path d="M 112.34349029814194 116.9893568818739 l 16.891614392626398 23.24931265758163 a49.73773087491719,49.73773087491719 0 0,0 -0.6969740462521389,0.49727247619222875 l -16.488913018525373 -23.53662939561808" fill="red" stroke="none" /><line stroke="#e1ed5e" stroke-width="0.3" x1="143.8653032363475" x2="146.44561519142675" y1="172.8068346515853" y2="177.08958963109032" /><path d="M 144.38136562736335 173.6633856474863 a86.0,86.0 0 0,1 -40.68145358897372,12.25698825130547" fill="none" id="id18" stroke="none" /><text fill="#e1ed5e" style="font-size:6.75px; font-family:Arial;" text-anchor="middle"><textPath startOffset="21.466115282336833" xlink:href="#id18">June</textPath></text><path d="M 110.5260780823613 118.17145234162733 l 15.981764687307056 27.589751194906135 a52.88434056895766,52.88434056895766 0 0,0 -0.7916313175433856,0.4495089224094114 l -15.504484602842473 -27.860763283110174" fill="red" stroke="none" /><path d="M 110.21172684928248 118.3499491758327 l 14.967582323346665 26.89597743576556 a51.78022291718125,51.78022291718125 0 0,0 -0.782564835727121,0.4267167442752944 l -14.502394675750896 -27.149634831800626" fill="red" stroke="none" /><path d="M 109.89434966115114 118.52300852407294 l 15.950871820849894 29.861299107315226 a54.85450481430394,54.85450481430394 0 0,0 -0.8366855680678903,0.4377143450110829 l -15.434495350255508 -30.131442871271027" fill="red" stroke="none" /><path d="M 108.92500713936063 119.00905698771935 l 17.02963644404448 36.270820245884345 a61.06970075662635,61.06970075662635 0 0,0 -0.955397675593257,0.43857621356801024 l -16.402770772683805 -36.55858352978643" fill="red" stroke="none" /><path d="M 108.59647513512805 119.15986991738527 l 13.3055685060004 29.65552249550346 a53.50366391269116,53.50366391269116 0 0,0 -0.8435217595977178,0.3697751505881811 l -12.793126071744927 -29.880162199386096" fill="red" stroke="none" /><path d="M 107.93186726928326 119.44442032107085 l 16.3157228452713 39.99685850444398 a64.1966607759005,64.1966607759005 0 0,0 -1.0267764449102281,0.40857553768058297 l -15.624825324319206 -40.27178088653063" fill="red" stroke="none" /><path d="M 107.59598834532513 119.57807347666477 l 15.668583264868714 40.384563599762814 a64.31763473080463,64.31763473080463 0 0,0 -1.0356051253689644,0.39157724520647164 l -14.971107918739474 -40.64828909507592" fill="red" stroke="none" /><path d="M 107.2578585660854 119.70592522655815 l 14.792568307648015 40.16353340658849 a63.8010454643176,63.8010454643176 0 0,0 -1.033821322994298,0.37069154482489 l -14.099027424023983 -40.41221249245334" fill="red" stroke="none" /><path d="M 106.91757812671514 119.82793768551818 l 8.287435402832246 23.754376131367945 a46.158536740967676,46.158536740967676 0 0,0 -0.7524506766553469,0.25527212315472536 l -7.877314993239672 -23.893511241420796" fill="red" stroke="none" /><path d="M 106.57524785965236 119.94407469862006 l 7.74923617123768 23.505021917848126 a45.74947911767315,45.74947911767315 0 0,0 -0.7500271015915535,0.2401349928543957 l -7.343487724555185 -23.634929757362226" fill="red" stroke="none" /><path d="M 106.2309692047433 120.05430185196036 l 13.434340856601438 43.238269660411184 a66.27725121380256,66.27725121380256 0 0,0 -1.0923912033527456,0.32912850854850006 l -12.688074678808446 -43.463113538065414" fill="red" stroke="none" /><path d="M 105.53697534728816 120.25689768951611 l 11.4736816893994 41.97620208261734 a64.51605350661279,64.51605350661279 0 0,0 -1.073760823459332,0.283589992735867 l -10.74943042312857 -42.167483424656794" fill="red" stroke="none" /><path d="M 101.98527174616119 120.90594882070398 l 4.026074000402945 42.39666290700182 a63.58739599349395,63.58739599349395 0 0,0 -1.0905410470035988,0.09409647029288319 l -3.295688635657804 -42.45968362957337" fill="red" stroke="none" /><path d="M 101.62511606390274 120.93702456842531 l 3.2327449246081064 41.648754457222104 a62.77402766774539,62.77402766774539 0 0,0 -1.0780310491848923,0.0743473328322546 l -2.5153511146442837 -41.69823013457064" fill="red" stroke="none" /><path d="M 100.90346689309514 120.98055641714683 l 1.8586547423352517 43.16219108811959 a64.20219134463616,64.20219134463616 0 0,0 -1.1045211957479446,0.03804194325656213 l -1.115413194912655 -43.18778982980225" fill="red" stroke="none" /><line stroke="#e1ed5e" stroke-width="0.3" x1="102.19456741930631" x2="102.32365962044197" y1="184.97166512339345" y2="189.96999836594603" /><path d="M 102.22038585953345 185.97133177190398 a86.0,86.0 0 0,1 -42.740103519485714,-10.115201625700543" fill="none" id="id19" stroke="none" /><text fill="#e1ed5e" style="font-size:6.75px; font-family:Arial;" text-anchor="middle"><textPath startOffset="22.20632615414155" xlink:href="#id19">July</textPath></text><path d="M 100.54218724476979 120.99299961872073 l 0.33733069489429374 13.061139334447923 a34.06549473657927,34.06549473657927 0 0,0 -0.5863163324547095,0.010093967380715786 l -0.11245467254691631 -13.065010779107798" fill="red" stroke="none" /><path d="M 99.09653310690486 120.98055641714683 l -0.3786150198123388 8.79230201378886 a29.80045021773904,29.80045021773904 0 0,0 -0.5123008616787446,-0.026480102839828244 l 0.5299039499045722 -8.784482104186829" fill="red" stroke="none" /><path d="M 98.01472825383883 120.90594882070398 l -2.35984715578519 24.85042360519431 a45.96222009269741,45.96222009269741 0 0,0 -0.7869769587130205,-0.0815733795252455 l 2.7872567111038036 -24.806120857213305" fill="red" stroke="none" /><path d="M 97.65516085044442 120.86867818915974 l -4.895542039631242 43.569509407896966 a64.84368234884724,64.84368234884724 0 0,0 -1.1081247325413308,-0.1341784729509811 l 5.644794195223962 -43.47878540622064" fill="red" stroke="none" /><path d="M 97.2962882734958 120.8252237178851 l -5.56695345973375 42.879220476624994 a64.2390855535343,64.2390855535343 0 0,0 -1.0953418983344625,-0.15180440633104125 l 6.304223949255044 -42.77704150480135" fill="red" stroke="none" /><path d="M 96.58105272829116 120.7198165907248 l -4.144797020878513 25.118677549964495 a46.458344490625734,46.458344490625734 0 0,0 -0.7879136749543894,-0.13698889192477745 l 4.576559667304952 -25.04361007951871" fill="red" stroke="none" /><path d="M 95.86986931433489 120.58985236759428 l -3.3001589811447265 16.452212141180194 a37.77993842775435,37.77993842775435 0 0,0 -0.6365173715434057,-0.13338840394940504 l 3.582867814117519 -16.392967756504248" fill="red" stroke="none" /><path d="M 95.51606077576429 120.51570834832081 l -7.959343119174655 36.416988257693056 a58.27664384906059,58.27664384906059 0 0,0 -0.9781591770382013,-0.22262584408102146 l 8.585022445605718 -36.27458568003435" fill="red" stroke="none" /><path d="M 95.16358092515715 120.4354850818985 l -10.194049497856161 43.07326210029544 a65.26312859621977,65.26312859621977 0 0,0 -1.090971758146876,-0.2681343149414996 l 10.933974540746247 -42.891406527039905" fill="red" stroke="none" /><path d="M 94.81253420990036 120.34920634021253 l -9.048340155173412 35.49450701062218 a57.629666767400856,57.629666767400856 0 0,0 -0.9591485387045574,-0.25331984663728546 l 9.657979136689457 -35.333495814681314" fill="red" stroke="none" /><path d="M 94.11515582081647 120.15858648285463 l -12.28299895040859 42.075522999655256 a64.83174305124378,64.83174305124378 0 0,0 -1.0685661295569127,-0.3219502092538761 l 13.00544005440575 -41.857857421295655" fill="red" stroke="none" /><path d="M 93.76903079525671 120.05430185196036 l -12.9950601283816 41.82444975021763 a64.79675997889265,64.79675997889265 0 0,0 -1.0622924460951595,-0.3401124951498852 l 13.713073919567698 -41.59456440840804" fill="red" stroke="none" /><path d="M 93.42475214034765 119.94407469862007 l -12.985967438795303 39.389101393795215 a62.474530243658364,62.474530243658364 0 0,0 -1.0184248868063301,-0.3455050160686362 l 13.66206205853886 -39.15973339082846" fill="red" stroke="none" /><path d="M 92.7421414339146 119.70592522655815 l -14.495577369366247 39.35716866835934 a62.941727299444516,62.941727299444516 0 0,0 -1.0134510646060784,-0.3832004750735751 l 15.170898654732609 -39.10181994317914" fill="red" stroke="none" /><path d="M 92.06813273071674 119.44442032107085 l -16.55777328466324 40.59022830283475 a64.83750095320849,64.83750095320849 0 0,0 -1.0297693839407394,-0.43044368600400046 l 17.254014128101442 -40.29919957381078" fill="red" stroke="none" /><path d="M 91.7346041902142 119.30500536409082 l -16.862212571099633 39.38409141279277 a63.84204557679486,63.84204557679486 0 0,0 -1.0065133989540402,-0.4412258953992411 l 17.53764664471142 -39.08800096409908" fill="red" stroke="none" /><line stroke="#e1ed5e" stroke-width="0.3" x1="58.666819895761336" x2="56.23545636021788" y1="174.27360380694188" y2="178.64263932499728" /><path d="M 58.180547188652646 175.14741091055294 a86.0,86.0 0 0,1 -31.652253787137756,-30.449443065178592" fill="none" id="id20" stroke="none" /><text fill="#e1ed5e" style="font-size:6.75px; font-family:Arial;" text-anchor="middle"><textPath startOffset="22.20632615414155" xlink:href="#id20">August</textPath></text><path d="M 85.70375840098266 115.38237550388516 l -28.33743526801529 30.490326222495547 a62.62535562278305,62.62535562278305 0 0,0 -0.7833065133636579,-0.7406651999127583 l 28.858077615769762 -29.99802638583686" fill="red" stroke="none" /><path d="M 85.18274418774928 114.88116024355367 l -12.978514433899813 13.03448867059819 a39.394013477620874,39.394013477620874 0 0,0 -0.47640376377764265,-0.4825944974938989 l 13.20095882273299 -12.809153679123629" fill="red" stroke="none" /><path d="M 84.67929136418377 114.36230785411682 l -23.032890490754216 21.592047199763737 a52.57103968253027,52.57103968253027 0 0,0 -0.6132126193159457,-0.6655211873042638 l 23.401149518065893 -21.19237475765813" fill="red" stroke="none" /><path d="M 83.95833913139862 113.55231037782056 l -19.80369541756117 16.73055110221959 a46.92484700775521,46.92484700775521 0 0,0 -0.5159588037368809,-0.6215056169936248 l 20.08875022119159 -16.3871842281122" fill="red" stroke="none" /><path d="M 83.50135304334701 112.99209946851258 l -27.65971466040071 21.781044535515242 a56.206160201772704,56.206160201772704 0 0,0 -0.5920199746181541,-0.7652656222896532 l 28.030541452236932 -21.301700919112335" fill="red" stroke="none" /><path d="M 83.28015986056508 112.70617746262583 l -24.91133674347358 18.931273436475845 a52.28846132799363,52.28846132799363 0 0,0 -0.5384186020965892,-0.7212997046188334 l 25.233516612265255 -18.499660852347706" fill="red" stroke="none" /><path d="M 83.06392112726016 112.41649034213515 l -20.94261081712469 15.353832897440723 a46.9679250707499,46.9679250707499 0 0,0 -0.4724083278633669,-0.6561338494022326 l 21.203798937363665 -14.991065442587349" fill="red" stroke="none" /><path d="M 82.85270091963577 112.12312394758628 l -20.968855008648745 14.824960311091424 a46.68019331311915,46.68019331311915 0 0,0 -0.4582196525267959,-0.6600995851014394 l 21.220935568337673 -14.461819463802973" fill="red" stroke="none" /><path d="M 82.44556493220864 111.52570212397912 l -26.47231020329518 17.380904640820283 a52.668265718740805,52.668265718740805 0 0,0 -0.491056680099758,-0.7621308724534757 l 26.76757174677198 -16.92265216844536" fill="red" stroke="none" /><path d="M 82.24976979558568 111.22182372390057 l -22.14163201463895 13.998099662164355 a47.19539391617485,47.19539391617485 0 0,0 -0.42820911361100655,-0.6904094358909717 l 22.379305767917913 -13.61489389490812" fill="red" stroke="none" /><path d="M 82.05923443525364 110.91462005526583 l -7.717689432631141 4.695209218230476 a30.033699119491573,30.033699119491573 0 0,0 -0.2648959738311911,-0.4439808889290244 l 7.797366282160564 -4.561666235415339" fill="red" stroke="none" /><line stroke="#e1ed5e" stroke-width="0.3" x1="26.63291911575756" x2="22.317208475507996" y1="142.92168965132927" y2="145.44649492493687" /><path d="M 25.769776987707644 143.4266507060508 a86.0,86.0 0 0,1 -11.730757126820373,-40.83630448921669" fill="none" id="id21" stroke="none" /><text fill="#e1ed5e" style="font-size:6.75px; font-family:Arial;" text-anchor="middle"><textPath startOffset="21.46611528233685" xlink:href="#id21">September</textPath></text><path d="M 81.69416730710424 110.29060199501025 l -22.990010894515166 12.92380717913034 a47.37357376112056,47.37357376112056 0 0,0 -0.3934794682156172,-0.7142795286488628 l 23.209066772182304 -12.526157132083656" fill="red" stroke="none" /><path d="M 81.51974371655577 109.97397251340807 l -23.24087126101204 12.543322321382192 a47.409714724491444,47.409714724491444 0 0,0 -0.38141678040364363,-0.7214968078570314 l 23.45334054964057 -12.141410498439035" fill="red" stroke="none" /><path d="M 81.35079622478065 109.6543875284942 l -23.332803755902667 12.079010573369088 a47.273983853672206,47.273983853672206 0 0,0 -0.36788463456522197,-0.7258712852215153 l 23.537267060254155 -11.675585076444886" fill="red" stroke="none" /><path d="M 81.18737489456691 109.33194174019688 l -23.677858459191196 11.745324984442856 a47.43092204603671,47.43092204603671 0 0,0 -0.35651507527276316,-0.7345266513390879 l 23.87652679107868 -11.336009377138485" fill="red" stroke="none" /><path d="M 80.87730276802145 108.67885076344099 l -24.05388154070773 10.91687253324206 a47.415285784587965,47.415285784587965 0 0,0 -0.3309110881783608,-0.7461171458662536 l 24.238233713617372 -10.501207050883112" fill="red" stroke="none" /><path d="M 80.73074385275274 108.34839909993369 l -8.100545027408922 3.509558557892431 a29.828127265301255,29.828127265301255 0 0,0 -0.20006011705660423,-0.47288301991860004 l 8.159756125657832 -3.3696010123076725" fill="red" stroke="none" /><path d="M 80.0844068197444 106.66101706037122 l -8.338981721705048 2.789075826748146 a29.793040436747788,29.793040436747788 0 0,0 -0.15848159440814075,-0.4877561940552226 l 8.385755567129438 -2.6451207327151196" fill="red" stroke="none" /><line stroke="#e1ed5e" stroke-width="0.3" x1="15.007084014347285" x2="10.007500721073583" y1="101.09737516637583" y2="101.16192664675087" /><path d="M 14.007167355692545 101.11028546245083 a86.0,86.0 0 0,1 10.666146001902534,-42.60595125391555" fill="none" id="id22" stroke="none" /><text fill="#e1ed5e" style="font-size:6.75px; font-family:Arial;" text-anchor="middle"><textPath startOffset="22.20632615414155" xlink:href="#id22">October</textPath></text><path d="M 79.05617556472873 98.46500227214037 l -24.825676272649332 -1.8195032520860586 a45.892263747572976,45.892263747572976 0 0,0 0.06452346551613683,-0.7873497112419309 l 24.7906783233137 2.246566880535768" fill="red" stroke="none" /><path d="M 79.21141760316559 97.0276538004421 l -24.50206983932196 -3.5032996852782485 a45.751253202532624,45.751253202532624 0 0,0 0.1181778978096974,-0.7786446906552048 l 24.43813604807296 3.9245434883255457" fill="red" stroke="none" /><path d="M 79.3925641242962 95.95851677861259 l -26.314636088326452 -5.1607662821008216 a47.81592029148956,47.81592029148956 0 0,0 0.16535360943049857,-0.8063229237222281 l 26.22190318298096 5.612964861986453" fill="red" stroke="none" /><path d="M 79.62865764111835 94.90015583598534 l -23.684330403528186 -5.929230978456688 a45.41522653303426,45.41522653303426 0 0,0 0.19637472181621213,-0.7567119094484175 l 23.578759349841665 6.336039313453969" fill="red" stroke="none" /><path d="M 80.38941819471856 92.48833698450439 l -26.545345300488975 -10.167963934325599 a49.42609448538329,49.42609448538329 0 0,0 0.31116421405355466,-0.7918789844630109 l 26.36638753655373 10.623391923684373" fill="red" stroke="none" /><path d="M 80.803312248108 91.48605970444005 l -39.1579771368786 -17.366989750897375 a63.836427330720305,63.836427330720305 0 0,0 0.4541435398355709,-1.000645091020268 l 38.853231280079676 18.03845685075971" fill="red" stroke="none" /><path d="M 81.43458229118936 90.18545643968196 l -23.652499187987637 -12.503811507603475 a47.75417761874644,47.75417761874644 0 0,0 0.39042883455339467,-0.7234053345639074 l 23.433762254215768 12.909097825499856" fill="red" stroke="none" /><line stroke="#e1ed5e" stroke-width="0.3" x1="26.266209847984257" x2="21.92892807433627" y1="57.711370442889674" y2="55.22380399835377" /><path d="M 25.39875349325466 57.213857153982495 a86.0,86.0 0 0,1 29.58750427330802,-30.492523968695096" fill="none" id="id23" stroke="none" /><text fill="#e1ed5e" style="font-size:6.75px; font-family:Arial;" text-anchor="middle"><textPath startOffset="21.46611528233685" xlink:href="#id23">November</textPath></text><path d="M 84.07557802195018 86.31012108654704 l -22.932205161269998 -19.714317562607942 a51.241368198511296,51.241368198511296 0 0,0 0.5807553596499632,-0.6639037697948696 l 22.58945793804219 20.106136888605754" fill="red" stroke="none" /><path d="M 84.31358615837235 86.03803664274997 l -19.812680847696704 -17.634618517480572 a47.52399088805748,47.52399088805748 0 0,0 0.5491427910615372,-0.6063771855372337 l 19.50619441601912 17.973048490287365" fill="red" stroke="none" /><path d="M 84.5562425177563 85.77008943001954 l -25.02405150673978 -23.057213599015828 a55.02702239048556,55.02702239048556 0 0,0 0.6478322909329253,-0.6910623191670165 l 24.6234518938364 23.484545335060893" fill="red" stroke="none" /><path d="M 85.83668400450813 84.49514656593479 l -19.38135248726402 -21.2171379756431 a49.73680163332468,49.73680163332468 0 0,0 0.6370787214991944,-0.5719755664330316 l 19.013262778168855 21.547612550845415" fill="red" stroke="none" /><path d="M 88.09926311788651 82.69761687909137 l -14.233385970568573 -20.693802376278338 a46.11618468190663,46.11618468190663 0 0,0 0.6579139258371561,-0.44422641958973663 l 13.875067350324878 20.93574070816674" fill="red" stroke="none" /><path d="M 88.39885842347998 82.49532879139004 l -15.902471748307264 -23.994840294141888 a49.786124581942005,49.786124581942005 0 0,0 0.7184208288923761,-0.46728089128705663 l 15.4870838936306 24.26502010958848" fill="red" stroke="none" /><line stroke="#e1ed5e" stroke-width="0.3" x1="56.762969772571076" x2="54.21961505331055" y1="26.818313649435495" y2="22.513508569990535" /><path d="M 56.25429882871897 25.957352633546506 a86.0,86.0 0 0,1 42.265352541879196,-11.944610805530505" fill="none" id="id24" stroke="none" /><text fill="#e1ed5e" style="font-size:6.75px; font-family:Arial;" text-anchor="middle"><textPath startOffset="22.20632615414155" xlink:href="#id24">December</textPath></text><path d="M 90.26544431104013 81.39251694778311 l -4.146036007814465 -7.925096657136874 a29.94409143530276,29.94409143530276 0 0,0 0.4587713037138946,-0.23500048053636616 l 4.009004216511808 7.995289662985745" fill="red" stroke="none" /><path d="M 90.58718382345135 81.22770947309562 l -11.75487346548956 -23.44313281618553 a47.22513158073731,47.22513158073731 0 0,0 0.7298053389125047,-0.358112310294582 l 11.34959685956663 23.642000286614937" fill="red" stroke="none" /><path d="M 91.56875222667455 80.76684994638697 l -10.69777354934279 -24.403491564443694 a47.64531402421245,47.64531402421245 0 0,0 0.7539672245441432,-0.32280941760601106 l 10.276122567008338 24.584020510012493" fill="red" stroke="none" /><path d="M 91.90106846888425 80.62456947434976 l -10.272710649867303 -24.575858030397566 a47.636467146116686,47.636467146116686 0 0,0 0.7592711404584963,-0.3097257623559963 l 9.848155639820426 24.74904467893714" fill="red" stroke="none" /><path d="M 92.57280143429618 80.3572730644239 l -9.492323087847835 -25.104365899121593 a47.83902727002356,47.83902727002356 0 0,0 0.7727544556114321,-0.28461198754480826 l 9.058786306463835 25.26404115447272" fill="red" stroke="none" /><path d="M 92.91201910852362 80.23233633223022 l -8.984594685273729 -25.057128207456145 a47.61921515866956,47.61921515866956 0 0,0 0.7739664326683962,-0.2700216911287254 l 8.551946248542048 25.20807075175708" fill="red" stroke="none" /><path d="M 93.59665428221793 80.00007090966166 l -8.186972241467087 -25.57082992398921 a47.849466614518334,47.849466614518334 0 0,0 0.7865874182533988,-0.24439653976268325 l 7.74559945050296 25.707966598634417" fill="red" stroke="none" /><path d="M 93.94186890950719 79.89281104454417 l -7.638803789845911 -25.35350736089624 a47.479268472500976,47.479268472500976 0 0,0 0.7845605054901805,-0.2290347256181946 l 7.201253066632309 25.481240415433135" fill="red" stroke="none" /><path d="M 94.28887869178378 79.79150937346287 l -6.873385851990196 -24.321100194928277 a46.273688843579585,46.273688843579585 0 0,0 0.768368236817185,-0.21002406440043841 l 6.453719725949289 24.43581080015501" fill="red" stroke="none" /><path d="M 94.63758080256005 79.69619591428918 l -6.8352841337365575 -25.880533544973535 a47.767949599500724,47.767949599500724 0 0,0 0.7967946738308593,-0.2031207037329603 l 6.388780571220699 25.994357244875356" fill="red" stroke="none" /><path d="M 95.33964822691252 79.52364482259891 l -5.870667422606701 -25.79416257113432 a47.453800459158266,47.453800459158266 0 0,0 0.7980311856532728,-0.17441870759519568 l 5.425793512799907 25.891394776825383" fill="red" stroke="none" /><path d="M 96.04723909329186 79.375362276772 l -4.821648867913637 -25.158304151552848 a46.61617780988206,46.61617780988206 0 0,0 0.789378107844243,-0.14425380363065135 l 4.3878756389665 25.237573436534234" fill="red" stroke="none" /><path d="M 96.40284397218896 79.31037775812273 l -1.5108041421438434 -8.689633349443806 a29.81999188796027,29.81999188796027 0 0,0 0.5064723895052752,-0.08357228389126047 l 1.3610025464996824 8.714351896274694" fill="red" stroke="none" /><path d="M 96.75951476605007 79.25152402106235 l -1.6121118587742962 -10.322177625345088 a31.447308532553993,31.447308532553993 0 0,0 0.535549191108197,-0.07892602942654384 l 1.4341936872374503 10.3483981389326" fill="red" stroke="none" /><path d="M 97.83486435360386 79.11191278185805 l -0.9051337549596775 -8.73225326512537 a29.779038341450622,29.779038341450622 0 0,0 0.5103203637383106,-0.04846106762764934 l 0.7546882641311305 8.7465398772682" fill="red" stroke="none" /></svg>