<?xml version="1.0" encoding="utf-8" ?>
<svg baseProfile="full" height="200mm" version="1.1" viewBox="0,0,200,200" width="200mm" xmlns="http://www.w3.org/2000/svg" xmlns:ev="http://www.w3.org/2001/xml-events" xmlns:xlink="http://www.w3.org/1999/xlink"><defs /><rect fill="#1a1a1a" height="200" width="200" x="0" y="0" /><text alignment-baseline="middle" fill="#e1ed5e" style="dominant-baseline: central; font-size:9.0px; font-family:Arial;" text-anchor="middle" x="100.0" y="100.0">2026</text><line stroke="#e1ed5e" stroke-width="0.3" x1="100.0" x2="100.0" y1="15.0" y2="10.0" /><path d="M 100.0 14.0 a86.0,86.0 0 0,1 42.46469731375804,11.215312516191453" fill="none" id="id61" stroke="none" /><text fill="#e1ed5e" style="font-size:6.75px; font-family:Arial;" text-anchor="middle"><textPath startOffset="22.20632615414155" xlink:href="#id61">January</textPath></text><path d="M 100.36148047927253 79.00311137660856 l 0.05257275558153154 -3.053731409761604 a24.054183920066706,24.054183920066706 0 0,0 0.4139305419445719,0.010690604684375854 l -0.10512993272097126 3.0523740129348687" fill="#ff0000" stroke="none" /><path d="M 101.08401301168833 79.027996857942 l 0.7692985683084999 -14.88333794685601 a35.903206659223564,35.903206659223564 0 0,0 0.6169161681429635,0.03721406798736152 l -1.0253767852910751 14.867890609488345" fill="#ffa90f" stroke="none" /><path d="M 101.44485096284872 79.0497635885617 l 1.0654394994208565 -15.448797120875478 a36.48549301148971,36.48549301148971 0 0,0 0.6261776012996491,0.04860343337719212 l -1.3312072900828467 15.42816842530982" fill="#ffb110" stroke="none" /><path d="M 101.80526077348638 79.07773832637324 l 1.2792377004109783 -14.825861340286323 a35.880948006614005,35.880948006614005 0 0,0 0.6148881716077034,0.058391040971677875 l -1.534250999108926 14.801644754799467" fill="#ffa90f" stroke="none" /><path d="M 102.16513564639614 79.11191278185805 l 1.542910440140173 -14.885186476456548 a35.96493732246074,35.96493732246074 0 0,0 0.6152287139244613,0.06912811445289192 l -1.7989058575743597 14.856422408533057" fill="#ffaa0f" stroke="none" /><path d="M 102.88285421437855 79.19881850522331 l 2.19170907534723 -15.814236471848268 a36.96538956175186,36.96538956175186 0 0,0 0.6295223789438688,0.09277523452585075 l -2.463600434719755 15.774166753161447" fill="#ffb811" stroke="none" /><path d="M 103.2404852339499 79.25152402106235 l 3.337435547553432 -21.369238336339695 a42.62828756765924,42.62828756765924 0 0,0 0.7240126270332067,0.11946828704005161 l -3.7047773807255138 21.30862378636002" fill="#fdff18" stroke="none" /><path d="M 103.59715602781102 79.31037775812273 l 2.6809765180213154 -15.420068234003896 a36.65139416893964,36.65139416893964 0 0,0 0.6206387897550298,0.11341777180442338 l -2.9460104288792457 15.371634980848734" fill="#ffb310" stroke="none" /><path d="M 103.95276090670814 79.375362276772 l 3.257275197632022 -16.995746138352747 a38.3050636668127,38.3050636668127 0 0,0 0.6465048214770851,0.12968278518671653 l -3.549346428576232 16.93715939708882" fill="#ffc912" stroke="none" /><path d="M 104.307194497241 79.44645832069477 l 2.87050934731121 -13.697810384134822 a34.99535041478822,34.99535041478822 0 0,0 0.5885172676085387,0.12862708006793946 l -3.105869339073277 13.646369805971013" fill="#ff9d0e" stroke="none" /><path d="M 104.66035177308747 79.52364482259891 l 3.094606882662109 -13.596885546225469 a34.94460068683843,34.94460068683843 0 0,0 0.5853658471515661,0.1385371836087766 l -3.3281964167761986 13.541602450475823" fill="#ff9c0e" stroke="none" /><path d="M 106.40334571778207 80.00007090966166 l 4.555072947675355 -14.227115006743741 a35.938523721364064,35.938523721364064 0 0,0 0.5875386922282211,0.19370226931629966 l -4.799294462145993 14.146599013168206" fill="#ffaa0f" stroke="none" /><path d="M 106.74666289553966 80.11325718540242 l 4.847826117678571 -14.289652929880287 a36.08958577707429,36.08958577707429 0 0,0 0.586572623410361,0.20464367065249725 l -5.093080745152206 14.20408840605558" fill="#ffac0f" stroke="none" /><path d="M 107.08798089147638 80.2323363322302 l 5.2274096980129015 -14.57871830442158 a36.487570485733265,36.487570485733265 0 0,0 0.5893918475418867,0.21707799153209084 l -5.477583871327364 14.486577045083164" fill="#ffb110" stroke="none" /><path d="M 107.76421540070413 80.48803036053334 l 5.707920136367507 -14.344368188858182 a36.43830466795743,36.43830466795743 0 0,0 0.580785158915148,0.23691684896836446 l -5.953989164871042 14.243990453706239" fill="#ffb110" stroke="none" /><path d="M 108.09893153111575 80.62456947434976 l 11.724387745139282 -28.048769067743414 a51.40057095210503,51.40057095210503 0 0,0 0.8133925993445629,0.3482522618117888 l -12.20546410227416 27.842797277968835" fill="#95ff23" stroke="none" /><path d="M 108.43124777332544 80.76684994638697 l 6.088076057184097 -13.88796575473514 a36.16378128577283,36.16378128577283 0 0,0 0.5679743681859187,0.25483354294957694 l -6.326232543836795 13.781111881269032" fill="#ffad10" stroke="none" /><path d="M 108.76106565485865 80.91482961587045 l 6.352729075022085 -13.838832121269652 a36.22729264121878,36.22729264121878 0 0,0 0.5644933094205963,0.2650371778018734 l -6.5900005957422785 13.727429960827775" fill="#ffae10" stroke="none" /><path d="M 109.08828744355905 81.06846463323043 l 6.539908987565397 -13.623085654194838 a36.11154764764906,36.11154764764906 0 0,0 0.5580588002087605,0.27383702963967904 l -6.773439054784589 13.508493464420328" fill="#ffac0f" stroke="none" /><path d="M 109.41281617654863 81.2277094730956 l 6.740980609257124 -13.443760513296588 a36.039132831159286,36.039132831159286 0 0,0 0.5521530011819648,0.28283421294431976 l -6.971394098027845 13.325733775039769" fill="#ffab0f" stroke="none" /><line stroke="#e1ed5e" stroke-width="0.3" x1="143.23703022742887" x2="145.7803849466894" y1="26.81831364943548" y2="22.513508569990506" /><path d="M 143.74570117128098 25.957352633546492 a86.0,86.0 0 0,1 28.547481713284135,27.462654790039103" fill="none" id="id62" stroke="none" /><text fill="#e1ed5e" style="font-size:6.75px; font-family:Arial;" text-anchor="middle"><textPath startOffset="19.985693538727396" xlink:href="#id62">February</textPath></text><path d="M 110.99172775467656 82.1063720568725 l 8.403291519340055 -13.679866832649203 a37.054720954224905,37.054720954224905 0 0,0 0.540612229264985,0.3385313283698724 l -8.637522900977304 13.533191162956387" fill="#ffb911" stroke="none" /><path d="M 111.2981086023043 82.29822771554956 l 8.081072011634175 -12.661349045186073 a36.02043556296726,36.02043556296726 0 0,0 0.5197799867234122,0.33807936198586874 l -8.297819024141868 12.520370759040677" fill="#ffab0f" stroke="none" /><path d="M 111.60114157652 82.49532879139004 l 9.201199372742405 -13.88345868226516 a37.655704574683085,37.655704574683085 0 0,0 0.53721296758996,0.36272859378375527 l -9.438817034738907 13.723018176182732" fill="#ffc111" stroke="none" /><path d="M 112.19680574252982 82.90503203632743 l 8.737835140410715 -12.24689602756526 a36.044474907785585,36.044474907785585 0 0,0 0.501970262207154,0.36470274328749736 l -8.947350718971657 12.094674049461087" fill="#ffab0f" stroke="none" /><path d="M 116.82858285166822 87.43820079747576 l 12.102909209267276 -9.034291038839667 a36.10294096864003,36.10294096864003 0 0,0 0.36745468015294697,0.5012077707747443 l -12.25662650193385 8.82462082439343" fill="#ffac0f" stroke="none" /><path d="M 117.04232023915458 87.72973835380427 l 12.308890998208483 -8.86225062098785 a36.167342670190365,36.167342670190365 0 0,0 0.35941276145225076,0.5083638623647313 l -12.459616379464617 8.649060258291327" fill="#ffad10" stroke="none" /><path d="M 117.45458315368197 88.32363383020206 l 12.422629031210498 -8.310205066649106 a35.94594327223392,35.94594327223392 0 0,0 0.3396093376402082,0.5172483204834453 l -12.56383500420863 8.095138682187986" fill="#ffaa0f" stroke="none" /><path d="M 117.65298651832404 88.62581576622439 l 25.29382398206308 -16.29733380524844 a51.08954337964076,51.08954337964076 0 0,0 0.46995666196865366,0.7433585788979209 l -25.57060824027769 15.859527578636312" fill="#98ff23" stroke="none" /><line stroke="#e1ed5e" stroke-width="0.3" x1="172.23445277983987" x2="176.4835382374775" y1="55.19839476539836" y2="52.563006222186495" /><path d="M 173.08426987136738 54.67131705675599 a86.0,86.0 0 0,1 12.851231095245387,41.99856678651699" fill="none" id="id63" stroke="none" /><text fill="#e1ed5e" style="font-size:6.75px; font-family:Arial;" text-anchor="middle"><textPath startOffset="22.20632615414155" xlink:href="#id63">March</textPath></text><path d="M 118.03404312379186 89.2402003453031 l 12.788906710224166 -7.630350723908418 a35.89222572393618,35.89222572393618 0 0,0 0.3119894556015144,0.5332911124909143 l -12.918355840296009 7.409080199063608" fill="#ffa90f" stroke="none" /><path d="M 118.21658344932153 89.55222093294921 l 12.941268486418615 -7.422221316617098 a35.918639325032856,35.918639325032856 0 0,0 0.30298630912393776,0.5389788358105922 l -13.067112436834986 7.198358970871712" fill="#ffaa0f" stroke="none" /><path d="M 118.3937258080291 89.86733742301442 l 13.637960270671412 -7.51282535704252 a36.57037267344083,36.57037267344083 0 0,0 0.29899222840915085,0.5539871901924057 l -13.765260598299028 7.276957183517656" fill="#ffb210" stroke="none" /><path d="M 118.73160827565052 90.50648371742162 l 13.279087244353102 -6.730080467031716 a35.887180429344674,35.887180429344674 0 0,0 0.27451981901469685,0.5534152037072101 l -13.392967076321208 6.500505674825556" fill="#ffa90f" stroke="none" /><path d="M 119.04729006885535 91.15688171328212 l 40.41630425540424 -18.764147443048692 a65.55974505009962,65.55974505009962 0 0,0 0.46640352433136023,1.0276583417342053 l -40.73331009669895 18.065667092472427" fill="#35ff68" stroke="none" /><path d="M 119.196687751892 91.48605970444005 l 13.627779069136635 -6.044068583877204 a35.907955171780266,35.907955171780266 0 0,0 0.24572889279701823,0.5671761641250207 l -13.729798671776335 5.80859327516558" fill="#ffa90f" stroke="none" /><path d="M 119.34039704204932 91.81776055985345 l 13.882588874386682 -5.873233417720478 a36.0738563292302,36.0738563292302 0 0,0 0.23701951637223118,0.5739615591147558 l -13.981630077645113 5.633397288152419" fill="#ffac0f" stroke="none" /><path d="M 119.47837535516314 92.15188598940014 l 13.810132065430885 -5.564298303873335 a35.88896112155344,35.88896112155344 0 0,0 0.22594057849115465,0.5749941277430077 l -13.90386619380374 5.325755171234543" fill="#ffa90f" stroke="none" /><path d="M 119.7369772167798 92.82701384747503 l 14.211326505712545 -5.164805487429083 a36.12074789072768,36.12074789072768 0 0,0 0.2073449941463234,0.58619221982885 l -14.298124580668679 4.919415641173619" fill="#ffac0f" stroke="none" /><path d="M 119.97218684219823 93.5106431181261 l 59.91656052659467 -19.46807064562169 a84.0,84.0 0 0,0 0.4349780649271753,1.3789993342943234 l -60.24279407529006 18.433821144900946" fill="#4dd2ff" stroke="none" /><path d="M 120.18372546131832 94.20196356495316 l 14.347020725673447 -4.121367438397253 a35.92724600404189,35.92724600404189 0 0,0 0.16563012906228677,0.5958596991664009 l -14.415837625302098 3.8737964358119004" fill="#ffaa0f" stroke="none" /><path d="M 120.28053869075195 94.5502522615342 l 15.74744749482023 -4.23162410427686 a37.30609533769556,37.30609533769556 0 0,0 0.16131096667899789,0.6215969574988116 l -15.81795479336953 3.959930721229198" fill="#ffbc11" stroke="none" /><path d="M 120.45610955862082 95.25157060432595 l 14.54294989112934 -3.3758213195407407 a35.92962026032024,35.92962026032024 0 0,0 0.1346601327320245,0.60365497083909 l -14.598904410863401 3.124988179151687" fill="#ffaa0f" stroke="none" /><path d="M 120.73433829027371 96.67025291283417 l 14.73518471522639 -2.366337314337695 a35.923981401659155,35.923981401659155 0 0,0 0.09279353691600992,0.6113934685411102 l -14.7737341455817 2.1123447334045027" fill="#ffaa0f" stroke="none" /><path d="M 120.78858239683441 97.02765380044208 l 15.319309938214738 -2.1903510208390196 a36.475105640271906,36.475105640271906 0 0,0 0.08351757209392184,0.6223029201030063 l -15.354743509366497 1.9263297586713493" fill="#ffb110" stroke="none" /><path d="M 120.98425023603335 99.18683210126433 l 15.07619284118243 -0.5842227344652293 a36.087508302830734,36.087508302830734 0 0,0 0.018711038892174604,0.620928288326712 l -15.084015574530248 0.32462429871351833" fill="#ffac0f" stroke="none" /><line stroke="#e1ed5e" stroke-width="0.3" x1="184.98032266829074" x2="189.97916517819016" y1="98.17113171792111" y2="98.06355123074" /><path d="M 185.9800911702706 98.14961562048488 a86.0,86.0 0 0,1 -9.607161424134198,41.387399972396054" fill="none" id="id64" stroke="none" /><text fill="#e1ed5e" style="font-size:6.75px; font-family:Arial;" text-anchor="middle"><textPath startOffset="21.466115282336823" xlink:href="#id64">April</textPath></text><path d="M 120.99513854157772 99.54816195383933 l 17.97637711869141 -0.3868710415161892 a38.98053957800421,38.98053957800421 0 0,0 0.008662947655150138,0.6709548427946492 l -17.980373073464275 0.07737994066107724" fill="#ffd213" stroke="none" /><path d="M 120.95626037817324 101.35467743843564 l 18.001137128079083 1.1636491384213559 a39.038708856823874,39.038708856823874 0 0,0 -0.049120811109442226,0.6702144409222127 l -17.978439758305303 -1.4733367158403388" fill="#ffd313" stroke="none" /><path d="M 120.92983693683757 101.71520430193887 l 15.340284673585973 1.2571393816638687 a36.391709888494745,36.391709888494745 0 0,0 -0.05653782034665194,0.6238901363047206 l -15.316372256962246 -1.5210109065171598" fill="#ffb010" stroke="none" /><path d="M 120.89721153311464 102.0752229133903 l 17.761994844982464 1.7638764210917737 a38.84936191862519,38.84936191862519 0 0,0 -0.07181156275398616,0.6648858840944195 l -17.729000980727427 -2.0693586270709847" fill="#ffd013" stroke="none" /><path d="M 120.81339534386255 102.79330883721812 l 14.81401701130527 1.9881486873587226 a35.9468336183383,35.9468336183383 0 0,0 -0.08758351690621988,0.6125589132518671 l -14.777599443382448 -2.242853072590999" fill="#ffaa0f" stroke="none" /><path d="M 120.76222939487914 103.15116336523771 l 11.05084983493179 1.677229958896853 a32.17740499441767,32.17740499441767 0 0,0 -0.08782630492792079,0.5468944846229176 l -11.020341775642581 -1.8672036732129755" fill="#ff760a" stroke="none" /><path d="M 120.70491114924044 103.5080841355445 l 62.07201213979173 10.517014030118998 a83.95666982292005,83.95666982292005 0 0,0 -0.2536833042675406,1.4227906924218807 l -61.881782393185006 -11.583923473274098" fill="#4dd2ff" stroke="none" /><path d="M 120.5718875245553 104.21870165774334 l 14.563334556452514 2.9865204912403955 a35.86640568690908,35.86640568690908 0 0,0 -0.12923171732376557,0.6037275598826517 l -14.509768800404306 -3.2367618705392163" fill="#ffa90f" stroke="none" /><path d="M 120.32669344350535 105.2749913415812 l 14.624739795769546 3.7952742294252215 a36.10917339137071,36.10917339137071 0 0,0 -0.1613081436929904,0.6002876107839882 l -14.557243575734779 -4.0464527733847575" fill="#ffac0f" stroke="none" /><path d="M 120.23288151984713 105.62410040840565 l 15.588631860505462 4.33314605866464 a37.17966619087325,37.17966619087325 0 0,0 -0.17670497352219522,0.6151331943454259 l -15.511734250097167 -4.600836728514649" fill="#ffba11" stroke="none" /><path d="M 120.13307415673323 105.97154293290107 l 19.96804662651226 5.922595167937147 a41.82786641981939,41.82786641981939 0 0,0 -0.21067944906698327,0.6885126293822436 l -19.863140404939145 -6.265434769871448" fill="#fff717" stroke="none" /><path d="M 119.79798401119884 107.00284435728193 l 14.717474200781101 5.205791716069849 a36.611031812207635,36.611031812207635 0 0,0 -0.21526543849397575,0.5923180339083886 l -14.6256845012819 -5.458357546984369" fill="#ffb310" stroke="none" /><path d="M 119.26925614724726 108.34839909993367 l 27.27580513727281 11.817233904511886 a50.72568860498311,50.72568860498311 0 0,0 -0.3540143761050265,0.7982089610509803 l -27.068349676436508 -12.284991202055554" fill="#9cff22" stroke="none" /><path d="M 119.12269723197855 108.67885076344098 l 13.563361956479586 6.155742196972485 a35.894896762249324,35.894896762249324 0 0,0 -0.26019592443467143,0.5604388731161728 l -13.455391415205083 -6.388301137367488" fill="#ffa90f" stroke="none" /><path d="M 118.97047184881838 109.00673069616215 l 14.090519777814087 6.689845040181378 a36.597973402676686,36.597973402676686 0 0,0 -0.27508909124351516,0.566765006659027 l -13.973277429955857 -6.93139900280568" fill="#ffb310" stroke="none" /><line stroke="#e1ed5e" stroke-width="0.3" x1="174.80103733775053" x2="179.2010983576182" y1="140.37084112569926" y2="142.7455964860345" /><path d="M 175.68104954172406 140.8457921977663 a86.0,86.0 0 0,1 -30.038265399797805,32.042727171017184" fill="none" id="id65" stroke="none" /><text fill="#e1ed5e" style="font-size:6.75px; font-family:Arial;" text-anchor="middle"><textPath startOffset="22.206326154141568" xlink:href="#id65">May</textPath></text><line stroke="#e1ed5e" stroke-width="0.3" x1="143.8653032363475" x2="146.44561519142675" y1="172.8068346515853" y2="177.08958963109032" /><path d="M 144.38136562736335 173.6633856474863 a86.0,86.0 0 0,1 -40.68145358897372,12.25698825130547" fill="none" id="id66" stroke="none" /><text fill="#e1ed5e" style="font-size:6.75px; font-family:Arial;" text-anchor="middle"><textPath startOffset="21.466115282336833" xlink:href="#id66">June</textPath></text><line stroke="#e1ed5e" stroke-width="0.3" x1="102.19456741930631" x2="102.32365962044197" y1="184.97166512339345" y2="189.96999836594603" /><path d="M 102.22038585953345 185.97133177190398 a86.0,86.0 0 0,1 -42.740103519485714,-10.115201625700543" fill="none" id="id67" stroke="none" /><text fill="#e1ed5e" style="font-size:6.75px; font-family:Arial;" text-anchor="middle"><textPath startOffset="22.20632615414155" xlink:href="#id67">July</textPath></text><line stroke="#e1ed5e" stroke-width="0.3" x1="58.666819895761336" x2="56.23545636021788" y1="174.27360380694188" y2="178.64263932499728" /><path d="M 58.180547188652646 175.14741091055294 a86.0,86.0 0 0,1 -31.652253787137756,-30.449443065178592" fill="none" id="id68" stroke="none" /><text fill="#e1ed5e" style="font-size:6.75px; font-family:Arial;" text-anchor="middle"><textPath startOffset="22.20632615414155" xlink:href="#id68">August</textPath></text><line stroke="#e1ed5e" stroke-width="0.3" x1="26.63291911575756" x2="22.317208475507996" y1="142.92168965132927" y2="145.44649492493687" /><path d="M 25.769776987707644 143.4266507060508 a86.0,86.0 0 0,1 -11.730757126820373,-40.83630448921669" fill="none" id="id69" stroke="none" /><text fill="#e1ed5e" style="font-size:6.75px; font-family:Arial;" text-anchor="middle"><textPath startOffset="21.46611528233685" xlink:href="#id69">September</textPath></text><line stroke="#e1ed5e" stroke-width="0.3" x1="15.007084014347285" x2="10.007500721073583" y1="101.09737516637583" y2="101.16192664675087" /><path d="M 14.007167355692545 101.11028546245083 a86.0,86.0 0 0,1 10.666146001902534,-42.60595125391555" fill="none" id="id70" stroke="none" /><text fill="#e1ed5e" style="font-size:6.75px; font-family:Arial;" text-anchor="middle"><textPath startOffset="22.20632615414155" xlink:href="#id70">October</textPath></text><line stroke="#e1ed5e" stroke-width="0.3" x1="26.266209847984243" x2="21.928928074336255" y1="57.711370442889674" y2="55.22380399835377" /><path d="M 25.398753493254645 57.213857153982495 a86.0,86.0 0 0,1 29.58750427330803,-30.492523968695096" fill="none" id="id71" stroke="none" /><text fill="#e1ed5e" style="font-size:6.75px; font-family:Arial;" text-anchor="middle"><textPath startOffset="21.46611528233685" xlink:href="#id71">November</textPath></text><line stroke="#e1ed5e" stroke-width="0.3" x1="56.762969772571076" x2="54.21961505331055" y1="26.818313649435495" y2="22.513508569990535" /><path d="M 56.25429882871897 25.957352633546506 a86.0,86.0 0 0,1 42.265352541879196,-11.944610805530505" fill="none" id="id72" stroke="none" /><text fill="#e1ed5e" style="font-size:6.75px; font-family:Arial;" text-anchor="middle"><textPath startOffset="22.20632615414155" xlink:href="#id72">December</textPath></text></svg>