<?xml version="1.0" encoding="utf-8" ?>
<svg baseProfile="full" height="200mm" version="1.1" viewBox="0,0,200,200" width="200mm" xmlns="http://www.w3.org/2000/svg" xmlns:ev="http://www.w3.org/2001/xml-events" xmlns:xlink="http://www.w3.org/1999/xlink"><defs /><rect fill="#1a1a1a" height="200" width="200" x="0" y="0" /><text alignment-baseline="middle" fill="#e1ed5e" style="dominant-baseline: central; font-size:9.0px; font-family:Arial;" text-anchor="middle" x="100.0" y="100.0">2025</text><line stroke="#e1ed5e" stroke-width="0.3" x1="100.0" x2="100.0" y1="15.0" y2="10.0" /><path d="M 100.0 14.0 a86.0,86.0 0 0,1 42.46469731375804,11.215312516191453" fill="none" id="id49" stroke="none" /><text fill="#e1ed5e" style="font-size:6.75px; font-family:Arial;" text-anchor="middle"><textPath startOffset="22.20632615414155" xlink:href="#id49">January</textPath></text><path d="M 101.08401301168833 79.027996857942 l 2.0147370172249093 -38.97837996414178 a60.030414677243506,60.030414677243506 0 0,0 1.031488182830716,0.06222218406039045 l -2.6853872488952373 38.93792451070108" fill="#43ff2d" stroke="none" /><path d="M 101.44485096284872 79.0497635885617 l 1.8187156780748575 -26.37124824676266 a47.433888492048574,47.433888492048574 0 0,0 0.8140780366298596,0.06318812352126994 l -2.272383904067058 26.336034861052926" fill="#d6ff1c" stroke="none" /><path d="M 103.59715602781102 79.31037775812273 l 6.9199171693320265 -39.80101810198197 a61.39809767284485,61.39809767284485 0 0,0 1.039688718450679,0.1899964677738173 l -7.604001008885606 39.67600615285741" fill="#35ff2f" stroke="none" /><path d="M 105.36241919743992 79.69619591428918 l 6.69165026784811 -25.336690595421224 a47.20545885183654,47.20545885183654 0 0,0 0.7838401496094602,0.21425312262145704 l -7.126788306681282 25.217750931973473" fill="#d9ff1c" stroke="none" /><line stroke="#e1ed5e" stroke-width="0.3" x1="143.23703022742887" x2="145.7803849466894" y1="26.81831364943548" y2="22.513508569990506" /><path d="M 143.74570117128098 25.957352633546492 a86.0,86.0 0 0,1 28.547481713284135,27.462654790039103" fill="none" id="id50" stroke="none" /><text fill="#e1ed5e" style="font-size:6.75px; font-family:Arial;" text-anchor="middle"><textPath startOffset="19.985693538727396" xlink:href="#id50">February</textPath></text><path d="M 113.06298171725822 83.55741782278167 l 24.654767566338442 -31.033346792038795 a60.63491108688297,60.63491108688297 0 0,0 0.8116317826127172,0.6562831229990536 l -25.18530274751565 30.604357571775616" fill="#3dff2e" stroke="none" /><path d="M 113.6212207817346 84.01681056812373 l 17.190183074859753 -20.171022616603373 a47.502312116996876,47.502312116996876 0 0,0 0.6177702865604192,0.535724304895704 l -17.534847160066935 19.872133318287997" fill="#d5ff1c" stroke="none" /><path d="M 116.15771136456269 86.58626213691792 l 12.803544055591415 -10.629189976545552 a37.6406255874281,37.6406255874281 0 0,0 0.40956855742450615,0.5020826234710947 l -12.98461110509233 10.407223183466357" fill="#ffa50f" stroke="none" /><path d="M 116.38621287248628 86.86637796730983 l 37.47121546072919 -30.03334478786385 a69.02180533102748,69.02180533102748 0 0,0 0.7350688148724798,0.933462747481168 l -37.982638356195636 29.383889646429644" fill="#39ff89" stroke="none" /><path d="M 116.60985879189232 87.15038557335679 l 25.132410496533343 -19.442777240840233 a52.77514192262868,52.77514192262868 0 0,0 0.5496758712650441,0.7233090143034111 l -25.4633623080225 19.00728345065579" fill="#95ff23" stroke="none" /><line stroke="#e1ed5e" stroke-width="0.3" x1="172.23445277983987" x2="176.4835382374775" y1="55.19839476539836" y2="52.563006222186495" /><path d="M 173.08426987136738 54.67131705675599 a86.0,86.0 0 0,1 12.851231095245387,41.99856678651699" fill="none" id="id51" stroke="none" /><text fill="#e1ed5e" style="font-size:6.75px; font-family:Arial;" text-anchor="middle"><textPath startOffset="22.20632615414155" xlink:href="#id51">March</textPath></text><path d="M 118.03404312379186 89.2402003453031 l 22.868839977649518 -13.644424314933886 a47.6299484943043,47.6299484943043 0 0,0 0.4140183953862786,0.7076916437498346 l -23.100318047506125 13.248753258830156" fill="#d4ff1c" stroke="none" /><path d="M 118.73160827565052 90.50648371742162 l 14.476697293979013 -7.337050799690365 a37.22982066995,37.22982066995 0 0,0 0.28479037667465273,0.5741200212317576 l -14.600847683607075 7.086771189959658" fill="#ff9f0e" stroke="none" /><path d="M 118.89224826269711 90.83032412892265 l 25.52916939442121 -12.391019075632789 a49.377382608368734,49.377382608368734 0 0,0 0.3645504087127688,0.7678361326943661 l -25.738677996975735 11.949740527297882" fill="#beff1f" stroke="none" /><path d="M 119.04729006885535 91.15688171328212 l 36.3007735426326 -16.853422884641887 a61.022294071205685,61.022294071205685 0 0,0 0.4341233022771151,0.9565331513432567 l -36.58549916187306 16.22606772445657" fill="#39ff2e" stroke="none" /><path d="M 119.61058180528143 92.48833698450437 l 19.620657796283812 -7.515522536325184 a42.01078987931878,42.01078987931878 0 0,0 0.2528557654365835,0.677527739392739 l -19.74711815022202 7.1766716599031115" fill="#ffe115" stroke="none" /><path d="M 120.6074358757038 95.95851677861258 l 26.021868756263284 -5.1033494221168905 a47.51757584871611,47.51757584871611 0 0,0 0.1505046266255098,0.8040017335659193 l -26.105859106798654 4.6546696110884085" fill="#d5ff1c" stroke="none" /><path d="M 120.67395015179393 96.31383870115 l 26.07632378194554 -4.649403468400478 a47.48757472085417,47.48757472085417 0 0,0 0.1365564875386523,0.8059641194726659 l -26.152492131004415 4.199853560611974" fill="#d5ff1c" stroke="none" /><line stroke="#e1ed5e" stroke-width="0.3" x1="184.98032266829074" x2="189.97916517819016" y1="98.17113171792111" y2="98.06355123074" /><path d="M 185.9800911702706 98.14961562048488 a86.0,86.0 0 0,1 -9.607161424134198,41.387399972396054" fill="none" id="id52" stroke="none" /><text fill="#e1ed5e" style="font-size:6.75px; font-family:Arial;" text-anchor="middle"><textPath startOffset="21.466115282336823" xlink:href="#id52">April</textPath></text><path d="M 120.99980553446 99.90962569577887 l 15.960452223190472 -0.06868705342811256 a36.960600022557244,36.960600022557244 0 0,0 -0.002738081220794633,0.6362336470504343 l -15.959269844680174 -0.2060560718260065" fill="#ff9b0e" stroke="none" /><path d="M 120.9764740272857 100.99374915477107 l 13.471450862517521 0.6382027260993863 a34.48655964509944,34.48655964509944 0 0,0 -0.033195200750587246,0.5927226086762759 l -13.458469310879405 -0.8699970511110855" fill="#ff780b" stroke="none" /><path d="M 120.89721153311464 102.0752229133903 l 27.989436588440167 2.7795249164785876 a49.12711004173089,49.12711004173089 0 0,0 -0.09080958789164552,0.8407840021032704 l -27.93744469904747 -3.2609052404666494" fill="#c1ff1e" stroke="none" /><path d="M 120.49622156327973 104.57218783832717 l 27.701248206782118 6.179446771030343 a49.38211962855746,49.38211962855746 0 0,0 -0.19221269102800123,0.8280472422751298 l -27.59077494982356 -6.655362670654037" fill="#beff1f" stroke="none" /><path d="M 120.13307415673323 105.97154293290107 l 9.911496486999612 2.9397858638305436 a31.338283394112562,31.338283394112562 0 0,0 -0.15784530374822628,0.5158475855173563 l -9.859424410745254 -3.1099604218999573" fill="#ff4906" stroke="none" /><path d="M 120.02730092923936 106.31721596034902 l 60.08190278771807 18.951647881047055 a84.0,84.0 0 0,0 -0.4468309959350121,1.375204400088819 l -59.746779540766816 -19.98305118111367" fill="#4dd2ff" stroke="none" /><path d="M 119.41010516605496 108.01547362559984 l 20.710728401551233 8.552570727948073 a43.40715816384075,43.40715816384075 0 0,0 -0.2911359826955822,0.6881594629133593 l -20.560441437663343 -8.907804716527597" fill="#fff417" stroke="none" /><path d="M 119.26925614724726 108.34839909993367 l 26.45565492091143 11.461904084006083 a49.831873378698454,49.831873378698454 0 0,0 -0.34777644324717166,0.7841440692226979 l -26.25443739293299 -11.91559648972147" fill="#b8ff1f" stroke="none" /><line stroke="#e1ed5e" stroke-width="0.3" x1="174.80103733775053" x2="179.2010983576182" y1="140.37084112569926" y2="142.7455964860345" /><path d="M 175.68104954172406 140.8457921977663 a86.0,86.0 0 0,1 -30.038265399797805,32.042727171017184" fill="none" id="id53" stroke="none" /><text fill="#e1ed5e" style="font-size:6.75px; font-family:Arial;" text-anchor="middle"><textPath startOffset="22.206326154141568" xlink:href="#id53">May</textPath></text><path d="M 116.71984013943494 112.70617746262583 l 21.73199969399742 16.51514861546957 a48.29523666303244,48.29523666303244 0 0,0 -0.5086941481287037,0.6575557591175912 l -21.444498728650647 -16.886782368700413" fill="#cbff1d" stroke="none" /><path d="M 116.498646956653 112.99209946851258 l 15.842811422152913 12.475652239743043 a41.16523177563066,41.16523177563066 0 0,0 -0.4431772166943072,0.5529317194383614 l -15.625716293403752 -12.746511792759655" fill="#ffd614" stroke="none" /><path d="M 116.0416608686014 113.55231037782055 l 4.760813222179007 4.022028577108742 a27.232339561637655,27.232339561637655 0 0,0 -0.3055954666481871,0.35547656748830464 l -4.690875245960042 -4.103382243758575" fill="#ff0a01" stroke="none" /><path d="M 113.20401910651253 116.32954008644616 l 17.133438028556633 21.18909105243282 a48.249445467874736,48.249445467874736 0 0,0 -0.6503163819154621,0.5166506644659097 l -16.766164153923818 -21.480875630903853" fill="#ccff1d" stroke="none" /><path d="M 112.04921762599082 117.19931262002967 l 8.014691945215247 11.440343812999679 a34.96841986540848,34.96841986540848 0 0,0 -0.49595729107277703,0.3411239471798829 l -7.816577769519587 -11.576608549544655" fill="#ff7f0b" stroke="none" /><path d="M 111.45004920935366 117.60387380957326 l 7.238338939632393 11.128581454489812 a34.275499078912745,34.275499078912745 0 0,0 -0.49735087206039935,0.31743285789101705 l -7.045706265525063 -11.251528741204638" fill="#ff740a" stroke="none" /><line stroke="#e1ed5e" stroke-width="0.3" x1="143.8653032363475" x2="146.44561519142675" y1="172.8068346515853" y2="177.08958963109032" /><path d="M 144.38136562736335 173.6633856474863 a86.0,86.0 0 0,1 -40.68145358897372,12.25698825130547" fill="none" id="id54" stroke="none" /><text fill="#e1ed5e" style="font-size:6.75px; font-family:Arial;" text-anchor="middle"><textPath startOffset="21.466115282336833" xlink:href="#id54">June</textPath></text><path d="M 109.89434966115114 118.52300852407294 l 6.464799461547406 12.10261812384068 a34.721042144441526,34.721042144441526 0 0,0 -0.5295936034583607,0.2770583431899544 l -6.255514955562549 -12.212105885975351" fill="#ff7b0b" stroke="none" /><path d="M 107.59598834532513 119.57807347666477 l 7.090141232437955 18.27429159946392 a40.60152637317192,40.60152637317192 0 0,0 -0.6537421499693573,0.2471893426262765 l -6.774528861708323 -18.393629192196826" fill="#ffce13" stroke="none" /><path d="M 106.91757812671514 119.82793768551818 l 4.756577242687481 13.633834766553846 a35.439753374187,35.439753374187 0 0,0 -0.5777190589154403,0.1959936715212021 l -4.5211884508348135 -13.713691424973172" fill="#ff850c" stroke="none" /><path d="M 106.57524785965236 119.94407469862006 l 8.385239394235416 25.43415007526189 a47.780743636978826,47.780743636978826 0 0,0 -0.7833281023758895,0.25079692169459594 l -7.946189946768586 -25.57471984361619" fill="#d2ff1c" stroke="none" /><path d="M 106.2309692047433 120.05430185196036 l 5.7351278266198165 18.458442148463376 a40.328884544531746,40.328884544531746 0 0,0 -0.6647064854177346,0.20027061138591912 l -5.416546366761836 -18.55442812895502" fill="#ffca12" stroke="none" /><path d="M 104.13013068566511 120.58985236759428 l 3.796809362611818 18.92815268906868 a40.30519944358811,40.30519944358811 0 0,0 -0.6814119573152524,0.13059422339359517 l -3.4704297907248614 -18.990704110810743" fill="#ffca12" stroke="none" /><path d="M 103.7750983002368 120.6578951692458 l 4.974328431854577 27.220259476741223 a48.6710402646716,48.6710402646716 0 0,0 -0.8254400499899077,0.1435133332404671 l -4.505039410392619 -27.301851388502694" fill="#c7ff1e" stroke="none" /><line stroke="#e1ed5e" stroke-width="0.3" x1="102.19456741930631" x2="102.32365962044197" y1="184.97166512339345" y2="189.96999836594603" /><path d="M 102.22038585953345 185.97133177190398 a86.0,86.0 0 0,1 -42.740103519485714,-10.115201625700543" fill="none" id="id55" stroke="none" /><text fill="#e1ed5e" style="font-size:6.75px; font-family:Arial;" text-anchor="middle"><textPath startOffset="22.20632615414155" xlink:href="#id55">July</textPath></text><path d="M 100.54218724476979 120.99299961872073 l 0.1450711162459727 5.617022380030656 a26.61889544719726,26.61889544719726 0 0,0 -0.4581496107214108,0.00788746103446945 l -0.048361815631893915 -5.618687318344285" fill="#ff0000" stroke="none" /><path d="M 99.09653310690486 120.98055641714683 l -0.8895973623603783 20.6584743637989 a41.67761945937817,41.67761945937817 0 0,0 -0.7164818049979845,-0.03703392537159102 l 1.2450672357718517 -20.640100631665103" fill="#ffdd14" stroke="none" /><path d="M 98.73552117531835 120.96189622390904 l -1.73314588884176 28.73122392693463 a49.78345050565811,49.78345050565811 0 0,0 -0.8549412452028248,-0.05896175379844275 l 2.227449894823515 -28.6971338286199" fill="#b9ff1f" stroke="none" /><path d="M 98.01472825383883 120.90594882070398 l -1.4784859588596093 15.569229677406112 a36.63927215308846,36.63927215308846 0 0,0 -0.6273470452546195,-0.065027086307946 l 1.746265600719822 -15.541473222642406" fill="#ff970d" stroke="none" /><path d="M 94.81253420990036 120.34920634021253 l -3.9426872276370424 15.466233258487783 a36.9608631903455,36.9608631903455 0 0,0 -0.6151511869982277,-0.16246701950836714 l 4.208328857446759 -15.396074889675836" fill="#ff9b0e" stroke="none" /><path d="M 94.46302465271185 120.25689768951611 l -4.007796772861339 14.66243284395104 a36.20030828226625,36.20030828226625 0 0,0 -0.5996647122097538,-0.16947123755938637 l 4.259592653175707 -14.591272813053132" fill="#ff900d" stroke="none" /><path d="M 94.11515582081647 120.15858648285463 l -4.918823227228887 16.849473053290705 a38.55276514154667,38.55276514154667 0 0,0 -0.635432229524621,-0.19145051822570686 l 5.208130431193754 -16.76230716595927" fill="#ffb210" stroke="none" /><line stroke="#e1ed5e" stroke-width="0.3" x1="58.666819895761336" x2="56.23545636021788" y1="174.27360380694188" y2="178.64263932499728" /><path d="M 58.180547188652646 175.14741091055294 a86.0,86.0 0 0,1 -31.652253787137756,-30.449443065178592" fill="none" id="id56" stroke="none" /><text fill="#e1ed5e" style="font-size:6.75px; font-family:Arial;" text-anchor="middle"><textPath startOffset="22.20632615414155" xlink:href="#id56">August</textPath></text><line stroke="#e1ed5e" stroke-width="0.3" x1="26.63291911575756" x2="22.317208475507996" y1="142.92168965132927" y2="145.44649492493687" /><path d="M 25.769776987707644 143.4266507060508 a86.0,86.0 0 0,1 -11.730757126820373,-40.83630448921669" fill="none" id="id57" stroke="none" /><text fill="#e1ed5e" style="font-size:6.75px; font-family:Arial;" text-anchor="middle"><textPath startOffset="21.46611528233685" xlink:href="#id57">September</textPath></text><line stroke="#e1ed5e" stroke-width="0.3" x1="15.007084014347285" x2="10.007500721073583" y1="101.09737516637583" y2="101.16192664675087" /><path d="M 14.007167355692545 101.11028546245083 a86.0,86.0 0 0,1 10.666146001902534,-42.60595125391555" fill="none" id="id58" stroke="none" /><text fill="#e1ed5e" style="font-size:6.75px; font-family:Arial;" text-anchor="middle"><textPath startOffset="22.20632615414155" xlink:href="#id58">October</textPath></text><line stroke="#e1ed5e" stroke-width="0.3" x1="26.266209847984243" x2="21.928928074336255" y1="57.711370442889674" y2="55.22380399835377" /><path d="M 25.398753493254645 57.213857153982495 a86.0,86.0 0 0,1 29.58750427330803,-30.492523968695096" fill="none" id="id59" stroke="none" /><text fill="#e1ed5e" style="font-size:6.75px; font-family:Arial;" text-anchor="middle"><textPath startOffset="21.46611528233685" xlink:href="#id59">November</textPath></text><line stroke="#e1ed5e" stroke-width="0.3" x1="56.762969772571076" x2="54.21961505331055" y1="26.818313649435495" y2="22.513508569990535" /><path d="M 56.25429882871897 25.957352633546506 a86.0,86.0 0 0,1 42.265352541879196,-11.944610805530505" fill="none" id="id60" stroke="none" /><text fill="#e1ed5e" style="font-size:6.75px; font-family:Arial;" text-anchor="middle"><textPath startOffset="22.20632615414155" xlink:href="#id60">December</textPath></text></svg>